<svg xmlns="http://www.w3.org/2000/svg" xmlns:xlink="http://www.w3.org/1999/xlink" width="936.296" height="532" viewBox="0 0 936.296 532">
  <defs>
    <clipPath id="clip-path">
      <rect id="사각형_1045" data-name="사각형 1045" width="78.535" height="78.535" transform="translate(0 0)" fill="#fff"/>
    </clipPath>
  </defs>
  <g id="그룹_265" data-name="그룹 265" transform="translate(-10719.704 -7047)">
    <path id="패스_77" data-name="패스 77" d="M0,0H1V448H0Z" transform="translate(10748 7047)" fill="#8a8a8a"/>
    <path id="패스_85" data-name="패스 85" d="M0,0H908V1H0Z" transform="translate(10748 7494)" fill="#8a8a8a"/>
    <path id="패스_79" data-name="패스 79" d="M0,0H352V1H0Z" transform="translate(11164 7095)" fill="#e1e1e1"/>
    <path id="패스_82" data-name="패스 82" d="M0,0H201V1H0Z" transform="translate(11607 7187) rotate(90)" fill="#e1e1e1"/>
    <path id="패스_84" data-name="패스 84" d="M0,0H80V1H0Z" transform="translate(11526 7387)" fill="#e1e1e1"/>
    <path id="패스_78" data-name="패스 78" d="M0,0H1V9H0Z" transform="translate(11164 7091)" fill="#e1e1e1"/>
    <path id="패스_81" data-name="패스 81" d="M0,0H1V9H0Z" transform="translate(11611 7187) rotate(90)" fill="#e1e1e1"/>
    <path id="패스_83" data-name="패스 83" d="M0,0H1V9H0Z" transform="translate(11526 7383)" fill="#e1e1e1"/>
    <path id="패스_80" data-name="패스 80" d="M0,0H1V9H0Z" transform="translate(11515 7091)" fill="#e1e1e1"/>
    <path id="패스_72" data-name="패스 72" d="M-81.1,0V-11.2H-76.9a5.987,5.987,0,0,1,2.448.456A3.524,3.524,0,0,1-72.88-9.432a3.742,3.742,0,0,1,.552,2.072,3.682,3.682,0,0,1-.552,2.04A3.574,3.574,0,0,1-74.456-4a5.9,5.9,0,0,1-2.448.464H-80.44l.528-.56V0Zm1.184-4-.528-.576h3.5A3.893,3.893,0,0,0-74.384-5.3a2.529,2.529,0,0,0,.872-2.056,2.572,2.572,0,0,0-.872-2.08,3.863,3.863,0,0,0-2.552-.736h-3.5l.528-.56Zm15.2,4.1a6.358,6.358,0,0,1-2.344-.424,5.528,5.528,0,0,1-1.872-1.2A5.556,5.556,0,0,1-70.16-3.336,5.713,5.713,0,0,1-70.6-5.6a5.713,5.713,0,0,1,.44-2.264,5.556,5.556,0,0,1,1.232-1.808,5.546,5.546,0,0,1,1.864-1.2,6.34,6.34,0,0,1,2.352-.424,6.3,6.3,0,0,1,2.336.424A5.609,5.609,0,0,1-60.512-9.68,5.445,5.445,0,0,1-59.28-7.872,5.772,5.772,0,0,1-58.84-5.6a5.772,5.772,0,0,1-.44,2.272A5.445,5.445,0,0,1-60.512-1.52,5.609,5.609,0,0,1-62.376-.328,6.3,6.3,0,0,1-64.712.1Zm0-1.056A4.953,4.953,0,0,0-62.848-1.3,4.4,4.4,0,0,0-61.36-2.28a4.543,4.543,0,0,0,.984-1.472A4.735,4.735,0,0,0-60.024-5.6a4.735,4.735,0,0,0-.352-1.848A4.543,4.543,0,0,0-61.36-8.92,4.4,4.4,0,0,0-62.848-9.9a4.953,4.953,0,0,0-1.864-.344,5.015,5.015,0,0,0-1.872.344,4.381,4.381,0,0,0-1.5.976,4.652,4.652,0,0,0-.992,1.472,4.643,4.643,0,0,0-.36,1.848,4.66,4.66,0,0,0,.36,1.84,4.628,4.628,0,0,0,.992,1.48,4.381,4.381,0,0,0,1.5.976A5.015,5.015,0,0,0-64.712-.96ZM-53.976,0l-3.776-11.2h1.216L-53-.656h-.608L-49.96-11.2h1.088l3.6,10.544h-.576L-42.28-11.2h1.136L-44.92,0h-1.248l-3.44-10h.32L-52.744,0Zm16.048-6.192h5.92v1.008h-5.92Zm.128,5.168h6.736V0h-7.92V-11.2h7.68v1.024h-6.5ZM-28.28,0V-11.2h4.192a5.987,5.987,0,0,1,2.448.456,3.524,3.524,0,0,1,1.576,1.312,3.742,3.742,0,0,1,.552,2.072,3.682,3.682,0,0,1-.552,2.04A3.524,3.524,0,0,1-21.64-4.008a5.987,5.987,0,0,1-2.448.456h-3.536L-27.1-4.1V0Zm7.648,0-2.88-4.064h1.28L-19.336,0ZM-27.1-4l-.528-.56h3.5A3.863,3.863,0,0,0-21.568-5.3,2.553,2.553,0,0,0-20.7-7.36a2.572,2.572,0,0,0-.872-2.08,3.863,3.863,0,0,0-2.552-.736h-3.5l.528-.56Zm15.632-2.192h5.92v1.008h-5.92Zm.128,5.168H-4.6V0h-7.92V-11.2h7.68v1.024h-6.5ZM-.76-5.776H5.16v1.024H-.76ZM-.632,0H-1.816V-11.2h7.68v1.024h-6.5Zm10-5.776h5.92v1.024H9.368ZM9.5,0H8.312V-11.2h7.68v1.024H9.5ZM18.44,0V-11.2h1.184V0Zm9.7.1A6.3,6.3,0,0,1,25.8-.328,5.521,5.521,0,0,1,23.944-1.52,5.5,5.5,0,0,1,22.72-3.328,5.772,5.772,0,0,1,22.28-5.6a5.772,5.772,0,0,1,.44-2.272A5.445,5.445,0,0,1,23.952-9.68a5.609,5.609,0,0,1,1.864-1.192,6.3,6.3,0,0,1,2.336-.424,6.378,6.378,0,0,1,2.288.408,4.6,4.6,0,0,1,1.808,1.224l-.752.752a4.165,4.165,0,0,0-1.52-1.016,5.062,5.062,0,0,0-1.792-.312,5.015,5.015,0,0,0-1.872.344,4.467,4.467,0,0,0-1.5.976,4.587,4.587,0,0,0-1,1.472,4.643,4.643,0,0,0-.36,1.848,4.643,4.643,0,0,0,.36,1.848,4.587,4.587,0,0,0,1,1.472,4.467,4.467,0,0,0,1.5.976,5.015,5.015,0,0,0,1.872.344,4.949,4.949,0,0,0,1.792-.32A4.257,4.257,0,0,0,31.5-2.3l.752.752A4.669,4.669,0,0,1,30.44-.32,6.313,6.313,0,0,1,28.136.1Zm6.64-.1V-11.2H35.96V0Zm5.888-6.192h5.92v1.008h-5.92Zm.128,5.168h6.736V0h-7.92V-11.2h7.68v1.024h-6.5ZM50.312,0V-11.2h.976l7.728,9.728H58.5V-11.2h1.168V0H58.7L50.984-9.728H51.5V0ZM68.184.1a6.3,6.3,0,0,1-2.336-.424A5.521,5.521,0,0,1,63.992-1.52a5.5,5.5,0,0,1-1.224-1.808,5.772,5.772,0,0,1-.44-2.272,5.772,5.772,0,0,1,.44-2.272A5.445,5.445,0,0,1,64-9.68a5.609,5.609,0,0,1,1.864-1.192A6.3,6.3,0,0,1,68.2-11.3a6.378,6.378,0,0,1,2.288.408A4.6,4.6,0,0,1,72.3-9.664l-.752.752a4.165,4.165,0,0,0-1.52-1.016,5.062,5.062,0,0,0-1.792-.312A5.015,5.015,0,0,0,66.36-9.9a4.467,4.467,0,0,0-1.5.976,4.587,4.587,0,0,0-1,1.472A4.643,4.643,0,0,0,63.5-5.6a4.643,4.643,0,0,0,.36,1.848,4.587,4.587,0,0,0,1,1.472,4.467,4.467,0,0,0,1.5.976,5.015,5.015,0,0,0,1.872.344,4.949,4.949,0,0,0,1.792-.32A4.257,4.257,0,0,0,71.544-2.3l.752.752A4.669,4.669,0,0,1,70.488-.32,6.313,6.313,0,0,1,68.184.1ZM77.256,0V-4.16l.272.736L72.776-11.2H74.04l4.176,6.832h-.672L81.72-11.2H82.9L78.152-3.424l.272-.736V0Z" transform="translate(11218 7523)" fill="#8a8a8a"/>
    <path id="패스_68" data-name="패스 68" d="M-16.36-11.328a4.748,4.748,0,0,1,2.568.656,4.117,4.117,0,0,1,1.592,1.9,7.536,7.536,0,0,1,.544,3.032,7,7,0,0,1-.672,3.216A4.649,4.649,0,0,1-14.184-.544a5.513,5.513,0,0,1-2.768.672,7.025,7.025,0,0,1-1.512-.16,4.06,4.06,0,0,1-1.272-.5l.608-1.248a3.017,3.017,0,0,0,1,.408,5.448,5.448,0,0,0,1.16.12,3.549,3.549,0,0,0,2.7-1.064,4.435,4.435,0,0,0,1.008-3.16q0-.336-.032-.8a5.239,5.239,0,0,0-.144-.912l.528.544a2.848,2.848,0,0,1-.744,1.24,3.29,3.29,0,0,1-1.248.752,4.909,4.909,0,0,1-1.592.248,4.481,4.481,0,0,1-1.968-.416,3.289,3.289,0,0,1-1.36-1.176,3.219,3.219,0,0,1-.5-1.8,3.348,3.348,0,0,1,.52-1.88A3.434,3.434,0,0,1-18.368-10.9,4.6,4.6,0,0,1-16.36-11.328Zm.064,1.3a2.894,2.894,0,0,0-1.28.272,2.114,2.114,0,0,0-.872.752,2.067,2.067,0,0,0-.312,1.152,1.961,1.961,0,0,0,.688,1.576,2.774,2.774,0,0,0,1.856.584,3.02,3.02,0,0,0,1.352-.288,2.267,2.267,0,0,0,.912-.784,1.958,1.958,0,0,0,.328-1.1,1.962,1.962,0,0,0-.3-1.072,2.237,2.237,0,0,0-.9-.784A3.2,3.2,0,0,0-16.3-10.032ZM-5.752.128A6.274,6.274,0,0,1-8.1-.272,3.437,3.437,0,0,1-9.64-1.416a2.888,2.888,0,0,1-.544-1.752,2.74,2.74,0,0,1,.52-1.688A3.176,3.176,0,0,1-8.152-5.912a7.064,7.064,0,0,1,2.4-.36,7.135,7.135,0,0,1,2.408.36A3.2,3.2,0,0,1-1.816-4.848a2.72,2.72,0,0,1,.528,1.68,2.888,2.888,0,0,1-.544,1.752A3.429,3.429,0,0,1-3.384-.272,6.4,6.4,0,0,1-5.752.128Zm0-1.3a3.522,3.522,0,0,0,2.1-.552,1.753,1.753,0,0,0,.76-1.5,1.7,1.7,0,0,0-.76-1.464,3.6,3.6,0,0,0-2.1-.536,3.531,3.531,0,0,0-2.08.536,1.7,1.7,0,0,0-.752,1.464,1.759,1.759,0,0,0,.752,1.5A3.454,3.454,0,0,0-5.752-1.168Zm0-4.24a6.088,6.088,0,0,1-2.176-.344A2.992,2.992,0,0,1-9.3-6.744a2.522,2.522,0,0,1-.48-1.544,2.651,2.651,0,0,1,.5-1.624A3.2,3.2,0,0,1-7.864-10.96a5.615,5.615,0,0,1,2.112-.368,5.662,5.662,0,0,1,2.128.368A3.257,3.257,0,0,1-2.2-9.912a2.623,2.623,0,0,1,.512,1.624,2.522,2.522,0,0,1-.48,1.544,2.987,2.987,0,0,1-1.392.992A6.222,6.222,0,0,1-5.752-5.408Zm0-1.024a3.076,3.076,0,0,0,1.832-.48,1.533,1.533,0,0,0,.664-1.312,1.531,1.531,0,0,0-.688-1.328,3.1,3.1,0,0,0-1.808-.48,2.985,2.985,0,0,0-1.784.48A1.548,1.548,0,0,0-8.2-8.224a1.545,1.545,0,0,0,.648,1.312A2.971,2.971,0,0,0-5.752-6.432ZM4.76.128A4.2,4.2,0,0,1,2.416-.544,4.571,4.571,0,0,1,.784-2.5a7.274,7.274,0,0,1-.6-3.1,7.274,7.274,0,0,1,.6-3.1,4.571,4.571,0,0,1,1.632-1.952,4.2,4.2,0,0,1,2.344-.672,4.212,4.212,0,0,1,2.336.672A4.5,4.5,0,0,1,8.728-8.7,7.359,7.359,0,0,1,9.32-5.6a7.359,7.359,0,0,1-.592,3.1A4.5,4.5,0,0,1,7.1-.544,4.212,4.212,0,0,1,4.76.128Zm0-1.424A2.566,2.566,0,0,0,6.3-1.776a3.119,3.119,0,0,0,1.04-1.44A6.575,6.575,0,0,0,7.72-5.6a6.575,6.575,0,0,0-.376-2.384A3.119,3.119,0,0,0,6.3-9.424,2.566,2.566,0,0,0,4.76-9.9a2.6,2.6,0,0,0-1.552.48A3.094,3.094,0,0,0,2.16-7.984,6.575,6.575,0,0,0,1.784-5.6,6.575,6.575,0,0,0,2.16-3.216a3.094,3.094,0,0,0,1.048,1.44A2.6,2.6,0,0,0,4.76-1.3ZM15.432.128a4.2,4.2,0,0,1-2.344-.672A4.571,4.571,0,0,1,11.456-2.5a7.274,7.274,0,0,1-.6-3.1,7.274,7.274,0,0,1,.6-3.1,4.571,4.571,0,0,1,1.632-1.952,4.2,4.2,0,0,1,2.344-.672,4.212,4.212,0,0,1,2.336.672A4.5,4.5,0,0,1,19.4-8.7a7.359,7.359,0,0,1,.592,3.1A7.359,7.359,0,0,1,19.4-2.5,4.5,4.5,0,0,1,17.768-.544,4.212,4.212,0,0,1,15.432.128Zm0-1.424a2.566,2.566,0,0,0,1.544-.48,3.119,3.119,0,0,0,1.04-1.44A6.575,6.575,0,0,0,18.392-5.6a6.575,6.575,0,0,0-.376-2.384,3.119,3.119,0,0,0-1.04-1.44,2.566,2.566,0,0,0-1.544-.48,2.6,2.6,0,0,0-1.552.48,3.094,3.094,0,0,0-1.048,1.44A6.575,6.575,0,0,0,12.456-5.6a6.575,6.575,0,0,0,.376,2.384,3.094,3.094,0,0,0,1.048,1.44A2.6,2.6,0,0,0,15.432-1.3Z" transform="translate(10812 7430)" fill="#8a8a8a"/>
    <path id="패스_67" data-name="패스 67" d="M-13.216.128a7.261,7.261,0,0,1-2.3-.368,5.131,5.131,0,0,1-1.816-.992l.736-1.264a4.287,4.287,0,0,0,1.456.864,5.423,5.423,0,0,0,1.92.336,3.12,3.12,0,0,0,1.944-.536,1.732,1.732,0,0,0,.7-1.448A1.73,1.73,0,0,0-11.24-4.7a3.34,3.34,0,0,0-2.1-.536h-.9v-1.12l3.328-4.1.224.64h-6.128V-11.2h7.392v1.088l-3.312,4.08-.832-.5h.528a4.439,4.439,0,0,1,3.048.912A2.98,2.98,0,0,1-8.976-3.3,3.33,3.33,0,0,1-9.44-1.568a3.2,3.2,0,0,1-1.4,1.24A5.422,5.422,0,0,1-13.216.128Zm9.072,0A7.261,7.261,0,0,1-6.44-.24a5.131,5.131,0,0,1-1.816-.992L-7.52-2.5a4.287,4.287,0,0,0,1.456.864,5.423,5.423,0,0,0,1.92.336A3.12,3.12,0,0,0-2.2-1.832,1.732,1.732,0,0,0-1.5-3.28,1.73,1.73,0,0,0-2.168-4.7a3.34,3.34,0,0,0-2.1-.536h-.9v-1.12l3.328-4.1.224.64H-7.744V-11.2H-.352v1.088l-3.312,4.08-.832-.5h.528A4.439,4.439,0,0,1-.92-5.616,2.98,2.98,0,0,1,.1-3.3,3.33,3.33,0,0,1-.368-1.568a3.2,3.2,0,0,1-1.4,1.24A5.422,5.422,0,0,1-4.144.128ZM3.472,0V-10.56l.688.752H.944V-11.2H5.056V0ZM12.08.128A4.2,4.2,0,0,1,9.736-.544,4.571,4.571,0,0,1,8.1-2.5a7.274,7.274,0,0,1-.6-3.1,7.274,7.274,0,0,1,.6-3.1,4.571,4.571,0,0,1,1.632-1.952,4.2,4.2,0,0,1,2.344-.672,4.212,4.212,0,0,1,2.336.672A4.5,4.5,0,0,1,16.048-8.7a7.359,7.359,0,0,1,.592,3.1,7.359,7.359,0,0,1-.592,3.1A4.5,4.5,0,0,1,14.416-.544,4.212,4.212,0,0,1,12.08.128Zm0-1.424a2.566,2.566,0,0,0,1.544-.48,3.119,3.119,0,0,0,1.04-1.44A6.575,6.575,0,0,0,15.04-5.6a6.575,6.575,0,0,0-.376-2.384,3.119,3.119,0,0,0-1.04-1.44A2.566,2.566,0,0,0,12.08-9.9a2.6,2.6,0,0,0-1.552.48A3.094,3.094,0,0,0,9.48-7.984,6.575,6.575,0,0,0,9.1-5.6,6.575,6.575,0,0,0,9.48-3.216a3.094,3.094,0,0,0,1.048,1.44A2.6,2.6,0,0,0,12.08-1.3Z" transform="translate(10812 7331)" fill="#8a8a8a"/>
    <path id="패스_66" data-name="패스 66" d="M-15.624.128a7.261,7.261,0,0,1-2.3-.368,5.131,5.131,0,0,1-1.816-.992L-19-2.5a4.287,4.287,0,0,0,1.456.864,5.423,5.423,0,0,0,1.92.336,3.12,3.12,0,0,0,1.944-.536,1.732,1.732,0,0,0,.7-1.448A1.73,1.73,0,0,0-13.648-4.7a3.34,3.34,0,0,0-2.1-.536h-.9v-1.12l3.328-4.1.224.64h-6.128V-11.2h7.392v1.088l-3.312,4.08-.832-.5h.528a4.439,4.439,0,0,1,3.048.912A2.98,2.98,0,0,1-11.384-3.3a3.33,3.33,0,0,1-.464,1.728,3.2,3.2,0,0,1-1.4,1.24A5.422,5.422,0,0,1-15.624.128Zm9.36-11.456a4.748,4.748,0,0,1,2.568.656A4.117,4.117,0,0,1-2.1-8.776,7.536,7.536,0,0,1-1.56-5.744a7,7,0,0,1-.672,3.216A4.649,4.649,0,0,1-4.088-.544,5.513,5.513,0,0,1-6.856.128a7.025,7.025,0,0,1-1.512-.16,4.06,4.06,0,0,1-1.272-.5l.608-1.248a3.017,3.017,0,0,0,1,.408,5.448,5.448,0,0,0,1.16.12,3.549,3.549,0,0,0,2.7-1.064A4.435,4.435,0,0,0-3.16-5.472q0-.336-.032-.8a5.239,5.239,0,0,0-.144-.912l.528.544A2.848,2.848,0,0,1-3.552-5.4,3.29,3.29,0,0,1-4.8-4.648,4.909,4.909,0,0,1-6.392-4.4,4.481,4.481,0,0,1-8.36-4.816,3.289,3.289,0,0,1-9.72-5.992a3.219,3.219,0,0,1-.5-1.8,3.348,3.348,0,0,1,.52-1.88A3.434,3.434,0,0,1-8.272-10.9,4.6,4.6,0,0,1-6.264-11.328Zm.064,1.3a2.894,2.894,0,0,0-1.28.272,2.114,2.114,0,0,0-.872.752,2.067,2.067,0,0,0-.312,1.152A1.961,1.961,0,0,0-7.976-6.28,2.774,2.774,0,0,0-6.12-5.7a3.02,3.02,0,0,0,1.352-.288,2.267,2.267,0,0,0,.912-.784,1.958,1.958,0,0,0,.328-1.1,1.962,1.962,0,0,0-.3-1.072,2.237,2.237,0,0,0-.9-.784A3.2,3.2,0,0,0-6.2-10.032ZM4.344.128a6.274,6.274,0,0,1-2.352-.4A3.437,3.437,0,0,1,.456-1.416,2.888,2.888,0,0,1-.088-3.168a2.74,2.74,0,0,1,.52-1.688A3.176,3.176,0,0,1,1.944-5.912a7.064,7.064,0,0,1,2.4-.36,7.135,7.135,0,0,1,2.408.36A3.2,3.2,0,0,1,8.28-4.848a2.721,2.721,0,0,1,.528,1.68,2.888,2.888,0,0,1-.544,1.752A3.429,3.429,0,0,1,6.712-.272,6.4,6.4,0,0,1,4.344.128Zm0-1.3a3.522,3.522,0,0,0,2.1-.552,1.753,1.753,0,0,0,.76-1.5,1.7,1.7,0,0,0-.76-1.464,3.6,3.6,0,0,0-2.1-.536,3.531,3.531,0,0,0-2.08.536,1.7,1.7,0,0,0-.752,1.464,1.759,1.759,0,0,0,.752,1.5A3.454,3.454,0,0,0,4.344-1.168Zm0-4.24a6.088,6.088,0,0,1-2.176-.344A2.992,2.992,0,0,1,.792-6.744a2.522,2.522,0,0,1-.48-1.544,2.651,2.651,0,0,1,.5-1.624A3.2,3.2,0,0,1,2.232-10.96a5.615,5.615,0,0,1,2.112-.368,5.662,5.662,0,0,1,2.128.368A3.257,3.257,0,0,1,7.9-9.912a2.623,2.623,0,0,1,.512,1.624,2.522,2.522,0,0,1-.48,1.544,2.987,2.987,0,0,1-1.392.992A6.222,6.222,0,0,1,4.344-5.408Zm0-1.024a3.076,3.076,0,0,0,1.832-.48A1.533,1.533,0,0,0,6.84-8.224a1.531,1.531,0,0,0-.688-1.328,3.1,3.1,0,0,0-1.808-.48,2.985,2.985,0,0,0-1.784.48A1.548,1.548,0,0,0,1.9-8.224a1.545,1.545,0,0,0,.648,1.312A2.971,2.971,0,0,0,4.344-6.432Zm10.3,6.56a6.274,6.274,0,0,1-2.352-.4A3.437,3.437,0,0,1,10.76-1.416a2.888,2.888,0,0,1-.544-1.752,2.74,2.74,0,0,1,.52-1.688,3.176,3.176,0,0,1,1.512-1.056,7.064,7.064,0,0,1,2.4-.36,7.135,7.135,0,0,1,2.408.36,3.2,3.2,0,0,1,1.528,1.064,2.721,2.721,0,0,1,.528,1.68,2.888,2.888,0,0,1-.544,1.752A3.429,3.429,0,0,1,17.016-.272,6.4,6.4,0,0,1,14.648.128Zm0-1.3a3.522,3.522,0,0,0,2.1-.552,1.753,1.753,0,0,0,.76-1.5,1.7,1.7,0,0,0-.76-1.464,3.6,3.6,0,0,0-2.1-.536,3.531,3.531,0,0,0-2.08.536,1.7,1.7,0,0,0-.752,1.464,1.759,1.759,0,0,0,.752,1.5A3.454,3.454,0,0,0,14.648-1.168Zm0-4.24a6.088,6.088,0,0,1-2.176-.344A2.992,2.992,0,0,1,11.1-6.744a2.522,2.522,0,0,1-.48-1.544,2.651,2.651,0,0,1,.5-1.624,3.2,3.2,0,0,1,1.416-1.048,5.615,5.615,0,0,1,2.112-.368,5.662,5.662,0,0,1,2.128.368A3.257,3.257,0,0,1,18.2-9.912a2.623,2.623,0,0,1,.512,1.624,2.522,2.522,0,0,1-.48,1.544,2.987,2.987,0,0,1-1.392.992A6.222,6.222,0,0,1,14.648-5.408Zm0-1.024a3.076,3.076,0,0,0,1.832-.48,1.533,1.533,0,0,0,.664-1.312,1.531,1.531,0,0,0-.688-1.328,3.1,3.1,0,0,0-1.808-.48,2.985,2.985,0,0,0-1.784.48A1.548,1.548,0,0,0,12.2-8.224a1.545,1.545,0,0,0,.648,1.312A2.971,2.971,0,0,0,14.648-6.432Z" transform="translate(10812 7232)" fill="#8a8a8a"/>
    <path id="패스_65" data-name="패스 65" d="M-15.008.128A7.261,7.261,0,0,1-17.3-.24a5.131,5.131,0,0,1-1.816-.992l.736-1.264a4.287,4.287,0,0,0,1.456.864,5.423,5.423,0,0,0,1.92.336,3.12,3.12,0,0,0,1.944-.536,1.732,1.732,0,0,0,.7-1.448A1.73,1.73,0,0,0-13.032-4.7a3.34,3.34,0,0,0-2.1-.536h-.9v-1.12l3.328-4.1.224.64h-6.128V-11.2h7.392v1.088l-3.312,4.08-.832-.5h.528a4.439,4.439,0,0,1,3.048.912A2.98,2.98,0,0,1-10.768-3.3a3.33,3.33,0,0,1-.464,1.728,3.2,3.2,0,0,1-1.4,1.24A5.422,5.422,0,0,1-15.008.128Zm9.072,0a7.261,7.261,0,0,1-2.3-.368,5.131,5.131,0,0,1-1.816-.992L-9.312-2.5a4.287,4.287,0,0,0,1.456.864,5.423,5.423,0,0,0,1.92.336,3.12,3.12,0,0,0,1.944-.536A1.732,1.732,0,0,0-3.3-3.28,1.73,1.73,0,0,0-3.96-4.7a3.34,3.34,0,0,0-2.1-.536h-.9v-1.12l3.328-4.1.224.64H-9.536V-11.2h7.392v1.088l-3.312,4.08-.832-.5h.528a4.439,4.439,0,0,1,3.048.912A2.98,2.98,0,0,1-1.7-3.3,3.33,3.33,0,0,1-2.16-1.568a3.2,3.2,0,0,1-1.4,1.24A5.422,5.422,0,0,1-5.936.128Zm10.1,0a6.274,6.274,0,0,1-2.352-.4A3.437,3.437,0,0,1,.272-1.416,2.888,2.888,0,0,1-.272-3.168a2.74,2.74,0,0,1,.52-1.688A3.176,3.176,0,0,1,1.76-5.912a7.064,7.064,0,0,1,2.4-.36,7.135,7.135,0,0,1,2.408.36A3.2,3.2,0,0,1,8.1-4.848a2.721,2.721,0,0,1,.528,1.68A2.888,2.888,0,0,1,8.08-1.416,3.429,3.429,0,0,1,6.528-.272,6.4,6.4,0,0,1,4.16.128Zm0-1.3a3.522,3.522,0,0,0,2.1-.552,1.753,1.753,0,0,0,.76-1.5,1.7,1.7,0,0,0-.76-1.464,3.6,3.6,0,0,0-2.1-.536,3.531,3.531,0,0,0-2.08.536,1.7,1.7,0,0,0-.752,1.464,1.759,1.759,0,0,0,.752,1.5A3.454,3.454,0,0,0,4.16-1.168Zm0-4.24a6.088,6.088,0,0,1-2.176-.344A2.992,2.992,0,0,1,.608-6.744a2.522,2.522,0,0,1-.48-1.544,2.651,2.651,0,0,1,.5-1.624A3.2,3.2,0,0,1,2.048-10.96a5.615,5.615,0,0,1,2.112-.368,5.662,5.662,0,0,1,2.128.368A3.257,3.257,0,0,1,7.712-9.912a2.623,2.623,0,0,1,.512,1.624,2.522,2.522,0,0,1-.48,1.544,2.987,2.987,0,0,1-1.392.992A6.222,6.222,0,0,1,4.16-5.408Zm0-1.024a3.076,3.076,0,0,0,1.832-.48,1.533,1.533,0,0,0,.664-1.312,1.531,1.531,0,0,0-.688-1.328,3.1,3.1,0,0,0-1.808-.48,2.985,2.985,0,0,0-1.784.48,1.548,1.548,0,0,0-.664,1.328A1.545,1.545,0,0,0,2.36-6.912,2.971,2.971,0,0,0,4.16-6.432Zm9.568-4.9a4.748,4.748,0,0,1,2.568.656,4.117,4.117,0,0,1,1.592,1.9,7.536,7.536,0,0,1,.544,3.032,7,7,0,0,1-.672,3.216A4.649,4.649,0,0,1,15.9-.544a5.513,5.513,0,0,1-2.768.672,7.025,7.025,0,0,1-1.512-.16,4.06,4.06,0,0,1-1.272-.5l.608-1.248a3.017,3.017,0,0,0,1,.408,5.448,5.448,0,0,0,1.16.12,3.549,3.549,0,0,0,2.7-1.064,4.435,4.435,0,0,0,1.008-3.16q0-.336-.032-.8a5.239,5.239,0,0,0-.144-.912l.528.544A2.848,2.848,0,0,1,16.44-5.4a3.29,3.29,0,0,1-1.248.752A4.909,4.909,0,0,1,13.6-4.4a4.481,4.481,0,0,1-1.968-.416,3.289,3.289,0,0,1-1.36-1.176,3.219,3.219,0,0,1-.5-1.8,3.348,3.348,0,0,1,.52-1.88A3.434,3.434,0,0,1,11.72-10.9,4.6,4.6,0,0,1,13.728-11.328Zm.064,1.3a2.894,2.894,0,0,0-1.28.272,2.114,2.114,0,0,0-.872.752,2.067,2.067,0,0,0-.312,1.152,1.961,1.961,0,0,0,.688,1.576,2.774,2.774,0,0,0,1.856.584,3.02,3.02,0,0,0,1.352-.288,2.267,2.267,0,0,0,.912-.784,1.958,1.958,0,0,0,.328-1.1,1.962,1.962,0,0,0-.3-1.072,2.237,2.237,0,0,0-.9-.784A3.2,3.2,0,0,0,13.792-10.032Z" transform="translate(10912 7137)" fill="#8a8a8a"/>
    <path id="패스_63" data-name="패스 63" d="M-13.008,0V-9.808h-3.84V-11.2h9.264v1.392h-3.84V0ZM-5.84,0V-11.2h1.312L.5-2.736h-.7L4.752-11.2H6.064L6.08,0H4.544L4.528-8.784H4.9L.48-1.36H-.256L-4.7-8.784h.4V0ZM11.952.128a7.261,7.261,0,0,1-2.3-.368A5.131,5.131,0,0,1,7.84-1.232L8.576-2.5a4.287,4.287,0,0,0,1.456.864,5.423,5.423,0,0,0,1.92.336A3.12,3.12,0,0,0,13.9-1.832a1.732,1.732,0,0,0,.7-1.448A1.73,1.73,0,0,0,13.928-4.7a3.34,3.34,0,0,0-2.1-.536h-.9v-1.12l3.328-4.1.224.64H8.352V-11.2h7.392v1.088l-3.312,4.08-.832-.5h.528a4.439,4.439,0,0,1,3.048.912A2.98,2.98,0,0,1,16.192-3.3a3.33,3.33,0,0,1-.464,1.728,3.2,3.2,0,0,1-1.4,1.24A5.422,5.422,0,0,1,11.952.128Z" transform="translate(11007 7137)" fill="#8a8a8a"/>
    <path id="패스_64" data-name="패스 64" d="M-39.592,0V-11.2h4.368a6.142,6.142,0,0,1,2.512.464,3.557,3.557,0,0,1,1.6,1.344,3.821,3.821,0,0,1,.56,2.1,3.781,3.781,0,0,1-.56,2.088,3.624,3.624,0,0,1-1.6,1.344,6.051,6.051,0,0,1-2.512.472h-3.488l.72-.752V0Zm1.6-3.984-.72-.8h3.44a3.574,3.574,0,0,0,2.328-.656A2.275,2.275,0,0,0-32.152-7.3a2.275,2.275,0,0,0-.792-1.856,3.574,3.574,0,0,0-2.328-.656h-3.44l.72-.8ZM-28.2,0V-11.2h1.312l5.024,8.464h-.7l4.96-8.464H-16.3L-16.28,0h-1.536l-.016-8.784h.368L-21.88-1.36h-.736l-4.448-7.424h.4V0Zm17.744,0L-14.2-11.2h1.648L-9.112-.864h-.832L-6.376-11.2H-4.9L-1.416-.864h-.8L1.272-11.2h1.52L-.952,0h-1.68L-5.9-9.584h.432L-8.744,0ZM7.5.128A7.261,7.261,0,0,1,5.2-.24a5.131,5.131,0,0,1-1.816-.992L4.12-2.5a4.287,4.287,0,0,0,1.456.864A5.423,5.423,0,0,0,7.5-1.3,3.12,3.12,0,0,0,9.44-1.832a1.732,1.732,0,0,0,.7-1.448A1.73,1.73,0,0,0,9.472-4.7a3.34,3.34,0,0,0-2.1-.536h-.9v-1.12l3.328-4.1.224.64H3.9V-11.2h7.392v1.088L7.976-6.032l-.832-.5h.528a4.439,4.439,0,0,1,3.048.912A2.98,2.98,0,0,1,11.736-3.3a3.33,3.33,0,0,1-.464,1.728,3.2,3.2,0,0,1-1.4,1.24A5.422,5.422,0,0,1,7.5.128Zm9.072,0a7.261,7.261,0,0,1-2.3-.368,5.131,5.131,0,0,1-1.816-.992L13.192-2.5a4.287,4.287,0,0,0,1.456.864,5.423,5.423,0,0,0,1.92.336,3.12,3.12,0,0,0,1.944-.536,1.732,1.732,0,0,0,.7-1.448A1.73,1.73,0,0,0,18.544-4.7a3.34,3.34,0,0,0-2.1-.536h-.9v-1.12l3.328-4.1.224.64H12.968V-11.2H20.36v1.088l-3.312,4.08-.832-.5h.528a4.439,4.439,0,0,1,3.048.912A2.98,2.98,0,0,1,20.808-3.3a3.33,3.33,0,0,1-.464,1.728,3.2,3.2,0,0,1-1.4,1.24A5.422,5.422,0,0,1,16.568.128ZM27,.128a4.727,4.727,0,0,1-2.544-.656,4.148,4.148,0,0,1-1.608-1.9A7.44,7.44,0,0,1,22.3-5.456a7,7,0,0,1,.672-3.216,4.62,4.62,0,0,1,1.872-1.984,5.536,5.536,0,0,1,2.752-.672,7.1,7.1,0,0,1,1.528.16,3.867,3.867,0,0,1,1.256.5l-.608,1.248a2.58,2.58,0,0,0-.984-.416,5.823,5.823,0,0,0-1.16-.112A3.569,3.569,0,0,0,24.9-8.888,4.435,4.435,0,0,0,23.9-5.728q0,.336.032.8a4.417,4.417,0,0,0,.16.912l-.544-.544A2.982,2.982,0,0,1,24.3-5.8a3.29,3.29,0,0,1,1.248-.752A4.857,4.857,0,0,1,27.128-6.8a4.52,4.52,0,0,1,1.984.416,3.289,3.289,0,0,1,1.36,1.176,3.219,3.219,0,0,1,.5,1.8,3.32,3.32,0,0,1-.528,1.872A3.48,3.48,0,0,1,29.016-.3,4.583,4.583,0,0,1,27,.128Zm-.064-1.3a2.881,2.881,0,0,0,1.288-.272A2.161,2.161,0,0,0,29.1-2.2a2.039,2.039,0,0,0,.32-1.144,1.961,1.961,0,0,0-.688-1.576A2.8,2.8,0,0,0,26.856-5.5a2.969,2.969,0,0,0-1.344.288,2.3,2.3,0,0,0-.9.776,1.947,1.947,0,0,0-.328,1.112,1.974,1.974,0,0,0,.3,1.064,2.214,2.214,0,0,0,.9.792A3.162,3.162,0,0,0,26.936-1.168Zm9.936,1.3a4.727,4.727,0,0,1-2.544-.656,4.148,4.148,0,0,1-1.608-1.9,7.44,7.44,0,0,1-.552-3.032,7,7,0,0,1,.672-3.216,4.62,4.62,0,0,1,1.872-1.984,5.536,5.536,0,0,1,2.752-.672,7.1,7.1,0,0,1,1.528.16,3.867,3.867,0,0,1,1.256.5L39.64-9.424a2.58,2.58,0,0,0-.984-.416,5.823,5.823,0,0,0-1.16-.112,3.569,3.569,0,0,0-2.72,1.064,4.435,4.435,0,0,0-1.008,3.16q0,.336.032.8a4.417,4.417,0,0,0,.16.912l-.544-.544a2.982,2.982,0,0,1,.76-1.24,3.29,3.29,0,0,1,1.248-.752A4.857,4.857,0,0,1,37-6.8a4.52,4.52,0,0,1,1.984.416,3.289,3.289,0,0,1,1.36,1.176,3.219,3.219,0,0,1,.5,1.8,3.32,3.32,0,0,1-.528,1.872A3.48,3.48,0,0,1,38.888-.3,4.583,4.583,0,0,1,36.872.128Zm-.064-1.3A2.881,2.881,0,0,0,38.1-1.44a2.161,2.161,0,0,0,.872-.76,2.039,2.039,0,0,0,.32-1.144A1.961,1.961,0,0,0,38.6-4.92,2.8,2.8,0,0,0,36.728-5.5a2.969,2.969,0,0,0-1.344.288,2.3,2.3,0,0,0-.9.776,1.947,1.947,0,0,0-.328,1.112,1.974,1.974,0,0,0,.3,1.064,2.214,2.214,0,0,0,.9.792A3.162,3.162,0,0,0,36.808-1.168Z" transform="translate(11102 7137)" fill="#8a8a8a"/>
    <path id="패스_62" data-name="패스 62" d="M-9.976,0V-10.56l.688.752H-12.5V-11.2h4.112V0Zm8.608.128A4.2,4.2,0,0,1-3.712-.544,4.571,4.571,0,0,1-5.344-2.5a7.274,7.274,0,0,1-.6-3.1,7.274,7.274,0,0,1,.6-3.1,4.571,4.571,0,0,1,1.632-1.952,4.2,4.2,0,0,1,2.344-.672,4.212,4.212,0,0,1,2.336.672A4.5,4.5,0,0,1,2.6-8.7a7.359,7.359,0,0,1,.592,3.1A7.359,7.359,0,0,1,2.6-2.5,4.5,4.5,0,0,1,.968-.544,4.212,4.212,0,0,1-1.368.128Zm0-1.424a2.566,2.566,0,0,0,1.544-.48,3.119,3.119,0,0,0,1.04-1.44A6.575,6.575,0,0,0,1.592-5.6a6.575,6.575,0,0,0-.376-2.384,3.119,3.119,0,0,0-1.04-1.44A2.566,2.566,0,0,0-1.368-9.9a2.6,2.6,0,0,0-1.552.48,3.094,3.094,0,0,0-1.048,1.44A6.575,6.575,0,0,0-4.344-5.6a6.575,6.575,0,0,0,.376,2.384A3.094,3.094,0,0,0-2.92-1.776,2.6,2.6,0,0,0-1.368-1.3ZM4.024,0,7.672-4.736l-.016.784L4.184-8.48H5.9L8.552-4.992H7.9L10.552-8.48h1.68L8.712-3.92l.016-.816L12.408,0H10.664l-2.8-3.712.624.1L5.736,0Z" transform="translate(11340 7121)" fill="#8a8a8a"/>
    <path id="패스_70" data-name="패스 70" d="M-9.056-2.752v-1.12L-3.328-11.2H-1.6L-7.28-3.872-8.1-4.128H.848v1.376ZM-2.832,0V-2.752l.048-1.376V-6.56h1.5V0ZM1.056,0,4.7-4.736l-.016.784L1.216-8.48H2.928L5.584-4.992H4.928L7.584-8.48h1.68L5.744-3.92l.016-.816L9.44,0H7.7L4.9-3.712l.624.1L2.768,0Z" transform="translate(11627 7298)" fill="#8a8a8a"/>
    <path id="패스_71" data-name="패스 71" d="M-4.7.128a7.261,7.261,0,0,1-2.3-.368,5.131,5.131,0,0,1-1.816-.992L-8.072-2.5a4.287,4.287,0,0,0,1.456.864A5.423,5.423,0,0,0-4.7-1.3a3.12,3.12,0,0,0,1.944-.536,1.732,1.732,0,0,0,.7-1.448A1.73,1.73,0,0,0-2.72-4.7a3.34,3.34,0,0,0-2.1-.536h-.9v-1.12l3.328-4.1.224.64H-8.3V-11.2H-.9v1.088l-3.312,4.08-.832-.5h.528a4.439,4.439,0,0,1,3.048.912A2.98,2.98,0,0,1-.456-3.3,3.33,3.33,0,0,1-.92-1.568a3.2,3.2,0,0,1-1.4,1.24A5.422,5.422,0,0,1-4.7.128ZM.28,0,3.928-4.736l-.016.784L.44-8.48H2.152L4.808-4.992H4.152L6.808-8.48h1.68L4.968-3.92l.016-.816L8.664,0H6.92L4.12-3.712l.624.1L1.992,0Z" transform="translate(11566 7413)" fill="#8a8a8a"/>
    <path id="패스_69" data-name="패스 69" d="M-50.36,0V-11.2h1.312l5.024,8.464h-.7l4.96-8.464h1.312L-38.44,0h-1.536l-.016-8.784h.368L-44.04-1.36h-.736l-4.448-7.424h.4V0Zm18.944.128A4.2,4.2,0,0,1-33.76-.544,4.571,4.571,0,0,1-35.392-2.5a7.274,7.274,0,0,1-.6-3.1,7.274,7.274,0,0,1,.6-3.1,4.571,4.571,0,0,1,1.632-1.952,4.2,4.2,0,0,1,2.344-.672,4.212,4.212,0,0,1,2.336.672A4.5,4.5,0,0,1-27.448-8.7a7.359,7.359,0,0,1,.592,3.1,7.359,7.359,0,0,1-.592,3.1A4.5,4.5,0,0,1-29.08-.544,4.212,4.212,0,0,1-31.416.128Zm0-1.424a2.566,2.566,0,0,0,1.544-.48,3.119,3.119,0,0,0,1.04-1.44A6.575,6.575,0,0,0-28.456-5.6a6.575,6.575,0,0,0-.376-2.384,3.119,3.119,0,0,0-1.04-1.44,2.566,2.566,0,0,0-1.544-.48,2.6,2.6,0,0,0-1.552.48,3.094,3.094,0,0,0-1.048,1.44A6.575,6.575,0,0,0-34.392-5.6a6.575,6.575,0,0,0,.376,2.384,3.094,3.094,0,0,0,1.048,1.44A2.6,2.6,0,0,0-31.416-1.3ZM-23.432,0V-10.56l.688.752H-25.96V-11.2h4.112V0Zm8.608.128a4.2,4.2,0,0,1-2.344-.672A4.571,4.571,0,0,1-18.8-2.5a7.274,7.274,0,0,1-.6-3.1,7.274,7.274,0,0,1,.6-3.1,4.571,4.571,0,0,1,1.632-1.952,4.2,4.2,0,0,1,2.344-.672,4.212,4.212,0,0,1,2.336.672A4.5,4.5,0,0,1-10.856-8.7a7.359,7.359,0,0,1,.592,3.1,7.359,7.359,0,0,1-.592,3.1A4.5,4.5,0,0,1-12.488-.544,4.212,4.212,0,0,1-14.824.128Zm0-1.424a2.566,2.566,0,0,0,1.544-.48,3.119,3.119,0,0,0,1.04-1.44A6.575,6.575,0,0,0-11.864-5.6a6.575,6.575,0,0,0-.376-2.384,3.119,3.119,0,0,0-1.04-1.44,2.566,2.566,0,0,0-1.544-.48,2.6,2.6,0,0,0-1.552.48,3.094,3.094,0,0,0-1.048,1.44A6.575,6.575,0,0,0-17.8-5.6a6.575,6.575,0,0,0,.376,2.384,3.094,3.094,0,0,0,1.048,1.44A2.6,2.6,0,0,0-14.824-1.3ZM-5.64,1.6-.36-13.472H1.032L-4.248,1.6ZM6.424,0V-11.2H7.736L12.76-2.736h-.7l4.96-8.464h1.312L18.344,0H16.808l-.016-8.784h.368L12.744-1.36h-.736L7.56-8.784h.4V0ZM25.368.128a4.2,4.2,0,0,1-2.344-.672A4.571,4.571,0,0,1,21.392-2.5a7.274,7.274,0,0,1-.6-3.1,7.274,7.274,0,0,1,.6-3.1,4.571,4.571,0,0,1,1.632-1.952,4.2,4.2,0,0,1,2.344-.672,4.212,4.212,0,0,1,2.336.672A4.5,4.5,0,0,1,29.336-8.7a7.359,7.359,0,0,1,.592,3.1,7.359,7.359,0,0,1-.592,3.1A4.5,4.5,0,0,1,27.7-.544,4.212,4.212,0,0,1,25.368.128Zm0-1.424a2.566,2.566,0,0,0,1.544-.48,3.119,3.119,0,0,0,1.04-1.44A6.575,6.575,0,0,0,28.328-5.6a6.575,6.575,0,0,0-.376-2.384,3.119,3.119,0,0,0-1.04-1.44,2.566,2.566,0,0,0-1.544-.48,2.6,2.6,0,0,0-1.552.48,3.094,3.094,0,0,0-1.048,1.44A6.575,6.575,0,0,0,22.392-5.6a6.575,6.575,0,0,0,.376,2.384,3.094,3.094,0,0,0,1.048,1.44A2.6,2.6,0,0,0,25.368-1.3ZM36.04.128A4.2,4.2,0,0,1,33.7-.544,4.571,4.571,0,0,1,32.064-2.5a7.274,7.274,0,0,1-.6-3.1,7.274,7.274,0,0,1,.6-3.1A4.571,4.571,0,0,1,33.7-10.656a4.2,4.2,0,0,1,2.344-.672,4.212,4.212,0,0,1,2.336.672A4.5,4.5,0,0,1,40.008-8.7,7.359,7.359,0,0,1,40.6-5.6a7.359,7.359,0,0,1-.592,3.1A4.5,4.5,0,0,1,38.376-.544,4.212,4.212,0,0,1,36.04.128Zm0-1.424a2.566,2.566,0,0,0,1.544-.48,3.119,3.119,0,0,0,1.04-1.44A6.575,6.575,0,0,0,39-5.6a6.575,6.575,0,0,0-.376-2.384,3.119,3.119,0,0,0-1.04-1.44A2.566,2.566,0,0,0,36.04-9.9a2.6,2.6,0,0,0-1.552.48,3.094,3.094,0,0,0-1.048,1.44A6.575,6.575,0,0,0,33.064-5.6a6.575,6.575,0,0,0,.376,2.384,3.094,3.094,0,0,0,1.048,1.44A2.6,2.6,0,0,0,36.04-1.3ZM46.712.128a4.2,4.2,0,0,1-2.344-.672A4.571,4.571,0,0,1,42.736-2.5a7.274,7.274,0,0,1-.6-3.1,7.274,7.274,0,0,1,.6-3.1,4.571,4.571,0,0,1,1.632-1.952,4.2,4.2,0,0,1,2.344-.672,4.212,4.212,0,0,1,2.336.672A4.5,4.5,0,0,1,50.68-8.7a7.359,7.359,0,0,1,.592,3.1,7.359,7.359,0,0,1-.592,3.1A4.5,4.5,0,0,1,49.048-.544,4.212,4.212,0,0,1,46.712.128Zm0-1.424a2.566,2.566,0,0,0,1.544-.48,3.119,3.119,0,0,0,1.04-1.44A6.575,6.575,0,0,0,49.672-5.6,6.575,6.575,0,0,0,49.3-7.984a3.119,3.119,0,0,0-1.04-1.44,2.566,2.566,0,0,0-1.544-.48,2.6,2.6,0,0,0-1.552.48,3.094,3.094,0,0,0-1.048,1.44A6.575,6.575,0,0,0,43.736-5.6a6.575,6.575,0,0,0,.376,2.384,3.094,3.094,0,0,0,1.048,1.44A2.6,2.6,0,0,0,46.712-1.3Z" transform="translate(11464 7430)" fill="#8a8a8a"/>
    <path id="패스_74" data-name="패스 74" d="M1.47,0V-9.8h1.4v8.582H8.176V0Zm11.2.084a3.974,3.974,0,0,1-1.988-.49A3.632,3.632,0,0,1,9.31-1.757a3.793,3.793,0,0,1-.5-1.953,3.783,3.783,0,0,1,.5-1.96,3.6,3.6,0,0,1,1.372-1.337A4.019,4.019,0,0,1,12.67-7.49a4.03,4.03,0,0,1,1.981.483,3.547,3.547,0,0,1,1.372,1.33,3.815,3.815,0,0,1,.5,1.967,3.825,3.825,0,0,1-.5,1.96A3.582,3.582,0,0,1,14.651-.406,3.984,3.984,0,0,1,12.67.084Zm0-1.176a2.548,2.548,0,0,0,1.281-.322,2.274,2.274,0,0,0,.889-.917,2.853,2.853,0,0,0,.322-1.379,2.8,2.8,0,0,0-.322-1.379,2.3,2.3,0,0,0-.889-.9,2.548,2.548,0,0,0-1.281-.322,2.509,2.509,0,0,0-1.274.322,2.412,2.412,0,0,0-.9.9,2.708,2.708,0,0,0-.336,1.379A2.756,2.756,0,0,0,10.5-2.331a2.385,2.385,0,0,0,.9.917A2.509,2.509,0,0,0,12.67-1.092ZM21.63,2.8a6.872,6.872,0,0,1-1.981-.287,4.094,4.094,0,0,1-1.561-.819L18.732.658a3.81,3.81,0,0,0,1.274.707,4.847,4.847,0,0,0,1.582.259,2.638,2.638,0,0,0,1.932-.616,2.552,2.552,0,0,0,.616-1.876V-2.436l.14-1.47-.07-1.484V-7.42H25.48v6.412a3.8,3.8,0,0,1-.98,2.884A4.034,4.034,0,0,1,21.63,2.8ZM21.462-.308a4,4,0,0,1-1.925-.455A3.475,3.475,0,0,1,18.193-2.03a3.521,3.521,0,0,1-.5-1.876,3.511,3.511,0,0,1,.5-1.883,3.44,3.44,0,0,1,1.344-1.253,4.054,4.054,0,0,1,1.925-.448,3.885,3.885,0,0,1,1.736.385,2.938,2.938,0,0,1,1.253,1.183,3.93,3.93,0,0,1,.469,2.016,3.9,3.9,0,0,1-.469,2A3.029,3.029,0,0,1,23.2-.707,3.771,3.771,0,0,1,21.462-.308Zm.154-1.176a2.74,2.74,0,0,0,1.316-.308,2.306,2.306,0,0,0,.9-.854,2.393,2.393,0,0,0,.329-1.26,2.393,2.393,0,0,0-.329-1.26,2.256,2.256,0,0,0-.9-.847,2.792,2.792,0,0,0-1.316-.3,2.834,2.834,0,0,0-1.323.3,2.245,2.245,0,0,0-.91.847,2.393,2.393,0,0,0-.329,1.26,2.393,2.393,0,0,0,.329,1.26,2.294,2.294,0,0,0,.91.854A2.781,2.781,0,0,0,21.616-1.484ZM28.042,0V-7.42h1.344V0Zm.672-8.848a.9.9,0,0,1-.651-.252.827.827,0,0,1-.259-.616.843.843,0,0,1,.259-.63.9.9,0,0,1,.651-.252.91.91,0,0,1,.651.245.8.8,0,0,1,.259.609.878.878,0,0,1-.252.637A.877.877,0,0,1,28.714-8.848ZM34.5.084a2.38,2.38,0,0,1-1.736-.6,2.3,2.3,0,0,1-.616-1.722v-6.8h1.344V-2.3a1.3,1.3,0,0,0,.3.924,1.121,1.121,0,0,0,.861.322A1.585,1.585,0,0,0,35.7-1.4l.42.966a1.954,1.954,0,0,1-.735.392A3.125,3.125,0,0,1,34.5.084Zm-3.612-6.4V-7.42h4.732v1.106ZM40.8.084A4.32,4.32,0,0,1,38.7-.406,3.531,3.531,0,0,1,37.3-1.75a3.825,3.825,0,0,1-.5-1.96,3.912,3.912,0,0,1,.483-1.96,3.487,3.487,0,0,1,1.33-1.337A3.789,3.789,0,0,1,40.53-7.49a3.745,3.745,0,0,1,1.9.476,3.369,3.369,0,0,1,1.3,1.337A4.135,4.135,0,0,1,44.2-3.668q0,.084-.007.2t-.021.21H37.856v-.966H43.47l-.546.336a2.5,2.5,0,0,0-.294-1.274,2.246,2.246,0,0,0-.847-.875,2.438,2.438,0,0,0-1.253-.315,2.448,2.448,0,0,0-1.246.315,2.22,2.22,0,0,0-.854.882,2.669,2.669,0,0,0-.308,1.3v.224a2.553,2.553,0,0,0,.343,1.323,2.356,2.356,0,0,0,.959.9,3.008,3.008,0,0,0,1.414.322,3.091,3.091,0,0,0,1.2-.224,2.622,2.622,0,0,0,.945-.672l.742.868a3.25,3.25,0,0,1-1.253.9A4.361,4.361,0,0,1,40.8.084Zm8.5,0a4.121,4.121,0,0,1-2.023-.49A3.606,3.606,0,0,1,45.878-1.75a3.783,3.783,0,0,1-.5-1.96,3.783,3.783,0,0,1,.5-1.96,3.556,3.556,0,0,1,1.393-1.337,4.169,4.169,0,0,1,2.023-.483,3.94,3.94,0,0,1,1.8.4,2.828,2.828,0,0,1,1.225,1.183L51.3-5.25a2.28,2.28,0,0,0-.889-.8,2.513,2.513,0,0,0-1.127-.259,2.615,2.615,0,0,0-1.3.322,2.382,2.382,0,0,0-.91.9,2.708,2.708,0,0,0-.336,1.379,2.746,2.746,0,0,0,.336,1.386,2.368,2.368,0,0,0,.91.91,2.615,2.615,0,0,0,1.3.322,2.513,2.513,0,0,0,1.127-.259,2.28,2.28,0,0,0,.889-.805l1.022.644A2.936,2.936,0,0,1,51.093-.329,3.829,3.829,0,0,1,49.294.084ZM57.918-7.49a3.51,3.51,0,0,1,1.6.35,2.512,2.512,0,0,1,1.085,1.064A3.723,3.723,0,0,1,61-4.27V0H59.654V-4.116a2.258,2.258,0,0,0-.525-1.624,1.953,1.953,0,0,0-1.477-.546,2.638,2.638,0,0,0-1.246.28,1.918,1.918,0,0,0-.819.826A2.9,2.9,0,0,0,55.3-3.822V0H53.956V-10.388H55.3v4.97l-.266-.532a2.577,2.577,0,0,1,1.12-1.134A3.673,3.673,0,0,1,57.918-7.49Z" transform="translate(10769 7524)" fill="#8a8a8a"/>
    <path id="패스_73" data-name="패스 73" d="M4.326.112A6.687,6.687,0,0,1,2.184-.231,4.388,4.388,0,0,1,.574-1.12l.518-1.092A4.547,4.547,0,0,0,2.52-1.4a5.151,5.151,0,0,0,1.806.322,4.083,4.083,0,0,0,1.386-.2A1.643,1.643,0,0,0,6.5-1.813a1.279,1.279,0,0,0,.252-.777A1.06,1.06,0,0,0,6.419-3.4a2.441,2.441,0,0,0-.854-.5A9.5,9.5,0,0,0,4.41-4.228q-.63-.14-1.267-.329A5.672,5.672,0,0,1,1.981-5.04a2.376,2.376,0,0,1-.847-.791A2.317,2.317,0,0,1,.812-7.112a2.574,2.574,0,0,1,.4-1.393A2.771,2.771,0,0,1,2.443-9.527a5.07,5.07,0,0,1,2.121-.385,6.548,6.548,0,0,1,1.694.224,4.723,4.723,0,0,1,1.456.644l-.462,1.12a4.5,4.5,0,0,0-1.33-.609,5.2,5.2,0,0,0-1.358-.189,3.739,3.739,0,0,0-1.358.21,1.656,1.656,0,0,0-.777.56,1.335,1.335,0,0,0-.245.784,1.077,1.077,0,0,0,.329.826,2.363,2.363,0,0,0,.854.49,11.543,11.543,0,0,0,1.155.329q.63.147,1.267.329a5.412,5.412,0,0,1,1.162.476,2.4,2.4,0,0,1,.847.784,2.254,2.254,0,0,1,.322,1.26A2.518,2.518,0,0,1,7.714-1.3,2.809,2.809,0,0,1,6.461-.273,5.169,5.169,0,0,1,4.326.112Zm8.19-.028a2.38,2.38,0,0,1-1.736-.6,2.3,2.3,0,0,1-.616-1.722v-6.8h1.344V-2.3a1.3,1.3,0,0,0,.3.924,1.121,1.121,0,0,0,.861.322,1.585,1.585,0,0,0,1.05-.35l.42.966a1.954,1.954,0,0,1-.735.392A3.125,3.125,0,0,1,12.516.084ZM8.9-6.314V-7.42h4.732v1.106Zm9.912,6.4a4.32,4.32,0,0,1-2.093-.49,3.531,3.531,0,0,1-1.4-1.344,3.825,3.825,0,0,1-.5-1.96,3.912,3.912,0,0,1,.483-1.96,3.487,3.487,0,0,1,1.33-1.337A3.789,3.789,0,0,1,18.55-7.49a3.745,3.745,0,0,1,1.9.476,3.369,3.369,0,0,1,1.295,1.337,4.135,4.135,0,0,1,.469,2.009q0,.084-.007.2t-.021.21H15.876v-.966H21.49l-.546.336a2.5,2.5,0,0,0-.294-1.274,2.246,2.246,0,0,0-.847-.875,2.438,2.438,0,0,0-1.253-.315,2.448,2.448,0,0,0-1.246.315,2.22,2.22,0,0,0-.854.882,2.669,2.669,0,0,0-.308,1.3v.224a2.553,2.553,0,0,0,.343,1.323,2.356,2.356,0,0,0,.959.9,3.008,3.008,0,0,0,1.414.322,3.091,3.091,0,0,0,1.2-.224A2.622,2.622,0,0,0,21-1.988l.742.868a3.25,3.25,0,0,1-1.253.9A4.361,4.361,0,0,1,18.816.084Zm8.568,0a4.32,4.32,0,0,1-2.093-.49,3.531,3.531,0,0,1-1.4-1.344,3.825,3.825,0,0,1-.5-1.96,3.912,3.912,0,0,1,.483-1.96,3.487,3.487,0,0,1,1.33-1.337,3.789,3.789,0,0,1,1.911-.483,3.745,3.745,0,0,1,1.9.476,3.369,3.369,0,0,1,1.3,1.337,4.135,4.135,0,0,1,.469,2.009q0,.084-.007.2t-.021.21H24.444v-.966h5.614l-.546.336a2.5,2.5,0,0,0-.294-1.274,2.246,2.246,0,0,0-.847-.875,2.438,2.438,0,0,0-1.253-.315,2.448,2.448,0,0,0-1.246.315,2.22,2.22,0,0,0-.854.882,2.669,2.669,0,0,0-.308,1.3v.224a2.553,2.553,0,0,0,.343,1.323,2.356,2.356,0,0,0,.959.9,3.008,3.008,0,0,0,1.414.322,3.091,3.091,0,0,0,1.2-.224,2.622,2.622,0,0,0,.945-.672l.742.868a3.25,3.25,0,0,1-1.253.9A4.361,4.361,0,0,1,27.384.084ZM32.648,0V-10.388h1.344V0Zm6.034.084a6.035,6.035,0,0,1-1.757-.252,4.125,4.125,0,0,1-1.309-.616l.56-1.064a4.593,4.593,0,0,0,1.176.546,4.658,4.658,0,0,0,1.428.224,2.59,2.59,0,0,0,1.351-.266.837.837,0,0,0,.413-.742.653.653,0,0,0-.252-.546,1.719,1.719,0,0,0-.665-.294q-.413-.1-.917-.175T37.7-3.3a4.014,4.014,0,0,1-.924-.336,1.745,1.745,0,0,1-.672-.6,1.856,1.856,0,0,1-.252-1.029,1.906,1.906,0,0,1,.378-1.176A2.4,2.4,0,0,1,37.3-7.217a4.482,4.482,0,0,1,1.645-.273,6.477,6.477,0,0,1,1.477.175,3.668,3.668,0,0,1,1.225.5l-.574,1.064a3.171,3.171,0,0,0-1.05-.462,4.842,4.842,0,0,0-1.092-.126,2.415,2.415,0,0,0-1.316.287.855.855,0,0,0-.434.735.7.7,0,0,0,.259.581,1.874,1.874,0,0,0,.672.315,8.316,8.316,0,0,0,.917.189q.5.077,1.008.2a4.089,4.089,0,0,1,.917.329,1.778,1.778,0,0,1,.672.588,1.754,1.754,0,0,1,.259,1.008A1.8,1.8,0,0,1,41.5-.952a2.536,2.536,0,0,1-1.106.763A4.785,4.785,0,0,1,38.682.084Zm8.19,0a4.32,4.32,0,0,1-2.093-.49,3.531,3.531,0,0,1-1.4-1.344,3.825,3.825,0,0,1-.5-1.96,3.912,3.912,0,0,1,.483-1.96,3.487,3.487,0,0,1,1.33-1.337,3.789,3.789,0,0,1,1.911-.483,3.745,3.745,0,0,1,1.9.476,3.369,3.369,0,0,1,1.3,1.337,4.135,4.135,0,0,1,.469,2.009q0,.084-.007.2t-.021.21H43.932v-.966h5.614L49-3.892a2.5,2.5,0,0,0-.294-1.274,2.246,2.246,0,0,0-.847-.875,2.438,2.438,0,0,0-1.253-.315,2.448,2.448,0,0,0-1.246.315,2.22,2.22,0,0,0-.854.882,2.669,2.669,0,0,0-.308,1.3v.224a2.553,2.553,0,0,0,.343,1.323,2.356,2.356,0,0,0,.959.9,3.008,3.008,0,0,0,1.414.322,3.091,3.091,0,0,0,1.2-.224,2.622,2.622,0,0,0,.945-.672l.742.868a3.25,3.25,0,0,1-1.253.9A4.361,4.361,0,0,1,46.872.084ZM52.136,0V-7.42h1.288V-5.4l-.126-.5a2.279,2.279,0,0,1,1.036-1.176,3.634,3.634,0,0,1,1.792-.406v1.3a.98.98,0,0,0-.161-.014h-.147a2.28,2.28,0,0,0-1.708.644A2.555,2.555,0,0,0,53.48-3.7V0Zm5.642,0V-7.42h1.344V0Zm.672-8.848A.9.9,0,0,1,57.8-9.1a.827.827,0,0,1-.259-.616.843.843,0,0,1,.259-.63.9.9,0,0,1,.651-.252.91.91,0,0,1,.651.245.8.8,0,0,1,.259.609.878.878,0,0,1-.252.637A.877.877,0,0,1,58.45-8.848ZM64.988.084a4.32,4.32,0,0,1-2.093-.49,3.531,3.531,0,0,1-1.4-1.344A3.825,3.825,0,0,1,61-3.71a3.912,3.912,0,0,1,.483-1.96,3.487,3.487,0,0,1,1.33-1.337,3.789,3.789,0,0,1,1.911-.483,3.745,3.745,0,0,1,1.9.476,3.369,3.369,0,0,1,1.295,1.337,4.135,4.135,0,0,1,.469,2.009q0,.084-.007.2t-.021.21H62.048v-.966h5.614l-.546.336a2.5,2.5,0,0,0-.294-1.274,2.246,2.246,0,0,0-.847-.875,2.438,2.438,0,0,0-1.253-.315,2.448,2.448,0,0,0-1.246.315,2.22,2.22,0,0,0-.854.882,2.669,2.669,0,0,0-.308,1.3v.224a2.553,2.553,0,0,0,.343,1.323,2.356,2.356,0,0,0,.959.9,3.008,3.008,0,0,0,1.414.322,3.091,3.091,0,0,0,1.2-.224,2.622,2.622,0,0,0,.945-.672l.742.868a3.25,3.25,0,0,1-1.253.9A4.361,4.361,0,0,1,64.988.084Zm7.392,0a6.036,6.036,0,0,1-1.757-.252,4.125,4.125,0,0,1-1.309-.616l.56-1.064A4.593,4.593,0,0,0,71.05-1.3a4.658,4.658,0,0,0,1.428.224,2.589,2.589,0,0,0,1.351-.266.837.837,0,0,0,.413-.742.653.653,0,0,0-.252-.546,1.718,1.718,0,0,0-.665-.294q-.413-.1-.917-.175T71.4-3.3a4.014,4.014,0,0,1-.924-.336,1.745,1.745,0,0,1-.672-.6,1.856,1.856,0,0,1-.252-1.029A1.906,1.906,0,0,1,69.93-6.44,2.4,2.4,0,0,1,71-7.217a4.481,4.481,0,0,1,1.645-.273,6.477,6.477,0,0,1,1.477.175,3.668,3.668,0,0,1,1.225.5l-.574,1.064a3.171,3.171,0,0,0-1.05-.462,4.842,4.842,0,0,0-1.092-.126,2.415,2.415,0,0,0-1.316.287.855.855,0,0,0-.434.735.7.7,0,0,0,.259.581,1.874,1.874,0,0,0,.672.315,8.316,8.316,0,0,0,.917.189q.5.077,1.008.2a4.089,4.089,0,0,1,.917.329,1.778,1.778,0,0,1,.672.588,1.754,1.754,0,0,1,.259,1.008,1.8,1.8,0,0,1-.392,1.162,2.536,2.536,0,0,1-1.106.763A4.785,4.785,0,0,1,72.38.084Z" transform="translate(10769 7550)" fill="#8a8a8a"/>
    <path id="패스_75" data-name="패스 75" d="M1.47,0V-9.8H5.292a5.374,5.374,0,0,1,2.2.406,3.112,3.112,0,0,1,1.4,1.176,3.344,3.344,0,0,1,.49,1.834,3.308,3.308,0,0,1-.49,1.827,3.128,3.128,0,0,1-1.4,1.169,5.374,5.374,0,0,1-2.2.406H2.24l.63-.644V0ZM8.022,0,5.53-3.556h1.5L9.548,0ZM2.87-3.486l-.63-.686H5.25a3.1,3.1,0,0,0,2.037-.581A2.011,2.011,0,0,0,7.98-6.384a1.991,1.991,0,0,0-.693-1.624A3.127,3.127,0,0,0,5.25-8.582H2.24l.63-.7ZM15.988,0V-1.568l-.07-.294V-4.536a1.731,1.731,0,0,0-.5-1.323,2.1,2.1,0,0,0-1.491-.469,3.929,3.929,0,0,0-1.288.217,3.318,3.318,0,0,0-1.064.581l-.56-1.008A4.055,4.055,0,0,1,12.4-7.245a5.762,5.762,0,0,1,1.687-.245,3.4,3.4,0,0,1,2.352.742,2.9,2.9,0,0,1,.826,2.268V0ZM13.552.084A3.505,3.505,0,0,1,12.1-.2a2.222,2.222,0,0,1-.959-.777A1.966,1.966,0,0,1,10.808-2.1,2.121,2.121,0,0,1,11.1-3.192a1.988,1.988,0,0,1,.938-.784A4.338,4.338,0,0,1,13.79-4.27h2.352V-3.3h-2.3a2.006,2.006,0,0,0-1.358.336,1.084,1.084,0,0,0-.35.812,1.044,1.044,0,0,0,.434.875,1.953,1.953,0,0,0,1.2.329A2.546,2.546,0,0,0,15.1-1.288a1.911,1.911,0,0,0,.819-.98l.266.924A2.09,2.09,0,0,1,15.246-.3,3.37,3.37,0,0,1,13.552.084ZM19.04,0V-.868L23.8-6.776l.266.462H19.124V-7.42h6.02v.882L20.384-.644l-.308-.462h5.18V0Zm11.2.084a4.32,4.32,0,0,1-2.093-.49,3.531,3.531,0,0,1-1.4-1.344,3.825,3.825,0,0,1-.5-1.96,3.912,3.912,0,0,1,.483-1.96,3.487,3.487,0,0,1,1.33-1.337,3.789,3.789,0,0,1,1.911-.483,3.745,3.745,0,0,1,1.9.476,3.369,3.369,0,0,1,1.3,1.337,4.135,4.135,0,0,1,.469,2.009q0,.084-.007.2t-.021.21H27.3v-.966h5.614l-.546.336a2.5,2.5,0,0,0-.294-1.274,2.246,2.246,0,0,0-.847-.875,2.438,2.438,0,0,0-1.253-.315,2.448,2.448,0,0,0-1.246.315,2.22,2.22,0,0,0-.854.882,2.669,2.669,0,0,0-.308,1.3v.224a2.553,2.553,0,0,0,.343,1.323,2.356,2.356,0,0,0,.959.9,3.008,3.008,0,0,0,1.414.322,3.091,3.091,0,0,0,1.2-.224,2.622,2.622,0,0,0,.945-.672l.742.868a3.25,3.25,0,0,1-1.253.9A4.361,4.361,0,0,1,30.24.084ZM35.5,0V-7.42h1.288V-5.4l-.126-.5A2.279,2.279,0,0,1,37.7-7.084a3.634,3.634,0,0,1,1.792-.406v1.3a.98.98,0,0,0-.161-.014h-.147a2.28,2.28,0,0,0-1.708.644,2.555,2.555,0,0,0-.63,1.862V0Z" transform="translate(10769 7576)" fill="#8a8a8a"/>
    <path id="패스_76" data-name="패스 76" d="M-63.448,0V-11.2h4.192a5.987,5.987,0,0,1,2.448.456,3.524,3.524,0,0,1,1.576,1.312A3.742,3.742,0,0,1-54.68-7.36a3.682,3.682,0,0,1-.552,2.04A3.574,3.574,0,0,1-56.808-4a5.9,5.9,0,0,1-2.448.464h-3.536l.528-.56V0Zm1.184-4-.528-.576h3.5A3.893,3.893,0,0,0-56.736-5.3a2.529,2.529,0,0,0,.872-2.056,2.572,2.572,0,0,0-.872-2.08,3.863,3.863,0,0,0-2.552-.736h-3.5l.528-.56Zm11.2-2.192h5.92v1.008h-5.92Zm.128,5.168H-44.2V0h-7.92V-11.2h7.68v1.024h-6.5ZM-41.416,0V-11.2h4.192a5.987,5.987,0,0,1,2.448.456A3.524,3.524,0,0,1-33.2-9.432a3.742,3.742,0,0,1,.552,2.072A3.682,3.682,0,0,1-33.2-5.32a3.524,3.524,0,0,1-1.576,1.312,5.987,5.987,0,0,1-2.448.456H-40.76l.528-.544V0Zm7.648,0-2.88-4.064h1.28L-32.472,0Zm-6.464-4-.528-.56h3.5A3.863,3.863,0,0,0-34.7-5.3a2.553,2.553,0,0,0,.872-2.064A2.572,2.572,0,0,0-34.7-9.44a3.863,3.863,0,0,0-2.552-.736h-3.5l.528-.56Zm11.44-1.776h5.92v1.024h-5.92ZM-28.664,0h-1.184V-11.2h7.68v1.024h-6.5Zm13.7.1a6.358,6.358,0,0,1-2.344-.424,5.528,5.528,0,0,1-1.872-1.2,5.556,5.556,0,0,1-1.232-1.808,5.713,5.713,0,0,1-.44-2.264,5.713,5.713,0,0,1,.44-2.264,5.556,5.556,0,0,1,1.232-1.808,5.546,5.546,0,0,1,1.864-1.2,6.34,6.34,0,0,1,2.352-.424,6.3,6.3,0,0,1,2.336.424A5.609,5.609,0,0,1-10.768-9.68,5.445,5.445,0,0,1-9.536-7.872,5.772,5.772,0,0,1-9.1-5.6a5.772,5.772,0,0,1-.44,2.272A5.445,5.445,0,0,1-10.768-1.52,5.609,5.609,0,0,1-12.632-.328,6.3,6.3,0,0,1-14.968.1Zm0-1.056A4.953,4.953,0,0,0-13.1-1.3a4.4,4.4,0,0,0,1.488-.976,4.543,4.543,0,0,0,.984-1.472A4.735,4.735,0,0,0-10.28-5.6a4.735,4.735,0,0,0-.352-1.848,4.543,4.543,0,0,0-.984-1.472A4.4,4.4,0,0,0-13.1-9.9a4.953,4.953,0,0,0-1.864-.344A5.015,5.015,0,0,0-16.84-9.9a4.381,4.381,0,0,0-1.5.976,4.652,4.652,0,0,0-.992,1.472,4.643,4.643,0,0,0-.36,1.848,4.66,4.66,0,0,0,.36,1.84,4.628,4.628,0,0,0,.992,1.48,4.381,4.381,0,0,0,1.5.976A5.015,5.015,0,0,0-14.968-.96ZM-6.44,0V-11.2h4.192A5.987,5.987,0,0,1,.2-10.744,3.524,3.524,0,0,1,1.776-9.432,3.742,3.742,0,0,1,2.328-7.36a3.682,3.682,0,0,1-.552,2.04A3.524,3.524,0,0,1,.2-4.008a5.987,5.987,0,0,1-2.448.456H-5.784l.528-.544V0ZM1.208,0l-2.88-4.064h1.28L2.5,0ZM-5.256-4l-.528-.56h3.5A3.863,3.863,0,0,0,.272-5.3,2.553,2.553,0,0,0,1.144-7.36,2.572,2.572,0,0,0,.272-9.44a3.863,3.863,0,0,0-2.552-.736h-3.5l.528-.56ZM5.128,0V-11.2H6.1l5.12,8.736h-.512L15.784-11.2h.976V0H15.624V-9.424H15.9l-4.672,8h-.56l-4.7-8h.3V0ZM18.616,0l5.12-11.2H24.9L30.024,0H28.776l-4.7-10.512h.48L19.848,0Zm2.016-2.992.352-.96H27.5l.352.96ZM31.88,0V-11.2h.976l7.728,9.728h-.512V-11.2H41.24V0h-.976L32.552-9.728h.512V0ZM49.752.1a6.3,6.3,0,0,1-2.336-.424A5.521,5.521,0,0,1,45.56-1.52a5.5,5.5,0,0,1-1.224-1.808A5.772,5.772,0,0,1,43.9-5.6a5.772,5.772,0,0,1,.44-2.272A5.445,5.445,0,0,1,45.568-9.68a5.609,5.609,0,0,1,1.864-1.192,6.3,6.3,0,0,1,2.336-.424,6.378,6.378,0,0,1,2.288.408,4.6,4.6,0,0,1,1.808,1.224l-.752.752a4.165,4.165,0,0,0-1.52-1.016A5.062,5.062,0,0,0,49.8-10.24a5.015,5.015,0,0,0-1.872.344,4.467,4.467,0,0,0-1.5.976,4.587,4.587,0,0,0-1,1.472,4.643,4.643,0,0,0-.36,1.848,4.643,4.643,0,0,0,.36,1.848,4.587,4.587,0,0,0,1,1.472,4.467,4.467,0,0,0,1.5.976A5.015,5.015,0,0,0,49.8-.96a4.949,4.949,0,0,0,1.792-.32A4.257,4.257,0,0,0,53.112-2.3l.752.752A4.669,4.669,0,0,1,52.056-.32,6.313,6.313,0,0,1,49.752.1Zm7.7-6.288h5.92v1.008h-5.92Zm.128,5.168h6.736V0h-7.92V-11.2h7.68v1.024h-6.5Z" transform="translate(10731 7271) rotate(-90)" fill="#8a8a8a"/>
    <circle id="타원_44" data-name="타원 44" cx="8" cy="8" r="8" transform="translate(10748 7511)" fill="#2d8fff"/>
    <circle id="타원_47" data-name="타원 47" cx="22.5" cy="22.5" r="22.5" transform="translate(10789 7365)" fill="#8a8a8a"/>
    <circle id="타원_48" data-name="타원 48" cx="22.5" cy="22.5" r="22.5" transform="translate(10789 7266)" fill="#c24b1f"/>
    <circle id="타원_49" data-name="타원 49" cx="22.5" cy="22.5" r="22.5" transform="translate(10789 7167)" fill="#33b849"/>
    <circle id="타원_50" data-name="타원 50" cx="22.5" cy="22.5" r="22.5" transform="translate(10889 7072)" fill="#33b849"/>
    <circle id="타원_51" data-name="타원 51" cx="22.5" cy="22.5" r="22.5" transform="translate(10984 7072)" fill="#c24b1f"/>
    <circle id="타원_52" data-name="타원 52" cx="22.5" cy="22.5" r="22.5" transform="translate(11079 7072)" fill="#8a8a8a"/>
    <circle id="타원_53" data-name="타원 53" cx="22.5" cy="22.5" r="22.5" transform="translate(11441 7365)" fill="#2d8fff"/>
    <circle id="타원_45" data-name="타원 45" cx="8" cy="8" r="8" transform="translate(10748 7537)" fill="#c24b1f"/>
    <circle id="타원_46" data-name="타원 46" cx="8" cy="8" r="8" transform="translate(10748 7563)" fill="#33b849"/>
    <g id="그룹_263" data-name="그룹 263" transform="translate(11658 7090.732)">
      <g id="그룹_262" data-name="그룹 262" transform="translate(-91 -34)" clip-path="url(#clip-path)">
        <path id="패스_53" data-name="패스 53" d="M35.537,20.947l2.7,8.323h8.752a1.473,1.473,0,0,1,.865,2.664l-7.08,5.144,2.7,8.324a1.473,1.473,0,0,1-2.267,1.646L34.136,41.9l-7.08,5.144A1.473,1.473,0,0,1,24.79,45.4l2.7-8.324-7.081-5.144a1.473,1.473,0,0,1,.866-2.664h8.752l2.7-8.323a1.473,1.473,0,0,1,2.8,0" transform="translate(5.131 4.906)" fill="#fff"/>
        <path id="패스_54" data-name="패스 54" d="M9.712,44.268H5.658A34.06,34.06,0,0,0,33.682,72.786a.508.508,0,0,0,.586-.5V69.237a.493.493,0,0,0-.408-.485A30.051,30.051,0,0,1,9.712,44.268" fill="#fff"/>
        <path id="패스_55" data-name="패스 55" d="M34.267,9.3V6.249a.507.507,0,0,0-.586-.5A34.062,34.062,0,0,0,5.749,33.682a.508.508,0,0,0,.5.586H9.3a.493.493,0,0,0,.485-.408A30.053,30.053,0,0,1,33.859,9.783a.493.493,0,0,0,.408-.485" fill="#fff"/>
        <path id="패스_56" data-name="패스 56" d="M69.237,34.268h3.049a.507.507,0,0,0,.5-.586A34.064,34.064,0,0,0,44.853,5.749a.508.508,0,0,0-.586.5V9.3a.493.493,0,0,0,.408.485A30.053,30.053,0,0,1,68.752,33.86a.493.493,0,0,0,.485.408" fill="#fff"/>
        <path id="패스_57" data-name="패스 57" d="M44.267,69.236v3.049a.507.507,0,0,0,.586.5A34.06,34.06,0,0,0,72.878,44.267H68.824A30.051,30.051,0,0,1,44.675,68.751a.493.493,0,0,0-.408.485" fill="#fff"/>
        <path id="패스_58" data-name="패스 58" d="M40.768,14.572h-3a.5.5,0,0,1-.5-.5V.5a.5.5,0,0,1,.5-.5h3a.5.5,0,0,1,.5.5V14.072a.5.5,0,0,1-.5.5" fill="#fff"/>
        <path id="패스_59" data-name="패스 59" d="M40.968,78.535h-3.4a.3.3,0,0,1-.3-.3V64.262a.3.3,0,0,1,.3-.3h3.4a.3.3,0,0,1,.3.3V78.235a.3.3,0,0,1-.3.3" fill="#fff"/>
        <path id="패스_60" data-name="패스 60" d="M78.035,41.268H64.462a.5.5,0,0,1-.5-.5v-3a.5.5,0,0,1,.5-.5H78.035a.5.5,0,0,1,.5.5v3a.5.5,0,0,1-.5.5" fill="#fff"/>
        <path id="패스_61" data-name="패스 61" d="M14.073,41.268H.5a.5.5,0,0,1-.5-.5v-3a.5.5,0,0,1,.5-.5H14.073a.5.5,0,0,1,.5.5v3a.5.5,0,0,1-.5.5" fill="#fff"/>
      </g>
    </g>
  </g>
</svg>
