<svg xmlns="http://www.w3.org/2000/svg" xmlns:xlink="http://www.w3.org/1999/xlink" width="941" height="385" viewBox="0 0 941 385">
  <defs>
    <linearGradient id="linear-gradient" y1="1" x2="1" y2="1" gradientUnits="objectBoundingBox">
      <stop offset="0" stop-color="#2d8fff"/>
      <stop offset="0.791" stop-color="#2d8fff"/>
      <stop offset="1" stop-color="#2d8fff" stop-opacity="0"/>
    </linearGradient>
    <linearGradient id="linear-gradient-2" x2="1" gradientUnits="objectBoundingBox">
      <stop offset="0" stop-color="#2d8fff"/>
      <stop offset="0.791" stop-color="#2d8fff"/>
      <stop offset="0.93" stop-color="#2d8fff" stop-opacity="0.337"/>
      <stop offset="1" stop-color="#2d8fff" stop-opacity="0"/>
    </linearGradient>
    <clipPath id="clip-path">
      <rect id="사각형_816" data-name="사각형 816" width="938" height="108.888" fill="url(#linear-gradient)"/>
    </clipPath>
    <clipPath id="clip-path-2">
      <rect id="사각형_815" data-name="사각형 815" width="938" height="112.345" fill="url(#linear-gradient-2)"/>
    </clipPath>
  </defs>
  <g id="그룹_271" data-name="그룹 271" transform="translate(-10740.5 -8111)">
    <path id="패스_102" data-name="패스 102" d="M7353.333,3841v385" transform="translate(3622.667 4270)" fill="none" stroke="#545454" stroke-width="1" stroke-dasharray="3"/>
    <path id="패스_103" data-name="패스 103" d="M7353.333,3841v385" transform="translate(4092.667 4270)" fill="none" stroke="#545454" stroke-width="1" stroke-dasharray="3"/>
    <path id="패스_104" data-name="패스 104" d="M7353.333,3841v385" transform="translate(3857.667 4270)" fill="none" stroke="#545454" stroke-width="1" stroke-dasharray="3"/>
    <path id="패스_105" data-name="패스 105" d="M7353.333,3841v385" transform="translate(4327.667 4270)" fill="none" stroke="#545454" stroke-width="1" stroke-dasharray="3"/>
    <path id="패스_106" data-name="패스 106" d="M7353.333,3841v385" transform="translate(3387.667 4270)" fill="none" stroke="#545454" stroke-width="1" stroke-dasharray="3"/>
    <g id="그룹_269" data-name="그룹 269" transform="translate(10741 8175.598)">
      <g id="그룹_173" data-name="그룹 173" clip-path="url(#clip-path)">
        <path id="패스_39" data-name="패스 39" d="M898.9,108.888c-10.493,0-15.3-26.37-20.4-54.289-4.741-25.993-9.645-52.871-18.7-52.871s-13.956,26.878-18.7,52.871c-5.093,27.919-9.9,54.289-20.393,54.289s-15.3-26.37-20.393-54.289c-4.74-25.993-9.643-52.871-18.7-52.871S767.676,28.6,762.937,54.6c-5.091,27.919-9.9,54.29-20.393,54.29s-15.3-26.37-20.393-54.289c-4.74-25.993-9.643-52.871-18.7-52.871S689.5,28.607,684.763,54.6c-5.091,27.919-9.9,54.289-20.39,54.289s-15.3-26.37-20.391-54.289c-4.74-25.993-9.641-52.871-18.692-52.871S611.34,28.607,606.6,54.6c-5.093,27.919-9.9,54.289-20.389,54.289s-15.3-26.37-20.391-54.289c-4.739-25.993-9.641-52.871-18.694-52.871S533.175,28.607,528.435,54.6c-5.091,27.919-9.9,54.289-20.388,54.289s-15.3-26.37-20.388-54.289c-4.741-25.993-9.643-52.871-18.694-52.871S455.013,28.607,450.271,54.6c-5.09,27.919-9.9,54.289-20.388,54.289s-15.3-26.37-20.39-54.289C404.753,28.607,399.853,1.728,390.8,1.728S376.847,28.607,372.108,54.6c-5.091,27.919-9.9,54.289-20.39,54.289s-15.3-26.37-20.39-54.289c-4.741-25.993-9.643-52.871-18.7-52.871S298.682,28.607,293.94,54.6c-5.09,27.919-9.9,54.289-20.388,54.289s-15.3-26.37-20.388-54.29c-4.74-25.991-9.641-52.87-18.692-52.87S220.521,28.607,215.782,54.6c-5.091,27.919-9.9,54.289-20.388,54.289S180.1,82.518,175.008,54.6c-4.74-25.993-9.641-52.871-18.692-52.871S142.364,28.607,137.625,54.6c-5.091,27.919-9.9,54.289-20.388,54.289s-15.3-26.37-20.39-54.29c-4.741-25.991-9.641-52.87-18.692-52.87S64.2,28.607,59.463,54.6c-5.091,27.919-9.9,54.289-20.388,54.289S23.78,82.518,18.691,54.6C13.949,28.607,9.05,1.728,0,1.728V0C10.488,0,15.3,26.37,20.386,54.289c4.74,25.993,9.639,52.871,18.689,52.871S53.028,80.282,57.767,54.289C62.857,26.37,67.665,0,78.155,0s15.3,26.37,20.388,54.289c4.741,25.993,9.643,52.871,18.694,52.871s13.953-26.878,18.692-52.871C141.019,26.37,145.828,0,156.316,0s15.3,26.37,20.388,54.29c4.74,25.992,9.641,52.87,18.691,52.87s13.951-26.878,18.692-52.871C219.176,26.37,223.984,0,234.472,0s15.3,26.37,20.388,54.289c4.74,25.993,9.641,52.871,18.692,52.871s13.953-26.878,18.692-52.871C297.336,26.37,302.145,0,312.633,0s15.3,26.37,20.391,54.289c4.74,25.993,9.643,52.871,18.694,52.871s13.953-26.878,18.692-52.87C375.5,26.37,380.31,0,390.8,0s15.3,26.37,20.39,54.29c4.741,25.992,9.643,52.87,18.694,52.87s13.951-26.878,18.692-52.871C453.667,26.37,458.476,0,468.965,0s15.3,26.37,20.389,54.29c4.741,25.992,9.641,52.87,18.692,52.87S522,80.282,526.738,54.29C531.829,26.37,536.638,0,547.126,0s15.3,26.37,20.391,54.289c4.74,25.993,9.641,52.871,18.694,52.871S600.162,80.282,604.9,54.289C609.993,26.37,614.8,0,625.29,0s15.3,26.37,20.391,54.289c4.739,25.993,9.641,52.871,18.692,52.871s13.951-26.878,18.691-52.871C688.157,26.37,692.965,0,703.455,0s15.3,26.37,20.393,54.289c4.74,25.993,9.643,52.871,18.7,52.871s13.956-26.878,18.7-52.873C766.331,26.37,771.141,0,781.631,0s15.3,26.37,20.393,54.289c4.74,25.993,9.643,52.871,18.7,52.871s13.956-26.878,18.7-52.871C844.509,26.37,849.317,0,859.809,0s15.3,26.37,20.4,54.289c4.741,25.993,9.645,52.871,18.7,52.871s13.958-26.878,18.7-52.871C922.7,26.37,927.507,0,938,0V1.728c-9.055,0-13.958,26.878-18.7,52.871-5.093,27.919-9.9,54.289-20.4,54.289" fill="url(#linear-gradient)"/>
      </g>
    </g>
    <g id="그룹_270" data-name="그룹 270" transform="translate(10741 8364)">
      <g id="그룹_171" data-name="그룹 171" clip-path="url(#clip-path-2)">
        <path id="패스_38" data-name="패스 38" d="M820.742,112.345c-29.832,0-44.86-28.351-59.39-55.768-14.293-26.965-29.07-54.849-57.866-54.849s-43.575,27.884-57.866,54.85C631.09,84,616.064,112.345,586.234,112.345s-44.856-28.351-59.385-55.768c-14.291-26.965-29.07-54.849-57.864-54.849s-43.568,27.884-57.861,54.849c-14.529,27.417-29.553,55.768-59.382,55.768s-44.854-28.351-59.385-55.768c-14.291-26.965-29.07-54.849-57.864-54.849s-43.571,27.884-57.862,54.849c-14.531,27.417-29.555,55.768-59.387,55.768S72.391,83.994,57.862,56.579C43.571,29.612,28.794,1.728,0,1.728V0C29.831,0,44.854,28.351,59.385,55.768c14.291,26.965,29.068,54.849,57.859,54.849s43.573-27.884,57.864-54.85C189.639,28.351,204.663,0,234.493,0s44.856,28.351,59.387,55.768c14.291,26.965,29.068,54.849,57.862,54.849s43.57-27.884,57.861-54.849C424.132,28.351,439.156,0,468.984,0s44.856,28.351,59.385,55.766c14.293,26.966,29.07,54.85,57.864,54.85S629.807,82.733,644.1,55.768C658.628,28.351,673.654,0,703.486,0s44.858,28.351,59.389,55.768c14.293,26.965,29.072,54.849,57.867,54.849s43.576-27.884,57.869-54.85C893.144,28.349,908.168,0,938,0V1.728c-28.8,0-43.573,27.884-57.866,54.849-14.532,27.417-29.558,55.768-59.392,55.768" fill="url(#linear-gradient-2)"/>
      </g>
    </g>
    <path id="패스_109" data-name="패스 109" d="M-27.56.4a19.706,19.706,0,0,1-5.78-.86,14.248,14.248,0,0,1-4.74-2.38l2.2-4.04a12.087,12.087,0,0,0,3.7,2,13.692,13.692,0,0,0,4.54.76A7.2,7.2,0,0,0-23.3-5.28,3.674,3.674,0,0,0-21.72-8.4a4.115,4.115,0,0,0-.66-2.32,4.129,4.129,0,0,0-2.32-1.52,15.761,15.761,0,0,0-4.54-.52H-36L-34.56-28h16.44v4.36H-32.64l2.72-2.48L-31-14.72l-2.72-2.44h5.64a17.086,17.086,0,0,1,6.7,1.1,7.8,7.8,0,0,1,3.72,3.04A8.335,8.335,0,0,1-16.48-8.6a8.675,8.675,0,0,1-1.2,4.48A8.572,8.572,0,0,1-21.34-.84,13.776,13.776,0,0,1-27.56.4ZM-1.8.4A10.964,10.964,0,0,1-7.78-1.28a11.332,11.332,0,0,1-4.18-4.9A18.217,18.217,0,0,1-13.48-14a18.217,18.217,0,0,1,1.52-7.82,11.332,11.332,0,0,1,4.18-4.9A10.964,10.964,0,0,1-1.8-28.4a10.936,10.936,0,0,1,6,1.68,11.511,11.511,0,0,1,4.18,4.9A18.013,18.013,0,0,1,9.92-14,18.013,18.013,0,0,1,8.38-6.18,11.511,11.511,0,0,1,4.2-1.28,10.936,10.936,0,0,1-1.8.4Zm0-4.52A5.578,5.578,0,0,0,1.6-5.18,6.9,6.9,0,0,0,3.86-8.44,16.1,16.1,0,0,0,4.68-14a16.063,16.063,0,0,0-.82-5.58A6.9,6.9,0,0,0,1.6-22.82a5.578,5.578,0,0,0-3.4-1.06,5.539,5.539,0,0,0-3.34,1.06,6.835,6.835,0,0,0-2.28,3.24A16.063,16.063,0,0,0-8.24-14a16.1,16.1,0,0,0,.82,5.56A6.833,6.833,0,0,0-5.14-5.18,5.539,5.539,0,0,0-1.8-4.12ZM25.12.4a10.964,10.964,0,0,1-5.98-1.68,11.332,11.332,0,0,1-4.18-4.9A18.217,18.217,0,0,1,13.44-14a18.217,18.217,0,0,1,1.52-7.82,11.332,11.332,0,0,1,4.18-4.9,10.964,10.964,0,0,1,5.98-1.68,10.936,10.936,0,0,1,6,1.68,11.511,11.511,0,0,1,4.18,4.9A18.013,18.013,0,0,1,36.84-14,18.013,18.013,0,0,1,35.3-6.18a11.511,11.511,0,0,1-4.18,4.9A10.936,10.936,0,0,1,25.12.4Zm0-4.52a5.578,5.578,0,0,0,3.4-1.06,6.9,6.9,0,0,0,2.26-3.26A16.1,16.1,0,0,0,31.6-14a16.063,16.063,0,0,0-.82-5.58,6.9,6.9,0,0,0-2.26-3.24,5.578,5.578,0,0,0-3.4-1.06,5.539,5.539,0,0,0-3.34,1.06,6.835,6.835,0,0,0-2.28,3.24A16.063,16.063,0,0,0,18.68-14a16.1,16.1,0,0,0,.82,5.56,6.833,6.833,0,0,0,2.28,3.26A5.539,5.539,0,0,0,25.12-4.12Z" transform="translate(11584 8242)" fill="#fff"/>
    <path id="패스_110" data-name="패스 110" d="M10.016-11.2h1.168V0H10.016ZM3.008,0H1.824V-11.2H3.008Zm7.12-5.168H2.88v-1.04h7.248ZM14.032,0V-11.2h4.192a5.987,5.987,0,0,1,2.448.456,3.524,3.524,0,0,1,1.576,1.312A3.742,3.742,0,0,1,22.8-7.36a3.682,3.682,0,0,1-.552,2.04,3.524,3.524,0,0,1-1.576,1.312,5.987,5.987,0,0,1-2.448.456H14.688l.528-.544V0ZM21.68,0,18.8-4.064h1.28L22.976,0ZM15.216-4l-.528-.56h3.5A3.863,3.863,0,0,0,20.744-5.3a2.553,2.553,0,0,0,.872-2.064,2.572,2.572,0,0,0-.872-2.08,3.863,3.863,0,0,0-2.552-.736h-3.5l.528-.56ZM27.888.1A7.067,7.067,0,0,1,25.5-.312,4.574,4.574,0,0,1,23.728-1.36l.464-.912a4.726,4.726,0,0,0,1.592.968,5.713,5.713,0,0,0,2.1.392,4.719,4.719,0,0,0,1.72-.264,2.083,2.083,0,0,0,.976-.712A1.7,1.7,0,0,0,30.9-2.88a1.479,1.479,0,0,0-.376-1.056,2.592,2.592,0,0,0-.984-.632,10.863,10.863,0,0,0-1.344-.408q-.736-.176-1.472-.376a6.216,6.216,0,0,1-1.352-.536,2.8,2.8,0,0,1-.992-.888A2.526,2.526,0,0,1,24-8.224a2.8,2.8,0,0,1,.44-1.528,3.074,3.074,0,0,1,1.352-1.12,5.561,5.561,0,0,1,2.336-.424A6.811,6.811,0,0,1,30-11.032a5.39,5.39,0,0,1,1.6.728l-.4.944a5.288,5.288,0,0,0-1.528-.7,5.832,5.832,0,0,0-1.56-.224,4.377,4.377,0,0,0-1.664.272,2.108,2.108,0,0,0-.968.728,1.785,1.785,0,0,0-.312,1.032A1.479,1.479,0,0,0,25.544-7.2a2.511,2.511,0,0,0,.992.624,12.407,12.407,0,0,0,1.352.4q.736.176,1.464.384a6.86,6.86,0,0,1,1.344.536,2.759,2.759,0,0,1,.992.872,2.456,2.456,0,0,1,.376,1.424,2.74,2.74,0,0,1-.448,1.512,3.123,3.123,0,0,1-1.368,1.12A5.663,5.663,0,0,1,27.888.1Z" transform="translate(11628 8226.042)" fill="#8a8a8a"/>
    <path id="패스_107" data-name="패스 107" d="M-41.88,0V-26l2.28,2.36h-8.2V-28h11.12V0Zm10.36-6.36v-3.6L-17.72-28h5.56L-25.76-9.96l-2.6-.8h22.2v4.4ZM-16.16,0V-6.36l.16-4.4V-16.4h4.88V0ZM7.72.4A10.964,10.964,0,0,1,1.74-1.28a11.332,11.332,0,0,1-4.18-4.9A18.217,18.217,0,0,1-3.96-14a18.217,18.217,0,0,1,1.52-7.82,11.332,11.332,0,0,1,4.18-4.9A10.964,10.964,0,0,1,7.72-28.4a10.936,10.936,0,0,1,6,1.68,11.511,11.511,0,0,1,4.18,4.9A18.013,18.013,0,0,1,19.44-14,18.013,18.013,0,0,1,17.9-6.18a11.511,11.511,0,0,1-4.18,4.9A10.936,10.936,0,0,1,7.72.4Zm0-4.52a5.578,5.578,0,0,0,3.4-1.06,6.9,6.9,0,0,0,2.26-3.26A16.1,16.1,0,0,0,14.2-14a16.063,16.063,0,0,0-.82-5.58,6.9,6.9,0,0,0-2.26-3.24,5.578,5.578,0,0,0-3.4-1.06,5.539,5.539,0,0,0-3.34,1.06A6.835,6.835,0,0,0,2.1-19.58,16.063,16.063,0,0,0,1.28-14,16.1,16.1,0,0,0,2.1-8.44,6.833,6.833,0,0,0,4.38-5.18,5.539,5.539,0,0,0,7.72-4.12ZM34.64.4a10.964,10.964,0,0,1-5.98-1.68,11.332,11.332,0,0,1-4.18-4.9A18.217,18.217,0,0,1,22.96-14a18.217,18.217,0,0,1,1.52-7.82,11.332,11.332,0,0,1,4.18-4.9,10.964,10.964,0,0,1,5.98-1.68,10.936,10.936,0,0,1,6,1.68,11.511,11.511,0,0,1,4.18,4.9A18.013,18.013,0,0,1,46.36-14a18.013,18.013,0,0,1-1.54,7.82,11.511,11.511,0,0,1-4.18,4.9A10.936,10.936,0,0,1,34.64.4Zm0-4.52a5.578,5.578,0,0,0,3.4-1.06A6.9,6.9,0,0,0,40.3-8.44,16.1,16.1,0,0,0,41.12-14a16.063,16.063,0,0,0-.82-5.58,6.9,6.9,0,0,0-2.26-3.24,5.578,5.578,0,0,0-3.4-1.06,5.539,5.539,0,0,0-3.34,1.06,6.835,6.835,0,0,0-2.28,3.24A16.063,16.063,0,0,0,28.2-14a16.1,16.1,0,0,0,.82,5.56A6.833,6.833,0,0,0,31.3-5.18,5.539,5.539,0,0,0,34.64-4.12Z" transform="translate(11575 8435)" fill="#fff"/>
    <path id="패스_108" data-name="패스 108" d="M10.016-11.2h1.168V0H10.016ZM3.008,0H1.824V-11.2H3.008Zm7.12-5.168H2.88v-1.04h7.248ZM14.032,0V-11.2h4.192a5.987,5.987,0,0,1,2.448.456,3.524,3.524,0,0,1,1.576,1.312A3.742,3.742,0,0,1,22.8-7.36a3.682,3.682,0,0,1-.552,2.04,3.524,3.524,0,0,1-1.576,1.312,5.987,5.987,0,0,1-2.448.456H14.688l.528-.544V0ZM21.68,0,18.8-4.064h1.28L22.976,0ZM15.216-4l-.528-.56h3.5A3.863,3.863,0,0,0,20.744-5.3a2.553,2.553,0,0,0,.872-2.064,2.572,2.572,0,0,0-.872-2.08,3.863,3.863,0,0,0-2.552-.736h-3.5l.528-.56ZM27.888.1A7.067,7.067,0,0,1,25.5-.312,4.574,4.574,0,0,1,23.728-1.36l.464-.912a4.726,4.726,0,0,0,1.592.968,5.713,5.713,0,0,0,2.1.392,4.719,4.719,0,0,0,1.72-.264,2.083,2.083,0,0,0,.976-.712A1.7,1.7,0,0,0,30.9-2.88a1.479,1.479,0,0,0-.376-1.056,2.592,2.592,0,0,0-.984-.632,10.863,10.863,0,0,0-1.344-.408q-.736-.176-1.472-.376a6.216,6.216,0,0,1-1.352-.536,2.8,2.8,0,0,1-.992-.888A2.526,2.526,0,0,1,24-8.224a2.8,2.8,0,0,1,.44-1.528,3.074,3.074,0,0,1,1.352-1.12,5.561,5.561,0,0,1,2.336-.424A6.811,6.811,0,0,1,30-11.032a5.39,5.39,0,0,1,1.6.728l-.4.944a5.288,5.288,0,0,0-1.528-.7,5.832,5.832,0,0,0-1.56-.224,4.377,4.377,0,0,0-1.664.272,2.108,2.108,0,0,0-.968.728,1.785,1.785,0,0,0-.312,1.032A1.479,1.479,0,0,0,25.544-7.2a2.511,2.511,0,0,0,.992.624,12.407,12.407,0,0,0,1.352.4q.736.176,1.464.384a6.86,6.86,0,0,1,1.344.536,2.759,2.759,0,0,1,.992.872,2.456,2.456,0,0,1,.376,1.424,2.74,2.74,0,0,1-.448,1.512,3.123,3.123,0,0,1-1.368,1.12A5.663,5.663,0,0,1,27.888.1Z" transform="translate(11628 8419.042)" fill="#8a8a8a"/>
    <path id="패스_112" data-name="패스 112" d="M10.926-12.6h1.8V0h-1.8ZM3.69,0H1.89V-12.6h1.8Zm7.4-5.616H3.51V-7.182h7.578ZM15.606,0V-12.6h1.8V0Zm4.842-7.164a1.194,1.194,0,0,1-.864-.351,1.191,1.191,0,0,1-.36-.891,1.162,1.162,0,0,1,.36-.882,1.21,1.21,0,0,1,.864-.342,1.158,1.158,0,0,1,.837.342,1.177,1.177,0,0,1,.351.882,1.207,1.207,0,0,1-.351.891A1.143,1.143,0,0,1,20.448-7.164Zm0,7.272a1.194,1.194,0,0,1-.864-.351,1.191,1.191,0,0,1-.36-.891,1.162,1.162,0,0,1,.36-.882,1.21,1.21,0,0,1,.864-.342,1.158,1.158,0,0,1,.837.342,1.177,1.177,0,0,1,.351.882,1.207,1.207,0,0,1-.351.891A1.143,1.143,0,0,1,20.448.108ZM28.512,0V-11.88l.774.846H25.668V-12.6h4.626V0Zm8.6,0V-12.6h1.476l5.652,9.522h-.792l5.58-9.522h1.476L50.526,0H48.8L48.78-9.882h.414L44.226-1.53H43.4l-5-8.352h.45V0ZM57.078.144A8.6,8.6,0,0,1,54.324-.3a5.642,5.642,0,0,1-2.07-1.143l.666-1.4A5.846,5.846,0,0,0,54.756-1.8a6.623,6.623,0,0,0,2.322.414,5.249,5.249,0,0,0,1.782-.252,2.113,2.113,0,0,0,1.008-.693,1.645,1.645,0,0,0,.324-1,1.363,1.363,0,0,0-.423-1.044,3.139,3.139,0,0,0-1.1-.639,12.213,12.213,0,0,0-1.485-.423q-.81-.18-1.629-.423a7.292,7.292,0,0,1-1.494-.621A3.055,3.055,0,0,1,52.974-7.5a2.979,2.979,0,0,1-.414-1.647,3.309,3.309,0,0,1,.513-1.791,3.563,3.563,0,0,1,1.584-1.314,6.518,6.518,0,0,1,2.727-.495,8.419,8.419,0,0,1,2.178.288,6.072,6.072,0,0,1,1.872.828l-.594,1.44a5.789,5.789,0,0,0-1.71-.783,6.687,6.687,0,0,0-1.746-.243,4.807,4.807,0,0,0-1.746.27,2.129,2.129,0,0,0-1,.72,1.717,1.717,0,0,0-.315,1.008,1.385,1.385,0,0,0,.423,1.062,3.038,3.038,0,0,0,1.1.63A14.841,14.841,0,0,0,57.33-7.1q.81.189,1.629.423a6.958,6.958,0,0,1,1.494.612,3.085,3.085,0,0,1,1.089,1.008,2.9,2.9,0,0,1,.414,1.62,3.237,3.237,0,0,1-.522,1.773A3.611,3.611,0,0,1,59.823-.351,6.646,6.646,0,0,1,57.078.144Z" transform="translate(10741 8148)" fill="#5ea9ff"/>
    <path id="패스_111" data-name="패스 111" d="M1.89,0V-12.6h1.8V-1.566h6.822V0ZM17.136.144a7.225,7.225,0,0,1-2.673-.486A6.391,6.391,0,0,1,12.33-1.7a6.274,6.274,0,0,1-1.4-2.043,6.392,6.392,0,0,1-.5-2.556,6.392,6.392,0,0,1,.5-2.556,6.274,6.274,0,0,1,1.4-2.043,6.412,6.412,0,0,1,2.124-1.359,7.2,7.2,0,0,1,2.682-.486,7.2,7.2,0,0,1,2.655.477,6.417,6.417,0,0,1,2.124,1.35,6.1,6.1,0,0,1,1.4,2.043A6.54,6.54,0,0,1,23.814-6.3a6.54,6.54,0,0,1-.495,2.574,6.1,6.1,0,0,1-1.4,2.043,6.417,6.417,0,0,1-2.124,1.35A7.2,7.2,0,0,1,17.136.144Zm0-1.6a5.117,5.117,0,0,0,1.935-.36,4.6,4.6,0,0,0,1.548-1.017,4.739,4.739,0,0,0,1.026-1.539A4.941,4.941,0,0,0,22.014-6.3a4.941,4.941,0,0,0-.369-1.926,4.739,4.739,0,0,0-1.026-1.539,4.6,4.6,0,0,0-1.548-1.017,5.117,5.117,0,0,0-1.935-.36,5.166,5.166,0,0,0-1.953.36,4.7,4.7,0,0,0-1.557,1.017,4.67,4.67,0,0,0-1.035,1.539A4.941,4.941,0,0,0,12.222-6.3a4.941,4.941,0,0,0,.369,1.926,4.669,4.669,0,0,0,1.035,1.539,4.7,4.7,0,0,0,1.557,1.017A5.166,5.166,0,0,0,17.136-1.458ZM25.83-7.164a1.194,1.194,0,0,1-.864-.351,1.191,1.191,0,0,1-.36-.891,1.162,1.162,0,0,1,.36-.882,1.21,1.21,0,0,1,.864-.342,1.158,1.158,0,0,1,.837.342,1.177,1.177,0,0,1,.351.882,1.207,1.207,0,0,1-.351.891A1.143,1.143,0,0,1,25.83-7.164Zm0,7.272a1.194,1.194,0,0,1-.864-.351,1.191,1.191,0,0,1-.36-.891,1.162,1.162,0,0,1,.36-.882,1.21,1.21,0,0,1,.864-.342,1.158,1.158,0,0,1,.837.342,1.177,1.177,0,0,1,.351.882,1.207,1.207,0,0,1-.351.891A1.143,1.143,0,0,1,25.83.108ZM36.684.144a7.058,7.058,0,0,1-2.646-.45A3.867,3.867,0,0,1,32.31-1.593,3.249,3.249,0,0,1,31.7-3.564a3.083,3.083,0,0,1,.585-1.9,3.573,3.573,0,0,1,1.7-1.188,7.947,7.947,0,0,1,2.7-.405,8.026,8.026,0,0,1,2.709.405,3.6,3.6,0,0,1,1.719,1.2,3.061,3.061,0,0,1,.594,1.89,3.249,3.249,0,0,1-.612,1.971A3.857,3.857,0,0,1,39.348-.306,7.2,7.2,0,0,1,36.684.144Zm0-1.458a3.962,3.962,0,0,0,2.367-.621,1.972,1.972,0,0,0,.855-1.683,1.91,1.91,0,0,0-.855-1.647,4.051,4.051,0,0,0-2.367-.6,3.972,3.972,0,0,0-2.34.6A1.916,1.916,0,0,0,33.5-3.618a1.979,1.979,0,0,0,.846,1.683A3.886,3.886,0,0,0,36.684-1.314Zm0-4.77a6.849,6.849,0,0,1-2.448-.387,3.366,3.366,0,0,1-1.548-1.116,2.837,2.837,0,0,1-.54-1.737,2.983,2.983,0,0,1,.567-1.827,3.6,3.6,0,0,1,1.593-1.179,6.317,6.317,0,0,1,2.376-.414,6.37,6.37,0,0,1,2.394.414,3.664,3.664,0,0,1,1.6,1.179,2.951,2.951,0,0,1,.576,1.827,2.837,2.837,0,0,1-.54,1.737A3.36,3.36,0,0,1,39.15-6.471,7,7,0,0,1,36.684-6.084Zm0-1.152a3.461,3.461,0,0,0,2.061-.54,1.724,1.724,0,0,0,.747-1.476,1.723,1.723,0,0,0-.774-1.494,3.485,3.485,0,0,0-2.034-.54,3.358,3.358,0,0,0-2.007.54,1.741,1.741,0,0,0-.747,1.494,1.738,1.738,0,0,0,.729,1.476A3.342,3.342,0,0,0,36.684-7.236ZM47.43,0V-12.6h1.476l5.652,9.522h-.792l5.58-9.522h1.476L60.84,0H59.112l-.018-9.882h.414L54.54-1.53h-.828l-5-8.352h.45V0ZM67.392.144A8.6,8.6,0,0,1,64.638-.3a5.642,5.642,0,0,1-2.07-1.143l.666-1.4A5.846,5.846,0,0,0,65.07-1.8a6.623,6.623,0,0,0,2.322.414,5.249,5.249,0,0,0,1.782-.252,2.113,2.113,0,0,0,1.008-.693,1.645,1.645,0,0,0,.324-1,1.363,1.363,0,0,0-.423-1.044,3.139,3.139,0,0,0-1.1-.639A12.213,12.213,0,0,0,67.5-5.436q-.81-.18-1.629-.423a7.292,7.292,0,0,1-1.494-.621A3.055,3.055,0,0,1,63.288-7.5a2.979,2.979,0,0,1-.414-1.647,3.309,3.309,0,0,1,.513-1.791,3.563,3.563,0,0,1,1.584-1.314,6.518,6.518,0,0,1,2.727-.495,8.419,8.419,0,0,1,2.178.288,6.072,6.072,0,0,1,1.872.828l-.594,1.44a5.789,5.789,0,0,0-1.71-.783,6.687,6.687,0,0,0-1.746-.243,4.807,4.807,0,0,0-1.746.27,2.129,2.129,0,0,0-1,.72,1.717,1.717,0,0,0-.315,1.008,1.385,1.385,0,0,0,.423,1.062,3.037,3.037,0,0,0,1.1.63,14.841,14.841,0,0,0,1.485.423q.81.189,1.629.423a6.958,6.958,0,0,1,1.494.612,3.085,3.085,0,0,1,1.089,1.008,2.9,2.9,0,0,1,.414,1.62,3.237,3.237,0,0,1-.522,1.773A3.611,3.611,0,0,1,70.137-.351,6.646,6.646,0,0,1,67.392.144Z" transform="translate(10741 8338.889)" fill="#5ea9ff"/>
  </g>
</svg>
