<svg xmlns="http://www.w3.org/2000/svg" width="939.732" height="376.789" viewBox="0 0 939.732 376.789">
  <g id="그룹_266" data-name="그룹 266" transform="translate(-10741.268 -7630)">
    <path id="패스_86" data-name="패스 86" d="M7353.333,3841v350.333" transform="translate(3854.167 3790)" fill="none" stroke="#545454" stroke-width="1" stroke-dasharray="3"/>
    <path id="패스_87" data-name="패스 87" d="M0,0V898" transform="translate(11681 7821) rotate(90)" fill="none" stroke="#545454" stroke-width="1" stroke-dasharray="3"/>
    <path id="패스_88" data-name="패스 88" d="M0,0V898" transform="translate(11681 7661) rotate(90)" fill="none" stroke="#545454" stroke-width="1" stroke-dasharray="3"/>
    <path id="패스_89" data-name="패스 89" d="M7353.333,3841v350.333" transform="translate(4277.667 3790)" fill="none" stroke="#545454" stroke-width="1" stroke-dasharray="3"/>
    <path id="패스_92" data-name="패스 92" d="M-12.026,0V-.714L-7.952-4.7a6.541,6.541,0,0,0,.84-.959,2.629,2.629,0,0,0,.378-.777,2.643,2.643,0,0,0,.1-.686A1.665,1.665,0,0,0-7.217-8.47a2.6,2.6,0,0,0-1.715-.49,4.106,4.106,0,0,0-1.533.266,2.886,2.886,0,0,0-1.141.826l-.714-.616A3.751,3.751,0,0,1-10.85-9.52a5.275,5.275,0,0,1,2-.364,4.314,4.314,0,0,1,1.722.315A2.505,2.505,0,0,1-6-8.652a2.5,2.5,0,0,1,.4,1.414,3.375,3.375,0,0,1-.133.938,3.518,3.518,0,0,1-.476.973,7.68,7.68,0,0,1-1,1.155L-10.948-.5l-.28-.392h6.076V0ZM-.8.084a5.861,5.861,0,0,1-2-.343,3.937,3.937,0,0,1-1.512-.917l.49-.8a3.494,3.494,0,0,0,1.267.812A4.65,4.65,0,0,0-.812-.84a2.857,2.857,0,0,0,1.9-.553,1.81,1.81,0,0,0,.651-1.449,1.921,1.921,0,0,0-.3-1.085A1.936,1.936,0,0,0,.42-4.634a6.089,6.089,0,0,0-1.96-.252H-3.626l.5-4.914H2.24v.9H-2.716l.518-.49-.434,4.116-.518-.5h1.834a6.44,6.44,0,0,1,2.38.364A2.6,2.6,0,0,1,2.359-4.4a2.848,2.848,0,0,1,.4,1.519,2.956,2.956,0,0,1-.392,1.505A2.714,2.714,0,0,1,1.19-.308,4.436,4.436,0,0,1-.8.084Zm8.736,0a3.52,3.52,0,0,1-2.016-.6A3.975,3.975,0,0,1,4.536-2.219a6.468,6.468,0,0,1-.5-2.681,6.468,6.468,0,0,1,.5-2.681A3.975,3.975,0,0,1,5.922-9.289a3.52,3.52,0,0,1,2.016-.6,3.52,3.52,0,0,1,2.016.6,4.021,4.021,0,0,1,1.393,1.708A6.391,6.391,0,0,1,11.858-4.9a6.391,6.391,0,0,1-.511,2.681A4.021,4.021,0,0,1,9.954-.511,3.52,3.52,0,0,1,7.938.084Zm0-.924A2.5,2.5,0,0,0,9.45-1.309a3.055,3.055,0,0,0,1.008-1.372A5.952,5.952,0,0,0,10.822-4.9a5.952,5.952,0,0,0-.364-2.219A3.055,3.055,0,0,0,9.45-8.491,2.5,2.5,0,0,0,7.938-8.96a2.517,2.517,0,0,0-1.5.469A3.011,3.011,0,0,0,5.418-7.119,5.952,5.952,0,0,0,5.054-4.9a5.952,5.952,0,0,0,.364,2.219A3.011,3.011,0,0,0,6.44-1.309,2.517,2.517,0,0,0,7.938-.84Z" transform="translate(11207 8005)" fill="#545454"/>
    <path id="패스_93" data-name="패스 93" d="M10.336-4.471H3.021V-6.426H9.939v-.861H3.021v-1.8H10.2v-.9H1.928v6.4h8.408ZM.492-.479H11.621v-.889H.492ZM16.855-9.721h-4.58v.9h3.541v2.461H12.3V-1.8h.793A25.316,25.316,0,0,0,17.73-2.16l-.1-.875a25.138,25.138,0,0,1-4.293.328V-5.469h3.514ZM18.482.479h.984V-5.346h1.791V1.107h1.025V-11.047H21.257v4.813H19.466v-4.539h-.984ZM29.758-10.2H24.166v.875H28.6a4.765,4.765,0,0,1-.321,1.36l-4.73.226.191.889,4.108-.321a7.24,7.24,0,0,1-4.2,2.618l.41.875C27.96-4.826,29.751-7.1,29.758-10.2Zm-4.58,8.955c0,1.483,1.565,2.324,4.115,2.324,2.516,0,4.095-.841,4.088-2.324.007-1.463-1.572-2.311-4.088-2.311C26.744-3.555,25.178-2.707,25.178-1.244Zm1.066,0c.007-.9,1.155-1.463,3.049-1.463,1.859,0,3.028.561,3.035,1.463S31.153.232,29.293.232C27.4.232,26.251-.328,26.245-1.244ZM32.26-3.719h1.066v-7.314H32.26ZM48.62-4.936H43.561V-6.809H42.509v1.873h-5v.889H48.62ZM38.175-7.014l.41.861a6.278,6.278,0,0,0,4.457-2.7,6.307,6.307,0,0,0,4.43,2.7l.438-.861c-2.146-.294-4.334-1.647-4.334-3.268v-.574h-1.08v.574C42.495-8.661,40.321-7.308,38.175-7.014ZM38.735-2h7.4v3.1h1.08V-2.857H38.735Zm19.986-3.35H51.406V-9.174H58.6v-.875H50.326v5.578h3.582v3.145h-5v.9H60.033v-.9H54.961V-4.471h3.76Zm2.335,1.572a11.363,11.363,0,0,0,1.969,6.563h1.039a13.325,13.325,0,0,1-1.791-6.562,13.248,13.248,0,0,1,1.791-6.549H63.025A11.319,11.319,0,0,0,61.056-3.773ZM66.207-9.9h-1.23V0h1.23ZM67.695,0h1.23V-3.6h2.146a3.009,3.009,0,0,0,3.363-3.158c0-1.764-1.06-3.145-3.377-3.145H67.695Zm1.23-4.689V-8.8H71c1.593,0,2.208.868,2.215,2.051a1.926,1.926,0,0,1-2.2,2.064ZM80.858-7.41h1.2c-.048-1.5-1.429-2.625-3.35-2.625s-3.411,1.1-3.4,2.775c-.007,1.34.964,2.133,2.516,2.584l1.217.328c1.039.294,1.955.663,1.955,1.627,0,1.08-1.025,1.784-2.393,1.777-1.176.007-2.208-.52-2.311-1.627H75.034C75.15-.93,76.47.171,78.6.178c2.3-.007,3.6-1.258,3.6-2.871,0-1.853-1.743-2.461-2.8-2.734L78.411-5.7c-.752-.185-1.907-.574-1.914-1.613.007-.943.861-1.627,2.174-1.627C79.853-8.941,80.756-8.381,80.858-7.41ZM85.7-3.773a11.319,11.319,0,0,0-1.969-6.549H82.688a13.248,13.248,0,0,1,1.791,6.549,13.325,13.325,0,0,1-1.791,6.563h1.039A11.363,11.363,0,0,0,85.7-3.773Z" transform="translate(10783 8004)" fill="#8a8a8a"/>
    <path id="패스_94" data-name="패스 94" d="M-31.62-2.2h5.5V0H-24.5V-2.2h1.547V-3.656H-24.5v-7.656H-26.62l-5,7.719Zm1.813-1.453V-3.75l3.563-5.516h.125v5.609ZM-18.077.156c2.617,0,4.148-2.109,4.156-5.812-.008-3.68-1.562-5.812-4.156-5.812s-4.156,2.133-4.156,5.813C-22.233-1.953-20.694.156-18.077.156Zm-2.437-5.812c0-2.812.914-4.352,2.438-4.359,1.516.008,2.438,1.547,2.438,4.359s-.914,4.328-2.437,4.328S-20.522-2.836-20.514-5.656ZM-8.986.156c2.422,0,4.148-1.328,4.156-3.172A2.868,2.868,0,0,0-7.2-5.859v-.062A2.554,2.554,0,0,0-5.267-8.453c-.008-1.742-1.586-3.016-3.719-3.016-2.164,0-3.734,1.273-3.734,3.016a2.522,2.522,0,0,0,1.938,2.531v.063a2.82,2.82,0,0,0-2.359,2.844C-13.158-1.172-11.447.156-8.986.156Zm-2.406-3.3A2.145,2.145,0,0,1-8.986-5.156,2.167,2.167,0,0,1-6.58-3.141c0,1.109-.937,1.875-2.406,1.875C-10.478-1.266-11.416-2.031-11.392-3.141Zm.344-5.156a1.823,1.823,0,0,1,2.063-1.766A1.8,1.8,0,0,1-6.955-8.3,1.827,1.827,0,0,1-8.986-6.516,1.851,1.851,0,0,1-11.048-8.3ZM-3.083.109A1.129,1.129,0,0,0-1.973-1,1.124,1.124,0,0,0-3.083-2.109,1.109,1.109,0,0,0-4.192-1,1.114,1.114,0,0,0-3.083.109ZM2.977-11.469A3.787,3.787,0,0,0-1.086-7.641,3.612,3.612,0,0,0,2.57-3.922,3.374,3.374,0,0,0,5.461-5.453H5.6c-.016,2.586-1.039,4.1-2.781,4.109A2.057,2.057,0,0,1,.711-2.969h-1.7A3.632,3.632,0,0,0,2.82.156c2.711,0,4.422-2.25,4.422-6.219C7.234-10.2,5.055-11.453,2.977-11.469ZM.586-7.672a2.345,2.345,0,0,1,2.391-2.359A2.371,2.371,0,0,1,5.367-7.687,2.4,2.4,0,0,1,2.945-5.328,2.3,2.3,0,0,1,.586-7.672Zm12.65-3.641H11.517V0h1.719ZM14.733,0h1.719V-3.969h2.313c2.625,0,3.922-1.586,3.922-3.672s-1.289-3.672-3.922-3.672H14.733Zm1.719-5.437V-9.844h2.141a2.062,2.062,0,0,1,2.359,2.2,2.058,2.058,0,0,1-2.359,2.2Zm13.4-2.891h1.672c-.055-1.828-1.656-3.141-3.953-3.141s-4.023,1.3-4.031,3.25c.008,1.578,1.133,2.5,2.953,3l1.344.359c1.2.32,2.133.719,2.141,1.7-.008,1.109-1.055,1.836-2.5,1.844-1.32-.008-2.414-.594-2.516-1.828H23.245c.109,2.063,1.7,3.328,4.234,3.328,2.672,0,4.2-1.4,4.2-3.312-.008-2.047-1.82-2.836-3.266-3.187l-1.094-.3c-.9-.211-2.062-.633-2.062-1.7.008-.961.883-1.672,2.266-1.672C28.823-9.984,29.745-9.383,29.855-8.328Z" transform="translate(11561 7706)" fill="#2d8fff"/>
    <path id="패스_95" data-name="패스 95" d="M-7.864-12.609H-9.1v2.594h-3.242a6.742,6.742,0,0,0,.18-1.562h-6.328v1.031H-13.5c-.242,2.406-2.344,4.289-5.7,5.281l.516.969c2.977-.883,5.117-2.5,6.031-4.734H-9.1v1.875h-3.687v1.016H-9.1v1.875h1.234ZM-17.052-1.469C-17.059.2-15.255,1.2-12.411,1.2-9.6,1.2-7.786.2-7.786-1.469S-9.6-4.125-12.411-4.125C-15.255-4.125-17.059-3.125-17.052-1.469Zm1.2,0c.008-1.047,1.344-1.68,3.438-1.672,2.063-.008,3.4.625,3.406,1.672C-9.012-.422-10.348.211-12.411.2-14.5.211-15.841-.422-15.848-1.469ZM-2.242-9.8v-.656h2.5v-1H-6.023v1H-3.43V-9.8A4.658,4.658,0,0,1-6.289-5.531l.672.953a5.213,5.213,0,0,0,2.8-3.086,4.656,4.656,0,0,0,2.672,2.7l.656-.937A4.087,4.087,0,0,1-2.242-9.8ZM-3.8-1.266C-3.82.313-2.039,1.234.852,1.234c2.875,0,4.664-.922,4.672-2.5-.008-1.586-1.8-2.5-4.672-2.5C-2.039-3.766-3.82-2.852-3.8-1.266Zm1.219,0C-2.6-2.234-1.281-2.82.852-2.812,2.961-2.82,4.289-2.234,4.3-1.266,4.289-.3,2.961.266.852.266-1.281.266-2.6-.3-2.586-1.266ZM1.273-4.547H2.461V-7.891H4.273v3.8H5.445v-8.516H4.273v3.7H2.461v-3.437H1.273ZM11.333-8.891v-2.531h-1.2v2.531a7.33,7.33,0,0,1-3.656,6.2l.781.984a7.839,7.839,0,0,0,3.492-4.641,7.516,7.516,0,0,0,3.43,4.375l.75-.984A7,7,0,0,1,11.333-8.891ZM16.208,1.266h1.219V-5.922h2.328V-6.984H17.427v-5.641H16.208Z" transform="translate(11561 7846)" fill="#b9b9b9"/>
    <path id="패스_96" data-name="패스 96" d="M7.438-9.885H.875v.875h1.23v4.19c-.554.014-1.08.021-1.572.021l.123.889a50.261,50.261,0,0,0,7.438-.437l-.082-.807c-.581.068-1.2.13-1.818.171V-9.01H7.438ZM2.393.848h8.162v-.9H3.445V-2.939H2.393ZM3.158-4.84V-9.01H5.141v4.095C4.478-4.881,3.808-4.854,3.158-4.84Zm5.77,2.748H9.994V-6.426h1.832v-.916H9.994v-3.691H8.928ZM22.966-4.977h-5V-6.453h3.746v-.889H14.366V-9.666H21.6v-.889H13.3v4.1h3.6v1.477h-5V-4.1H22.966ZM13.122-2.037h7.424V1.2h1.066V-2.912h-8.49Zm24.1-2.9H32.162V-6.809H31.109v1.873h-5v.889H37.22ZM26.775-7.014l.41.861a6.278,6.278,0,0,0,4.457-2.7,6.307,6.307,0,0,0,4.43,2.7l.438-.861c-2.146-.294-4.334-1.647-4.334-3.268v-.574H31.1v.574C31.1-8.661,28.921-7.308,26.775-7.014ZM27.336-2h7.4v3.1h1.08V-2.857H27.336Zm19.986-3.35H40.007V-9.174H47.2v-.875H38.927v5.578h3.582v3.145h-5v.9H48.634v-.9H43.561V-4.471h3.76Zm2.335,1.572a11.363,11.363,0,0,0,1.969,6.563h1.039a13.325,13.325,0,0,1-1.791-6.562,13.248,13.248,0,0,1,1.791-6.549H51.625A11.319,11.319,0,0,0,49.656-3.773ZM56.462.15a2.752,2.752,0,0,0,2.926-2.338H58.212A1.69,1.69,0,0,1,56.462-.9c-1.347,0-2.208-1.1-2.215-2.816.007-1.668.889-2.762,2.215-2.762a1.718,1.718,0,0,1,1.75,1.3h1.176A2.772,2.772,0,0,0,56.435-7.52c-2.017,0-3.363,1.586-3.363,3.842C53.071-1.449,54.357.157,56.462.15Zm6.915-7.574H61.819V-9.2H60.629v1.777H59.508v.984h1.121v4.607A1.912,1.912,0,0,0,62.666.1a5.777,5.777,0,0,0,.82-.055V-1.053c-.171.007-.485.027-.7.027-.5,0-.978-.157-.971-1.107V-6.439h1.559ZM68.187-5.5h1.148A2.39,2.39,0,0,0,66.683-7.52c-1.634,0-2.748.916-2.748,2.188,0,.991.69,1.7,1.982,2l1.121.26c.841.2,1.217.54,1.217,1.066,0,.7-.663,1.142-1.723,1.135-.937.007-1.463-.342-1.6-1.066H63.7C63.9-.588,64.892.157,66.56.15c1.859.007,2.905-.943,2.912-2.229-.007-1.032-.656-1.7-1.982-2.01l-1.107-.273c-.868-.212-1.265-.547-1.271-1.039.007-.622.656-1.114,1.572-1.121A1.388,1.388,0,0,1,68.187-5.5Zm5.644-4.867h-1.08L69.565,1.49h1.066ZM74.279,0h1.176V-4.635a1.734,1.734,0,0,1,1.668-1.832,1.35,1.35,0,0,1,1.449,1.395V0h1.189V-4.826a1.539,1.539,0,0,1,1.627-1.641,1.381,1.381,0,0,1,1.5,1.518V0h1.176V-4.963c0-1.75-.95-2.557-2.27-2.557A2.35,2.35,0,0,0,79.57-6.262h-.082A2.019,2.019,0,0,0,77.506-7.52a2,2,0,0,0-2,1.258h-.1V-7.424H74.279Zm15.1-5.5h1.148A2.39,2.39,0,0,0,87.88-7.52c-1.634,0-2.748.916-2.748,2.188,0,.991.69,1.7,1.982,2l1.121.26c.841.2,1.217.54,1.217,1.066,0,.7-.663,1.142-1.723,1.135-.937.007-1.463-.342-1.6-1.066H84.9C85.1-.588,86.089.157,87.757.15c1.859.007,2.905-.943,2.912-2.229-.007-1.032-.656-1.7-1.982-2.01l-1.107-.273c-.868-.212-1.265-.547-1.271-1.039.007-.622.656-1.114,1.572-1.121A1.388,1.388,0,0,1,89.384-5.5Zm4.7,1.723a11.319,11.319,0,0,0-1.969-6.549H91.077a13.248,13.248,0,0,1,1.791,6.549,13.325,13.325,0,0,1-1.791,6.563h1.039A11.363,11.363,0,0,0,94.084-3.773Z" transform="translate(10770 7981) rotate(-90)" fill="#8a8a8a"/>
    <path id="패스_97" data-name="패스 97" d="M-22.638.084a5.861,5.861,0,0,1-2-.343,3.937,3.937,0,0,1-1.512-.917l.49-.8a3.494,3.494,0,0,0,1.267.812,4.65,4.65,0,0,0,1.743.322,2.857,2.857,0,0,0,1.9-.553A1.81,1.81,0,0,0-20.1-2.842a1.921,1.921,0,0,0-.3-1.085,1.936,1.936,0,0,0-1.015-.707,6.089,6.089,0,0,0-1.96-.252h-2.086l.5-4.914H-19.6v.9h-4.956l.518-.49-.434,4.116-.518-.5h1.834a6.44,6.44,0,0,1,2.38.364,2.6,2.6,0,0,1,1.3,1.015,2.848,2.848,0,0,1,.4,1.519,2.956,2.956,0,0,1-.392,1.505A2.714,2.714,0,0,1-20.65-.308,4.436,4.436,0,0,1-22.638.084Zm8.736,0a3.52,3.52,0,0,1-2.016-.6A3.975,3.975,0,0,1-17.3-2.219a6.468,6.468,0,0,1-.5-2.681,6.468,6.468,0,0,1,.5-2.681,3.975,3.975,0,0,1,1.386-1.708,3.52,3.52,0,0,1,2.016-.6,3.52,3.52,0,0,1,2.016.6,4.021,4.021,0,0,1,1.393,1.708A6.391,6.391,0,0,1-9.982-4.9a6.391,6.391,0,0,1-.511,2.681A4.021,4.021,0,0,1-11.886-.511,3.52,3.52,0,0,1-13.9.084Zm0-.924a2.5,2.5,0,0,0,1.512-.469,3.055,3.055,0,0,0,1.008-1.372A5.952,5.952,0,0,0-11.018-4.9a5.952,5.952,0,0,0-.364-2.219A3.055,3.055,0,0,0-12.39-8.491,2.5,2.5,0,0,0-13.9-8.96a2.517,2.517,0,0,0-1.5.469,3.011,3.011,0,0,0-1.022,1.372A5.952,5.952,0,0,0-16.786-4.9a5.952,5.952,0,0,0,.364,2.219A3.011,3.011,0,0,0-15.4-1.309,2.517,2.517,0,0,0-13.9-.84Zm9.268.924a3.52,3.52,0,0,1-2.016-.6A3.975,3.975,0,0,1-8.036-2.219,6.468,6.468,0,0,1-8.54-4.9a6.468,6.468,0,0,1,.5-2.681A3.975,3.975,0,0,1-6.65-9.289a3.52,3.52,0,0,1,2.016-.6,3.52,3.52,0,0,1,2.016.6A4.021,4.021,0,0,1-1.225-7.581,6.391,6.391,0,0,1-.714-4.9a6.391,6.391,0,0,1-.511,2.681A4.021,4.021,0,0,1-2.618-.511,3.52,3.52,0,0,1-4.634.084Zm0-.924a2.5,2.5,0,0,0,1.512-.469A3.055,3.055,0,0,0-2.114-2.681,5.952,5.952,0,0,0-1.75-4.9a5.952,5.952,0,0,0-.364-2.219A3.055,3.055,0,0,0-3.122-8.491,2.5,2.5,0,0,0-4.634-8.96a2.517,2.517,0,0,0-1.5.469A3.011,3.011,0,0,0-7.154-7.119,5.952,5.952,0,0,0-7.518-4.9a5.952,5.952,0,0,0,.364,2.219A3.011,3.011,0,0,0-6.132-1.309,2.517,2.517,0,0,0-4.634-.84Z" transform="translate(10773 7826)" fill="#545454"/>
    <path id="패스_98" data-name="패스 98" d="M-30.422,0V-9.38l.448.476h-2.758v-.9h3.318V0Zm7.252.084a3.52,3.52,0,0,1-2.016-.6,3.975,3.975,0,0,1-1.386-1.708,6.468,6.468,0,0,1-.5-2.681,6.468,6.468,0,0,1,.5-2.681,3.975,3.975,0,0,1,1.386-1.708,3.52,3.52,0,0,1,2.016-.6,3.52,3.52,0,0,1,2.016.6,4.021,4.021,0,0,1,1.393,1.708A6.391,6.391,0,0,1-19.25-4.9a6.391,6.391,0,0,1-.511,2.681A4.021,4.021,0,0,1-21.154-.511,3.52,3.52,0,0,1-23.17.084Zm0-.924a2.5,2.5,0,0,0,1.512-.469A3.055,3.055,0,0,0-20.65-2.681,5.952,5.952,0,0,0-20.286-4.9a5.952,5.952,0,0,0-.364-2.219,3.055,3.055,0,0,0-1.008-1.372A2.5,2.5,0,0,0-23.17-8.96a2.517,2.517,0,0,0-1.5.469A3.011,3.011,0,0,0-25.69-7.119,5.952,5.952,0,0,0-26.054-4.9a5.952,5.952,0,0,0,.364,2.219,3.011,3.011,0,0,0,1.022,1.372A2.517,2.517,0,0,0-23.17-.84ZM-13.9.084a3.52,3.52,0,0,1-2.016-.6A3.975,3.975,0,0,1-17.3-2.219a6.468,6.468,0,0,1-.5-2.681,6.468,6.468,0,0,1,.5-2.681,3.975,3.975,0,0,1,1.386-1.708,3.52,3.52,0,0,1,2.016-.6,3.52,3.52,0,0,1,2.016.6,4.021,4.021,0,0,1,1.393,1.708A6.391,6.391,0,0,1-9.982-4.9a6.391,6.391,0,0,1-.511,2.681A4.021,4.021,0,0,1-11.886-.511,3.52,3.52,0,0,1-13.9.084Zm0-.924a2.5,2.5,0,0,0,1.512-.469,3.055,3.055,0,0,0,1.008-1.372A5.952,5.952,0,0,0-11.018-4.9a5.952,5.952,0,0,0-.364-2.219A3.055,3.055,0,0,0-12.39-8.491,2.5,2.5,0,0,0-13.9-8.96a2.517,2.517,0,0,0-1.5.469,3.011,3.011,0,0,0-1.022,1.372A5.952,5.952,0,0,0-16.786-4.9a5.952,5.952,0,0,0,.364,2.219A3.011,3.011,0,0,0-15.4-1.309,2.517,2.517,0,0,0-13.9-.84Zm9.268.924a3.52,3.52,0,0,1-2.016-.6A3.975,3.975,0,0,1-8.036-2.219,6.468,6.468,0,0,1-8.54-4.9a6.468,6.468,0,0,1,.5-2.681A3.975,3.975,0,0,1-6.65-9.289a3.52,3.52,0,0,1,2.016-.6,3.52,3.52,0,0,1,2.016.6A4.021,4.021,0,0,1-1.225-7.581,6.391,6.391,0,0,1-.714-4.9a6.391,6.391,0,0,1-.511,2.681A4.021,4.021,0,0,1-2.618-.511,3.52,3.52,0,0,1-4.634.084Zm0-.924a2.5,2.5,0,0,0,1.512-.469A3.055,3.055,0,0,0-2.114-2.681,5.952,5.952,0,0,0-1.75-4.9a5.952,5.952,0,0,0-.364-2.219A3.055,3.055,0,0,0-3.122-8.491,2.5,2.5,0,0,0-4.634-8.96a2.517,2.517,0,0,0-1.5.469A3.011,3.011,0,0,0-7.154-7.119,5.952,5.952,0,0,0-7.518-4.9a5.952,5.952,0,0,0,.364,2.219A3.011,3.011,0,0,0-6.132-1.309,2.517,2.517,0,0,0-4.634-.84Z" transform="translate(10774 7666)" fill="#545454"/>
    <path id="패스_99" data-name="패스 99" d="M-9.408.084a5.861,5.861,0,0,1-2-.343,3.937,3.937,0,0,1-1.512-.917l.49-.8a3.494,3.494,0,0,0,1.267.812A4.65,4.65,0,0,0-9.422-.84a2.857,2.857,0,0,0,1.9-.553,1.81,1.81,0,0,0,.651-1.449,1.921,1.921,0,0,0-.3-1.085A1.936,1.936,0,0,0-8.19-4.634a6.089,6.089,0,0,0-1.96-.252h-2.086l.5-4.914H-6.37v.9h-4.956l.518-.49-.434,4.116-.518-.5h1.834a6.44,6.44,0,0,1,2.38.364A2.6,2.6,0,0,1-6.251-4.4a2.848,2.848,0,0,1,.4,1.519,2.956,2.956,0,0,1-.392,1.505A2.714,2.714,0,0,1-7.42-.308,4.436,4.436,0,0,1-9.408.084Zm8.736,0a3.52,3.52,0,0,1-2.016-.6A3.975,3.975,0,0,1-4.074-2.219a6.468,6.468,0,0,1-.5-2.681,6.468,6.468,0,0,1,.5-2.681A3.975,3.975,0,0,1-2.688-9.289a3.52,3.52,0,0,1,2.016-.6,3.52,3.52,0,0,1,2.016.6A4.021,4.021,0,0,1,2.737-7.581,6.391,6.391,0,0,1,3.248-4.9a6.391,6.391,0,0,1-.511,2.681A4.021,4.021,0,0,1,1.344-.511,3.52,3.52,0,0,1-.672.084Zm0-.924A2.5,2.5,0,0,0,.84-1.309,3.055,3.055,0,0,0,1.848-2.681,5.952,5.952,0,0,0,2.212-4.9a5.952,5.952,0,0,0-.364-2.219A3.055,3.055,0,0,0,.84-8.491,2.5,2.5,0,0,0-.672-8.96a2.517,2.517,0,0,0-1.5.469A3.011,3.011,0,0,0-3.192-7.119,5.952,5.952,0,0,0-3.556-4.9a5.952,5.952,0,0,0,.364,2.219A3.011,3.011,0,0,0-2.17-1.309,2.517,2.517,0,0,0-.672-.84ZM8.6.084a3.52,3.52,0,0,1-2.016-.6A3.975,3.975,0,0,1,5.194-2.219,6.468,6.468,0,0,1,4.69-4.9a6.468,6.468,0,0,1,.5-2.681A3.975,3.975,0,0,1,6.58-9.289a3.52,3.52,0,0,1,2.016-.6,3.52,3.52,0,0,1,2.016.6,4.021,4.021,0,0,1,1.393,1.708A6.391,6.391,0,0,1,12.516-4.9a6.391,6.391,0,0,1-.511,2.681A4.021,4.021,0,0,1,10.612-.511,3.52,3.52,0,0,1,8.6.084Zm0-.924a2.5,2.5,0,0,0,1.512-.469,3.055,3.055,0,0,0,1.008-1.372A5.952,5.952,0,0,0,11.48-4.9a5.952,5.952,0,0,0-.364-2.219,3.055,3.055,0,0,0-1.008-1.372A2.5,2.5,0,0,0,8.6-8.96a2.517,2.517,0,0,0-1.5.469A3.011,3.011,0,0,0,6.076-7.119,5.952,5.952,0,0,0,5.712-4.9a5.952,5.952,0,0,0,.364,2.219A3.011,3.011,0,0,0,7.1-1.309,2.517,2.517,0,0,0,8.6-.84Z" transform="translate(11631 8005)" fill="#545454"/>
    <path id="패스_90" data-name="패스 90" d="M7094.781,4197.485,7872,4077.167" transform="translate(3689 3782.5)" fill="none" stroke="#b9b9b9" stroke-width="1" stroke-dasharray="2"/>
    <path id="패스_91" data-name="패스 91" d="M7094.844,4180.365,7872,3920" transform="translate(3689 3799.667)" fill="none" stroke="#2d8fff" stroke-width="2"/>
    <path id="패스_100" data-name="패스 100" d="M0,0H1V350H0Z" transform="translate(10783 7630)" fill="#8a8a8a"/>
    <path id="패스_101" data-name="패스 101" d="M0,0H898V1H0Z" transform="translate(10783 7980)" fill="#8a8a8a"/>
  </g>
</svg>
