<svg xmlns="http://www.w3.org/2000/svg" width="17" height="17" viewBox="0 0 17 17">
  <g id="그룹_79" data-name="그룹 79" transform="translate(-200 -1006)">
    <rect id="사각형_103" data-name="사각형 103" width="17" height="17" transform="translate(200 1006)" fill="#d1d1d1" opacity="0"/>
    <path id="outline-filters-2" d="M11.825,4.565a1.565,1.565,0,0,0-3.13,0m3.13,0a1.565,1.565,0,0,1-3.13,0m3.13,0H16.52m-7.825,0H4m9.39,5.477a1.565,1.565,0,1,0,1.565-1.565A1.565,1.565,0,0,0,13.39,10.042Zm0,0H4M7.13,15.52a1.565,1.565,0,1,0-1.565,1.565A1.565,1.565,0,0,0,7.13,15.52Zm0,0h9.39" transform="translate(198.5 1004.5)" fill="none" stroke="#636363" stroke-linecap="round" stroke-width="1.2"/>
  </g>
</svg>
