<svg xmlns="http://www.w3.org/2000/svg" width="14.857" height="14.788" viewBox="0 0 14.857 14.788">
  <g id="global" transform="translate(-1.2 -1.3)">
    <path id="패스_27" data-name="패스 27" d="M8.629,16.088A7.486,7.486,0,0,1,1.2,8.66a7.429,7.429,0,0,1,14.857,0A7.486,7.486,0,0,1,8.629,16.088Zm0-13.757A6.355,6.355,0,0,0,2.3,8.66a6.4,6.4,0,0,0,6.328,6.328,6.328,6.328,0,1,0,0-12.656Z" transform="translate(0)" fill="#fff"/>
    <path id="패스_28" data-name="패스 28" d="M8.309,15.713H7.621a.543.543,0,0,1-.55-.55.532.532,0,0,1,.481-.55,20.293,20.293,0,0,1,.069-11.28.584.584,0,0,1-.481-.55A.47.47,0,0,1,7.621,2.3h.688a.49.49,0,0,1,.413.206.324.324,0,0,1,.069.413,18.968,18.968,0,0,0,0,12.037.6.6,0,0,1-.069.481A.566.566,0,0,1,8.309,15.713Z" transform="translate(-1.744 -0.312)" fill="#fff"/>
    <path id="패스_29" data-name="패스 29" d="M14.774,15.736h-.138a.523.523,0,0,1-.344-.619,18.968,18.968,0,0,0,0-12.037.6.6,0,0,1,.344-.688.492.492,0,0,1,.619.344,20.133,20.133,0,0,1,0,12.725A.579.579,0,0,1,14.774,15.736Z" transform="translate(-4.081 -0.335)" fill="#fff"/>
    <path id="패스_30" data-name="패스 30" d="M8.941,16.282a19.3,19.3,0,0,1-5.64-.825.491.491,0,0,1-.55.481.491.491,0,0,1-.55-.481v-.688a.49.49,0,0,1,.206-.413.6.6,0,0,1,.481-.069,18.968,18.968,0,0,0,12.037,0,.6.6,0,0,1,.481.069.49.49,0,0,1,.206.413v.688a.543.543,0,0,1-.55.55.532.532,0,0,1-.55-.481A20.96,20.96,0,0,1,8.941,16.282Z" transform="translate(-0.312 -4.045)" fill="#fff"/>
    <path id="패스_31" data-name="패스 31" d="M15.154,8.795h-.138a18.968,18.968,0,0,0-12.037,0,.6.6,0,0,1-.688-.344.492.492,0,0,1,.344-.619,20.133,20.133,0,0,1,12.725,0,.523.523,0,0,1,.344.619A.7.7,0,0,1,15.154,8.795Z" transform="translate(-0.335 -1.717)" fill="#fff"/>
  </g>
</svg>
