<svg xmlns="http://www.w3.org/2000/svg" xmlns:xlink="http://www.w3.org/1999/xlink" width="19" height="19" viewBox="0 0 19 19">
  <defs>
    <clipPath id="clip-path">
      <rect id="사각형_335" data-name="사각형 335" width="19" height="16.331" fill="#373737"/>
    </clipPath>
  </defs>
  <g id="그룹_55" data-name="그룹 55" transform="translate(-200 -1303)">
    <path id="패스_63" data-name="패스 63" d="M0,0H19V19H0Z" transform="translate(200 1303)" fill="#d1d1d1" opacity="0"/>
    <g id="그룹_50" data-name="그룹 50" transform="translate(200 1304)">
      <g id="그룹_49" data-name="그룹 49" clip-path="url(#clip-path)">
        <path id="패스_86" data-name="패스 86" d="M17.112,6.162V1.749A1.751,1.751,0,0,0,15.363,0H3.464A1.751,1.751,0,0,0,1.714,1.749V6.206A2.43,2.43,0,0,0,0,8.526v7.41a.4.4,0,0,0,.79,0v-1.79H18.21v1.79a.4.4,0,0,0,.79,0V8.526a2.429,2.429,0,0,0-1.888-2.364M3.464.79h11.9a.96.96,0,0,1,.959.959V6.1h-.44V4.9A1.073,1.073,0,0,0,14.81,3.832H10.845A1.073,1.073,0,0,0,9.773,4.9V6.1H9.082V4.9A1.073,1.073,0,0,0,8.01,3.832H4.046A1.073,1.073,0,0,0,2.973,4.9V6.1H2.5V1.749A.96.96,0,0,1,3.464.79m7.1,5.309V4.9a.282.282,0,0,1,.282-.282H14.81a.282.282,0,0,1,.282.282V6.1Zm-6.8,0V4.9a.282.282,0,0,1,.282-.282H8.01a.282.282,0,0,1,.282.282V6.1Zm-1.337.79H16.574A1.638,1.638,0,0,1,18.21,8.526v3.23H.79V8.526A1.638,1.638,0,0,1,2.426,6.889M.79,12.545H18.21v.811H.79Z" fill="#373737"/>
      </g>
    </g>
  </g>
</svg>
