<svg xmlns="http://www.w3.org/2000/svg" xmlns:xlink="http://www.w3.org/1999/xlink" width="19" height="19" viewBox="0 0 19 19">
  <defs>
    <clipPath id="clip-path">
      <rect id="사각형_334" data-name="사각형 334" width="18.768" height="16.292" fill="#373737"/>
    </clipPath>
  </defs>
  <g id="그룹_54" data-name="그룹 54" transform="translate(-464 -1382)">
    <path id="패스_65" data-name="패스 65" d="M0,0H19V19H0Z" transform="translate(464 1382)" fill="#d1d1d1" opacity="0"/>
    <g id="그룹_48" data-name="그룹 48" transform="translate(464 1384)">
      <g id="그룹_47" data-name="그룹 47" transform="translate(0)" clip-path="url(#clip-path)">
        <path id="패스_85" data-name="패스 85" d="M18.373,0H12.754a.4.4,0,0,0-.4.393c0,.028,0,.117,0,.256H6.405c0-.139,0-.229,0-.256A.4.4,0,0,0,6.014,0H.4A.4.4,0,0,0,0,.4V15.9a.4.4,0,0,0,.4.4H4.081a.4.4,0,0,0,.4-.392c0-.022,0-.11,0-.252H14.3c0,.142,0,.23,0,.252a.4.4,0,0,0,.4.392h3.686a.4.4,0,0,0,.4-.4V.4a.4.4,0,0,0-.4-.4m-.4.79V8.241H16.622c-2.16-.968-2.976-3.765-3.285-5.742v0a.392.392,0,0,0-.018-.112c-.074-.5-.116-.94-.14-1.279a.393.393,0,0,0,.006-.06.391.391,0,0,0-.017-.108c0-.052-.006-.1-.008-.146Zm-5.57.649c.016.2.038.422.068.662H6.292c.029-.24.051-.462.068-.662ZM.79.79H5.607c0,.045,0,.093-.008.145a.393.393,0,0,0-.017.11.383.383,0,0,0,.006.063c-.023.337-.065.774-.138,1.268a.388.388,0,0,0-.021.12s0,.005,0,.008C5.123,4.48,4.307,7.272,2.146,8.241H.79ZM.79,15.5V9.031H2A15.586,15.586,0,0,1,3.675,15.5ZM2.779,8.809c2.177-1.176,3.049-3.886,3.4-5.918H8.989V14.858H4.429A15.892,15.892,0,0,0,2.779,8.809m7,6.049V2.891h2.812c.349,2.031,1.221,4.742,3.4,5.918a15.892,15.892,0,0,0-1.651,6.049Zm5.313.644a15.586,15.586,0,0,1,1.676-6.471h1.21V15.5Z" fill="#373737"/>
      </g>
    </g>
  </g>
</svg>
