<svg xmlns="http://www.w3.org/2000/svg" width="20" height="20" viewBox="0 0 20 20">
  <g id="그룹_123" data-name="그룹 123" transform="translate(-716 -2463)">
    <rect id="사각형_123" data-name="사각형 123" width="20" height="20" transform="translate(716 2463)" fill="#d1d1d1" opacity="0"/>
    <g id="레이어_2" data-name="레이어 2" transform="translate(716 2463.969)">
      <path id="패스_111" data-name="패스 111" d="M20,9.71A3.518,3.518,0,0,0,16.6,6.2a6.611,6.611,0,0,0-13.2,0,3.514,3.514,0,0,0,.112,7.027H3.8a.416.416,0,0,0,.416-.416v-6.2h0a5.779,5.779,0,1,1,11.557,0h0v6.2A2.872,2.872,0,0,1,13.1,15.67a.967.967,0,0,0-.866-.54h-.951a.966.966,0,1,0,0,1.932h.951a.966.966,0,0,0,.875-.557,3.709,3.709,0,0,0,3.479-3.284A3.518,3.518,0,0,0,20,9.71Z" fill="#373737"/>
    </g>
  </g>
</svg>
