<svg xmlns="http://www.w3.org/2000/svg" xmlns:xlink="http://www.w3.org/1999/xlink" width="19" height="19" viewBox="0 0 19 19">
  <defs>
    <clipPath id="clip-path">
      <rect id="사각형_333" data-name="사각형 333" width="17.288" height="17.229" fill="#373737"/>
    </clipPath>
  </defs>
  <g id="그룹_56" data-name="그룹 56" transform="translate(-200 -1382)">
    <path id="패스_64" data-name="패스 64" d="M0,0H19V19H0Z" transform="translate(200 1382)" fill="#d1d1d1" opacity="0"/>
    <g id="그룹_46" data-name="그룹 46" transform="translate(200 1383)">
      <g id="그룹_45" data-name="그룹 45" transform="translate(0)" clip-path="url(#clip-path)">
        <path id="패스_66" data-name="패스 66" d="M29.747.79h.658a.4.4,0,0,0,0-.79h-.658a.4.4,0,0,0,0,.79" transform="translate(-25.487)" fill="#373737"/>
        <path id="패스_67" data-name="패스 67" d="M44.3.79h1.257a.4.4,0,1,0,0-.79H44.3a.4.4,0,1,0,0,.79" transform="translate(-38.121)" fill="#373737"/>
        <path id="패스_68" data-name="패스 68" d="M82.493.79H83.75a.4.4,0,0,0,0-.79H82.493a.4.4,0,0,0,0,.79" transform="translate(-71.288)" fill="#373737"/>
        <path id="패스_69" data-name="패스 69" d="M63.4.79h1.257a.4.4,0,1,0,0-.79H63.4a.4.4,0,0,0,0,.79" transform="translate(-54.705)" fill="#373737"/>
        <path id="패스_70" data-name="패스 70" d="M101.592.79h1.257a.4.4,0,1,0,0-.79h-1.257a.4.4,0,0,0,0,.79" transform="translate(-87.872)" fill="#373737"/>
        <path id="패스_71" data-name="패스 71" d="M121.348,0h-.658a.4.4,0,0,0,0,.79h.263v.263a.4.4,0,0,0,.79,0V.4a.4.4,0,0,0-.4-.4" transform="translate(-104.456)" fill="#373737"/>
        <path id="패스_72" data-name="패스 72" d="M125.69,14.55a.4.4,0,0,0-.4.4V16.2a.4.4,0,1,0,.79,0V14.945a.4.4,0,0,0-.4-.4" transform="translate(-108.798 -12.634)" fill="#373737"/>
        <path id="패스_73" data-name="패스 73" d="M125.69,52.746a.4.4,0,0,0-.4.4V54.4a.4.4,0,0,0,.79,0V53.141a.4.4,0,0,0-.4-.4" transform="translate(-108.798 -45.801)" fill="#373737"/>
        <path id="패스_74" data-name="패스 74" d="M125.69,33.648a.4.4,0,0,0-.4.4V35.3a.4.4,0,1,0,.79,0V34.043a.4.4,0,0,0-.4-.4" transform="translate(-108.798 -29.218)" fill="#373737"/>
        <path id="패스_75" data-name="패스 75" d="M125.69,71.845a.4.4,0,0,0-.4.4V73.5a.4.4,0,1,0,.79,0V72.24a.4.4,0,0,0-.4-.4" transform="translate(-108.798 -62.385)" fill="#373737"/>
        <path id="패스_76" data-name="패스 76" d="M125.69,90.943a.4.4,0,0,0-.4.4V92a.4.4,0,1,0,.79,0v-.658a.4.4,0,0,0-.4-.4" transform="translate(-108.798 -78.969)" fill="#373737"/>
        <path id="패스_77" data-name="패스 77" d="M17.182,15.844a.4.4,0,0,0,.027-.064c0-.008.006-.016.008-.025a.362.362,0,0,0,0-.188c0-.009-.005-.017-.008-.025a.4.4,0,0,0-.027-.064l-.013-.023a.4.4,0,0,0-.054-.071l0,0a.389.389,0,0,0-.074-.057l-.008-.006L15,14.146a.4.4,0,1,0-.4.684l.754.435H1.963V1.869l.435.754a.395.395,0,0,0,.684-.4L1.91.2,1.9.189A.393.393,0,0,0,1.846.115l0,0A.4.4,0,0,0,1.773.059L1.75.047A.377.377,0,0,0,1.686.02L1.661.013a.358.358,0,0,0-.188,0L1.449.02a.376.376,0,0,0-.064.027L1.362.059a.4.4,0,0,0-.071.054l0,0a.388.388,0,0,0-.057.074L1.225.2.053,2.228a.395.395,0,0,0,.684.4l.436-.754V15.661a.4.4,0,0,0,.4.4H15.359l-.754.435a.4.4,0,1,0,.4.684L17.031,16,17.039,16a.4.4,0,0,0,.074-.057l0,0a.4.4,0,0,0,.054-.071l.013-.023" transform="translate(0)" fill="#373737"/>
        <path id="패스_78" data-name="패스 78" d="M25.345,20.219a.393.393,0,0,0,.279-.116l2.19-2.19a.395.395,0,1,0-.559-.559l-2.19,2.19a.4.4,0,0,0,.28.674" transform="translate(-21.665 -14.969)" fill="#373737"/>
        <path id="패스_79" data-name="패스 79" d="M26.221,23.493,31.2,18.51a.395.395,0,0,0-.559-.559l-4.983,4.983a.4.4,0,1,0,.559.559" transform="translate(-22.183 -15.487)" fill="#373737"/>
        <path id="패스_80" data-name="패스 80" d="M26.539,27a.394.394,0,0,0,.279-.116l7.776-7.776a.4.4,0,1,0-.559-.559L26.26,26.325a.395.395,0,0,0,.279.674" transform="translate(-22.702 -16.006)" fill="#373737"/>
        <path id="패스_81" data-name="패스 81" d="M92.566,87.439a.394.394,0,0,0,.279-.116l2.19-2.19a.395.395,0,0,0-.559-.559l-2.19,2.19a.395.395,0,0,0,.279.674" transform="translate(-80.035 -73.338)" fill="#373737"/>
        <path id="패스_82" data-name="패스 82" d="M70.756,68.422a.394.394,0,0,0,.279-.116l4.983-4.983a.395.395,0,0,0-.559-.559l-4.983,4.983a.4.4,0,0,0,.279.674" transform="translate(-61.097 -54.4)" fill="#373737"/>
        <path id="패스_83" data-name="패스 83" d="M48.946,49.405a.394.394,0,0,0,.279-.116L57,41.513a.4.4,0,0,0-.559-.559l-7.776,7.776a.4.4,0,0,0,.279.674" transform="translate(-42.158 -35.462)" fill="#373737"/>
        <path id="패스_84" data-name="패스 84" d="M30.671,32.993a.394.394,0,0,0,.279-.116l9.638-9.638a.395.395,0,1,0-.559-.559l-9.638,9.638a.4.4,0,0,0,.279.674" transform="translate(-26.29 -19.593)" fill="#373737"/>
      </g>
    </g>
  </g>
</svg>
