<svg xmlns="http://www.w3.org/2000/svg" width="22" height="22" viewBox="0 0 22 22">
  <g id="그룹_145" data-name="그룹 145" transform="translate(-1697 -24)">
    <rect id="사각형_28" data-name="사각형 28" width="22" height="22" transform="translate(1697 24)" fill="#6b6b6b" opacity="0"/>
    <path id="menu" d="M23.929,20.366H4.187a.973.973,0,0,1-.987-.987.908.908,0,0,1,.987-.987H23.929a.987.987,0,0,1,0,1.974Zm0-6.046H4.187a.973.973,0,0,1-.987-.987.908.908,0,0,1,.987-.987H23.929a.987.987,0,0,1,0,1.974Zm0-6.169H4.187A1.062,1.062,0,0,1,3.2,7.164.954.954,0,0,1,4.187,6.3H23.929a.973.973,0,0,1,.987.987A.874.874,0,0,1,23.929,8.151Z" transform="translate(1694.083 21.367)" fill="#6b6b6b"/>
  </g>
</svg>
