<svg width="22" height="22" viewBox="0 0 22 22" fill="none" xmlns="http://www.w3.org/2000/svg">
<g clip-path="url(#clip0_184_2)">
<path d="M16.6282 21.0925L13.5757 18.04L10.9082 20.7075L6.90234 6.90253L20.7165 10.9084L18.049 13.5759L21.1015 16.6284L16.6373 21.0925H16.6282ZM13.5848 15.455L16.6373 18.5075L18.5073 16.6375L15.4548 13.585L17.224 11.8159L9.58818 9.59753L11.8065 17.2334L13.5757 15.4642L13.5848 15.455Z" fill="#33FFA7"/>
<path d="M3.90574 2.6069L2.60938 3.90326L5.88269 7.17657L7.17905 5.88021L3.90574 2.6069Z" fill="#33FFA7"/>
<path d="M5.55151 9.29218L1.08008 10.4903L1.55458 12.2612L6.02601 11.063L5.55151 9.29218Z" fill="#33FFA7"/>
<path d="M10.493 1.0835L9.29492 5.55493L11.0658 6.02943L12.2639 1.558L10.493 1.0835Z" fill="#33FFA7"/>
</g>
<defs>
<clipPath id="clip0_184_2">
<rect width="22" height="22" fill="white"/>
</clipPath>
</defs>
</svg>
