<svg width="22" height="22" viewBox="0 0 22 22" fill="none" xmlns="http://www.w3.org/2000/svg">
<g clip-path="url(#clip0_20_2086)">
<path d="M16.6282 21.0925L13.5757 18.04L10.9082 20.7075L6.90234 6.90247L20.7165 10.9083L18.049 13.5758L21.1015 16.6283L16.6373 21.0925H16.6282ZM13.5848 15.455L16.6373 18.5075L18.5073 16.6375L15.4548 13.585L17.224 11.8158L9.58818 9.59747L11.8065 17.2333L13.5757 15.4641L13.5848 15.455Z" fill="#33FFA7"/>
<path d="M3.90574 2.60696L2.60938 3.90332L5.88269 7.17664L7.17905 5.88027L3.90574 2.60696Z" fill="#33FFA7"/>
<path d="M5.55151 9.29212L1.08008 10.4902L1.55458 12.2611L6.02601 11.063L5.55151 9.29212Z" fill="#33FFA7"/>
<path d="M10.493 1.0835L9.29492 5.55493L11.0658 6.02943L12.2639 1.558L10.493 1.0835Z" fill="#33FFA7"/>
</g>
<defs>
<clipPath id="clip0_20_2086">
<rect width="22" height="22" fill="white"/>
</clipPath>
</defs>
</svg>
