<svg xmlns="http://www.w3.org/2000/svg" width="35" height="35" viewBox="0 0 35 35">
  <g id="그룹_149" data-name="그룹 149" transform="translate(-1595 -7179)">
    <rect id="사각형_496" data-name="사각형 496" width="35" height="35" transform="translate(1595 7179)" fill="#545454" opacity="0"/>
    <path id="패스_41" data-name="패스 41" d="M19.582,2.186A2.505,2.505,0,0,0,17.814.418C16.254,0,10,0,10,0S3.746,0,2.186.418A2.5,2.5,0,0,0,.418,2.186,26.029,26.029,0,0,0,0,7a26.029,26.029,0,0,0,.418,4.814,2.505,2.505,0,0,0,1.768,1.768C3.746,14,10,14,10,14s6.254,0,7.814-.418a2.505,2.505,0,0,0,1.768-1.768A26.029,26.029,0,0,0,20,7a26.029,26.029,0,0,0-.418-4.814ZM8,10V4l5.2,3Z" transform="translate(1603 7190)" fill="#aaa"/>
  </g>
</svg>
