<svg xmlns="http://www.w3.org/2000/svg" xmlns:xlink="http://www.w3.org/1999/xlink" width="35" height="35" viewBox="0 0 35 35">
  <defs>
    <clipPath id="clip-path">
      <rect id="사각형_403" data-name="사각형 403" width="20" height="16.443" fill="none"/>
    </clipPath>
  </defs>
  <g id="그룹_150" data-name="그룹 150" transform="translate(-1635 -7179)">
    <rect id="사각형_497" data-name="사각형 497" width="35" height="35" transform="translate(1635 7179)" fill="#545454" opacity="0"/>
    <g id="그룹_142" data-name="그룹 142" transform="translate(1642.5 7189)">
      <g id="그룹_106" data-name="그룹 106" clip-path="url(#clip-path)">
        <path id="패스_35" data-name="패스 35" d="M91.085,160.616a.775.775,0,0,0-.573.242.842.842,0,0,0,0,1.174.775.775,0,0,0,.573.242.829.829,0,0,0,0-1.658" transform="translate(-86.854 -154.53)" fill="#aaa"/>
        <path id="패스_36" data-name="패스 36" d="M273.74,160.432a.771.771,0,0,0-.572.242.841.841,0,0,0,0,1.174.773.773,0,0,0,.572.242.829.829,0,0,0,0-1.658" transform="translate(-262.588 -154.353)" fill="#aaa"/>
        <path id="패스_37" data-name="패스 37" d="M395.557,160.616a.776.776,0,0,0-.573.242.843.843,0,0,0,0,1.174.777.777,0,0,0,.573.242.829.829,0,0,0,0-1.658" transform="translate(-379.789 -154.53)" fill="#aaa"/>
        <path id="패스_38" data-name="패스 38" d="M17.819,0H2.18A2.187,2.187,0,0,0,0,2.181v8.845a2.187,2.187,0,0,0,2.18,2.181H8.321s1.186,3.237,1.618,3.237,1.715-3.237,1.715-3.237h6.165A2.187,2.187,0,0,0,20,11.025V2.181A2.187,2.187,0,0,0,17.819,0M5.813,8.165a1.689,1.689,0,0,1-1.3.5,1.7,1.7,0,0,1-1.062-.333H3.434v.249H2.259V3.456H3.434V5.414h.015a1.931,1.931,0,0,1,1.237-.38,1.553,1.553,0,0,1,1.134.559,2.052,2.052,0,0,1,.457,1.316,1.681,1.681,0,0,1-.463,1.256m2.52.45h-1.2V5.446a.762.762,0,0,0-.578-.828V3.351A2.018,2.018,0,0,1,8.333,5.486Zm4.7-.971a1.859,1.859,0,0,1-.44.614,2,2,0,0,1-.656.409,2.169,2.169,0,0,1-.783.143,2.111,2.111,0,0,1-.77-.143,2.055,2.055,0,0,1-.657-.409,1.945,1.945,0,0,1-.45-.621,1.789,1.789,0,0,1,0-1.445,1.954,1.954,0,0,1,.45-.621,2.058,2.058,0,0,1,.657-.409,2.107,2.107,0,0,1,.77-.142,2.164,2.164,0,0,1,.783.142,2,2,0,0,1,.656.409,1.858,1.858,0,0,1,.44.614,1.844,1.844,0,0,1,0,1.459m4.709.509a2.332,2.332,0,0,1-.572,1.829,2.039,2.039,0,0,1-1.729.4v-.93a.994.994,0,0,0,1.133-.885V8.331h-.014a1.329,1.329,0,0,1-1.179.5,1.513,1.513,0,0,1-1.183-.51,1.982,1.982,0,0,1-.425-1.333A2.206,2.206,0,0,1,14.246,5.5a1.619,1.619,0,0,1,1.278-.539,1.383,1.383,0,0,1,1.035.37h.014V5.056H17.74Z" transform="translate(0)" fill="#aaa"/>
      </g>
    </g>
  </g>
</svg>
