<svg xmlns="http://www.w3.org/2000/svg" xmlns:xlink="http://www.w3.org/1999/xlink" width="35" height="35" viewBox="0 0 35 35">
  <defs>
    <clipPath id="clip-path">
      <rect id="사각형_401" data-name="사각형 401" width="18.753" height="18.639" fill="none"/>
    </clipPath>
  </defs>
  <g id="그룹_147" data-name="그룹 147" transform="translate(-1515 -7179)">
    <rect id="사각형_495" data-name="사각형 495" width="35" height="35" transform="translate(1515 7179)" fill="#545454" opacity="0"/>
    <g id="그룹_143" data-name="그룹 143" transform="translate(1523.123 7187.18)">
      <g id="그룹_102" data-name="그룹 102" clip-path="url(#clip-path)">
        <path id="패스_32" data-name="패스 32" d="M9.376,0A9.377,9.377,0,0,0,7.911,18.639V12.087H5.53V9.377H7.911V7.311a3.309,3.309,0,0,1,3.542-3.648,14.419,14.419,0,0,1,2.1.183V6.153H12.369a1.355,1.355,0,0,0-1.528,1.464V9.377h2.6l-.416,2.71H10.841v6.552A9.377,9.377,0,0,0,9.376,0" transform="translate(0.001)" fill="#aaa"/>
      </g>
    </g>
  </g>
</svg>
