<svg xmlns="http://www.w3.org/2000/svg" xmlns:xlink="http://www.w3.org/1999/xlink" width="35" height="35" viewBox="0 0 35 35">
  <defs>
    <clipPath id="clip-path">
      <rect id="사각형_402" data-name="사각형 402" width="20" height="16.254" fill="none"/>
    </clipPath>
  </defs>
  <g id="그룹_148" data-name="그룹 148" transform="translate(-1555 -7179)">
    <rect id="사각형_494" data-name="사각형 494" width="35" height="35" transform="translate(1555 7179)" fill="#545454" opacity="0"/>
    <g id="그룹_144" data-name="그룹 144" transform="translate(1562.5 7188.373)">
      <g id="그룹_104" data-name="그룹 104" clip-path="url(#clip-path)">
        <path id="패스_34" data-name="패스 34" d="M6.29,16.254A11.6,11.6,0,0,0,17.965,4.579c0-.178,0-.355-.012-.531A8.348,8.348,0,0,0,20,1.924a8.193,8.193,0,0,1-2.356.646A4.118,4.118,0,0,0,19.448.3a8.222,8.222,0,0,1-2.606,1A4.107,4.107,0,0,0,9.85,5.039,11.649,11.649,0,0,1,1.392.751a4.107,4.107,0,0,0,1.27,5.478A4.076,4.076,0,0,1,.8,5.716c0,.017,0,.034,0,.052A4.105,4.105,0,0,0,4.095,9.791a4.1,4.1,0,0,1-1.853.07,4.108,4.108,0,0,0,3.833,2.85,8.234,8.234,0,0,1-5.1,1.756A8.345,8.345,0,0,1,0,14.411a11.616,11.616,0,0,0,6.29,1.843" fill="#aaa"/>
      </g>
    </g>
  </g>
</svg>
