<svg xmlns="http://www.w3.org/2000/svg" xmlns:xlink="http://www.w3.org/1999/xlink" width="35" height="35" viewBox="0 0 35 35">
  <defs>
    <clipPath id="clip-path">
      <rect id="사각형_400" data-name="사각형 400" width="20" height="18.374" fill="none"/>
    </clipPath>
  </defs>
  <g id="그룹_146" data-name="그룹 146" transform="translate(-1475 -7179)">
    <rect id="사각형_498" data-name="사각형 498" width="35" height="35" transform="translate(1475 7179)" fill="#545454" opacity="0"/>
    <g id="그룹_145" data-name="그룹 145" transform="translate(1482.5 7187.313)">
      <g id="그룹_100" data-name="그룹 100" clip-path="url(#clip-path)">
        <path id="패스_30" data-name="패스 30" d="M142.025,129.62l-.67,1.912h1.362l-.67-1.91-.022,0" transform="translate(-134.032 -122.905)" fill="#aaa"/>
        <path id="패스_31" data-name="패스 31" d="M10,0C4.477,0,0,3.539,0,7.906c0,2.842,1.9,5.332,4.744,6.726-.209.781-.757,2.829-.867,3.267-.135.544.2.537.419.39.172-.114,2.74-1.86,3.849-2.614A12.662,12.662,0,0,0,10,15.811c5.523,0,10-3.54,10-7.906S15.523,0,10,0M5.078,10.075a.486.486,0,0,1-.484.485H4.487A.486.486,0,0,1,4,10.075v-3.5H3.052a.5.5,0,1,1,0-.995H5.976a.5.5,0,1,1,0,.995h-.9Zm4.787.46a.484.484,0,0,1-.616-.3L9,9.531H7.006l-.248.708a.483.483,0,1,1-.912-.321L7.28,6.074a.665.665,0,0,1,.028-.065.7.7,0,0,1,.708-.5.716.716,0,0,1,.683.42l0,0,1.457,3.987a.484.484,0,0,1-.3.616M13,10.528H11.016a.451.451,0,0,1-.451-.452.457.457,0,0,1,.008-.086.525.525,0,0,1-.008-.086V6.047a.54.54,0,1,1,1.079,0V9.625H13a.452.452,0,0,1,0,.9m4.249-.063a.482.482,0,0,1-.675-.1L15.144,8.488l-.308.308v1.226a.54.54,0,1,1-1.079,0V6.047a.54.54,0,1,1,1.079,0V7.452l1.695-1.7a.475.475,0,1,1,.672.671L15.834,7.8l1.515,1.99a.483.483,0,0,1-.1.676" transform="translate(0 0)" fill="#aaa"/>
      </g>
    </g>
  </g>
</svg>
