<svg xmlns="http://www.w3.org/2000/svg" width="17.057" height="17" viewBox="0 0 17.057 17">
  <path id="합치기_3" data-name="합치기 3" d="M12.122,15a1,1,0,1,1,1,1A1,1,0,0,1,12.122,15ZM3,15a1,1,0,1,1,1,1A1,1,0,0,1,3,15Zm.1-2.066-.686-1.217L3.932,9.2,1.462,1.6H0V0H2.045l.762.553.553,1.7H15.242L16,3.319,13.828,9.565l-.758.539H5.26l-.742,1.227H14.625v1.6ZM5.39,8.5H12.5l1.615-4.643H3.882Z" transform="translate(0.5 0.5)" fill="#5a5a5a" stroke="rgba(0,0,0,0)" stroke-miterlimit="10" stroke-width="1"/>
</svg>
