<svg id="그룹_134" data-name="그룹 134" xmlns="http://www.w3.org/2000/svg" xmlns:xlink="http://www.w3.org/1999/xlink" width="45" height="44.999" viewBox="0 0 45 44.999">
  <defs>
    <clipPath id="clip-path">
      <rect id="사각형_64" data-name="사각형 64" width="45" height="44.999"/>
    </clipPath>
  </defs>
  <g id="그룹_1" data-name="그룹 1" clip-path="url(#clip-path)">
    <path id="패스_1" data-name="패스 1" d="M22.563,0,17.722,13.573h3.291c2.371,0,3.379,1.87,2.633,3.963l-4.814,13.5H13.988l5.3-14.85H16.79l-5.3,14.85H6.609L17.475.563a22.505,22.505,0,0,0-.466,43.76L27.988,13.5h7.951c1.645,0,3.713,1.109,2.819,3.633l-4.464,12.6a2.9,2.9,0,0,1-3.006,1.936H26.4L21.66,44.982c.279.01.559.017.84.017a22.5,22.5,0,0,0,.062-45ZM31.93,16.147,27.318,29.091h2.456l4.612-12.944Z"/>
  </g>
</svg>
