<svg width="24" height="24" viewBox="0 0 24 24" fill="none" xmlns="http://www.w3.org/2000/svg">
<path d="M13.45 12L17.31 8.14C17.7 7.75 17.7 7.12 17.31 6.73C16.92 6.34 16.29 6.34 15.9 6.73L12.04 10.59L8.17998 6.73C7.78998 6.34 7.15998 6.34 6.76998 6.73C6.37998 7.12 6.37998 7.75 6.76998 8.14L10.63 12L6.76998 15.86C6.37998 16.25 6.37998 16.88 6.76998 17.27C6.96998 17.47 7.21998 17.56 7.47998 17.56C7.73998 17.56 7.98998 17.46 8.18998 17.27L12.05 13.41L15.91 17.27C16.11 17.47 16.36 17.56 16.62 17.56C16.88 17.56 17.13 17.46 17.33 17.27C17.72 16.88 17.72 16.25 17.33 15.86L13.47 12H13.45Z" fill="#8A8A8A"/>
</svg>
