<svg width="24" height="24" viewBox="0 0 24 24" fill="none" xmlns="http://www.w3.org/2000/svg">
<path fill-rule="evenodd" clip-rule="evenodd" d="M8.62 2V12.4C9.99 12.83 11 14.1 11 15.61C11 17.12 9.99 18.39 8.62 18.82V22C8.62 22.55 8.17 23 7.62 23C7.07 23 6.62 22.55 6.62 22V18.82C5.25 18.39 4.23999 17.12 4.23999 15.61C4.23999 14.1 5.25 12.83 6.62 12.4V2C6.62 1.45 7.07 1 7.62 1C8.17 1 8.62 1.45 8.62 2ZM6.23999 15.61C6.23999 16.37 6.86 16.99 7.62 16.99C8.38 16.99 9 16.37 9 15.61C9 14.85 8.38 14.23 7.62 14.23C6.86 14.23 6.23999 14.85 6.23999 15.61ZM17.38 5.18C18.75 5.61 19.76 6.88 19.76 8.39C19.76 9.9 18.75 11.17 17.38 11.6V22C17.38 22.55 16.93 23 16.38 23C15.83 23 15.38 22.55 15.38 22V11.6C14.01 11.17 13 9.9 13 8.39C13 6.88 14.01 5.61 15.38 5.18V2C15.38 1.45 15.83 1 16.38 1C16.93 1 17.38 1.45 17.38 2V5.18ZM15 8.39C15 9.15 15.62 9.77 16.38 9.77C17.14 9.77 17.76 9.15 17.76 8.39C17.76 7.63 17.14 7.01 16.38 7.01C15.62 7.01 15 7.63 15 8.39Z" fill="#8A8A8A"/>
</svg>
