<svg xmlns="http://www.w3.org/2000/svg" xmlns:xlink="http://www.w3.org/1999/xlink" width="15" height="15" viewBox="0 0 15 15">
  <defs>
    <clipPath id="clip-path">
      <rect id="사각형_465" data-name="사각형 465" width="14.742" height="15" fill="#5d7dff"/>
    </clipPath>
  </defs>
  <g id="그룹_235" data-name="그룹 235" transform="translate(-37 -699)">
    <g id="사각형_462" data-name="사각형 462" transform="translate(37 699)" fill="#fff" stroke="#707070" stroke-width="1" opacity="0">
      <rect width="15" height="15" stroke="none"/>
      <rect x="0.5" y="0.5" width="14" height="14" fill="none"/>
    </g>
    <g id="그룹_234" data-name="그룹 234" transform="translate(37.129 699)">
      <g id="그룹_233" data-name="그룹 233" clip-path="url(#clip-path)">
        <path id="패스_388" data-name="패스 388" d="M14.153,8.017a.708.708,0,0,0-.817.579A6.008,6.008,0,1,1,11.526,3.2H10.039a.708.708,0,0,0,0,1.416h3.2a.708.708,0,0,0,.708-.708V.708a.708.708,0,1,0-1.416,0v1.5A7.42,7.42,0,0,0,2.17,12.827,7.421,7.421,0,0,0,14.732,8.835a.708.708,0,0,0-.579-.817" transform="translate(0)" fill="#5d7dff"/>
      </g>
    </g>
  </g>
</svg>
