<svg xmlns="http://www.w3.org/2000/svg" width="200" height="199.999" viewBox="0 0 200 199.999">
  <g id="그룹_251" data-name="그룹 251" transform="translate(-80 -118)">
    <path id="빼기_1" data-name="빼기 1" d="M6340,2185a99.526,99.526,0,0,1-55.91-17.078,100.289,100.289,0,0,1-36.23-44,99.869,99.869,0,0,1,9.22-94.835,100.3,100.3,0,0,1,44-36.23,99.869,99.869,0,0,1,94.836,9.22,100.285,100.285,0,0,1,36.231,44,99.868,99.868,0,0,1-9.22,94.835,100.3,100.3,0,0,1-44,36.23A99.382,99.382,0,0,1,6340,2185Zm0-190a90,90,0,1,0,90,90A90.1,90.1,0,0,0,6340,1995Z" transform="translate(-6160 -1867)" fill="#f1f5ff"/>
    <path id="합치기_3" data-name="합치기 3" d="M61.075,192.14A99.917,99.917,0,0,1,0,100a5,5,0,0,1,10,0,90,90,0,1,0,90-90h0a5,5,0,0,1,0-10,99.542,99.542,0,0,1,55.911,17.078,100.287,100.287,0,0,1,36.231,44,99.867,99.867,0,0,1-9.22,94.835,100.293,100.293,0,0,1-44,36.23,100.326,100.326,0,0,1-77.849,0Z" transform="translate(80 118)" fill="#5d7dff"/>
  </g>
</svg>
