<svg xmlns="http://www.w3.org/2000/svg" width="10" height="10.001" viewBox="0 0 10 10.001">
  <path id="패스_353" data-name="패스 353" d="M9.879,7.812,8.816,6.749,8.436,6.37a.408.408,0,0,0-.577,0l-.894.894a.889.889,0,0,1-.938.21A7.9,7.9,0,0,1,3.96,6.034,7.9,7.9,0,0,1,2.52,3.967a.89.89,0,0,1,.21-.938l.894-.894a.408.408,0,0,0,0-.577L2.181.114A.408.408,0,0,0,1.652.074L.574.863a1.346,1.346,0,0,0-.542.885c-.138.931.038,2.868,2.692,5.521s4.545,2.825,5.488,2.7a1.365,1.365,0,0,0,.817-.425,1.211,1.211,0,0,0,.1-.122l.789-1.078a.407.407,0,0,0-.041-.529Z" transform="translate(0.002 0.005)" fill="#4a71ff"/>
</svg>
