<svg id="그룹_153" data-name="그룹 153" xmlns="http://www.w3.org/2000/svg" xmlns:xlink="http://www.w3.org/1999/xlink" width="18" height="14.712" viewBox="0 0 18 14.712">
  <defs>
    <clipPath id="clip-path">
      <rect id="사각형_389" data-name="사각형 389" width="18" height="14.712" transform="translate(0 0)" fill="#5d7dff"/>
    </clipPath>
  </defs>
  <g id="그룹_152" data-name="그룹 152" transform="translate(0 0)" clip-path="url(#clip-path)">
    <path id="패스_216" data-name="패스 216" d="M15.982,2.32H13.974L13.25.947A1.77,1.77,0,0,0,11.681,0H6.319A1.769,1.769,0,0,0,4.75.947L4.026,2.32H2.018A2.021,2.021,0,0,0,0,4.338v8.355a2.021,2.021,0,0,0,2.018,2.018H15.982A2.021,2.021,0,0,0,18,12.694V4.338A2.021,2.021,0,0,0,15.982,2.32m.428,10.374a.429.429,0,0,1-.428.428H2.018a.429.429,0,0,1-.428-.428V4.338a.429.429,0,0,1,.428-.428H4.506a.8.8,0,0,0,.7-.424l.948-1.8a.183.183,0,0,1,.162-.1h5.362a.183.183,0,0,1,.162.1l.948,1.8a.8.8,0,0,0,.7.424h2.487a.429.429,0,0,1,.428.428Z" transform="translate(0 0)" fill="#5d7dff"/>
    <path id="패스_217" data-name="패스 217" d="M51.132,40.96a3.128,3.128,0,1,0,3.128,3.128,3.132,3.132,0,0,0-3.128-3.128m0,4.666a1.538,1.538,0,1,1,1.538-1.538,1.54,1.54,0,0,1-1.538,1.538" transform="translate(-42.132 -35.95)" fill="#5d7dff"/>
    <path id="패스_218" data-name="패스 218" d="M22.51,40.45a.786.786,0,0,0-.293-.357.809.809,0,0,0-.286-.118.786.786,0,0,0-.311,0,.79.79,0,0,0-.506.338A.8.8,0,0,0,21,40.6a.785.785,0,0,0,0,.311.8.8,0,0,0,.119.286.783.783,0,0,0,.22.22.811.811,0,0,0,.137.073.8.8,0,0,0,.149.045.779.779,0,0,0,.311,0,.8.8,0,0,0,.149-.045.812.812,0,0,0,.137-.073.793.793,0,0,0,.293-.357.808.808,0,0,0,.045-.149.784.784,0,0,0,0-.311.8.8,0,0,0-.045-.149" transform="translate(-18.415 -35.071)" fill="#5d7dff"/>
  </g>
</svg>
