<svg xmlns="http://www.w3.org/2000/svg" width="25" height="25" viewBox="0 0 25 25">
  <g id="그룹_252" data-name="그룹 252" transform="translate(-315 -349)">
    <circle id="타원_67" data-name="타원 67" cx="12.5" cy="12.5" r="12.5" transform="translate(315 349)" fill="#fff"/>
    <path id="타원_67_-_윤곽선" data-name="타원 67 - 윤곽선" d="M12.5,1A11.5,11.5,0,0,0,4.368,20.632,11.5,11.5,0,0,0,20.632,4.368,11.425,11.425,0,0,0,12.5,1m0-1A12.5,12.5,0,1,1,0,12.5,12.5,12.5,0,0,1,12.5,0Z" transform="translate(315 349)" fill="#ff9292"/>
    <path id="패스_131" data-name="패스 131" d="M-5907.069-3218.75h-10a.75.75,0,0,1-.75-.75.75.75,0,0,1,.75-.75h10a.75.75,0,0,1,.75.75A.75.75,0,0,1-5907.069-3218.75Z" transform="translate(2231.433 6818.494) rotate(45)" fill="#ff9292"/>
    <path id="패스_132" data-name="패스 132" d="M10,.75H0A.75.75,0,0,1-.75,0,.75.75,0,0,1,0-.75H10a.75.75,0,0,1,.75.75A.75.75,0,0,1,10,.75Z" transform="translate(331.035 357.965) rotate(135)" fill="#ff9292"/>
  </g>
</svg>
