<svg xmlns="http://www.w3.org/2000/svg" width="120" height="14.4" viewBox="0 0 120 14.4">
  <g id="그룹_129" data-name="그룹 129" transform="translate(-40 -49.228)">
    <path id="패스_123" data-name="패스 123" d="M-90.974-7.088V-9.649H-85.5a1.217,1.217,0,0,0,.658-.183,1.392,1.392,0,0,0,.466-.476,1.231,1.231,0,0,0,.174-.64,1.265,1.265,0,0,0-.174-.658,1.392,1.392,0,0,0-.466-.476,1.217,1.217,0,0,0-.658-.183H-87.48a4.631,4.631,0,0,1-2.03-.439,3.462,3.462,0,0,1-1.454-1.289,3.727,3.727,0,0,1-.54-2.039,3.893,3.893,0,0,1,.512-2.03,3.635,3.635,0,0,1,1.39-1.344,3.944,3.944,0,0,1,1.939-.485h5.652v2.561h-5.3a1.151,1.151,0,0,0-.6.165,1.119,1.119,0,0,0-.421.439,1.262,1.262,0,0,0-.146.6,1.21,1.21,0,0,0,.146.594,1.137,1.137,0,0,0,.421.43,1.151,1.151,0,0,0,.6.165h2.067a4.594,4.594,0,0,1,2.131.466,3.454,3.454,0,0,1,1.408,1.3,3.692,3.692,0,0,1,.5,1.948,4.494,4.494,0,0,1-.521,2.241,3.573,3.573,0,0,1-1.4,1.408,3.944,3.944,0,0,1-1.939.485Zm11.047,0V-12.63a4.039,4.039,0,0,1,.54-2.076,3.79,3.79,0,0,1,1.546-1.454,5.072,5.072,0,0,1,2.4-.53,4.978,4.978,0,0,1,1.28.155,4.772,4.772,0,0,1,1.07.421,3.364,3.364,0,0,1,.832.631h.037a3.716,3.716,0,0,1,.85-.631,4.734,4.734,0,0,1,1.079-.421,5.085,5.085,0,0,1,1.289-.155,5.072,5.072,0,0,1,2.4.53,3.853,3.853,0,0,1,1.555,1.454,3.987,3.987,0,0,1,.549,2.076v5.542h-2.853v-5.45a1.567,1.567,0,0,0-.229-.832,1.84,1.84,0,0,0-.613-.613,1.633,1.633,0,0,0-.878-.238,1.681,1.681,0,0,0-.887.238,1.735,1.735,0,0,0-.613.613,1.617,1.617,0,0,0-.219.832v5.45h-2.835v-5.45a1.567,1.567,0,0,0-.229-.832,1.813,1.813,0,0,0-.622-.613,1.681,1.681,0,0,0-.887-.238,1.68,1.68,0,0,0-.887.238,1.735,1.735,0,0,0-.613.613,1.617,1.617,0,0,0-.219.832v5.45ZM-59-6.869a3.838,3.838,0,0,1-2.195-.64,4.316,4.316,0,0,1-1.481-1.728,5.543,5.543,0,0,1-.53-2.46,5.184,5.184,0,0,1,.622-2.551,4.593,4.593,0,0,1,1.765-1.783,5.312,5.312,0,0,1,2.7-.658,5.208,5.208,0,0,1,2.679.649,4.41,4.41,0,0,1,1.7,1.774,5.3,5.3,0,0,1,.594,2.515v4.664h-2.78v-1.5H-56a3.461,3.461,0,0,1-.658.887,2.811,2.811,0,0,1-.979.613A3.824,3.824,0,0,1-59-6.869Zm.841-2.451a1.994,1.994,0,0,0,1.125-.32,2.042,2.042,0,0,0,.741-.887,3.032,3.032,0,0,0,.256-1.262,2.863,2.863,0,0,0-.256-1.225,2.062,2.062,0,0,0-.741-.869,1.994,1.994,0,0,0-1.125-.32,2.071,2.071,0,0,0-1.152.32,2.04,2.04,0,0,0-.75.869,2.863,2.863,0,0,0-.256,1.225,3.032,3.032,0,0,0,.256,1.262,2.021,2.021,0,0,0,.75.887A2.071,2.071,0,0,0-58.162-9.32Zm6.676,2.231v-6.621a2.719,2.719,0,0,1,.732-2.012,2.744,2.744,0,0,1,2.03-.732H-46v2.3h-2.03a.615.615,0,0,0-.439.174.59.59,0,0,0-.183.448v6.438Zm10.187,0a2.724,2.724,0,0,1-2.03-.741,2.725,2.725,0,0,1-.732-2v-8.925h2.853V-10a.511.511,0,0,0,.155.375.511.511,0,0,0,.375.155h2.048v2.378Zm-4.3-7.06v-2.323h6.968v2.323Zm17.906,7.279a5.658,5.658,0,0,1-2.679-.613,4.449,4.449,0,0,1-1.82-1.765,5.4,5.4,0,0,1-.658-2.725v-7.92h3.018v8.029a2.7,2.7,0,0,0,.256,1.189,2.024,2.024,0,0,0,.741.841,2.071,2.071,0,0,0,1.143.311,2.026,2.026,0,0,0,1.134-.311,2.112,2.112,0,0,0,.741-.841,2.621,2.621,0,0,0,.265-1.189v-8.029h3.018v8.029a2.7,2.7,0,0,0,.256,1.189,2.024,2.024,0,0,0,.741.841,2.071,2.071,0,0,0,1.143.311,2.071,2.071,0,0,0,1.143-.311,2.024,2.024,0,0,0,.741-.841,2.7,2.7,0,0,0,.256-1.189v-8.029h3.018v7.92a5.4,5.4,0,0,1-.658,2.725,4.45,4.45,0,0,1-1.82,1.765,5.658,5.658,0,0,1-2.679.613,5.608,5.608,0,0,1-1.417-.174,4.4,4.4,0,0,1-1.225-.521,4.937,4.937,0,0,1-1.015-.841,4.257,4.257,0,0,1-1.006.832,4.98,4.98,0,0,1-1.225.521A5.242,5.242,0,0,1-27.691-6.869Zm17.906,0a3.838,3.838,0,0,1-2.195-.64,4.316,4.316,0,0,1-1.481-1.728,5.542,5.542,0,0,1-.53-2.46,5.184,5.184,0,0,1,.622-2.551A4.593,4.593,0,0,1-11.6-16.032a5.312,5.312,0,0,1,2.7-.658,5.208,5.208,0,0,1,2.679.649,4.41,4.41,0,0,1,1.7,1.774,5.3,5.3,0,0,1,.594,2.515v4.664h-2.78v-1.5h-.073a3.461,3.461,0,0,1-.658.887,2.811,2.811,0,0,1-.979.613A3.824,3.824,0,0,1-9.785-6.869Zm.841-2.451a1.994,1.994,0,0,0,1.125-.32,2.042,2.042,0,0,0,.741-.887,3.032,3.032,0,0,0,.256-1.262,2.863,2.863,0,0,0-.256-1.225,2.062,2.062,0,0,0-.741-.869,1.994,1.994,0,0,0-1.125-.32,2.071,2.071,0,0,0-1.152.32,2.04,2.04,0,0,0-.75.869,2.863,2.863,0,0,0-.256,1.225,3.032,3.032,0,0,0,.256,1.262,2.021,2.021,0,0,0,.75.887A2.071,2.071,0,0,0-8.943-9.32Zm6.749,2.231V-20.44H.64V-7.088Zm4.572,0V-20.44H5.213v7.517H6.457L8.6-16.471h3.164L9.237-12.557a3.664,3.664,0,0,1,1.71,1.4,3.951,3.951,0,0,1,.613,2.2v1.866H8.706V-8.954a1.76,1.76,0,0,0-.247-.924,1.84,1.84,0,0,0-.649-.649,1.763,1.763,0,0,0-.914-.238H5.213v3.676Zm15.546,0a6.259,6.259,0,0,1-2.8-.594,4.534,4.534,0,0,1-1.875-1.646,4.458,4.458,0,0,1-.668-2.442,5.14,5.14,0,0,1,.64-2.634,4.467,4.467,0,0,1,1.71-1.692,4.794,4.794,0,0,1,2.369-.594,4.6,4.6,0,0,1,2.478.622,3.976,3.976,0,0,1,1.509,1.692,5.589,5.589,0,0,1,.512,2.442q0,.238-.027.558a4.788,4.788,0,0,1-.064.5H15.565a1.705,1.705,0,0,0,.421.8,1.849,1.849,0,0,0,.786.485,3.4,3.4,0,0,0,1.061.155H20.7v2.341Zm-2.433-5.56h3.567a4.236,4.236,0,0,0-.11-.567,1.423,1.423,0,0,0-.229-.485,1.846,1.846,0,0,0-.357-.366,1.619,1.619,0,0,0-.466-.247A1.816,1.816,0,0,0,17.3-14.4a1.829,1.829,0,0,0-.75.146,1.581,1.581,0,0,0-.549.393,1.775,1.775,0,0,0-.338.567A3.527,3.527,0,0,0,15.492-12.649Zm7.517,5.56v-6.621a2.719,2.719,0,0,1,.732-2.012,2.744,2.744,0,0,1,2.03-.732H28.5v2.3h-2.03a.615.615,0,0,0-.439.174.59.59,0,0,0-.183.448v6.438Z" transform="translate(131.504 70.002)" fill="#547cff"/>
    <g id="사각형_145" data-name="사각형 145" transform="translate(40 49.228)" fill="#547cff" stroke="#707070" stroke-width="1" opacity="0">
      <rect width="120" height="14.4" stroke="none"/>
      <rect x="0.5" y="0.5" width="119" height="13.4" fill="none"/>
    </g>
  </g>
</svg>
