<svg id="그룹_79" data-name="그룹 79" xmlns="http://www.w3.org/2000/svg" xmlns:xlink="http://www.w3.org/1999/xlink" width="18" height="18" viewBox="0 0 18 18">
  <defs>
    <clipPath id="clip-path">
      <rect id="사각형_232" data-name="사각형 232" width="18" height="18" fill="#82899f"/>
    </clipPath>
  </defs>
  <g id="그룹_78" data-name="그룹 78" clip-path="url(#clip-path)">
    <g id="그룹_77" data-name="그룹 77">
      <g id="그룹_76" data-name="그룹 76" clip-path="url(#clip-path)">
        <g id="그룹_75" data-name="그룹 75" opacity="0">
          <g id="그룹_74" data-name="그룹 74">
            <g id="그룹_73" data-name="그룹 73" clip-path="url(#clip-path)">
              <rect id="사각형_229" data-name="사각형 229" width="18" height="18" fill="#82899f"/>
            </g>
          </g>
        </g>
        <path id="패스_67" data-name="패스 67" d="M17.6,47.308a.9.9,0,0,0-.9.9V56.92a.923.923,0,0,1-.942.9H3.373a.923.923,0,0,1-.942-.9V48.208a.9.9,0,1,0-1.8,0V56.92a2.725,2.725,0,0,0,2.742,2.7H15.761a2.725,2.725,0,0,0,2.742-2.7V48.208a.9.9,0,0,0-.9-.9" transform="translate(-0.555 -41.631)" fill="#82899f"/>
        <path id="패스_68" data-name="패스 68" d="M39.939,5.131l1.979-1.979v8.286a.9.9,0,1,0,1.8,0V3.149L45.768,5.2a.9.9,0,0,0,1.273-1.273L43.456.342a.9.9,0,0,0-1.273,0L38.666,3.859a.9.9,0,0,0,1.273,1.273" transform="translate(-33.794 -0.069)" fill="#82899f"/>
      </g>
    </g>
  </g>
</svg>
