<svg id="그룹_88" data-name="그룹 88" xmlns="http://www.w3.org/2000/svg" xmlns:xlink="http://www.w3.org/1999/xlink" width="18" height="18" viewBox="0 0 18 18">
  <defs>
    <clipPath id="clip-path">
      <rect id="사각형_237" data-name="사각형 237" width="18" height="18" fill="#82899f"/>
    </clipPath>
  </defs>
  <g id="그룹_87" data-name="그룹 87" clip-path="url(#clip-path)">
    <g id="그룹_86" data-name="그룹 86">
      <g id="그룹_85" data-name="그룹 85" clip-path="url(#clip-path)">
        <g id="그룹_84" data-name="그룹 84" opacity="0">
          <g id="그룹_83" data-name="그룹 83">
            <g id="그룹_82" data-name="그룹 82" clip-path="url(#clip-path)">
              <rect id="사각형_234" data-name="사각형 234" width="18" height="18" fill="#82899f"/>
            </g>
          </g>
        </g>
        <path id="패스_71" data-name="패스 71" d="M58.073,135H54.812a.9.9,0,0,0,0,1.8h3.261a.9.9,0,1,0,0-1.8" transform="translate(-47.443 -118.8)" fill="#82899f"/>
        <path id="패스_72" data-name="패스 72" d="M22.609,13.72h-.932V8.336a6.307,6.307,0,0,0-5.4-6.233V1.092a.9.9,0,1,0-1.8,0V2.1a6.307,6.307,0,0,0-5.4,6.233V13.72H8.149a.9.9,0,0,0,0,1.8h14.46a.9.9,0,1,0,0-1.8m-2.732,0h-9V8.336a4.5,4.5,0,0,1,9,0Z" transform="translate(-6.379 -0.169)" fill="#82899f"/>
      </g>
    </g>
  </g>
</svg>
