<svg xmlns="http://www.w3.org/2000/svg" xmlns:xlink="http://www.w3.org/1999/xlink" width="172" height="70" viewBox="0 0 172 70">
  <defs>
    <clipPath id="clip-path">
      <rect id="사각형_246" data-name="사각형 246" width="119" height="31" transform="translate(94 183)" fill="#fff" stroke="#707070" stroke-width="1"/>
    </clipPath>
    <clipPath id="clip-path-2">
      <rect id="사각형_247" data-name="사각형 247" width="140" height="34" transform="translate(0.121 -0.041)" fill="#fff" stroke="#707070" stroke-width="1"/>
    </clipPath>
  </defs>
  <g id="그룹_192" data-name="그룹 192" transform="translate(-94 -183)">
    <g id="마스크_그룹_4" data-name="마스크 그룹 4" clip-path="url(#clip-path)">
      <path id="패스_123" data-name="패스 123" d="M-90.322,9.318V3.611h12.189A2.712,2.712,0,0,0-76.666,3.2a3.1,3.1,0,0,0,1.039-1.06A2.744,2.744,0,0,0-75.239.717a2.82,2.82,0,0,0-.387-1.468,3.1,3.1,0,0,0-1.039-1.06,2.712,2.712,0,0,0-1.468-.408h-4.4A10.321,10.321,0,0,1-87.061-3.2,7.716,7.716,0,0,1-90.3-6.07a8.308,8.308,0,0,1-1.2-4.545,8.677,8.677,0,0,1,1.141-4.525,8.1,8.1,0,0,1,3.1-3,8.791,8.791,0,0,1,4.321-1.08h12.6v5.707H-82.169a2.566,2.566,0,0,0-1.345.367,2.493,2.493,0,0,0-.938.978,2.813,2.813,0,0,0-.326,1.345,2.7,2.7,0,0,0,.326,1.325,2.535,2.535,0,0,0,.938.958,2.566,2.566,0,0,0,1.345.367h4.606a10.24,10.24,0,0,1,4.749,1.04,7.7,7.7,0,0,1,3.139,2.894A8.23,8.23,0,0,1-68.553.106,10.016,10.016,0,0,1-69.715,5.1a7.964,7.964,0,0,1-3.118,3.139,8.79,8.79,0,0,1-4.321,1.08Zm24.622,0V-3.033A9,9,0,0,1-64.5-7.66,8.447,8.447,0,0,1-61.053-10.9a11.305,11.305,0,0,1,5.34-1.182,11.1,11.1,0,0,1,2.854.347,10.635,10.635,0,0,1,2.385.938,7.5,7.5,0,0,1,1.855,1.406h.082a8.283,8.283,0,0,1,1.9-1.406,10.552,10.552,0,0,1,2.405-.938,11.333,11.333,0,0,1,2.874-.347,11.305,11.305,0,0,1,5.34,1.182A8.588,8.588,0,0,1-32.558-7.66a8.886,8.886,0,0,1,1.223,4.627V9.318h-6.359V-2.83a3.493,3.493,0,0,0-.51-1.855A4.1,4.1,0,0,0-39.57-6.05a3.641,3.641,0,0,0-1.957-.53,3.746,3.746,0,0,0-1.977.53,3.866,3.866,0,0,0-1.366,1.366,3.6,3.6,0,0,0-.489,1.855V9.318h-6.319V-2.83a3.494,3.494,0,0,0-.51-1.855A4.042,4.042,0,0,0-53.572-6.05a3.746,3.746,0,0,0-1.977-.53,3.746,3.746,0,0,0-1.977.53,3.866,3.866,0,0,0-1.366,1.366,3.6,3.6,0,0,0-.489,1.855V9.318Zm46.635.489a8.553,8.553,0,0,1-4.892-1.427,9.62,9.62,0,0,1-3.3-3.852A12.353,12.353,0,0,1-28.441-.954a11.555,11.555,0,0,1,1.386-5.687,10.237,10.237,0,0,1,3.934-3.975,11.841,11.841,0,0,1,6.013-1.468,11.607,11.607,0,0,1,5.972,1.447A9.829,9.829,0,0,1-7.345-6.682,11.809,11.809,0,0,1-6.02-1.077v10.4h-6.2V5.976h-.163a7.714,7.714,0,0,1-1.468,1.977,6.266,6.266,0,0,1-2.181,1.366A8.524,8.524,0,0,1-19.065,9.808Zm1.875-5.462a4.445,4.445,0,0,0,2.507-.713,4.551,4.551,0,0,0,1.651-1.977,6.757,6.757,0,0,0,.571-2.813,6.381,6.381,0,0,0-.571-2.731,4.6,4.6,0,0,0-1.651-1.936,4.445,4.445,0,0,0-2.507-.713,4.616,4.616,0,0,0-2.568.713,4.548,4.548,0,0,0-1.671,1.936A6.381,6.381,0,0,0-22-1.158a6.757,6.757,0,0,0,.571,2.813,4.5,4.5,0,0,0,1.671,1.977A4.616,4.616,0,0,0-17.19,4.345ZM-2.31,9.318V-5.439A6.06,6.06,0,0,1-.68-9.923a6.116,6.116,0,0,1,4.525-1.631H9.919v5.136H5.394a1.37,1.37,0,0,0-.978.387,1.316,1.316,0,0,0-.408,1V9.318Zm22.706,0a6.072,6.072,0,0,1-4.525-1.651A6.074,6.074,0,0,1,14.24,3.2V-16.69H20.6V2.837a1.183,1.183,0,0,0,1.182,1.182h4.566v5.3ZM10.816-6.417v-5.177H26.347v5.177ZM50.725,9.808a12.611,12.611,0,0,1-5.972-1.366A9.917,9.917,0,0,1,40.7,4.508a12.038,12.038,0,0,1-1.468-6.074V-19.217h6.726v17.9a6.016,6.016,0,0,0,.571,2.65A4.511,4.511,0,0,0,48.177,3.2a4.615,4.615,0,0,0,2.548.693A4.515,4.515,0,0,0,53.252,3.2,4.707,4.707,0,0,0,54.9,1.328a5.842,5.842,0,0,0,.591-2.65v-17.9H62.22v17.9a6.016,6.016,0,0,0,.571,2.65A4.511,4.511,0,0,0,64.442,3.2,4.616,4.616,0,0,0,66.99,3.9,4.615,4.615,0,0,0,69.538,3.2a4.511,4.511,0,0,0,1.651-1.875,6.016,6.016,0,0,0,.571-2.65v-17.9h6.726V-1.566a12.038,12.038,0,0,1-1.468,6.074,9.917,9.917,0,0,1-4.056,3.934A12.611,12.611,0,0,1,66.99,9.808a12.5,12.5,0,0,1-3.159-.387A9.8,9.8,0,0,1,61.1,8.258a11,11,0,0,1-2.262-1.875,9.488,9.488,0,0,1-2.242,1.855A11.1,11.1,0,0,1,53.864,9.4,11.684,11.684,0,0,1,50.725,9.808Zm39.909,0a8.553,8.553,0,0,1-4.892-1.427,9.62,9.62,0,0,1-3.3-3.852A12.353,12.353,0,0,1,81.258-.954a11.555,11.555,0,0,1,1.386-5.687,10.237,10.237,0,0,1,3.934-3.975,11.84,11.84,0,0,1,6.013-1.468,11.607,11.607,0,0,1,5.972,1.447,9.829,9.829,0,0,1,3.791,3.954,11.809,11.809,0,0,1,1.325,5.605v10.4h-6.2V5.976h-.163a7.714,7.714,0,0,1-1.468,1.977,6.266,6.266,0,0,1-2.181,1.366A8.524,8.524,0,0,1,90.634,9.808Zm1.875-5.462a4.444,4.444,0,0,0,2.507-.713,4.551,4.551,0,0,0,1.651-1.977,6.757,6.757,0,0,0,.571-2.813,6.381,6.381,0,0,0-.571-2.731,4.6,4.6,0,0,0-1.651-1.936,4.444,4.444,0,0,0-2.507-.713,4.616,4.616,0,0,0-2.568.713,4.548,4.548,0,0,0-1.671,1.936A6.381,6.381,0,0,0,87.7-1.158a6.757,6.757,0,0,0,.571,2.813,4.5,4.5,0,0,0,1.671,1.977A4.616,4.616,0,0,0,92.509,4.345Zm15.042,4.973V-20.44h6.319V9.318Zm10.191,0V-20.44h6.319V-3.686h2.772l4.769-7.908h7.052L133.029-2.87A8.165,8.165,0,0,1,136.841.248a8.806,8.806,0,0,1,1.366,4.912V9.318h-6.359V5.16A3.924,3.924,0,0,0,131.3,3.1a4.1,4.1,0,0,0-1.447-1.447,3.93,3.93,0,0,0-2.038-.53h-3.75V9.318Zm34.65,0a13.951,13.951,0,0,1-6.237-1.325,10.106,10.106,0,0,1-4.178-3.669,9.935,9.935,0,0,1-1.488-5.442,11.456,11.456,0,0,1,1.427-5.87,9.956,9.956,0,0,1,3.812-3.771,10.686,10.686,0,0,1,5.279-1.325A10.253,10.253,0,0,1,156.53-10.7a8.861,8.861,0,0,1,3.363,3.771,12.456,12.456,0,0,1,1.141,5.442q0,.53-.061,1.243A10.67,10.67,0,0,1,160.831.88h-13.7a3.8,3.8,0,0,0,.938,1.794,4.122,4.122,0,0,0,1.753,1.08,7.582,7.582,0,0,0,2.364.347h6.4V9.318ZM146.971-3.074h7.949a9.446,9.446,0,0,0-.245-1.264,3.173,3.173,0,0,0-.51-1.08,4.114,4.114,0,0,0-.795-.815,3.609,3.609,0,0,0-1.04-.55,4.047,4.047,0,0,0-1.325-.2,4.076,4.076,0,0,0-1.671.326,3.525,3.525,0,0,0-1.223.876,3.956,3.956,0,0,0-.754,1.264A7.86,7.86,0,0,0,146.971-3.074ZM163.725,9.318V-5.439a6.06,6.06,0,0,1,1.631-4.484,6.116,6.116,0,0,1,4.525-1.631h6.074v5.136H171.43a1.37,1.37,0,0,0-.978.387,1.316,1.316,0,0,0-.408,1V9.318Z" transform="translate(185.823 202.31)" fill="#547cff"/>
    </g>
    <g id="마스크_그룹_3" data-name="마스크 그룹 3" transform="translate(125.879 219.041)" clip-path="url(#clip-path-2)">
      <path id="패스_124" data-name="패스 124" d="M-90.322,9.318V3.611h12.189A2.712,2.712,0,0,0-76.666,3.2a3.1,3.1,0,0,0,1.039-1.06A2.744,2.744,0,0,0-75.239.717a2.82,2.82,0,0,0-.387-1.468,3.1,3.1,0,0,0-1.039-1.06,2.712,2.712,0,0,0-1.468-.408h-4.4A10.321,10.321,0,0,1-87.061-3.2,7.716,7.716,0,0,1-90.3-6.07a8.308,8.308,0,0,1-1.2-4.545,8.677,8.677,0,0,1,1.141-4.525,8.1,8.1,0,0,1,3.1-3,8.791,8.791,0,0,1,4.321-1.08h12.6v5.707H-82.169a2.566,2.566,0,0,0-1.345.367,2.493,2.493,0,0,0-.938.978,2.813,2.813,0,0,0-.326,1.345,2.7,2.7,0,0,0,.326,1.325,2.535,2.535,0,0,0,.938.958,2.566,2.566,0,0,0,1.345.367h4.606a10.24,10.24,0,0,1,4.749,1.04,7.7,7.7,0,0,1,3.139,2.894A8.23,8.23,0,0,1-68.553.106,10.016,10.016,0,0,1-69.715,5.1a7.964,7.964,0,0,1-3.118,3.139,8.79,8.79,0,0,1-4.321,1.08Zm24.622,0V-3.033A9,9,0,0,1-64.5-7.66,8.447,8.447,0,0,1-61.053-10.9a11.305,11.305,0,0,1,5.34-1.182,11.1,11.1,0,0,1,2.854.347,10.635,10.635,0,0,1,2.385.938,7.5,7.5,0,0,1,1.855,1.406h.082a8.283,8.283,0,0,1,1.9-1.406,10.552,10.552,0,0,1,2.405-.938,11.333,11.333,0,0,1,2.874-.347,11.305,11.305,0,0,1,5.34,1.182A8.588,8.588,0,0,1-32.558-7.66a8.886,8.886,0,0,1,1.223,4.627V9.318h-6.359V-2.83a3.493,3.493,0,0,0-.51-1.855A4.1,4.1,0,0,0-39.57-6.05a3.641,3.641,0,0,0-1.957-.53,3.746,3.746,0,0,0-1.977.53,3.866,3.866,0,0,0-1.366,1.366,3.6,3.6,0,0,0-.489,1.855V9.318h-6.319V-2.83a3.494,3.494,0,0,0-.51-1.855A4.042,4.042,0,0,0-53.572-6.05a3.746,3.746,0,0,0-1.977-.53,3.746,3.746,0,0,0-1.977.53,3.866,3.866,0,0,0-1.366,1.366,3.6,3.6,0,0,0-.489,1.855V9.318Zm46.635.489a8.553,8.553,0,0,1-4.892-1.427,9.62,9.62,0,0,1-3.3-3.852A12.353,12.353,0,0,1-28.441-.954a11.555,11.555,0,0,1,1.386-5.687,10.237,10.237,0,0,1,3.934-3.975,11.841,11.841,0,0,1,6.013-1.468,11.607,11.607,0,0,1,5.972,1.447A9.829,9.829,0,0,1-7.345-6.682,11.809,11.809,0,0,1-6.02-1.077v10.4h-6.2V5.976h-.163a7.714,7.714,0,0,1-1.468,1.977,6.266,6.266,0,0,1-2.181,1.366A8.524,8.524,0,0,1-19.065,9.808Zm1.875-5.462a4.445,4.445,0,0,0,2.507-.713,4.551,4.551,0,0,0,1.651-1.977,6.757,6.757,0,0,0,.571-2.813,6.381,6.381,0,0,0-.571-2.731,4.6,4.6,0,0,0-1.651-1.936,4.445,4.445,0,0,0-2.507-.713,4.616,4.616,0,0,0-2.568.713,4.548,4.548,0,0,0-1.671,1.936A6.381,6.381,0,0,0-22-1.158a6.757,6.757,0,0,0,.571,2.813,4.5,4.5,0,0,0,1.671,1.977A4.616,4.616,0,0,0-17.19,4.345ZM-2.31,9.318V-5.439A6.06,6.06,0,0,1-.68-9.923a6.116,6.116,0,0,1,4.525-1.631H9.919v5.136H5.394a1.37,1.37,0,0,0-.978.387,1.316,1.316,0,0,0-.408,1V9.318Zm22.706,0a6.072,6.072,0,0,1-4.525-1.651A6.074,6.074,0,0,1,14.24,3.2V-16.69H20.6V2.837a1.183,1.183,0,0,0,1.182,1.182h4.566v5.3ZM10.816-6.417v-5.177H26.347v5.177ZM50.725,9.808a12.611,12.611,0,0,1-5.972-1.366A9.917,9.917,0,0,1,40.7,4.508a12.038,12.038,0,0,1-1.468-6.074V-19.217h6.726v17.9a6.016,6.016,0,0,0,.571,2.65A4.511,4.511,0,0,0,48.177,3.2a4.615,4.615,0,0,0,2.548.693A4.515,4.515,0,0,0,53.252,3.2,4.707,4.707,0,0,0,54.9,1.328a5.842,5.842,0,0,0,.591-2.65v-17.9H62.22v17.9a6.016,6.016,0,0,0,.571,2.65A4.511,4.511,0,0,0,64.442,3.2,4.616,4.616,0,0,0,66.99,3.9,4.615,4.615,0,0,0,69.538,3.2a4.511,4.511,0,0,0,1.651-1.875,6.016,6.016,0,0,0,.571-2.65v-17.9h6.726V-1.566a12.038,12.038,0,0,1-1.468,6.074,9.917,9.917,0,0,1-4.056,3.934A12.611,12.611,0,0,1,66.99,9.808a12.5,12.5,0,0,1-3.159-.387A9.8,9.8,0,0,1,61.1,8.258a11,11,0,0,1-2.262-1.875,9.488,9.488,0,0,1-2.242,1.855A11.1,11.1,0,0,1,53.864,9.4,11.684,11.684,0,0,1,50.725,9.808Zm39.909,0a8.553,8.553,0,0,1-4.892-1.427,9.62,9.62,0,0,1-3.3-3.852A12.353,12.353,0,0,1,81.258-.954a11.555,11.555,0,0,1,1.386-5.687,10.237,10.237,0,0,1,3.934-3.975,11.84,11.84,0,0,1,6.013-1.468,11.607,11.607,0,0,1,5.972,1.447,9.829,9.829,0,0,1,3.791,3.954,11.809,11.809,0,0,1,1.325,5.605v10.4h-6.2V5.976h-.163a7.714,7.714,0,0,1-1.468,1.977,6.266,6.266,0,0,1-2.181,1.366A8.524,8.524,0,0,1,90.634,9.808Zm1.875-5.462a4.444,4.444,0,0,0,2.507-.713,4.551,4.551,0,0,0,1.651-1.977,6.757,6.757,0,0,0,.571-2.813,6.381,6.381,0,0,0-.571-2.731,4.6,4.6,0,0,0-1.651-1.936,4.444,4.444,0,0,0-2.507-.713,4.616,4.616,0,0,0-2.568.713,4.548,4.548,0,0,0-1.671,1.936A6.381,6.381,0,0,0,87.7-1.158a6.757,6.757,0,0,0,.571,2.813,4.5,4.5,0,0,0,1.671,1.977A4.616,4.616,0,0,0,92.509,4.345Zm15.042,4.973V-20.44h6.319V9.318Zm10.191,0V-20.44h6.319V-3.686h2.772l4.769-7.908h7.052L133.029-2.87A8.165,8.165,0,0,1,136.841.248a8.806,8.806,0,0,1,1.366,4.912V9.318h-6.359V5.16A3.924,3.924,0,0,0,131.3,3.1a4.1,4.1,0,0,0-1.447-1.447,3.93,3.93,0,0,0-2.038-.53h-3.75V9.318Zm34.65,0a13.951,13.951,0,0,1-6.237-1.325,10.106,10.106,0,0,1-4.178-3.669,9.935,9.935,0,0,1-1.488-5.442,11.456,11.456,0,0,1,1.427-5.87,9.956,9.956,0,0,1,3.812-3.771,10.686,10.686,0,0,1,5.279-1.325A10.253,10.253,0,0,1,156.53-10.7a8.861,8.861,0,0,1,3.363,3.771,12.456,12.456,0,0,1,1.141,5.442q0,.53-.061,1.243A10.67,10.67,0,0,1,160.831.88h-13.7a3.8,3.8,0,0,0,.938,1.794,4.122,4.122,0,0,0,1.753,1.08,7.582,7.582,0,0,0,2.364.347h6.4V9.318ZM146.971-3.074h7.949a9.446,9.446,0,0,0-.245-1.264,3.173,3.173,0,0,0-.51-1.08,4.114,4.114,0,0,0-.795-.815,3.609,3.609,0,0,0-1.04-.55,4.047,4.047,0,0,0-1.325-.2,4.076,4.076,0,0,0-1.671.326,3.525,3.525,0,0,0-1.223.876,3.956,3.956,0,0,0-.754,1.264A7.86,7.86,0,0,0,146.971-3.074ZM163.725,9.318V-5.439a6.06,6.06,0,0,1,1.631-4.484,6.116,6.116,0,0,1,4.525-1.631h6.074v5.136H171.43a1.37,1.37,0,0,0-.978.387,1.316,1.316,0,0,0-.408,1V9.318Z" transform="translate(-37.088 22.848)" fill="#547cff"/>
    </g>
  </g>
</svg>
