<svg id="그룹_131" data-name="그룹 131" xmlns="http://www.w3.org/2000/svg" xmlns:xlink="http://www.w3.org/1999/xlink" width="35" height="35" viewBox="0 0 35 35">
  <defs>
    <clipPath id="clip-path">
      <rect id="사각형_369" data-name="사각형 369" width="35" height="35" fill="none"/>
    </clipPath>
  </defs>
  <g id="그룹_130" data-name="그룹 130" clip-path="url(#clip-path)">
    <path id="패스_137" data-name="패스 137" d="M34.778,105.575l-5.341-9.133a2.492,2.492,0,0,0-2.151-1.234H22.472l-2.74,4.5a2.614,2.614,0,0,1-4.465,0l-2.74-4.5H7.715a2.492,2.492,0,0,0-2.151,1.234L.222,105.575a1.607,1.607,0,0,0,1.387,2.418H33.391a1.607,1.607,0,0,0,1.387-2.418" transform="translate(0 -72.993)" fill="#39eaa2"/>
    <path id="패스_138" data-name="패스 138" d="M49.724,15.8A10.394,10.394,0,0,0,48.2,3.045h0a10.394,10.394,0,0,0-14.7,0h0A10.394,10.394,0,0,0,31.968,15.8l3.906,6.414h9.944Z" transform="translate(-23.346 0)" fill="#4a71ff"/>
    <path id="패스_139" data-name="패스 139" d="M60.9,99.708l2.74-4.5H53.691l2.74,4.5a2.613,2.613,0,0,0,4.464,0" transform="translate(-41.163 -72.993)" fill="#0f6684"/>
    <path id="패스_140" data-name="패스 140" d="M55.016,31.833a6.082,6.082,0,0,1,0-12.164.933.933,0,1,1,0,1.867,4.215,4.215,0,1,0,4.215,4.215.933.933,0,1,1,1.867,0,6.089,6.089,0,0,1-6.082,6.082" transform="translate(-37.516 -15.08)" fill="#fff"/>
  </g>
</svg>
