<svg id="그룹_147" data-name="그룹 147" xmlns="http://www.w3.org/2000/svg" xmlns:xlink="http://www.w3.org/1999/xlink" width="35" height="35" viewBox="0 0 35 35">
  <defs>
    <clipPath id="clip-path">
      <rect id="사각형_377" data-name="사각형 377" width="35" height="35" fill="none"/>
    </clipPath>
  </defs>
  <g id="그룹_146" data-name="그룹 146" clip-path="url(#clip-path)">
    <path id="패스_192" data-name="패스 192" d="M15.966,41.313V32.1H3.5A3.5,3.5,0,0,0,0,35.6V56.113a3.5,3.5,0,0,0,3.5,3.5H24.009a3.5,3.5,0,0,0,3.5-3.5V43.647H18.3a2.333,2.333,0,0,1-2.333-2.333" transform="translate(0 -24.613)" fill="#4a71ff"/>
    <path id="패스_193" data-name="패스 193" d="M85.127,0H70.76a2.333,2.333,0,0,0-2.333,2.333V7.491H76.47a3.5,3.5,0,0,1,3.5,3.5v8.043h5.158A2.333,2.333,0,0,0,87.461,16.7V2.333A2.333,2.333,0,0,0,85.127,0" transform="translate(-52.461)" fill="#39eaa2"/>
    <path id="패스_194" data-name="패스 194" d="M76.47,32.1H68.427v9.209a2.333,2.333,0,0,0,2.333,2.333H79.97V35.6a3.5,3.5,0,0,0-3.5-3.5" transform="translate(-52.461 -24.613)" fill="#0f6684"/>
    <path id="패스_195" data-name="패스 195" d="M36.064,88.712l-2.243-3.885-2.243-3.885a.905.905,0,0,0-1.568,0L28.5,83.555l-.468-.811L24.9,77.317a1.265,1.265,0,0,0-2.191,0l-3.134,5.428-3.133,5.428a1.265,1.265,0,0,0,1.1,1.9H35.28a.905.905,0,0,0,.784-1.358" transform="translate(-12.474 -58.791)" fill="#fff"/>
    <path id="패스_196" data-name="패스 196" d="M20.885,55.361a2.307,2.307,0,1,1-2.307-2.307,2.307,2.307,0,0,1,2.307,2.307" transform="translate(-12.474 -40.675)" fill="#fff"/>
  </g>
</svg>
