<svg id="그룹_149" data-name="그룹 149" xmlns="http://www.w3.org/2000/svg" xmlns:xlink="http://www.w3.org/1999/xlink" width="35" height="35" viewBox="0 0 35 35">
  <defs>
    <clipPath id="clip-path">
      <rect id="사각형_378" data-name="사각형 378" width="35" height="35" fill="none"/>
    </clipPath>
  </defs>
  <g id="그룹_148" data-name="그룹 148" clip-path="url(#clip-path)">
    <path id="패스_197" data-name="패스 197" d="M33.807,35H2.355A2.358,2.358,0,0,1,0,32.645V1.193a1.193,1.193,0,0,1,2.386,0v31.42h31.42a1.193,1.193,0,1,1,0,2.386" fill="#39eaa2"/>
    <path id="패스_198" data-name="패스 198" d="M24.428,91.455H20.193A1.193,1.193,0,0,0,19,92.648V98.9a1.193,1.193,0,0,0,1.193,1.193h4.234A1.193,1.193,0,0,0,25.621,98.9V92.648a1.193,1.193,0,0,0-1.193-1.193" transform="translate(-14.466 -69.63)" fill="#4a71ff"/>
    <path id="패스_199" data-name="패스 199" d="M114.35,68.9h-4.234a1.193,1.193,0,0,0-1.193,1.193V81.732a1.193,1.193,0,0,0,1.193,1.193h4.234a1.193,1.193,0,0,0,1.193-1.193V70.1A1.193,1.193,0,0,0,114.35,68.9" transform="translate(-82.929 -52.459)" fill="#4a71ff"/>
    <path id="패스_200" data-name="패스 200" d="M69.389,49.356H65.154a1.193,1.193,0,0,0-1.193,1.193v16.3a1.193,1.193,0,0,0,1.193,1.193h4.234a1.193,1.193,0,0,0,1.193-1.193v-16.3a1.193,1.193,0,0,0-1.193-1.193" transform="translate(-48.698 -37.578)" fill="#4a71ff"/>
    <path id="패스_201" data-name="패스 201" d="M23.385,60.7a1.193,1.193,0,0,1-.816-2.064l1.988-1.862a2.991,2.991,0,1,0,1.629,1.744L24.2,60.378a1.189,1.189,0,0,1-.815.322" transform="translate(-15.54 -43.042)" fill="#39eaa2"/>
    <path id="패스_202" data-name="패스 202" d="M69.541,16.625l1.779.773a2.973,2.973,0,1,0-5.775,1l1.414-1.324a2.385,2.385,0,0,1,2.583-.446" transform="translate(-49.773 -10.989)" fill="#39eaa2"/>
    <path id="패스_203" data-name="패스 203" d="M72.919,34.116a2.965,2.965,0,0,0,3.192-.554l-1.776-.772Z" transform="translate(-55.518 -24.965)" fill="#39eaa2"/>
    <path id="패스_204" data-name="패스 204" d="M113.308,33.98a2.96,2.96,0,0,0-2.019.795l2.495,1.084a1.193,1.193,0,0,1-.951,2.189l-2.5-1.086a2.973,2.973,0,1,0,2.973-2.982" transform="translate(-84.005 -25.871)" fill="#39eaa2"/>
    <path id="패스_205" data-name="패스 205" d="M44.54,31.038l-6.755,6.325a2.98,2.98,0,0,1,1.629,1.744l6.755-6.325a2.981,2.981,0,0,1-1.629-1.744" transform="translate(-28.768 -23.631)" fill="#4a71ff"/>
    <path id="패스_206" data-name="패스 206" d="M92.985,29.353l-5.737-2.494v.009a2.962,2.962,0,0,1-.955,2.179l5.737,2.494v-.009a2.962,2.962,0,0,1,.955-2.179" transform="translate(-65.7 -20.449)" fill="#4a71ff"/>
    <path id="패스_207" data-name="패스 207" d="M30.238,57.544,28.25,59.406a1.193,1.193,0,0,0,1.631,1.742l1.986-1.86a2.979,2.979,0,0,0-1.629-1.744" transform="translate(-21.221 -43.812)" fill="#105fa0"/>
    <path id="패스_208" data-name="패스 208" d="M71.868,23.769V23.76l-1.779-.773a2.385,2.385,0,0,0-2.583.446l-1.414,1.324A2.98,2.98,0,0,0,67.722,26.5l1.416-1.326,1.776.772a2.962,2.962,0,0,0,.955-2.179" transform="translate(-50.321 -17.351)" fill="#105fa0"/>
    <path id="패스_209" data-name="패스 209" d="M114.4,39.965a1.193,1.193,0,0,0-.619-1.57l-2.494-1.085a2.962,2.962,0,0,0-.955,2.179s0,.006,0,.009l2.5,1.086a1.193,1.193,0,0,0,1.57-.619" transform="translate(-84.004 -28.406)" fill="#105fa0"/>
  </g>
</svg>
