<svg id="그룹_139" data-name="그룹 139" xmlns="http://www.w3.org/2000/svg" xmlns:xlink="http://www.w3.org/1999/xlink" width="35" height="35" viewBox="0 0 35 35">
  <defs>
    <clipPath id="clip-path">
      <rect id="사각형_373" data-name="사각형 373" width="35" height="35" fill="none"/>
    </clipPath>
  </defs>
  <g id="그룹_138" data-name="그룹 138" clip-path="url(#clip-path)">
    <path id="패스_168" data-name="패스 168" d="M.006,11.178A12.507,12.507,0,0,1,11.178.006a1.163,1.163,0,0,1,1.267,1.165V11.276a1.169,1.169,0,0,1-1.169,1.169H1.171A1.163,1.163,0,0,1,.006,11.178" transform="translate(0 0)" fill="#39eaa2"/>
    <path id="패스_169" data-name="패스 169" d="M117.2,49.469h-2.661a1.169,1.169,0,0,0-1.169,1.169v17.6a1.169,1.169,0,0,0,1.169,1.169H117.2a1.169,1.169,0,0,0,1.169-1.169v-17.6a1.169,1.169,0,0,0-1.169-1.169" transform="translate(-86.87 -37.907)" fill="#39eaa2"/>
    <path id="패스_170" data-name="패스 170" d="M25.283,12.8a1.174,1.174,0,0,0-1.316,1.161V22.8A1.168,1.168,0,0,1,22.8,23.967H13.962A1.173,1.173,0,0,0,12.8,25.282a11.253,11.253,0,0,0,7.4,9.279V33.424a1.169,1.169,0,0,1,1.169-1.169h2.661A1.169,1.169,0,0,1,25.2,33.424v1.715a11.08,11.08,0,0,0,3.052-.786V27.633a1.169,1.169,0,0,1,1.169-1.169h2.661a1.169,1.169,0,0,1,1.169,1.169v2.656A11.222,11.222,0,0,0,25.283,12.8" transform="translate(-9.803 -9.802)" fill="#4a71ff"/>
    <path id="패스_171" data-name="패스 171" d="M78.922,91.718v5.775a1.169,1.169,0,0,0,1.169,1.169h2.661a1.169,1.169,0,0,0,1.169-1.169v-9.84a11.375,11.375,0,0,1-5,4.065" transform="translate(-60.476 -67.167)" fill="#39eaa2"/>
    <path id="패스_172" data-name="패스 172" d="M82.752,71.29H80.091a1.169,1.169,0,0,0-1.169,1.169v6.721a11.375,11.375,0,0,0,5-4.065V72.459a1.169,1.169,0,0,0-1.169-1.169" transform="translate(-60.476 -54.628)" fill="#0f6684"/>
    <path id="패스_173" data-name="패스 173" d="M44.478,105.933V111.5a1.169,1.169,0,0,0,1.169,1.169h2.661a1.169,1.169,0,0,0,1.169-1.169v-4.989c-.262.029-.525.051-.792.061a11.243,11.243,0,0,1-4.207-.64" transform="translate(-34.083 -81.175)" fill="#39eaa2"/>
    <path id="패스_174" data-name="패스 174" d="M48.307,96.07H45.646a1.169,1.169,0,0,0-1.169,1.169v1.137a11.249,11.249,0,0,0,4.207.64c.266-.01.53-.033.791-.062V97.239a1.169,1.169,0,0,0-1.169-1.169" transform="translate(-34.082 -73.617)" fill="#0f6684"/>
    <path id="패스_175" data-name="패스 175" d="M52.129,58.3H25.876a.935.935,0,1,1,0-1.87H52.129a.114.114,0,0,0,.114-.114V31.343a.935.935,0,1,1,1.87,0V56.318A1.986,1.986,0,0,1,52.129,58.3" transform="translate(-19.112 -23.301)" fill="#4a71ff"/>
  </g>
</svg>
