<svg xmlns="http://www.w3.org/2000/svg" xmlns:xlink="http://www.w3.org/1999/xlink" width="35" height="35" viewBox="0 0 35 35">
  <defs>
    <clipPath id="clip-path">
      <rect id="사각형_370" data-name="사각형 370" width="34.615" height="35" fill="none"/>
    </clipPath>
  </defs>
  <g id="그룹_151" data-name="그룹 151" transform="translate(-268 -377)">
    <g id="사각형_386" data-name="사각형 386" transform="translate(268 377)" fill="#fff" stroke="#707070" stroke-width="1" opacity="0">
      <rect width="35" height="35" stroke="none"/>
      <rect x="0.5" y="0.5" width="34" height="34" fill="none"/>
    </g>
    <g id="그룹_133" data-name="그룹 133" transform="translate(268.192 377)">
      <g id="그룹_132" data-name="그룹 132" clip-path="url(#clip-path)">
        <path id="패스_141" data-name="패스 141" d="M41.116,119.988h-.865v1.7a1.691,1.691,0,0,1-1.691,1.691h-18.3a1.691,1.691,0,0,1-1.691-1.691v-1.7H17.7a1.881,1.881,0,0,0-1.881,1.881V124.9a1.881,1.881,0,0,0,1.881,1.881H41.116A1.881,1.881,0,0,0,43,124.9v-3.029a1.881,1.881,0,0,0-1.881-1.881" transform="translate(-12.102 -91.779)" fill="#39eaa2"/>
        <path id="패스_142" data-name="패스 142" d="M49.185,40.823a10.843,10.843,0,1,0-21.685,0V51.141H49.185Z" transform="translate(-21.035 -22.932)" fill="#4a71ff"/>
        <path id="패스_143" data-name="패스 143" d="M29.19,123.384h18.3a1.691,1.691,0,0,0,1.691-1.691v-1.7H27.5v1.7a1.691,1.691,0,0,0,1.691,1.691" transform="translate(-21.034 -91.779)" fill="#0f6684"/>
        <path id="패스_144" data-name="패스 144" d="M70.559,4.8a.94.94,0,0,1-.94-.94V.94A.94.94,0,1,1,71.5.94V3.856a.94.94,0,0,1-.94.94" transform="translate(-53.252)" fill="#39eaa2"/>
        <path id="패스_145" data-name="패스 145" d="M3.856,56.895H.94a.94.94,0,1,1,0-1.881H3.856a.94.94,0,1,1,0,1.881" transform="translate(0 -42.08)" fill="#39eaa2"/>
        <path id="패스_146" data-name="패스 146" d="M130.692,56.895h-2.916a.94.94,0,1,1,0-1.881h2.916a.94.94,0,1,1,0,1.881" transform="translate(-97.017 -42.08)" fill="#39eaa2"/>
        <path id="패스_147" data-name="패스 147" d="M21.281,17.841a.937.937,0,0,1-.665-.276L18.554,15.5a.94.94,0,0,1,1.33-1.33l2.062,2.062a.94.94,0,0,1-.665,1.605" transform="translate(-13.981 -10.631)" fill="#39eaa2"/>
        <path id="패스_148" data-name="패스 148" d="M113.13,17.841a.94.94,0,0,1-.665-1.605l2.062-2.062a.94.94,0,1,1,1.33,1.33L113.8,17.565a.937.937,0,0,1-.665.276" transform="translate(-85.814 -10.631)" fill="#39eaa2"/>
        <path id="패스_149" data-name="패스 149" d="M40.418,49.379a.941.941,0,0,1-.911-1.177A8.006,8.006,0,0,1,44.6,42.66a.94.94,0,1,1,.627,1.773,6.127,6.127,0,0,0-3.9,4.241.941.941,0,0,1-.91.7" transform="translate(-30.196 -32.59)" fill="#fff"/>
      </g>
    </g>
  </g>
</svg>
