<svg xmlns="http://www.w3.org/2000/svg" xmlns:xlink="http://www.w3.org/1999/xlink" width="35" height="35" viewBox="0 0 35 35">
  <defs>
    <clipPath id="clip-path">
      <rect id="사각형_374" data-name="사각형 374" width="35" height="34.479" fill="none"/>
    </clipPath>
  </defs>
  <g id="그룹_150" data-name="그룹 150" transform="translate(-263 -501)">
    <g id="사각형_385" data-name="사각형 385" transform="translate(263 501)" fill="#fff" stroke="#707070" stroke-width="1" opacity="0">
      <rect width="35" height="35" stroke="none"/>
      <rect x="0.5" y="0.5" width="34" height="34" fill="none"/>
    </g>
    <g id="그룹_141" data-name="그룹 141" transform="translate(263 501.521)">
      <g id="그룹_140" data-name="그룹 140" clip-path="url(#clip-path)">
        <path id="패스_176" data-name="패스 176" d="M23.819,48.21a5.569,5.569,0,0,1,1.4-3.693L24.13,43.432a1.167,1.167,0,0,0-1.65,0l-2.557,2.558a2.544,2.544,0,0,1-2.683.6c-2.678-1-5.914-4.115-5.914-4.115S8.214,39.24,7.211,36.561a2.544,2.544,0,0,1,.6-2.683l2.557-2.557a1.167,1.167,0,0,0,0-1.65L6.242,25.544a1.167,1.167,0,0,0-1.514-.116L1.644,27.685A3.851,3.851,0,0,0,.1,30.217C-.3,32.88.2,38.42,7.793,46.008c7.5,7.5,13,8.078,15.7,7.71A3.906,3.906,0,0,0,25.828,52.5a5.577,5.577,0,0,1-2.008-4.291" transform="translate(0 -19.322)" fill="#4a71ff"/>
        <path id="패스_177" data-name="패스 177" d="M112.259,99.85a5.576,5.576,0,0,0-4.195,1.9l3.042,3.041a1.167,1.167,0,0,1,.116,1.514l-2.256,3.082a3.9,3.9,0,0,1-.289.347,5.59,5.59,0,1,0,3.582-9.881" transform="translate(-82.849 -76.552)" fill="#39eaa2"/>
        <path id="패스_178" data-name="패스 178" d="M106.637,112.536a1.167,1.167,0,0,0-.116-1.514l-3.041-3.041a5.587,5.587,0,0,0,.613,7.984,3.906,3.906,0,0,0,.289-.347Z" transform="translate(-78.264 -82.785)" fill="#0f6684"/>
        <path id="패스_179" data-name="패스 179" d="M80.421,46.087a1.167,1.167,0,0,1-1.167-1.167,5.093,5.093,0,0,0-5.087-5.087,1.167,1.167,0,1,1,0-2.333,7.429,7.429,0,0,1,7.421,7.421,1.167,1.167,0,0,1-1.167,1.167" transform="translate(-55.967 -28.75)" fill="#39eaa2"/>
        <path id="패스_180" data-name="패스 180" d="M84.776,31.778a1.167,1.167,0,0,1-1.167-1.167,9.453,9.453,0,0,0-9.443-9.443,1.167,1.167,0,1,1,0-2.333A11.789,11.789,0,0,1,85.943,30.611a1.167,1.167,0,0,1-1.167,1.167" transform="translate(-55.967 -14.44)" fill="#39eaa2"/>
        <path id="패스_181" data-name="패스 181" d="M89.171,17.337A1.167,1.167,0,0,1,88,16.171,13.853,13.853,0,0,0,74.167,2.333a1.167,1.167,0,1,1,0-2.333A16.189,16.189,0,0,1,90.337,16.171a1.167,1.167,0,0,1-1.167,1.167" transform="translate(-55.967)" fill="#39eaa2"/>
      </g>
    </g>
  </g>
</svg>
