<svg xmlns="http://www.w3.org/2000/svg" xmlns:xlink="http://www.w3.org/1999/xlink" width="22" height="22" viewBox="0 0 22 22">
  <defs>
    <clipPath id="clip-path">
      <rect id="사각형_207" data-name="사각형 207" width="15.723" height="18.125" fill="none"/>
    </clipPath>
  </defs>
  <g id="그룹_169" data-name="그룹 169" transform="translate(6890 -1382)">
    <rect id="사각형_216" data-name="사각형 216" width="22" height="22" transform="translate(-6890 1382)" fill="#fff" opacity="0"/>
    <g id="그룹_26" data-name="그룹 26" transform="translate(-6886.862 1383.938)">
      <g id="그룹_25" data-name="그룹 25" clip-path="url(#clip-path)">
        <path id="패스_20" data-name="패스 20" d="M30.532,5.673A4.464,4.464,0,0,1,35,1.208a4.51,4.51,0,0,1,.692.054,4.464,4.464,0,1,0-3.8,7.613,4.45,4.45,0,0,1-1.355-3.2" transform="translate(-24.718)" fill="#4a71ff"/>
        <path id="패스_21" data-name="패스 21" d="M63.134,10.444a4.465,4.465,0,0,1-3.8,7.613,4.464,4.464,0,1,0,3.8-7.613" transform="translate(-52.164 -9.182)" fill="#39eaa2"/>
        <path id="패스_22" data-name="패스 22" d="M54.627,13.256a4.45,4.45,0,0,0-1.355-3.2A4.51,4.51,0,0,0,52.579,10a4.463,4.463,0,0,0-3.109,7.667,4.467,4.467,0,0,0,5.157-4.411" transform="translate(-42.301 -8.792)" fill="#0f6684"/>
        <path id="패스_23" data-name="패스 23" d="M14.714,92.265a1.011,1.011,0,0,0,1-1.162,7.936,7.936,0,0,0-15.7,0,1.011,1.011,0,0,0,1,1.162Z" transform="translate(0 -74.14)" fill="#4a71ff"/>
      </g>
    </g>
  </g>
</svg>
