<svg xmlns="http://www.w3.org/2000/svg" xmlns:xlink="http://www.w3.org/1999/xlink" width="22" height="22" viewBox="0 0 22 22">
  <defs>
    <clipPath id="clip-path">
      <rect id="사각형_212" data-name="사각형 212" width="19.25" height="19.164" fill="none"/>
    </clipPath>
  </defs>
  <g id="그룹_168" data-name="그룹 168" transform="translate(6818 -1382)">
    <rect id="사각형_217" data-name="사각형 217" width="22" height="22" transform="translate(-6818 1382)" fill="#fff" opacity="0"/>
    <g id="그룹_37" data-name="그룹 37" transform="translate(-6816.625 1383.418)">
      <g id="그룹_36" data-name="그룹 36" clip-path="url(#clip-path)">
        <path id="패스_44" data-name="패스 44" d="M22.2,52.608v7.053a.639.639,0,0,1-.742.634,4.186,4.186,0,0,1-.739-.2,1.584,1.584,0,0,0,3.067-.561v-7.2a1.585,1.585,0,0,0-3.164-.122,4.193,4.193,0,0,1,.837-.241.639.639,0,0,1,.742.634" transform="translate(-17.975 -44.238)" fill="#39eaa2"/>
        <path id="패스_45" data-name="패스 45" d="M20.573,67.769a1.576,1.576,0,0,0,.1.561,4.194,4.194,0,0,0,.739.2.639.639,0,0,0,.742-.634V60.846a.639.639,0,0,0-.742-.634,4.192,4.192,0,0,0-.837.241c0,.04-.006.081-.006.122Z" transform="translate(-17.933 -52.476)" fill="#0f6684"/>
        <path id="패스_46" data-name="패스 46" d="M106.306,59.661V52.608a.639.639,0,0,1,.742-.634,4.194,4.194,0,0,1,.837.241,1.585,1.585,0,0,0-3.164.122v7.2a1.584,1.584,0,0,0,3.067.561,4.187,4.187,0,0,1-.739.2.639.639,0,0,1-.742-.634" transform="translate(-91.282 -44.238)" fill="#39eaa2"/>
        <path id="패스_47" data-name="패스 47" d="M118.658,60.574c0-.041,0-.081-.006-.122a4.192,4.192,0,0,0-.837-.241.639.639,0,0,0-.742.634V67.9a.639.639,0,0,0,.742.634,4.2,4.2,0,0,0,.739-.2,1.579,1.579,0,0,0,.1-.561Z" transform="translate(-102.049 -52.476)" fill="#0f6684"/>
        <path id="패스_48" data-name="패스 48" d="M19.25,11.9a4.2,4.2,0,0,0-.942-2.658C18.286,4.14,14.4,0,9.625,0S.964,4.14.942,9.238a4.224,4.224,0,0,0,1.8,6.616,1.578,1.578,0,0,1-.1-.561V8.1c0-.041,0-.081.006-.122-.118.048-.232.1-.345.16A7.624,7.624,0,0,1,9.625,1.283a7.624,7.624,0,0,1,7.323,6.853c-.113-.058-.227-.112-.345-.16,0,.04.006.081.006.122v7.2a1.578,1.578,0,0,1-.1.561,4.2,4.2,0,0,0,.481-.219V14.383a.642.642,0,0,1,1.283,0V14.6a4.206,4.206,0,0,0,.98-2.7" fill="#4a71ff"/>
        <path id="패스_49" data-name="패스 49" d="M99.251,114.8v.2a1.662,1.662,0,0,1-1.66,1.66h-3.2a1.033,1.033,0,0,1-.016,1.283h3.215A2.947,2.947,0,0,0,100.535,115v-1.236a4.242,4.242,0,0,1-1.283,1.036" transform="translate(-82.264 -99.167)" fill="#39eaa2"/>
        <path id="패스_50" data-name="패스 50" d="M133.649,107.93v-.218a.642.642,0,1,0-1.283,0v1.253a4.242,4.242,0,0,0,1.283-1.036" transform="translate(-115.379 -93.33)" fill="#0f6684"/>
        <path id="패스_51" data-name="패스 51" d="M66.7,134.23a.642.642,0,0,1,.642-.642h.576a1.033,1.033,0,0,0-.82-.4H65.04a1.036,1.036,0,0,0,0,2.072H67.1a1.034,1.034,0,0,0,.8-.384h-.56a.642.642,0,0,1-.642-.642" transform="translate(-55.79 -116.092)" fill="#4a71ff"/>
        <path id="패스_52" data-name="패스 52" d="M86.228,136.336h-.576a.642.642,0,0,0,0,1.283h.56a1.033,1.033,0,0,0,.016-1.283" transform="translate(-74.101 -118.84)" fill="#0f6684"/>
      </g>
    </g>
  </g>
</svg>
