<svg xmlns="http://www.w3.org/2000/svg" xmlns:xlink="http://www.w3.org/1999/xlink" width="35" height="35" viewBox="0 0 35 35">
  <defs>
    <clipPath id="clip-path">
      <rect id="사각형_417" data-name="사각형 417" width="20" height="17.938" fill="#ff7474"/>
    </clipPath>
  </defs>
  <g id="그룹_211" data-name="그룹 211" transform="translate(-40 -450)">
    <circle id="타원_49" data-name="타원 49" cx="17.5" cy="17.5" r="17.5" transform="translate(40 450)" fill="#fff"/>
    <g id="그룹_208" data-name="그룹 208" transform="translate(47.5 457.031)">
      <g id="그룹_207" data-name="그룹 207" clip-path="url(#clip-path)">
        <path id="패스_331" data-name="패스 331" d="M19.685,14.447,12.015,1.163a2.327,2.327,0,0,0-4.03,0L.316,14.447a2.327,2.327,0,0,0,2.015,3.49H17.669a2.327,2.327,0,0,0,2.015-3.49m-1.727,1.33a.322.322,0,0,1-.288.166H2.331a.332.332,0,0,1-.288-.5L9.712,2.161a.332.332,0,0,1,.576,0l7.669,13.284a.322.322,0,0,1,0,.332" transform="translate(0)" fill="#ff7474"/>
        <path id="패스_332" data-name="패스 332" d="M68.7,46.462a1,1,0,0,1-1-1V41.1a1,1,0,0,1,1.994,0v4.368a1,1,0,0,1-1,1" transform="translate(-58.704 -34.768)" fill="#ff7474"/>
        <path id="패스_333" data-name="패스 333" d="M68.705,96.24a.984.984,0,0,1-.195-.02,1.006,1.006,0,0,1-.359-.149.985.985,0,0,1-.276-.276,1.006,1.006,0,0,1-.149-.359.981.981,0,0,1,0-.39,1.007,1.007,0,0,1,.057-.187,1.017,1.017,0,0,1,.092-.172.983.983,0,0,1,.276-.276,1.009,1.009,0,0,1,.359-.148.986.986,0,0,1,.39,0,1.009,1.009,0,0,1,.359.148.983.983,0,0,1,.276.276,1.01,1.01,0,0,1,.149.359.988.988,0,0,1,0,.39,1.01,1.01,0,0,1-.149.359.985.985,0,0,1-.276.276,1.006,1.006,0,0,1-.359.149.982.982,0,0,1-.195.02" transform="translate(-58.705 -81.714)" fill="#ff7474"/>
      </g>
    </g>
  </g>
</svg>
