<svg xmlns="http://www.w3.org/2000/svg" xmlns:xlink="http://www.w3.org/1999/xlink" width="15" height="15" viewBox="0 0 15 15">
  <defs>
    <clipPath id="clip-path">
      <rect id="사각형_396" data-name="사각형 396" width="14.218" height="15" fill="#5d7dff"/>
    </clipPath>
  </defs>
  <g id="그룹_157" data-name="그룹 157" transform="translate(-127 -78)">
    <rect id="사각형_395" data-name="사각형 395" width="15" height="15" transform="translate(127 78)" fill="#d9d9d9" opacity="0"/>
    <g id="그룹_156" data-name="그룹 156" transform="translate(127.391 78)">
      <g id="그룹_155" data-name="그룹 155" clip-path="url(#clip-path)">
        <path id="패스_221" data-name="패스 221" d="M12.223,11.01a1.987,1.987,0,0,0-.24.016L10.523,8.155H11.4a.656.656,0,0,0,0-1.311H9.855L7.343,1.906l.772-.492a.654.654,0,0,1,.352-.1h3.756a.656.656,0,1,0,0-1.311H8.467A1.964,1.964,0,0,0,7.41.309l-1.275.813h0L2.249,3.6a1.958,1.958,0,0,0-.909,1.658v5.865a1.995,1.995,0,1,0,1.311,0V8.155h6.4L10.806,11.6a1.993,1.993,0,1,0,1.417-.593M1.995,13.689a.684.684,0,1,1,.684-.684.684.684,0,0,1-.684.684M2.65,6.844V5.258a.653.653,0,0,1,.3-.553L6.232,2.615,8.384,6.844Zm9.573,6.845a.684.684,0,1,1,.684-.684.684.684,0,0,1-.684.684" fill="#5d7dff"/>
      </g>
    </g>
  </g>
</svg>
