<svg xmlns="http://www.w3.org/2000/svg" width="84" height="84" viewBox="0 0 84 84">
  <g id="그룹_41" data-name="그룹 41" transform="translate(-918 -5193)">
    <rect id="사각형_61" data-name="사각형 61" width="84" height="84" transform="translate(918 5193)" fill="#f4f4f4" opacity="0"/>
    <g id="레이어_1" data-name="레이어 1" transform="translate(928 5203)">
      <g id="그룹_39" data-name="그룹 39">
        <path id="패스_53" data-name="패스 53" d="M27.559,0H2.617A2.621,2.621,0,0,0,0,2.617V27.559a2.621,2.621,0,0,0,2.617,2.617H27.559a2.621,2.621,0,0,0,2.617-2.617V2.617A2.621,2.621,0,0,0,27.559,0Zm.872,27.559a.871.871,0,0,1-.872.872H2.617a.871.871,0,0,1-.872-.872V2.617a.871.871,0,0,1,.872-.872H27.559a.871.871,0,0,1,.872.872Z" fill="#fff"/>
        <path id="패스_54" data-name="패스 54" d="M86.449,0H61.507A2.621,2.621,0,0,0,58.89,2.617V27.559a2.621,2.621,0,0,0,2.617,2.617H86.449a2.621,2.621,0,0,0,2.617-2.617V2.617A2.621,2.621,0,0,0,86.449,0Zm.872,27.559a.871.871,0,0,1-.872.872H61.507a.871.871,0,0,1-.872-.872V2.617a.871.871,0,0,1,.872-.872H86.449a.871.871,0,0,1,.872.872Z" transform="translate(-24.637)" fill="#fff"/>
        <path id="패스_55" data-name="패스 55" d="M27.559,58.88H2.617A2.621,2.621,0,0,0,0,61.5V86.439a2.621,2.621,0,0,0,2.617,2.617H27.559a2.621,2.621,0,0,0,2.617-2.617V61.5A2.621,2.621,0,0,0,27.559,58.88Zm.872,27.559a.871.871,0,0,1-.872.872H2.617a.871.871,0,0,1-.872-.872V61.5a.871.871,0,0,1,.872-.872H27.559a.871.871,0,0,1,.872.872Z" transform="translate(0 -24.632)" fill="#fff"/>
        <path id="패스_56" data-name="패스 56" d="M86.449,58.88H61.507A2.621,2.621,0,0,0,58.89,61.5V86.439a2.621,2.621,0,0,0,2.617,2.617H86.449a2.621,2.621,0,0,0,2.617-2.617V61.5A2.621,2.621,0,0,0,86.449,58.88Zm.872,27.559a.871.871,0,0,1-.872.872H61.507a.871.871,0,0,1-.872-.872V61.5a.871.871,0,0,1,.872-.872H86.449a.871.871,0,0,1,.872.872Z" transform="translate(-24.637 -24.632)" fill="#fff"/>
        <path id="패스_57" data-name="패스 57" d="M26.3,75.09l-4.426,4.426L17.443,75.09,16.21,76.329l4.426,4.421L16.21,85.176l1.233,1.233,4.426-4.421L26.3,86.409l1.233-1.233L23.1,80.749l4.426-4.421Z" transform="translate(-6.781 -31.414)" fill="#fff"/>
        <path id="패스_58" data-name="패스 58" d="M21.683,13.68H19.939v6.259H13.68v1.745h6.259v6.259h1.745V21.684h6.259V19.939H21.683Z" transform="translate(-5.723 -5.723)" fill="#fff"/>
        <rect id="사각형_326" data-name="사각형 326" width="14.262" height="1.745" transform="translate(42.21 14.216)" fill="#fff"/>
        <rect id="사각형_327" data-name="사각형 327" width="14.262" height="1.745" transform="translate(42.21 48.463)" fill="#fff"/>
        <path id="패스_59" data-name="패스 59" d="M83.778,76.417a1.448,1.448,0,1,0-1.448-1.448A1.445,1.445,0,0,0,83.778,76.417Z" transform="translate(-34.443 -30.757)" fill="#fff"/>
        <path id="패스_60" data-name="패스 60" d="M83.778,91.15A1.448,1.448,0,1,0,85.227,92.6,1.445,1.445,0,0,0,83.778,91.15Z" transform="translate(-34.443 -38.132)" fill="#fff"/>
      </g>
    </g>
  </g>
</svg>
