<svg xmlns="http://www.w3.org/2000/svg" width="84" height="84" viewBox="0 0 84 84">
  <g id="그룹_42" data-name="그룹 42" transform="translate(-583 -5193)">
    <rect id="사각형_60" data-name="사각형 60" width="84" height="84" transform="translate(583 5193)" fill="#f4f4f4" opacity="0"/>
    <g id="레이어_1" data-name="레이어 1" transform="translate(591 5201)">
      <path id="패스_61" data-name="패스 61" d="M66.174,15.773H56.629A24.51,24.51,0,0,0,66.785,8.182L65.424,7.095a22.773,22.773,0,0,1-10.9,7.556,8.78,8.78,0,0,0,1.1-10.266A8.661,8.661,0,0,0,48.044.01h0a8.661,8.661,0,0,0-7.579,4.374l-6.072,10.51L28.32,4.384a8.753,8.753,0,0,0-15.158,0,8.666,8.666,0,0,0,0,8.754A9.028,9.028,0,0,0,14.4,14.8,22.76,22.76,0,0,1,3.007,7.1L1.646,8.188A24.51,24.51,0,0,0,11.8,15.779H2.617A2.621,2.621,0,0,0,0,18.4v7.7A2.612,2.612,0,0,0,2.524,28.7V64.951a2.621,2.621,0,0,0,2.617,2.617H63.65a2.621,2.621,0,0,0,2.617-2.617V28.7A2.62,2.62,0,0,0,68.792,26.1V18.4a2.621,2.621,0,0,0-2.617-2.617ZM40.925,65.818H27.867v-48.3H40.925ZM41.978,5.251A7.009,7.009,0,0,1,54.117,12.26a6.921,6.921,0,0,1-4.74,3.368h-.221v.041a6.91,6.91,0,0,1-1.105.093H35.911Zm-27.3,0a7.016,7.016,0,0,1,12.145,0l6.072,10.51H20.753a7.006,7.006,0,0,1-6.072-10.51ZM4.269,64.946V28.7H22.056V26.958H2.617a.871.871,0,0,1-.872-.872v-7.7a.871.871,0,0,1,.872-.872h23.5v48.3H5.142a.871.871,0,0,1-.872-.872Zm59.381.872H42.67V28.7H64.522V64.946A.871.871,0,0,1,63.65,65.818Zm3.4-39.733a.871.871,0,0,1-.872.872H42.67V17.512h23.5a.871.871,0,0,1,.872.872Z" transform="translate(0 -0.01)" fill="#fff"/>
    </g>
  </g>
</svg>
