<svg xmlns="http://www.w3.org/2000/svg" width="84" height="84" viewBox="0 0 84 84">
  <g id="그룹_40" data-name="그룹 40" transform="translate(-1252 -5193)">
    <rect id="사각형_62" data-name="사각형 62" width="84" height="84" transform="translate(1252 5193)" fill="#f4f4f4" opacity="0"/>
    <g id="레이어_1" data-name="레이어 1" transform="translate(1261 5202)">
      <g id="그룹_38" data-name="그룹 38">
        <path id="패스_49" data-name="패스 49" d="M33.416,0A33.416,33.416,0,1,0,66.831,33.416,33.452,33.452,0,0,0,33.416,0Zm0,65.087A31.671,31.671,0,1,1,65.086,33.416,31.71,31.71,0,0,1,33.416,65.087Z" fill="#fff"/>
        <path id="패스_50" data-name="패스 50" d="M37.428,9.59A27.868,27.868,0,0,0,24.061,13l.838,1.53A26.057,26.057,0,1,1,13.394,27.249l-1.605-.681A27.842,27.842,0,1,0,37.428,9.59Z" transform="translate(-4.012 -4.012)" fill="#fff"/>
        <path id="패스_51" data-name="패스 51" d="M62.363,45.767a4.361,4.361,0,0,0-4.357-4.357H49.52v8.748l8.492-.041a4.362,4.362,0,0,0,4.345-4.351Zm-4.351,2.606-6.741.035V43.155h6.741a2.609,2.609,0,0,1,.006,5.217Z" transform="translate(-20.717 -17.324)" fill="#fff"/>
        <path id="패스_52" data-name="패스 52" d="M45.188,56.781h1.745V51.843l6.776-.035a10.394,10.394,0,0,0-.035-20.788H39.15V61.749h6.91V60H40.895V32.765H53.674a8.649,8.649,0,0,1,.029,17.3l-8.51.041v6.672Z" transform="translate(-16.378 -12.977)" fill="#fff"/>
      </g>
    </g>
  </g>
</svg>
