<svg width="24" height="24" viewBox="0 0 24 24" fill="none" xmlns="http://www.w3.org/2000/svg">
<path d="M13.5074 12.0013L17.6635 7.83682C18.0834 7.41605 18.0834 6.73635 17.6635 6.31558C17.2436 5.89481 16.5653 5.89481 16.1454 6.31558L11.9892 10.4801L7.83311 6.31558C7.41319 5.89481 6.73486 5.89481 6.31494 6.31558C5.89502 6.73635 5.89502 7.41605 6.31494 7.83682L10.4711 12.0013L6.31494 16.1659C5.89502 16.5866 5.89502 17.2664 6.31494 17.6871C6.53028 17.9029 6.79946 18 7.07941 18C7.35935 18 7.62853 17.8921 7.84388 17.6871L12 13.5226L16.1561 17.6871C16.3715 17.9029 16.6406 18 16.9206 18C17.2005 18 17.4697 17.8921 17.6851 17.6871C18.105 17.2664 18.105 16.5866 17.6851 16.1659L13.5289 12.0013H13.5074Z" fill="#ADADAD"/>
</svg>
