<svg xmlns="http://www.w3.org/2000/svg" xmlns:xlink="http://www.w3.org/1999/xlink" width="150" height="40" viewBox="0 0 150 40">
  <defs>
    <clipPath id="clip-path">
      <rect id="사각형_2" data-name="사각형 2" width="150" height="38.491" fill="#747474"/>
    </clipPath>
  </defs>
  <g id="그룹_16" data-name="그룹 16" transform="translate(-879 -78)">
    <rect id="사각형_3" data-name="사각형 3" width="150" height="40" transform="translate(879 78)" fill="#747474" opacity="0"/>
    <g id="그룹_2" data-name="그룹 2" transform="translate(879 78.755)">
      <g id="그룹_1" data-name="그룹 1" transform="translate(0 0)" clip-path="url(#clip-path)">
        <path id="패스_1" data-name="패스 1" d="M133.23,15.339v7.719h9.05v9.05H150V15.339ZM132.964,0V7.761a10.938,10.938,0,1,0,0,21.876V37.4a18.7,18.7,0,1,1,0-37.4M43.284,6.987a2.533,2.533,0,1,0,2.578,2.548,2.5,2.5,0,0,0-2.578-2.548m9.5,2.188H48.949v4.736H46.881v3.417h2.068v11.96h3.837V17.329h2.1V13.912h-2.1Zm28.147,7.973a5.242,5.242,0,0,1,3.956,2.008l2.667-2.638a8.311,8.311,0,0,0-6.563-3.087,8.155,8.155,0,1,0,0,16.307,8.313,8.313,0,0,0,6.563-3.087l-2.667-2.637A5.3,5.3,0,0,1,80.9,26.021a4.314,4.314,0,0,1-4.347-4.436,4.32,4.32,0,0,1,4.377-4.436m16.545-3.717a6.208,6.208,0,0,0-4.646,1.949V7.407H89V29.288h3.836V20.925a3.509,3.509,0,0,1,3.747-3.746c2.189,0,3.387,1.349,3.387,3.746v8.363H103.8V20.236c0-4.256-2.667-6.8-6.325-6.8m-33.961,0a8.01,8.01,0,0,0-8.123,8.244,7.742,7.742,0,0,0,8.183,8.063A9.409,9.409,0,0,0,70.591,26.8l-2.578-2.547a6.235,6.235,0,0,1-4.346,2.068,4.169,4.169,0,0,1-4.227-3.207H71.4v-.929c0-5.245-3.237-8.753-7.883-8.753M59.351,20a4,4,0,0,1,4.077-3.178A3.852,3.852,0,0,1,67.414,20ZM31.564,34.744a4.357,4.357,0,0,1-4.407-4.406h-3.9a8.121,8.121,0,0,0,8.3,8.153,8.12,8.12,0,0,0,8.3-8.153h-3.9a4.357,4.357,0,0,1-4.406,4.406M41.4,29.288h3.837V13.911H41.4Zm-41.4,0H3.837V7.406H0ZM13.638,13.431a8.155,8.155,0,1,0,0,16.307,8.155,8.155,0,1,0,0-16.307m0,12.59a4.436,4.436,0,1,1,4.436-4.436,4.389,4.389,0,0,1-4.436,4.436m26.078-9.053V13.912h-5.4a8.468,8.468,0,0,0-2.757-.48,8.155,8.155,0,1,0,0,16.307,8.12,8.12,0,0,0,8.3-8.153,7.179,7.179,0,0,0-1.259-4.226Zm-8.153,9.053A4.436,4.436,0,1,1,36,21.585a4.39,4.39,0,0,1-4.436,4.436" transform="translate(0 0)" fill="#747474"/>
      </g>
    </g>
  </g>
</svg>
