<svg xmlns="http://www.w3.org/2000/svg" xmlns:xlink="http://www.w3.org/1999/xlink" width="30" height="30" viewBox="0 0 30 30">
  <defs>
    <clipPath id="clip-path">
      <rect id="사각형_887" data-name="사각형 887" width="22.625" height="18.388" fill="none"/>
    </clipPath>
  </defs>
  <g id="그룹_199" data-name="그룹 199" transform="translate(-1560 -9089)" opacity="0.5">
    <rect id="사각형_52" data-name="사각형 52" width="30" height="30" transform="translate(1560 9089)" fill="#979797" opacity="0"/>
    <g id="그룹_196" data-name="그룹 196" transform="translate(1563.688 9094.897)">
      <g id="그룹_191" data-name="그룹 191" clip-path="url(#clip-path)">
        <path id="패스_42" data-name="패스 42" d="M7.115,18.388A13.117,13.117,0,0,0,20.322,5.18c0-.2,0-.4-.013-.6a9.443,9.443,0,0,0,2.316-2.4,9.268,9.268,0,0,1-2.666.731A4.658,4.658,0,0,0,22,.34a9.3,9.3,0,0,1-2.948,1.127A4.646,4.646,0,0,0,11.143,5.7,13.178,13.178,0,0,1,1.575.85a4.646,4.646,0,0,0,1.437,6.2,4.611,4.611,0,0,1-2.1-.581c0,.019,0,.039,0,.059a4.644,4.644,0,0,0,3.724,4.551,4.633,4.633,0,0,1-2.1.08A4.647,4.647,0,0,0,6.873,14.38a9.315,9.315,0,0,1-5.765,1.987A9.441,9.441,0,0,1,0,16.3a13.141,13.141,0,0,0,7.115,2.085" transform="translate(0 0)" fill="#aaa"/>
      </g>
    </g>
  </g>
</svg>
