<svg xmlns="http://www.w3.org/2000/svg" width="166" height="30" viewBox="0 0 166 30">
  <g id="그룹_145" data-name="그룹 145" transform="translate(-11097 -967)">
    <rect id="사각형_14" data-name="사각형 14" width="166" height="30" transform="translate(11097 967)" fill="#ccc" opacity="0"/>
    <path id="패스_6" data-name="패스 6" d="M48.2,7.761H16.47L19.228,0H50.964Z" transform="translate(11087.627 967)"/>
    <path id="패스_7" data-name="패스 7" d="M102.7,7.761H94.94L97.7,0h7.761Z" transform="translate(11042.971 967)" fill="#00f78c"/>
    <path id="패스_8" data-name="패스 8" d="M84.351,42.748H76.59L83.825,22.4h7.761Z" transform="translate(11053.414 954.252)"/>
    <path id="패스_9" data-name="패스 9" d="M136.381,30H128.62L139.285,0h7.756Z" transform="translate(11023.804 967)"/>
    <path id="패스_10" data-name="패스 10" d="M105.22,39.75l2.323,12.871H115.3L112.981,39.75Z" transform="translate(11037.121 944.379)"/>
    <path id="패스_11" data-name="패스 11" d="M26.7,23.7H24.609l-2.758,7.761h3.172A1.692,1.692,0,0,1,26.609,33.8a2.909,2.909,0,0,1-2.689,1.935H2.758L0,43.487H21.692a13.425,13.425,0,0,0,12.4-8.916h0C36.041,29.086,32.383,23.7,26.7,23.7Z" transform="translate(11097 953.513)"/>
    <path id="패스_12" data-name="패스 12" d="M185.564,30.66a4.293,4.293,0,0,1-1.719-.327,3.231,3.231,0,0,1-1.263-.944,3.116,3.116,0,0,1-.642-1.456l1.34-.2A2.1,2.1,0,0,0,184.129,29a2.567,2.567,0,0,0,1.508.452,2.807,2.807,0,0,0,.987-.168,1.749,1.749,0,0,0,.724-.487,1.133,1.133,0,0,0,.276-.758,1.032,1.032,0,0,0-.082-.427.958.958,0,0,0-.228-.323,1.514,1.514,0,0,0-.349-.241,3.091,3.091,0,0,0-.452-.177l-2.271-.672a5.237,5.237,0,0,1-.677-.254,2.41,2.41,0,0,1-.629-.414,2.048,2.048,0,0,1-.465-.633,2.135,2.135,0,0,1-.177-.922,2.269,2.269,0,0,1,.422-1.388,2.6,2.6,0,0,1,1.142-.862,4.4,4.4,0,0,1,3.223.026,3.1,3.1,0,0,1,1.181.883,3.271,3.271,0,0,1,.651,1.4l-1.379.233a1.828,1.828,0,0,0-.392-.858,2.036,2.036,0,0,0-.737-.556,2.392,2.392,0,0,0-.948-.2,2.341,2.341,0,0,0-.9.147,1.61,1.61,0,0,0-.651.448.993.993,0,0,0-.241.664.843.843,0,0,0,.215.6,1.582,1.582,0,0,0,.534.362,6.443,6.443,0,0,0,.629.22l1.637.461a7.333,7.333,0,0,1,.7.233,3.5,3.5,0,0,1,.758.405,2.039,2.039,0,0,1,.608.685,2.172,2.172,0,0,1,.241,1.073,2.523,2.523,0,0,1-.271,1.181,2.461,2.461,0,0,1-.741.849,3.325,3.325,0,0,1-1.086.513,4.737,4.737,0,0,1-1.3.172Z" transform="translate(10993.46 954.804)"/>
    <path id="패스_13" data-name="패스 13" d="M199.85,30.714l2.883-8.864h1.853l2.883,8.864h-1.336l-2.654-8.088h.332l-2.624,8.088Zm1.5-2V27.508h4.628v1.207Z" transform="translate(10983.268 954.565)"/>
    <path id="패스_14" data-name="패스 14" d="M220.09,30.714V21.85h1.163l3.215,6.666,3.193-6.666h1.176v8.86h-1.219V24.647l-2.861,6.072h-.586l-2.87-6.072v6.072H220.09Z" transform="translate(10971.749 954.565)"/>
    <path id="패스_15" data-name="패스 15" d="M244.68,30.714V21.85h1.288v8.864Z" transform="translate(10957.756 954.565)"/>
    <path id="패스_16" data-name="패스 16" d="M251.95,30.714V21.85h1.306l4.365,6.589V21.85h1.306v8.864h-1.306l-4.365-6.593v6.593Z" transform="translate(10953.618 954.565)"/>
    <path id="패스_17" data-name="패스 17" d="M280.514,30.66a4.293,4.293,0,0,1-1.719-.327,3.231,3.231,0,0,1-1.263-.944,3.116,3.116,0,0,1-.642-1.456l1.34-.2A2.1,2.1,0,0,0,279.079,29a2.567,2.567,0,0,0,1.508.452,2.807,2.807,0,0,0,.987-.168,1.749,1.749,0,0,0,.724-.487,1.133,1.133,0,0,0,.276-.758,1.032,1.032,0,0,0-.082-.427.958.958,0,0,0-.228-.323,1.515,1.515,0,0,0-.349-.241,3.09,3.09,0,0,0-.452-.177l-2.271-.672a5.236,5.236,0,0,1-.677-.254,2.41,2.41,0,0,1-.629-.414,2.048,2.048,0,0,1-.465-.633,2.135,2.135,0,0,1-.177-.922,2.268,2.268,0,0,1,.422-1.388,2.6,2.6,0,0,1,1.142-.862,4.4,4.4,0,0,1,3.223.026,3.1,3.1,0,0,1,1.181.883,3.272,3.272,0,0,1,.651,1.4l-1.379.233a1.828,1.828,0,0,0-.392-.858,2.036,2.036,0,0,0-.737-.556,2.392,2.392,0,0,0-.948-.2,2.341,2.341,0,0,0-.9.147,1.61,1.61,0,0,0-.651.448.993.993,0,0,0-.241.664.844.844,0,0,0,.215.6,1.582,1.582,0,0,0,.534.362,6.445,6.445,0,0,0,.629.22l1.637.461a7.335,7.335,0,0,1,.7.233,3.5,3.5,0,0,1,.758.405,2.039,2.039,0,0,1,.608.685,2.172,2.172,0,0,1,.241,1.073,2.523,2.523,0,0,1-.271,1.181,2.461,2.461,0,0,1-.741.849,3.325,3.325,0,0,1-1.086.513,4.737,4.737,0,0,1-1.3.172Z" transform="translate(10939.425 954.804)"/>
    <path id="패스_18" data-name="패스 18" d="M296.369,30.714V27.051l-3-5.2h1.5l2.15,3.723,2.15-3.723h1.5l-3,5.2v3.663Z" transform="translate(10930.047 954.565)"/>
    <path id="패스_19" data-name="패스 19" d="M314.134,30.66a4.293,4.293,0,0,1-1.719-.327,3.231,3.231,0,0,1-1.263-.944,3.116,3.116,0,0,1-.642-1.456l1.34-.2A2.1,2.1,0,0,0,312.7,29a2.567,2.567,0,0,0,1.508.452,2.807,2.807,0,0,0,.987-.168,1.75,1.75,0,0,0,.724-.487,1.133,1.133,0,0,0,.276-.758,1.032,1.032,0,0,0-.082-.427.958.958,0,0,0-.228-.323,1.515,1.515,0,0,0-.349-.241,3.094,3.094,0,0,0-.452-.177l-2.271-.672a5.239,5.239,0,0,1-.677-.254,2.409,2.409,0,0,1-.629-.414,2.047,2.047,0,0,1-.465-.633,2.134,2.134,0,0,1-.177-.922,2.269,2.269,0,0,1,.422-1.388,2.6,2.6,0,0,1,1.142-.862,4.4,4.4,0,0,1,3.223.026,3.1,3.1,0,0,1,1.181.883,3.272,3.272,0,0,1,.651,1.4l-1.379.233a1.828,1.828,0,0,0-.392-.858,2.036,2.036,0,0,0-.737-.556,2.393,2.393,0,0,0-.948-.2,2.341,2.341,0,0,0-.9.147,1.61,1.61,0,0,0-.651.448.993.993,0,0,0-.241.664.843.843,0,0,0,.215.6,1.582,1.582,0,0,0,.534.362,6.442,6.442,0,0,0,.629.22l1.637.461a7.332,7.332,0,0,1,.7.233,3.5,3.5,0,0,1,.758.405,2.039,2.039,0,0,1,.608.685,2.172,2.172,0,0,1,.241,1.073,2.522,2.522,0,0,1-.271,1.181,2.461,2.461,0,0,1-.741.849,3.326,3.326,0,0,1-1.086.513,4.738,4.738,0,0,1-1.3.172Z" transform="translate(10920.292 954.804)"/>
    <path id="패스_20" data-name="패스 20" d="M331.087,30.714V23.061H328.14V21.85h7.183v1.211h-2.947v7.653Z" transform="translate(10910.259 954.565)"/>
    <path id="패스_21" data-name="패스 21" d="M347.09,30.714V21.85h5.662v1.211h-4.378v2.486h3.637v1.211h-3.637V29.5h4.378V30.71H347.09Z" transform="translate(10899.475 954.565)"/>
    <path id="패스_22" data-name="패스 22" d="M363.66,30.714V21.85h1.163l3.215,6.666,3.193-6.666h1.176v8.86h-1.219V24.647l-2.861,6.072h-.586l-2.87-6.072v6.072H363.66Z" transform="translate(10890.045 954.565)"/>
    <path id="패스_23" data-name="패스 23" d="M183.14,54.957V52.88h.849a.48.48,0,0,1,.073.009.554.554,0,0,1,.267.112.577.577,0,0,1,.172.22.722.722,0,0,1,.06.289.743.743,0,0,1-.06.293.539.539,0,0,1-.172.22.6.6,0,0,1-.267.112c-.026,0-.052.009-.073.009h-.681v.81h-.168Zm.168-.974h.677a.377.377,0,0,0,.069-.009.457.457,0,0,0,.19-.09.4.4,0,0,0,.112-.164.548.548,0,0,0,0-.405.444.444,0,0,0-.112-.164.372.372,0,0,0-.19-.09.377.377,0,0,0-.069-.009h-.677V54Z" transform="translate(10992.777 936.907)"/>
    <path id="패스_24" data-name="패스 24" d="M190.65,54.957V52.88h.849a.48.48,0,0,1,.073.009.553.553,0,0,1,.267.112.577.577,0,0,1,.172.22.722.722,0,0,1,.06.289.681.681,0,0,1-.125.4.524.524,0,0,1-.34.215l-.047.017h-.741v.81h-.168Zm.168-.974h.677a.377.377,0,0,0,.069-.009.457.457,0,0,0,.19-.09.4.4,0,0,0,.112-.164.548.548,0,0,0,0-.405.444.444,0,0,0-.112-.164.372.372,0,0,0-.19-.09.377.377,0,0,0-.069-.009h-.677V54Zm1.112.974-.409-.845.155-.078.448.922Z" transform="translate(10988.503 936.907)"/>
    <path id="패스_25" data-name="패스 25" d="M199.028,54.932a.949.949,0,0,1-.521-.138.849.849,0,0,1-.319-.384,1.533,1.533,0,0,1,0-1.129.872.872,0,0,1,.319-.384,1.055,1.055,0,0,1,1.043,0,.84.84,0,0,1,.315.384,1.433,1.433,0,0,1,.108.564,1.36,1.36,0,0,1-.108.564.892.892,0,0,1-.315.384A.949.949,0,0,1,199.028,54.932Zm0-.164a.752.752,0,0,0,.427-.116.681.681,0,0,0,.254-.323,1.37,1.37,0,0,0,0-.957.708.708,0,0,0-.254-.323.733.733,0,0,0-.427-.116.742.742,0,0,0-.427.116.681.681,0,0,0-.254.323,1.4,1.4,0,0,0,0,.957.689.689,0,0,0,.259.323.752.752,0,0,0,.427.116Z" transform="translate(10984.275 936.975)"/>
    <path id="패스_26" data-name="패스 26" d="M206.684,54.957V52.88h1.172v.168h-1.008v.789h.832V54h-.832v.957h-.168Z" transform="translate(10979.381 936.907)"/>
    <path id="패스_27" data-name="패스 27" d="M213.56,54.957V52.88h1.284v.164h-1.116v.789h.944v.159h-.944v.8h1.116v.159H213.56Z" transform="translate(10975.465 936.907)"/>
    <path id="패스_28" data-name="패스 28" d="M221.219,54.943a.982.982,0,0,1-.383-.069.748.748,0,0,1-.284-.2.676.676,0,0,1-.151-.31l.172-.03a.554.554,0,0,0,.228.327.749.749,0,0,0,.422.121.8.8,0,0,0,.3-.052.483.483,0,0,0,.2-.151.38.38,0,0,0,.073-.228.318.318,0,0,0-.034-.155.292.292,0,0,0-.086-.1.582.582,0,0,0-.112-.065c-.039-.017-.078-.03-.112-.043l-.521-.155a1.041,1.041,0,0,1-.185-.078.577.577,0,0,1-.138-.1.414.414,0,0,1-.086-.138.439.439,0,0,1-.03-.172.483.483,0,0,1,.09-.293.582.582,0,0,1,.246-.194.855.855,0,0,1,.358-.069.832.832,0,0,1,.366.078.684.684,0,0,1,.4.534l-.172.03a.516.516,0,0,0-.1-.25.529.529,0,0,0-.211-.164.686.686,0,0,0-.284-.06.657.657,0,0,0-.267.052.46.46,0,0,0-.181.138.331.331,0,0,0-.065.2.27.27,0,0,0,.065.185.437.437,0,0,0,.155.108,1.784,1.784,0,0,0,.177.065l.418.125c.039.013.086.026.142.047a.657.657,0,0,1,.159.09.528.528,0,0,1,.134.155.5.5,0,0,1,.052.241.563.563,0,0,1-.052.25.535.535,0,0,1-.151.19.677.677,0,0,1-.237.116,1.076,1.076,0,0,1-.3.043Z" transform="translate(10971.572 936.963)"/>
    <path id="패스_29" data-name="패스 29" d="M228.909,54.943a.982.982,0,0,1-.383-.069.748.748,0,0,1-.284-.2.676.676,0,0,1-.151-.31l.172-.03a.554.554,0,0,0,.228.327.749.749,0,0,0,.422.121.8.8,0,0,0,.3-.052.483.483,0,0,0,.2-.151.38.38,0,0,0,.073-.228.318.318,0,0,0-.034-.155.292.292,0,0,0-.086-.1.581.581,0,0,0-.112-.065c-.039-.017-.078-.03-.112-.043l-.521-.155a1.04,1.04,0,0,1-.185-.078.577.577,0,0,1-.138-.1.415.415,0,0,1-.086-.138.439.439,0,0,1-.03-.172.483.483,0,0,1,.09-.293.582.582,0,0,1,.246-.194.855.855,0,0,1,.358-.069.832.832,0,0,1,.366.078.684.684,0,0,1,.4.534l-.172.03a.516.516,0,0,0-.1-.25.529.529,0,0,0-.211-.164.686.686,0,0,0-.284-.06A.657.657,0,0,0,228.6,53a.46.46,0,0,0-.181.138.331.331,0,0,0-.065.2.27.27,0,0,0,.065.185.437.437,0,0,0,.155.108,1.782,1.782,0,0,0,.177.065l.418.125c.039.013.086.026.142.047a.657.657,0,0,1,.159.09.528.528,0,0,1,.134.155.5.5,0,0,1,.052.241.563.563,0,0,1-.052.25.535.535,0,0,1-.151.19.677.677,0,0,1-.237.116,1.076,1.076,0,0,1-.3.043Z" transform="translate(10967.196 936.963)"/>
    <path id="패스_30" data-name="패스 30" d="M236,54.957V52.88h.164v2.077Z" transform="translate(10962.695 936.907)"/>
    <path id="패스_31" data-name="패스 31" d="M241.608,54.932a.949.949,0,0,1-.521-.138.849.849,0,0,1-.319-.384,1.533,1.533,0,0,1,0-1.129.872.872,0,0,1,.319-.384,1.055,1.055,0,0,1,1.043,0,.841.841,0,0,1,.315.384,1.433,1.433,0,0,1,.108.564,1.361,1.361,0,0,1-.108.564.893.893,0,0,1-.315.384A.949.949,0,0,1,241.608,54.932Zm0-.164a.752.752,0,0,0,.427-.116.681.681,0,0,0,.254-.323,1.37,1.37,0,0,0,0-.957.708.708,0,0,0-.254-.323.733.733,0,0,0-.427-.116.742.742,0,0,0-.427.116.681.681,0,0,0-.254.323,1.4,1.4,0,0,0,0,.957.689.689,0,0,0,.259.323A.752.752,0,0,0,241.608,54.768Z" transform="translate(10960.043 936.975)"/>
    <path id="패스_32" data-name="패스 32" d="M249.27,54.957V52.88h.168l1.2,1.78V52.88h.168v2.077h-.168l-1.2-1.784v1.784Z" transform="translate(10955.143 936.907)"/>
    <path id="패스_33" data-name="패스 33" d="M256.99,54.957l.737-2.077h.207l.737,2.077h-.177l-.707-1.991h.082l-.7,1.991Zm.306-.521V54.28h1.069v.155Z" transform="translate(10950.75 936.907)"/>
    <path id="패스_34" data-name="패스 34" d="M265.094,54.957V52.88h.164V54.8h1.008v.159H265.09Z" transform="translate(10946.141 936.907)"/>
    <path id="패스_35" data-name="패스 35" d="M277.049,54.943a.982.982,0,0,1-.384-.069.748.748,0,0,1-.284-.2.675.675,0,0,1-.151-.31l.172-.03a.554.554,0,0,0,.228.327.749.749,0,0,0,.422.121.8.8,0,0,0,.3-.052.483.483,0,0,0,.2-.151.38.38,0,0,0,.073-.228.318.318,0,0,0-.034-.155.292.292,0,0,0-.086-.1.582.582,0,0,0-.112-.065c-.039-.017-.078-.03-.112-.043l-.521-.155a1.04,1.04,0,0,1-.185-.078.576.576,0,0,1-.138-.1.414.414,0,0,1-.086-.138.438.438,0,0,1-.03-.172.483.483,0,0,1,.09-.293.582.582,0,0,1,.246-.194.854.854,0,0,1,.358-.069.832.832,0,0,1,.366.078.684.684,0,0,1,.4.534l-.172.03a.516.516,0,0,0-.1-.25.529.529,0,0,0-.211-.164.686.686,0,0,0-.284-.06.657.657,0,0,0-.267.052.46.46,0,0,0-.181.138.331.331,0,0,0-.065.2.27.27,0,0,0,.065.185.437.437,0,0,0,.155.108,1.785,1.785,0,0,0,.177.065l.418.125c.039.013.086.026.142.047a.658.658,0,0,1,.159.09.528.528,0,0,1,.134.155.5.5,0,0,1,.052.241.562.562,0,0,1-.052.25.535.535,0,0,1-.151.19.677.677,0,0,1-.237.116,1.076,1.076,0,0,1-.3.043Z" transform="translate(10939.801 936.963)"/>
    <path id="패스_36" data-name="패스 36" d="M284.08,54.957V52.88h1.284v.164h-1.116v.789h.944v.159h-.944v.8h1.116v.159H284.08Z" transform="translate(10935.333 936.907)"/>
    <path id="패스_37" data-name="패스 37" d="M291.41,54.957V52.88h.849a.479.479,0,0,1,.073.009A.554.554,0,0,1,292.6,53a.577.577,0,0,1,.172.22.722.722,0,0,1,.06.289.681.681,0,0,1-.125.4.524.524,0,0,1-.34.215l-.047.017h-.741v.81h-.168Zm.168-.974h.677a.377.377,0,0,0,.069-.009.457.457,0,0,0,.19-.09.4.4,0,0,0,.112-.164.548.548,0,0,0,0-.405.444.444,0,0,0-.112-.164.372.372,0,0,0-.19-.09.377.377,0,0,0-.069-.009h-.677V54Zm1.112.974-.409-.845.155-.078.448.922h-.194Z" transform="translate(10931.162 936.907)"/>
    <path id="패스_38" data-name="패스 38" d="M299.407,54.957l-.737-2.077h.177l.659,1.87.664-1.87h.177l-.737,2.077H299.4Z" transform="translate(10927.03 936.907)"/>
    <path id="패스_39" data-name="패스 39" d="M306.69,54.957V52.88h.164v2.077Z" transform="translate(10922.466 936.907)"/>
    <path id="패스_40" data-name="패스 40" d="M312.3,54.932a.949.949,0,0,1-.521-.138.849.849,0,0,1-.319-.384,1.533,1.533,0,0,1,0-1.129.872.872,0,0,1,.319-.384.949.949,0,0,1,.521-.138.887.887,0,0,1,.586.19.923.923,0,0,1,.306.5l-.172.043a.776.776,0,0,0-.246-.414.705.705,0,0,0-.474-.155.742.742,0,0,0-.427.116.681.681,0,0,0-.254.323,1.4,1.4,0,0,0,0,.957.689.689,0,0,0,.259.323.752.752,0,0,0,.427.116.7.7,0,0,0,.474-.155.776.776,0,0,0,.246-.414l.172.043a.932.932,0,0,1-.306.5.887.887,0,0,1-.586.19Z" transform="translate(10919.814 936.975)"/>
    <path id="패스_41" data-name="패스 41" d="M319.91,54.957V52.88h1.284v.164h-1.116v.789h.944v.159h-.944v.8h1.116v.159H319.91Z" transform="translate(10914.942 936.907)"/>
    <path id="패스_42" data-name="패스 42" d="M332.8,54.932a.949.949,0,0,1-.521-.138.849.849,0,0,1-.319-.384,1.533,1.533,0,0,1,0-1.129.872.872,0,0,1,.319-.384.949.949,0,0,1,.521-.138.887.887,0,0,1,.586.19.923.923,0,0,1,.306.5l-.172.043a.776.776,0,0,0-.246-.414.706.706,0,0,0-.474-.155.742.742,0,0,0-.427.116.681.681,0,0,0-.254.323,1.4,1.4,0,0,0,0,.957.689.689,0,0,0,.259.323.752.752,0,0,0,.427.116.7.7,0,0,0,.474-.155.776.776,0,0,0,.246-.414l.172.043a.933.933,0,0,1-.306.5.887.887,0,0,1-.586.19Z" transform="translate(10908.147 936.975)"/>
    <path id="패스_43" data-name="패스 43" d="M341.088,54.932a.949.949,0,0,1-.521-.138.849.849,0,0,1-.319-.384,1.533,1.533,0,0,1,0-1.129.872.872,0,0,1,.319-.384,1.055,1.055,0,0,1,1.043,0,.84.84,0,0,1,.315.384,1.433,1.433,0,0,1,.108.564,1.36,1.36,0,0,1-.108.564.893.893,0,0,1-.315.384A.949.949,0,0,1,341.088,54.932Zm0-.164a.752.752,0,0,0,.427-.116.681.681,0,0,0,.254-.323,1.37,1.37,0,0,0,0-.957.708.708,0,0,0-.254-.323.733.733,0,0,0-.427-.116.742.742,0,0,0-.427.116.681.681,0,0,0-.254.323,1.4,1.4,0,0,0,0,.957.689.689,0,0,0,.259.323A.752.752,0,0,0,341.088,54.768Z" transform="translate(10903.43 936.975)"/>
    <path id="패스_44" data-name="패스 44" d="M348.734,54.957V52.88h.155l.853,1.836.84-1.836h.159v2.073h-.164V53.259l-.771,1.693h-.138l-.776-1.693v1.693h-.164Z" transform="translate(10898.541 936.907)"/>
    <path id="패스_45" data-name="패스 45" d="M357.89,54.957V52.88h.849a.481.481,0,0,1,.073.009.553.553,0,0,1,.267.112.577.577,0,0,1,.172.22.722.722,0,0,1,.06.289.742.742,0,0,1-.06.293.539.539,0,0,1-.172.22.6.6,0,0,1-.267.112c-.026,0-.052.009-.073.009h-.681v.81h-.168Zm.168-.974h.677a.377.377,0,0,0,.069-.009.457.457,0,0,0,.19-.09.4.4,0,0,0,.112-.164.549.549,0,0,0,0-.405.444.444,0,0,0-.112-.164.373.373,0,0,0-.19-.09.377.377,0,0,0-.069-.009h-.677V54Z" transform="translate(10893.328 936.907)"/>
    <path id="패스_46" data-name="패스 46" d="M364.73,54.957l.737-2.077h.207l.737,2.077h-.177l-.707-1.991h.082l-.7,1.991Zm.306-.521V54.28H366.1v.155Z" transform="translate(10889.436 936.907)"/>
    <path id="패스_47" data-name="패스 47" d="M372.78,54.957V52.88h.168l1.2,1.78V52.88h.168v2.077h-.168l-1.2-1.784v1.784Z" transform="translate(10884.855 936.907)"/>
    <path id="패스_48" data-name="패스 48" d="M381.054,54.951v-.879l-.694-1.2h.194l.586,1.008.582-1.008h.194l-.689,1.2v.879h-.168Z" transform="translate(10880.541 936.912)"/>
  </g>
</svg>
