<svg xmlns="http://www.w3.org/2000/svg" width="170" height="60" viewBox="0 0 170 60">
  <g id="그룹_156" data-name="그룹 156" transform="translate(-1079 -4235)">
    <rect id="사각형_175" data-name="사각형 175" width="170" height="60" transform="translate(1079 4235)" opacity="0.8"/>
    <g id="그룹_37" data-name="그룹 37" transform="translate(835 4222)">
      <rect id="사각형_14" data-name="사각형 14" width="138" height="25" transform="translate(260 31)" fill="#ccc" opacity="0"/>
      <g id="그룹_32" data-name="그룹 32" transform="translate(260 31)">
        <path id="패스_6" data-name="패스 6" d="M42.914,6.467H16.47L18.768,0H45.215Z" transform="translate(-10.556)" fill="#fff"/>
        <path id="패스_7" data-name="패스 7" d="M101.407,6.467H94.94L97.238,0h6.467Z" transform="translate(-60.848)" fill="#00f78c"/>
        <path id="패스_8" data-name="패스 8" d="M83.057,39.356H76.59L82.619,22.4h6.467Z" transform="translate(-49.087 -14.356)" fill="#fff"/>
        <path id="패스_9" data-name="패스 9" d="M135.087,25H128.62l8.888-25h6.464Z" transform="translate(-82.434)" fill="#fff"/>
        <path id="패스_10" data-name="패스 10" d="M105.22,39.75l1.936,10.726h6.467L111.687,39.75Z" transform="translate(-67.436 -25.476)" fill="#fff"/>
        <path id="패스_11" data-name="패스 11" d="M22.253,23.7H20.508l-2.3,6.467h2.643a1.41,1.41,0,0,1,1.321,1.943,2.424,2.424,0,0,1-2.241,1.612H2.3L0,40.19H18.077a11.188,11.188,0,0,0,10.335-7.43h0a6.578,6.578,0,0,0-6.158-9.06Z" transform="translate(0 -15.19)" fill="#fff"/>
        <path id="패스_12" data-name="패스 12" d="M184.96,29.122a3.577,3.577,0,0,1-1.433-.273,2.692,2.692,0,0,1-1.052-.786,2.6,2.6,0,0,1-.535-1.214l1.117-.169a1.753,1.753,0,0,0,.707,1.056,2.139,2.139,0,0,0,1.257.377,2.339,2.339,0,0,0,.822-.14,1.458,1.458,0,0,0,.6-.406.944.944,0,0,0,.23-.632.86.86,0,0,0-.068-.356.8.8,0,0,0-.19-.269,1.262,1.262,0,0,0-.291-.2,2.576,2.576,0,0,0-.377-.147l-1.892-.56a4.363,4.363,0,0,1-.564-.212,2.008,2.008,0,0,1-.524-.345,1.706,1.706,0,0,1-.388-.528,1.779,1.779,0,0,1-.147-.768,1.891,1.891,0,0,1,.352-1.156,2.167,2.167,0,0,1,.952-.718,3.665,3.665,0,0,1,2.686.022,2.585,2.585,0,0,1,.984.736,2.726,2.726,0,0,1,.542,1.163l-1.149.194a1.523,1.523,0,0,0-.327-.715,1.7,1.7,0,0,0-.614-.463,1.994,1.994,0,0,0-.79-.165,1.951,1.951,0,0,0-.751.122,1.342,1.342,0,0,0-.542.373.827.827,0,0,0-.2.553.7.7,0,0,0,.18.5,1.319,1.319,0,0,0,.445.3,5.37,5.37,0,0,0,.524.183l1.365.384a6.11,6.11,0,0,1,.582.194,2.915,2.915,0,0,1,.632.338,1.7,1.7,0,0,1,.506.571,1.81,1.81,0,0,1,.2.894,2.1,2.1,0,0,1-.226.984,2.051,2.051,0,0,1-.618.707,2.771,2.771,0,0,1-.9.427,3.948,3.948,0,0,1-1.081.144Z" transform="translate(-116.607 -13.735)" fill="#fff"/>
        <path id="패스_13" data-name="패스 13" d="M199.85,29.237l2.4-7.387H203.8l2.4,7.387h-1.113l-2.212-6.74h.277l-2.187,6.74ZM201.1,27.57V26.565h3.857V27.57Z" transform="translate(-128.085 -14.004)" fill="#fff"/>
        <path id="패스_14" data-name="패스 14" d="M220.09,29.237V21.85h.97l2.679,5.555L226.4,21.85h.98v7.383h-1.016V24.181l-2.384,5.06h-.488l-2.392-5.06v5.06H220.09Z" transform="translate(-141.057 -14.004)" fill="#fff"/>
        <path id="패스_15" data-name="패스 15" d="M244.68,29.237V21.85h1.074v7.387Z" transform="translate(-156.817 -14.004)" fill="#fff"/>
        <path id="패스_16" data-name="패스 16" d="M251.95,29.237V21.85h1.088l3.638,5.491V21.85h1.088v7.387h-1.088l-3.638-5.494v5.494Z" transform="translate(-161.477 -14.004)" fill="#fff"/>
        <path id="패스_17" data-name="패스 17" d="M279.91,29.122a3.577,3.577,0,0,1-1.433-.273,2.692,2.692,0,0,1-1.052-.786,2.6,2.6,0,0,1-.535-1.214l1.117-.169a1.753,1.753,0,0,0,.707,1.056,2.139,2.139,0,0,0,1.257.377,2.34,2.34,0,0,0,.822-.14,1.458,1.458,0,0,0,.6-.406.944.944,0,0,0,.23-.632.86.86,0,0,0-.068-.356.8.8,0,0,0-.19-.269,1.263,1.263,0,0,0-.291-.2,2.575,2.575,0,0,0-.377-.147l-1.892-.56a4.362,4.362,0,0,1-.564-.212,2.008,2.008,0,0,1-.524-.345,1.706,1.706,0,0,1-.388-.528,1.779,1.779,0,0,1-.147-.768,1.89,1.89,0,0,1,.352-1.156,2.167,2.167,0,0,1,.952-.718,3.665,3.665,0,0,1,2.686.022,2.585,2.585,0,0,1,.984.736A2.726,2.726,0,0,1,282.7,23.6l-1.149.194a1.523,1.523,0,0,0-.327-.715,1.7,1.7,0,0,0-.614-.463,1.994,1.994,0,0,0-.79-.165,1.951,1.951,0,0,0-.751.122,1.342,1.342,0,0,0-.542.373.827.827,0,0,0-.2.553.7.7,0,0,0,.18.5,1.319,1.319,0,0,0,.445.3,5.369,5.369,0,0,0,.524.183l1.365.384a6.111,6.111,0,0,1,.582.194,2.914,2.914,0,0,1,.632.338,1.7,1.7,0,0,1,.506.571,1.81,1.81,0,0,1,.2.894,2.1,2.1,0,0,1-.226.984,2.051,2.051,0,0,1-.618.707,2.771,2.771,0,0,1-.9.427,3.948,3.948,0,0,1-1.081.144Z" transform="translate(-177.461 -13.735)" fill="#fff"/>
        <path id="패스_18" data-name="패스 18" d="M295.869,29.237V26.184l-2.5-4.334h1.253l1.792,3.1,1.792-3.1h1.25l-2.5,4.334v3.052Z" transform="translate(-188.023 -14.004)" fill="#fff"/>
        <path id="패스_19" data-name="패스 19" d="M313.53,29.122a3.577,3.577,0,0,1-1.433-.273,2.692,2.692,0,0,1-1.052-.786,2.6,2.6,0,0,1-.535-1.214l1.117-.169a1.753,1.753,0,0,0,.707,1.056,2.139,2.139,0,0,0,1.257.377,2.339,2.339,0,0,0,.822-.14,1.458,1.458,0,0,0,.6-.406.944.944,0,0,0,.23-.632.86.86,0,0,0-.068-.356.8.8,0,0,0-.19-.269,1.263,1.263,0,0,0-.291-.2,2.579,2.579,0,0,0-.377-.147l-1.892-.56a4.365,4.365,0,0,1-.564-.212,2.007,2.007,0,0,1-.524-.345,1.706,1.706,0,0,1-.388-.528,1.779,1.779,0,0,1-.147-.768,1.89,1.89,0,0,1,.352-1.156,2.167,2.167,0,0,1,.952-.718,3.665,3.665,0,0,1,2.686.022,2.585,2.585,0,0,1,.984.736,2.726,2.726,0,0,1,.542,1.163l-1.149.194a1.523,1.523,0,0,0-.327-.715,1.7,1.7,0,0,0-.614-.463,1.994,1.994,0,0,0-.79-.165,1.951,1.951,0,0,0-.751.122,1.342,1.342,0,0,0-.542.373.827.827,0,0,0-.2.553.7.7,0,0,0,.18.5,1.318,1.318,0,0,0,.445.3,5.367,5.367,0,0,0,.524.183l1.365.384a6.111,6.111,0,0,1,.582.194,2.915,2.915,0,0,1,.632.338,1.7,1.7,0,0,1,.506.571,1.81,1.81,0,0,1,.2.894,2.1,2.1,0,0,1-.226.984,2.05,2.05,0,0,1-.618.707,2.771,2.771,0,0,1-.9.427,3.948,3.948,0,0,1-1.081.144Z" transform="translate(-199.008 -13.735)" fill="#fff"/>
        <path id="패스_20" data-name="패스 20" d="M330.6,29.237V22.859H328.14V21.85h5.986v1.009H331.67v6.377Z" transform="translate(-210.308 -14.004)" fill="#fff"/>
        <path id="패스_21" data-name="패스 21" d="M347.09,29.237V21.85h4.718v1.009H348.16v2.072h3.031V25.94H348.16v2.284h3.648v1.009H347.09Z" transform="translate(-222.453 -14.004)" fill="#fff"/>
        <path id="패스_22" data-name="패스 22" d="M363.66,29.237V21.85h.97l2.679,5.555,2.661-5.555h.98v7.383h-1.016V24.181l-2.384,5.06h-.488l-2.392-5.06v5.06H363.66Z" transform="translate(-233.073 -14.004)" fill="#fff"/>
        <path id="패스_23" data-name="패스 23" d="M183.14,54.611V52.88h.707a.4.4,0,0,1,.061.007.461.461,0,0,1,.223.093.481.481,0,0,1,.144.183.6.6,0,0,1,.05.241.619.619,0,0,1-.05.244.449.449,0,0,1-.144.183.5.5,0,0,1-.223.093c-.022,0-.043.007-.061.007h-.567v.675h-.14Zm.14-.812h.564a.314.314,0,0,0,.057-.007.381.381,0,0,0,.158-.075.332.332,0,0,0,.093-.136.457.457,0,0,0,0-.338.37.37,0,0,0-.093-.136.31.31,0,0,0-.158-.075.314.314,0,0,0-.057-.007h-.564v.786Z" transform="translate(-117.376 -33.891)" fill="#fff"/>
        <path id="패스_24" data-name="패스 24" d="M190.65,54.611V52.88h.707a.4.4,0,0,1,.061.007.461.461,0,0,1,.223.093.48.48,0,0,1,.144.183.6.6,0,0,1,.05.241.567.567,0,0,1-.1.334.436.436,0,0,1-.284.18l-.04.014h-.618v.675h-.14Zm.14-.812h.564a.314.314,0,0,0,.057-.007.381.381,0,0,0,.158-.075.332.332,0,0,0,.093-.136.457.457,0,0,0,0-.338.37.37,0,0,0-.093-.136.31.31,0,0,0-.158-.075.314.314,0,0,0-.057-.007h-.564v.786Zm.926.812-.341-.7.129-.065.373.768Z" transform="translate(-122.189 -33.891)" fill="#fff"/>
        <path id="패스_25" data-name="패스 25" d="M198.87,54.57a.791.791,0,0,1-.434-.115.708.708,0,0,1-.266-.32,1.277,1.277,0,0,1,0-.941.727.727,0,0,1,.266-.32.879.879,0,0,1,.869,0,.7.7,0,0,1,.262.32,1.194,1.194,0,0,1,.09.47,1.133,1.133,0,0,1-.09.47.744.744,0,0,1-.262.32A.791.791,0,0,1,198.87,54.57Zm0-.136a.626.626,0,0,0,.356-.1.567.567,0,0,0,.212-.269,1.142,1.142,0,0,0,0-.8.59.59,0,0,0-.212-.269.611.611,0,0,0-.356-.1.618.618,0,0,0-.355.1.567.567,0,0,0-.212.269,1.17,1.17,0,0,0,0,.8.574.574,0,0,0,.215.269.626.626,0,0,0,.355.1Z" transform="translate(-126.951 -33.814)" fill="#fff"/>
        <path id="패스_26" data-name="패스 26" d="M206.684,54.611V52.88h.977v.14h-.84v.657h.693v.14h-.693v.8h-.14Z" transform="translate(-132.463 -33.891)" fill="#fff"/>
        <path id="패스_27" data-name="패스 27" d="M213.56,54.611V52.88h1.07v.136h-.93v.657h.786v.133H213.7v.668h.93v.133h-1.07Z" transform="translate(-136.872 -33.891)" fill="#fff"/>
        <path id="패스_28" data-name="패스 28" d="M221.082,54.583a.818.818,0,0,1-.32-.057.623.623,0,0,1-.237-.169.563.563,0,0,1-.126-.259l.144-.025a.462.462,0,0,0,.19.273.624.624,0,0,0,.352.1.663.663,0,0,0,.248-.043.4.4,0,0,0,.169-.126.317.317,0,0,0,.061-.19.265.265,0,0,0-.029-.129.243.243,0,0,0-.072-.086.485.485,0,0,0-.093-.054c-.032-.014-.065-.025-.093-.036l-.434-.129a.867.867,0,0,1-.154-.065.481.481,0,0,1-.115-.086.345.345,0,0,1-.072-.115.366.366,0,0,1-.025-.144.4.4,0,0,1,.075-.244.485.485,0,0,1,.2-.162.712.712,0,0,1,.3-.057.693.693,0,0,1,.305.065.57.57,0,0,1,.334.445l-.144.025a.43.43,0,0,0-.086-.208.441.441,0,0,0-.176-.136.572.572,0,0,0-.237-.05.547.547,0,0,0-.223.043.383.383,0,0,0-.151.115.276.276,0,0,0-.054.165.225.225,0,0,0,.054.154.364.364,0,0,0,.129.09,1.487,1.487,0,0,0,.147.054l.348.1c.032.011.072.022.118.04a.548.548,0,0,1,.133.075.44.44,0,0,1,.111.129.417.417,0,0,1,.043.2.469.469,0,0,1-.043.208.446.446,0,0,1-.126.158.565.565,0,0,1-.2.1.9.9,0,0,1-.248.036Z" transform="translate(-141.256 -33.827)" fill="#fff"/>
        <path id="패스_29" data-name="패스 29" d="M228.772,54.583a.818.818,0,0,1-.32-.057.623.623,0,0,1-.237-.169.563.563,0,0,1-.126-.259l.144-.025a.462.462,0,0,0,.19.273.624.624,0,0,0,.352.1.663.663,0,0,0,.248-.043.4.4,0,0,0,.169-.126.317.317,0,0,0,.061-.19.265.265,0,0,0-.029-.129.243.243,0,0,0-.072-.086.485.485,0,0,0-.093-.054c-.032-.014-.065-.025-.093-.036l-.434-.129a.868.868,0,0,1-.154-.065.481.481,0,0,1-.115-.086.346.346,0,0,1-.072-.115.366.366,0,0,1-.025-.144.4.4,0,0,1,.075-.244.485.485,0,0,1,.2-.162.712.712,0,0,1,.3-.057.693.693,0,0,1,.305.065.57.57,0,0,1,.334.445l-.144.025a.43.43,0,0,0-.086-.208.441.441,0,0,0-.176-.136.572.572,0,0,0-.237-.05.547.547,0,0,0-.223.043.383.383,0,0,0-.151.115.275.275,0,0,0-.054.165.225.225,0,0,0,.054.154.364.364,0,0,0,.129.09,1.486,1.486,0,0,0,.147.054l.348.1c.032.011.072.022.118.04a.548.548,0,0,1,.133.075.44.44,0,0,1,.111.129.417.417,0,0,1,.043.2.469.469,0,0,1-.043.208.446.446,0,0,1-.126.158.564.564,0,0,1-.2.1.9.9,0,0,1-.248.036Z" transform="translate(-146.185 -33.827)" fill="#fff"/>
        <path id="패스_30" data-name="패스 30" d="M236,54.611V52.88h.136v1.731Z" transform="translate(-151.254 -33.891)" fill="#fff"/>
        <path id="패스_31" data-name="패스 31" d="M241.45,54.57a.791.791,0,0,1-.435-.115.708.708,0,0,1-.266-.32,1.277,1.277,0,0,1,0-.941.727.727,0,0,1,.266-.32.879.879,0,0,1,.869,0,.7.7,0,0,1,.262.32,1.194,1.194,0,0,1,.09.47,1.134,1.134,0,0,1-.09.47.744.744,0,0,1-.262.32A.791.791,0,0,1,241.45,54.57Zm0-.136a.626.626,0,0,0,.355-.1.568.568,0,0,0,.212-.269,1.142,1.142,0,0,0,0-.8.59.59,0,0,0-.212-.269.611.611,0,0,0-.355-.1.618.618,0,0,0-.355.1.567.567,0,0,0-.212.269,1.169,1.169,0,0,0,0,.8.574.574,0,0,0,.215.269A.626.626,0,0,0,241.45,54.433Z" transform="translate(-154.241 -33.814)" fill="#fff"/>
        <path id="패스_32" data-name="패스 32" d="M249.27,54.611V52.88h.14l1,1.483V52.88h.14v1.731h-.14l-1-1.487v1.487Z" transform="translate(-159.759 -33.891)" fill="#fff"/>
        <path id="패스_33" data-name="패스 33" d="M256.99,54.611l.614-1.731h.172l.614,1.731h-.147l-.589-1.659h.068l-.585,1.659Zm.255-.435v-.129h.891v.129Z" transform="translate(-164.707 -33.891)" fill="#fff"/>
        <path id="패스_34" data-name="패스 34" d="M265.094,54.611V52.88h.136v1.6h.84v.133h-.98Z" transform="translate(-169.898 -33.891)" fill="#fff"/>
        <path id="패스_35" data-name="패스 35" d="M276.912,54.583a.818.818,0,0,1-.32-.057.623.623,0,0,1-.237-.169.563.563,0,0,1-.126-.259l.144-.025a.462.462,0,0,0,.19.273.624.624,0,0,0,.352.1.663.663,0,0,0,.248-.043.4.4,0,0,0,.169-.126.317.317,0,0,0,.061-.19.265.265,0,0,0-.029-.129.243.243,0,0,0-.072-.086.486.486,0,0,0-.093-.054c-.032-.014-.065-.025-.093-.036l-.434-.129a.867.867,0,0,1-.154-.065.48.48,0,0,1-.115-.086.345.345,0,0,1-.072-.115.365.365,0,0,1-.025-.144.4.4,0,0,1,.075-.244.485.485,0,0,1,.2-.162.712.712,0,0,1,.3-.057.693.693,0,0,1,.305.065.57.57,0,0,1,.334.445l-.144.025a.43.43,0,0,0-.086-.208.441.441,0,0,0-.176-.136.572.572,0,0,0-.237-.05.547.547,0,0,0-.223.043.383.383,0,0,0-.151.115.275.275,0,0,0-.054.165.225.225,0,0,0,.054.154.364.364,0,0,0,.129.09,1.484,1.484,0,0,0,.147.054l.348.1c.032.011.072.022.118.04a.548.548,0,0,1,.133.075.44.44,0,0,1,.111.129.417.417,0,0,1,.043.2.468.468,0,0,1-.043.208.446.446,0,0,1-.126.158.564.564,0,0,1-.2.1.9.9,0,0,1-.248.036Z" transform="translate(-177.038 -33.827)" fill="#fff"/>
        <path id="패스_36" data-name="패스 36" d="M284.08,54.611V52.88h1.07v.136h-.93v.657h.786v.133h-.786v.668h.93v.133h-1.07Z" transform="translate(-182.069 -33.891)" fill="#fff"/>
        <path id="패스_37" data-name="패스 37" d="M291.41,54.611V52.88h.707a.4.4,0,0,1,.061.007.461.461,0,0,1,.223.093.481.481,0,0,1,.144.183.6.6,0,0,1,.05.241.567.567,0,0,1-.1.334.437.437,0,0,1-.284.18l-.039.014h-.618v.675h-.14Zm.14-.812h.564a.314.314,0,0,0,.057-.007.381.381,0,0,0,.158-.075.331.331,0,0,0,.093-.136.456.456,0,0,0,0-.338.369.369,0,0,0-.093-.136.31.31,0,0,0-.158-.075.315.315,0,0,0-.057-.007h-.564v.786Zm.926.812-.341-.7.129-.065.373.768Z" transform="translate(-186.767 -33.891)" fill="#fff"/>
        <path id="패스_38" data-name="패스 38" d="M299.284,54.611l-.614-1.731h.147l.549,1.558.553-1.558h.147l-.614,1.731h-.172Z" transform="translate(-191.42 -33.891)" fill="#fff"/>
        <path id="패스_39" data-name="패스 39" d="M306.69,54.611V52.88h.136v1.731Z" transform="translate(-196.56 -33.891)" fill="#fff"/>
        <path id="패스_40" data-name="패스 40" d="M312.14,54.57a.791.791,0,0,1-.434-.115.707.707,0,0,1-.266-.32,1.278,1.278,0,0,1,0-.941.727.727,0,0,1,.266-.32.791.791,0,0,1,.434-.115.739.739,0,0,1,.488.158.769.769,0,0,1,.255.417l-.144.036a.646.646,0,0,0-.2-.345.588.588,0,0,0-.4-.129.618.618,0,0,0-.355.1.567.567,0,0,0-.212.269,1.169,1.169,0,0,0,0,.8.574.574,0,0,0,.215.269.626.626,0,0,0,.355.1.581.581,0,0,0,.4-.129.646.646,0,0,0,.2-.345l.144.036a.777.777,0,0,1-.255.417.739.739,0,0,1-.488.158Z" transform="translate(-199.547 -33.814)" fill="#fff"/>
        <path id="패스_41" data-name="패스 41" d="M319.91,54.611V52.88h1.07v.136h-.93v.657h.786v.133h-.786v.668h.93v.133h-1.07Z" transform="translate(-205.033 -33.891)" fill="#fff"/>
        <path id="패스_42" data-name="패스 42" d="M332.64,54.57a.791.791,0,0,1-.435-.115.708.708,0,0,1-.266-.32,1.277,1.277,0,0,1,0-.941.727.727,0,0,1,.266-.32.791.791,0,0,1,.435-.115.739.739,0,0,1,.488.158.769.769,0,0,1,.255.417l-.144.036a.646.646,0,0,0-.2-.345.588.588,0,0,0-.4-.129.618.618,0,0,0-.355.1.568.568,0,0,0-.212.269,1.169,1.169,0,0,0,0,.8.574.574,0,0,0,.215.269.626.626,0,0,0,.355.1.581.581,0,0,0,.4-.129.646.646,0,0,0,.2-.345l.144.036a.777.777,0,0,1-.255.417.739.739,0,0,1-.488.158Z" transform="translate(-212.685 -33.814)" fill="#fff"/>
        <path id="패스_43" data-name="패스 43" d="M340.93,54.57a.791.791,0,0,1-.434-.115.707.707,0,0,1-.266-.32,1.278,1.278,0,0,1,0-.941.727.727,0,0,1,.266-.32.879.879,0,0,1,.869,0,.7.7,0,0,1,.262.32,1.2,1.2,0,0,1,.09.47,1.133,1.133,0,0,1-.09.47.744.744,0,0,1-.262.32A.791.791,0,0,1,340.93,54.57Zm0-.136a.627.627,0,0,0,.356-.1.568.568,0,0,0,.212-.269,1.142,1.142,0,0,0,0-.8.59.59,0,0,0-.212-.269.611.611,0,0,0-.356-.1.618.618,0,0,0-.355.1.568.568,0,0,0-.212.269,1.169,1.169,0,0,0,0,.8.574.574,0,0,0,.215.269A.626.626,0,0,0,340.93,54.433Z" transform="translate(-217.998 -33.814)" fill="#fff"/>
        <path id="패스_44" data-name="패스 44" d="M348.734,54.611V52.88h.129l.711,1.53.7-1.53h.133v1.727h-.136V53.2l-.643,1.411h-.115l-.646-1.411v1.411h-.136Z" transform="translate(-223.504 -33.891)" fill="#fff"/>
        <path id="패스_45" data-name="패스 45" d="M357.89,54.611V52.88h.707a.4.4,0,0,1,.061.007.461.461,0,0,1,.223.093.481.481,0,0,1,.144.183.6.6,0,0,1,.05.241.618.618,0,0,1-.05.244.449.449,0,0,1-.144.183.5.5,0,0,1-.223.093c-.022,0-.043.007-.061.007h-.567v.675h-.14Zm.14-.812h.564a.314.314,0,0,0,.057-.007.38.38,0,0,0,.158-.075.332.332,0,0,0,.093-.136.457.457,0,0,0,0-.338.369.369,0,0,0-.093-.136.311.311,0,0,0-.158-.075.314.314,0,0,0-.057-.007h-.564v.786Z" transform="translate(-229.374 -33.891)" fill="#fff"/>
        <path id="패스_46" data-name="패스 46" d="M364.73,54.611l.614-1.731h.172l.614,1.731h-.147l-.589-1.659h.068l-.585,1.659Zm.255-.435v-.129h.891v.129Z" transform="translate(-233.758 -33.891)" fill="#fff"/>
        <path id="패스_47" data-name="패스 47" d="M372.78,54.611V52.88h.14l1,1.483V52.88h.14v1.731h-.14l-1-1.487v1.487Z" transform="translate(-238.918 -33.891)" fill="#fff"/>
        <path id="패스_48" data-name="패스 48" d="M380.938,54.6v-.733l-.578-1h.162l.488.84.485-.84h.162l-.575,1V54.6h-.14Z" transform="translate(-243.776 -33.885)" fill="#fff"/>
      </g>
    </g>
  </g>
</svg>
