<svg xmlns="http://www.w3.org/2000/svg" width="86.109" height="86.099" viewBox="0 0 86.109 86.099">
  <path id="합치기_7" data-name="합치기 7" d="M40,84.907a2.12,2.12,0,0,1-.933-.247,1.337,1.337,0,0,1-.546-.552,1.44,1.44,0,0,1-.148-.756,1.46,1.46,0,0,1,.346-.884A1.438,1.438,0,0,1,39.629,82l-1.117-2.144.772.045,1.057,2.091.778.045.118-2.021.644.037L41.591,85Zm-.66-2.192a.928.928,0,0,0-.3.676.886.886,0,0,0,.219.7,1.124,1.124,0,0,0,.774.287l.949.056.109-1.872-.948-.056q-.059,0-.115,0A1,1,0,0,0,39.339,82.715ZM44.108,84.7a2.337,2.337,0,0,1-.951-.836,2.783,2.783,0,0,1-.175-2.609,2.341,2.341,0,0,1,.831-.957,2.609,2.609,0,0,1,2.511-.17,2.371,2.371,0,0,1,.955.84,2.746,2.746,0,0,1,.175,2.6,2.372,2.372,0,0,1-.834.961,2.5,2.5,0,0,1-1.23.408q-.1.007-.194.007A2.456,2.456,0,0,1,44.108,84.7Zm.979-4.25a1.817,1.817,0,0,0-.914.3,1.7,1.7,0,0,0-.6.732,2.395,2.395,0,0,0,.139,2.074,1.713,1.713,0,0,0,.693.64,1.936,1.936,0,0,0,1.867-.126,1.716,1.716,0,0,0,.6-.727,2.4,2.4,0,0,0-.139-2.074,1.7,1.7,0,0,0-.7-.643,1.778,1.778,0,0,0-.8-.183Q45.16,80.446,45.087,80.451ZM34.272,84.208l.085-.525,1.987.324.266-1.634-1.776-.29.085-.526,1.777.29.273-1.683-1.987-.325.086-.526,2.623.428-.8,4.9Zm13.937-4.53.629-.14.793,3.579.8-3.934.443-.1,2.393,3.231-.795-3.587.63-.14,1.064,4.8-.678.151-2.651-3.573-.892,4.361-.67.15Zm-17.6,3.636-.131-4.544-2.815,3.563-.645-.215,3.325-4.112.707.235.213,5.289ZM56.668,77.3l.655-.307,2.726,3.122-.608-4.116.645-.31,3.35,3.9-.623.293-2.752-3.345.7,4.309-.655.308-2.8-3.309.788,4.251-.629.3Zm-31.18,4.122,1.951-4.55.592.255-1.95,4.55Zm-3.6-1.763.243-.473,1.79.924.756-1.472-1.6-.826.243-.474,1.6.826.778-1.516-1.789-.924.243-.474,2.363,1.22-2.266,4.409Zm-1.59-.874,1.527-4.056-3.383,2.749-.591-.417,1.472-4.078-3.287,2.8-.569-.4,4.012-3.226.591.417L18.72,76.489l3.261-2.574.59.407-1.714,4.854Zm43.775-.294,1.689-1.1L64.86,76l-1.511.982-.289-.448,1.511-.981-.926-1.431-1.689,1.1-.289-.447L63.9,73.322l2.691,4.162-2.231,1.449Zm.641-5.772.515-.389,2.968,3.959-.515.388Zm2.434-1.964.555-.5L72.38,72.7l-.514.459-3.994-2.149,1.679,4.222-.508.454ZM12.489,72.494l1.764-4.086-4.215,1.4L9.573,69.3l3.617-3.321.436.477-2.7,2.475,3.8-1.271.307.335-1.6,3.692,2.7-2.481.436.476-3.617,3.322Zm61.565-2.4,1.273-1.563-1.279-1.048-1.139,1.4-.411-.337,1.139-1.4-1.318-1.079-1.273,1.563-.411-.337,1.681-2.064,3.832,3.137-1.681,2.064ZM8.212,67.042a2.493,2.493,0,0,1-.968-.864,2.524,2.524,0,0,1-.435-1.23A2.356,2.356,0,0,1,7.056,63.7a2.77,2.77,0,0,1,2.166-1.457,2.336,2.336,0,0,1,1.242.242,2.622,2.622,0,0,1,1.4,2.094,2.373,2.373,0,0,1-.247,1.25,2.6,2.6,0,0,1-.9,1,2.569,2.569,0,0,1-1.263.452q-.094.007-.187.007A2.337,2.337,0,0,1,8.212,67.042Zm1.1-4.17A2.376,2.376,0,0,0,7.6,64.03a1.709,1.709,0,0,0-.207.921A1.945,1.945,0,0,0,8.431,66.51a1.715,1.715,0,0,0,.929.158,2.38,2.38,0,0,0,1.721-1.158,1.709,1.709,0,0,0,.207-.928,1.926,1.926,0,0,0-1.038-1.551,1.655,1.655,0,0,0-.738-.169A1.926,1.926,0,0,0,9.316,62.872ZM76.5,66.7a1.44,1.44,0,0,1-.727-.249,1.462,1.462,0,0,1-.59-.744,1.441,1.441,0,0,1,.053-1.023l-2.411-.1.425-.646,2.334.127.428-.653L74.321,62.3l.355-.541L78.8,64.48l-.876,1.335a2.124,2.124,0,0,1-.68.688,1.35,1.35,0,0,1-.685.2Zm-.577-2.209a1.084,1.084,0,0,0-.216.8.93.93,0,0,0,.433.6.878.878,0,0,0,.71.158,1.126,1.126,0,0,0,.636-.529l.521-.8L76.441,63.7ZM4.565,61.45a2.119,2.119,0,0,1-.251-.934,1.342,1.342,0,0,1,.205-.75,1.429,1.429,0,0,1,2.374-.082l1.3-2.04.345.693L7.254,60.3,7.6,61l1.808-.9.287.579-4.421,2.21ZM5.4,59.859A.886.886,0,0,0,4.9,60.4a1.133,1.133,0,0,0,.137.817l.424.852,1.674-.837-.424-.853a1.079,1.079,0,0,0-.582-.59.833.833,0,0,0-.271-.045A1.041,1.041,0,0,0,5.4,59.859Zm71.9,2.4a2.6,2.6,0,0,1-1.028-.867,2.347,2.347,0,0,1-.414-1.2,2.623,2.623,0,0,1,1.1-2.267,2.36,2.36,0,0,1,1.2-.412A2.73,2.73,0,0,1,80.5,58.656a2.378,2.378,0,0,1,.415,1.2,2.624,2.624,0,0,1-1.1,2.268,2.343,2.343,0,0,1-1.2.41q-.075,0-.151,0A2.631,2.631,0,0,1,77.3,62.257Zm.853-4.117a1.69,1.69,0,0,0-.9.285,1.926,1.926,0,0,0-.817,1.679,1.7,1.7,0,0,0,.332.89,2.379,2.379,0,0,0,1.863.912,1.715,1.715,0,0,0,.9-.284,1.942,1.942,0,0,0,.82-1.686,1.713,1.713,0,0,0-.33-.885,2.16,2.16,0,0,0-.829-.67,2.189,2.189,0,0,0-.967-.242Zm-75.824-2,.5-.187.708,1.889,1.546-.583-.633-1.69.5-.187.633,1.689,1.592-.6L6.46,54.584l.5-.187.935,2.494L3.262,58.636Zm75.181-.085.191-.617,3.492,1.088-3.008-2.649.135-.434,3.986-.476-3.5-1.092.191-.617,4.683,1.46-.206.666-4.411.529,3.333,2.944-.2.658ZM1.276,52.5l3.867-2.373L.66,49.447l-.134-.668,5.211.848.148.731L1.413,53.173Zm78.373-4.983.06-.722,4.057-.817L79.9,44.456l.052-.716L85,42.771l-.057.687-4.264.727,4.075,1.538-.06.722-4.255.786,4.07,1.431-.057.694ZM.369,47.1l4.907-.568.074.643-4.907.568ZM.1,43.089l.531-.025.092,2.015L2.372,45l-.083-1.8.532-.025.082,1.8L4.6,44.9l-.093-2.016.531-.025.122,2.662L.22,45.75Zm-.038-1.8,4.268-.7L.262,39.019.327,38.3l4.259-.761L.524,36.082l.062-.693,4.793,1.87-.064.722-4.063.793,3.855,1.543-.057.716L0,41.97Zm79.758-2.021,4.94-.255.137,2.661-.531.027-.1-2.015-1.649.085.092,1.8-.531.028-.092-1.8-1.7.088.1,2.015-.531.028Zm-.2-1.664,4.9-.6.078.642-4.9.6Zm-.4-2.446-.152-.73,4.455-2.841.14.675-3.853,2.4L84.3,35.3l.139.668ZM1.379,32.037l.21-.664L6,30.869,2.686,27.906l.208-.657,4.675,1.488-.2.617L3.888,28.244l2.993,2.667-.138.433L2.756,31.8l3.493,1.111-.195.616Zm75.649-4.118,4.622-1.77.949,2.489-.5.19-.718-1.885-1.543.591.642,1.686-.5.19-.643-1.686-1.589.608.718,1.885-.5.19ZM5.612,27a2.58,2.58,0,0,1-1.02-.874,2.37,2.37,0,0,1-.409-1.206A2.622,2.622,0,0,1,5.3,22.657a2.345,2.345,0,0,1,1.2-.4,2.587,2.587,0,0,1,1.314.287,2.593,2.593,0,0,1,1.024.872,2.352,2.352,0,0,1,.407,1.2,2.624,2.624,0,0,1-1.115,2.261,2.366,2.366,0,0,1-1.205.405q-.072,0-.144,0A2.607,2.607,0,0,1,5.612,27Zm.873-4.114a1.713,1.713,0,0,0-.9.278,1.943,1.943,0,0,0-.83,1.682,1.715,1.715,0,0,0,.325.887,2.169,2.169,0,0,0,.826.675,2.165,2.165,0,0,0,1.032.247,1.7,1.7,0,0,0,.906-.28A1.933,1.933,0,0,0,8.669,24.7a1.7,1.7,0,0,0-.327-.891,2.166,2.166,0,0,0-.822-.673,2.182,2.182,0,0,0-.975-.25ZM76.37,26.464,77.641,24.5l-.353-.7-1.8.915-.292-.577L79.6,21.9l.72,1.427a2.128,2.128,0,0,1,.257.933,1.334,1.334,0,0,1-.2.751,1.43,1.43,0,0,1-2.373.1l-1.287,2.046Zm1.38-2.9.428.849a1.083,1.083,0,0,0,.586.587.925.925,0,0,0,.735-.078.884.884,0,0,0,.491-.54,1.133,1.133,0,0,0-.142-.816l-.429-.849ZM6.32,20.309l.885-1.33a2.111,2.111,0,0,1,.684-.682,1.333,1.333,0,0,1,.751-.2,1.437,1.437,0,0,1,.726.255,1.394,1.394,0,0,1,.527,1.769l2.41.116-.428.645-2.333-.142-.433.651,1.681,1.123-.357.538Zm1.966-1.56a1.127,1.127,0,0,0-.638.525l-.527.793,1.557,1.04.527-.792a1.081,1.081,0,0,0,.221-.8.93.93,0,0,0-.429-.6.965.965,0,0,0-.535-.182A.752.752,0,0,0,8.286,18.749Zm66.142,3.587a2.623,2.623,0,0,1-1.414-2.087A2.377,2.377,0,0,1,73.256,19a2.734,2.734,0,0,1,2.152-1.464,2.357,2.357,0,0,1,1.249.237,2.494,2.494,0,0,1,.972.859,2.522,2.522,0,0,1,.442,1.228,2.361,2.361,0,0,1-.24,1.246,2.77,2.77,0,0,1-2.158,1.468q-.1.008-.2.008A2.321,2.321,0,0,1,74.428,22.337Zm1.081-4.184a2.381,2.381,0,0,0-1.715,1.168,1.7,1.7,0,0,0-.2.928,1.924,1.924,0,0,0,1.046,1.546,1.686,1.686,0,0,0,.935.153,2.382,2.382,0,0,0,1.715-1.167,1.717,1.717,0,0,0,.2-.924,1.941,1.941,0,0,0-1.051-1.552,1.667,1.667,0,0,0-.729-.164A1.928,1.928,0,0,0,75.509,18.152ZM9,16.44l1.692-2.055.41.34L9.817,16.28l1.274,1.055,1.146-1.391.41.339L11.5,17.674l1.311,1.086L14.094,17.2l.41.339L12.811,19.6Zm62.231,1.923L73.91,15.87l-3.791,1.293-.308-.333,1.574-3.7-2.687,2.5-.438-.474,3.6-3.342.472.511-1.74,4.1L74.8,14.988l.467.506-3.6,3.343Zm-58.44-6.238.516-.456,3.983,2.172L15.63,9.608l.51-.451,1.872,4.95-.558.494Zm51.975.177L66.086,8.37l-3.245,2.594-.592-.4L63.935,5.7l.564.393L63,10.155l3.367-2.769.594.413-1.45,4.086,3.272-2.818.571.4-3.994,3.25ZM17,8.567l.518-.386,2.945,3.976-.518.386Zm1.612-1.191,2.239-1.437.286.449-1.7,1.088.89,1.395L21.843,7.9l.287.449-1.516.973.917,1.436,1.7-1.087.287.449-2.239,1.436Zm39.7,1.069,2.242-4.421,2.37,1.207-.241.475-1.794-.915-.749,1.476,1.6.818-.24.475-1.605-.818-.771,1.521,1.794.914-.24.475ZM21.772,5.289,22.4,5l2.733,3.361-.674-4.313.657-.3,2.779,3.324-.764-4.256.631-.292.77,5.1-.657.3L25.162,4.785,25.747,8.9l-.648.307Zm35,2.5L58.7,3.229l.594.252L57.365,8.042Zm-3.032-1.1L53.5,1.4l.654.213.157,4.542L57.1,2.577l.647.211-3.3,4.131ZM31.071,1.539l.678-.147L34.379,4.98,35.3.624l.672-.146L37,5.284l-.63.137L35.6,1.838,34.78,5.766l-.444.1L31.963,2.618l.774,3.591-.631.136ZM47.51,5.28,48.332.389l2.622.442-.089.526L48.88,1.022l-.274,1.633,1.775.3-.088.525-1.775-.3-.283,1.681L50.22,5.2l-.088.525Zm-1.587-.17-1.045-2.1-.778-.05-.128,2.02-.644-.041L43.643,0l1.591.1a2.106,2.106,0,0,1,.932.252,1.336,1.336,0,0,1,.543.555,1.448,1.448,0,0,1,.143.757,1.457,1.457,0,0,1-.351.882,1.433,1.433,0,0,1-.914.461l1.105,2.15Zm-1.79-2.665.948.061a1.08,1.08,0,0,0,.8-.208.936.936,0,0,0,.306-.675.892.892,0,0,0-.214-.7A1.127,1.127,0,0,0,45.2.635L44.253.573Zm-5.248,2.4A2.362,2.362,0,0,1,37.935,4a2.587,2.587,0,0,1-.409-1.281A2.588,2.588,0,0,1,37.774,1.4a2.365,2.365,0,0,1,.839-.956A2.61,2.61,0,0,1,41.125.286a2.348,2.348,0,0,1,.946.842,2.608,2.608,0,0,1,.406,1.285,2.6,2.6,0,0,1-.245,1.325,2.344,2.344,0,0,1-.835.952,2.505,2.505,0,0,1-1.239.4q-.088.005-.174.005A2.459,2.459,0,0,1,38.885,4.846ZM39.88.6a1.815,1.815,0,0,0-.919.3,1.7,1.7,0,0,0-.6.724,2.173,2.173,0,0,0-.173,1.053,2.184,2.184,0,0,0,.3,1.021,1.7,1.7,0,0,0,.692.648,1.922,1.922,0,0,0,1.861-.115,1.7,1.7,0,0,0,.608-.728,2.187,2.187,0,0,0,.173-1.05,2.179,2.179,0,0,0-.3-1.024,1.705,1.705,0,0,0-.69-.644A1.78,1.78,0,0,0,40.013.6Q39.948.6,39.88.6Z" transform="translate(0.557 0.57)" fill="#fff" stroke="rgba(0,0,0,0)" stroke-miterlimit="10" stroke-width="1"/>
</svg>
