<svg xmlns="http://www.w3.org/2000/svg" width="80" height="80" viewBox="0 0 80 80">
  <g id="그룹_356" data-name="그룹 356" transform="translate(-335 -2157)">
    <path id="패스_161" data-name="패스 161" d="M2.145,24.633A2.145,2.145,0,0,1,0,22.488V8.454A8.464,8.464,0,0,1,8.454,0H22.488a2.145,2.145,0,1,1,0,4.29H8.454A4.169,4.169,0,0,0,4.29,8.454V22.488a2.145,2.145,0,0,1-2.145,2.145" transform="translate(335 2157)" fill="#303030"/>
    <path id="패스_162" data-name="패스 162" d="M241.881,24.633a2.145,2.145,0,0,1-2.145-2.145V8.454a4.169,4.169,0,0,0-4.164-4.164H221.538a2.145,2.145,0,1,1,0-4.29h14.033a8.464,8.464,0,0,1,8.454,8.454V22.488a2.145,2.145,0,0,1-2.145,2.145" transform="translate(170.974 2157)" fill="#303030"/>
    <path id="패스_163" data-name="패스 163" d="M235.571,244.025H221.538a2.145,2.145,0,0,1,0-4.29h14.033a4.169,4.169,0,0,0,4.164-4.164V221.537a2.145,2.145,0,1,1,4.29,0v14.034a8.464,8.464,0,0,1-8.454,8.454" transform="translate(170.974 1992.975)" fill="#303030"/>
    <path id="패스_164" data-name="패스 164" d="M22.488,244.025H8.454A8.464,8.464,0,0,1,0,235.571V221.537a2.145,2.145,0,1,1,4.29,0v14.034a4.169,4.169,0,0,0,4.164,4.164H22.488a2.145,2.145,0,1,1,0,4.29" transform="translate(335 1992.975)" fill="#303030"/>
    <path id="패스_165" data-name="패스 165" d="M100.038,105.085H55.7a5.047,5.047,0,0,1-5.047-5.047V55.7A5.047,5.047,0,0,1,55.7,50.65h44.341a5.047,5.047,0,0,1,5.047,5.047v44.341a5.047,5.047,0,0,1-5.047,5.047" transform="translate(297.132 2119.132)" fill="#e6efff"/>
    <path id="패스_166" data-name="패스 166" d="M77.855,154.313H2.145a2.145,2.145,0,0,1,0-4.29h75.71a2.145,2.145,0,0,1,0,4.29" transform="translate(335 2044.838)" fill="#3c72d1"/>
    <rect id="사각형_1185" data-name="사각형 1185" width="80" height="80" transform="translate(335 2157)" fill="none"/>
  </g>
</svg>
