<svg xmlns="http://www.w3.org/2000/svg" width="80" height="80" viewBox="0 0 80 80">
  <g id="그룹_360" data-name="그룹 360" transform="translate(-1505 -2157)">
    <path id="패스_193" data-name="패스 193" d="M133.979,279.536a1.4,1.4,0,1,1-2.8,0,11.86,11.86,0,0,1,1-5.034H127.6a16.854,16.854,0,0,0-.709,5.034,5.69,5.69,0,1,0,11.381,0,5.426,5.426,0,0,1,1.331-3.706l.024-.037.824-1.292h-5.1a8.8,8.8,0,0,0-1.373,5.034" transform="translate(1410.134 1951.773)" fill="#3c72d1"/>
    <path id="패스_194" data-name="패스 194" d="M142.256,5.69a1.4,1.4,0,0,1,2.8,0,11.875,11.875,0,0,1-1,5.035h4.576a17.059,17.059,0,0,0,.712-5.035,5.69,5.69,0,0,0-11.381,0,5.334,5.334,0,0,1-1.286,3.637l-1.093,1.4h5.3a8.8,8.8,0,0,0,1.373-5.035" transform="translate(1403.631 2157)" fill="#3c72d1"/>
    <path id="패스_195" data-name="패스 195" d="M245.308,54.943c.012-.021.023-.043.034-.065l-.034.065" transform="translate(1321.599 2115.971)"/>
    <path id="패스_196" data-name="패스 196" d="M70.261,46.821c-.009.016-.018.031-.026.046l.026-.046" transform="translate(1452.49 2121.995)"/>
    <path id="패스_197" data-name="패스 197" d="M52.17,55.009l.013-.024-.013.024" transform="translate(1465.996 2115.891)"/>
    <path id="패스_198" data-name="패스 198" d="M7.715,49.588H5.691a1.4,1.4,0,1,1,0-2.8H8.18a15.558,15.558,0,0,1,1.853-4.29H5.691a5.69,5.69,0,1,0,0,11.381H7.835a18.7,18.7,0,0,1-.187-2.692c0-.562.026-1.09.067-1.6" transform="translate(1505 2125.228)" fill="#303030"/>
    <path id="패스_199" data-name="패스 199" d="M58.5,79.92c0-.006,0-.012,0-.017s0,.012,0,.017" transform="translate(1461.266 2097.262)"/>
    <path id="패스_200" data-name="패스 200" d="M42.367,22.106a4.617,4.617,0,0,1-.681-2.692,5.62,5.62,0,0,1,.188-1.6,7.723,7.723,0,0,1,1.144-2.107c.147-.221.3-.453.457-.693a16.646,16.646,0,0,0,2.075-4.29,16.96,16.96,0,0,0,.711-5.034,5.69,5.69,0,0,0-11.381,0,5.423,5.423,0,0,1-1.331,3.7c-.272.408-.565.849-.858,1.33a15.543,15.543,0,0,0-1.853,4.29,16.444,16.444,0,0,0-.464,2.8c-.041.508-.067,1.036-.067,1.6a18.7,18.7,0,0,0,.187,2.692,16.558,16.558,0,0,0,3.056,7.326,5.424,5.424,0,0,1,1.331,3.7,6.712,6.712,0,0,1-.091,1.173h4.327c.036-.371.054-.759.054-1.173a9.484,9.484,0,0,0-2.052-6.085A12.079,12.079,0,0,1,34.6,19.413,11.532,11.532,0,0,1,35.823,13.9l.013-.024a21.347,21.347,0,0,1,1.282-2.1A9.481,9.481,0,0,0,39.17,5.69a1.4,1.4,0,0,1,2.8,0,11.413,11.413,0,0,1-1.562,6.126l-.026.046c-.3.513-.618.992-.934,1.466A9.482,9.482,0,0,0,37.4,19.413c0,.188.006.365.014.54v.008c0,.069,0,.137.01.2,0,.006,0,.011,0,.017A9.548,9.548,0,0,0,39.448,25.5a12.077,12.077,0,0,1,2.523,7.638c0,.4-.017.792-.047,1.173h4.3c.023-.386.039-.776.039-1.173a16.3,16.3,0,0,0-3.243-10.018c-.258-.386-.472-.71-.651-1.012" transform="translate(1482.343 2157)" fill="#3c72d1"/>
    <path id="패스_201" data-name="패스 201" d="M108.937,42.5H84.564a16.646,16.646,0,0,1-2.075,4.29H118.6a15.547,15.547,0,0,1,1.853-4.29Z" transform="translate(1443.328 2125.227)" fill="#303030"/>
    <path id="패스_202" data-name="패스 202" d="M112.837,70.594H75.59a5.61,5.61,0,0,0-.188,1.6,4.615,4.615,0,0,0,.681,2.692h36.874a18.738,18.738,0,0,1-.187-2.692c0-.562.026-1.09.067-1.6" transform="translate(1448.627 2104.221)" fill="#303030"/>
    <path id="패스_203" data-name="패스 203" d="M263.433,46.906l-.008.015.008-.015" transform="translate(1308.054 2121.931)"/>
    <path id="패스_204" data-name="패스 204" d="M251.663,79.9c0,.006,0,.011,0,.017s0-.011,0-.017" transform="translate(1316.848 2097.26)"/>
    <path id="패스_205" data-name="패스 205" d="M275.1,46.788a1.4,1.4,0,0,1,0,2.8h-6.344a5.609,5.609,0,0,0-.187,1.6,4.617,4.617,0,0,0,.68,2.693H275.1a5.69,5.69,0,0,0,0-11.381h-2.668a16.637,16.637,0,0,1-2.075,4.29Z" transform="translate(1304.208 2125.227)" fill="#303030"/>
    <path id="패스_206" data-name="패스 206" d="M235.533,22.106a4.616,4.616,0,0,1-.681-2.692,5.619,5.619,0,0,1,.188-1.6,7.73,7.73,0,0,1,1.144-2.107c.147-.221.3-.453.457-.693a16.654,16.654,0,0,0,2.075-4.29,16.96,16.96,0,0,0,.711-5.034,5.69,5.69,0,0,0-11.381,0,5.423,5.423,0,0,1-1.331,3.7c-.272.408-.565.849-.858,1.33A15.55,15.55,0,0,0,224,15.015a16.444,16.444,0,0,0-.464,2.8c-.041.508-.067,1.036-.067,1.6a18.741,18.741,0,0,0,.187,2.692,16.559,16.559,0,0,0,3.056,7.326,5.424,5.424,0,0,1,1.331,3.7,6.713,6.713,0,0,1-.091,1.173h4.327c.036-.371.054-.759.054-1.173a9.483,9.483,0,0,0-2.052-6.085,12.078,12.078,0,0,1-2.522-7.638,11.538,11.538,0,0,1,1.22-5.5l.034-.065a21.545,21.545,0,0,1,1.268-2.074,9.482,9.482,0,0,0,2.052-6.085,1.4,1.4,0,0,1,2.8,0,11.411,11.411,0,0,1-1.574,6.147l-.009.015c-.3.517-.622,1-.94,1.476a9.481,9.481,0,0,0-2.052,6.085c0,.188.006.365.014.54v.008c0,.069,0,.137.01.2,0,.006,0,.011,0,.017a9.547,9.547,0,0,0,2.027,5.316,12.077,12.077,0,0,1,2.522,7.638c0,.4-.017.792-.046,1.173h4.3c.023-.386.038-.776.038-1.173a16.3,16.3,0,0,0-3.243-10.018c-.258-.386-.472-.71-.651-1.012" transform="translate(1337.925 2157)" fill="#3c72d1"/>
    <path id="패스_207" data-name="패스 207" d="M23.565,135.951H5.69a5.69,5.69,0,0,0,0,11.381H32.06a16.123,16.123,0,0,1,.81-4.29H5.69a1.4,1.4,0,0,1,0-2.8H34.152c.378-.653.761-1.231,1.112-1.757a6.375,6.375,0,0,0,1.243-2.533Z" transform="translate(1505 2055.358)" fill="#303030"/>
    <path id="패스_208" data-name="패스 208" d="M131.178,112.35a12.08,12.08,0,0,1,2.522-7.639,10.048,10.048,0,0,0,0-12.17,12.839,12.839,0,0,1-2.273-4.946H127.08a16.605,16.605,0,0,0,3.051,7.325,5.424,5.424,0,0,1,1.331,3.705,6.674,6.674,0,0,1-.089,1.173,6.374,6.374,0,0,1-1.243,2.533c-.351.527-.735,1.1-1.112,1.757a15.586,15.586,0,0,0-1.283,2.8,16.132,16.132,0,0,0-.81,4.29c-.022.378-.037.764-.037,1.17a16.3,16.3,0,0,0,3.243,10.019c.26.391.473.713.651,1.015h4.641a11.281,11.281,0,0,0-1.723-3.4,12.079,12.079,0,0,1-2.522-7.639" transform="translate(1410.134 2091.511)" fill="#3c72d1"/>
    <path id="패스_209" data-name="패스 209" d="M160.607,108.643c.351-.526.734-1.1,1.111-1.755a15.58,15.58,0,0,0,1.284-2.8,16.117,16.117,0,0,0,.811-4.29c.022-.379.038-.766.038-1.173a16.3,16.3,0,0,0-3.243-10.018c-.258-.387-.474-.711-.651-1.012h-4.639a11.266,11.266,0,0,0,1.721,3.393,12.826,12.826,0,0,1,0,15.277,10.049,10.049,0,0,0,0,12.171,12.835,12.835,0,0,1,2.273,4.948h4.352a16.615,16.615,0,0,0-3.055-7.328,5.424,5.424,0,0,1-1.331-3.705,6.674,6.674,0,0,1,.089-1.17,6.369,6.369,0,0,1,1.243-2.536" transform="translate(1389.814 2091.512)" fill="#3c72d1"/>
    <path id="패스_210" data-name="패스 210" d="M203.155,135.951H176.785a16.122,16.122,0,0,1-.811,4.29h27.18a1.4,1.4,0,0,1,0,2.8H174.691c-.377.652-.76,1.229-1.111,1.755a6.366,6.366,0,0,0-1.243,2.536h30.818a5.69,5.69,0,0,0,0-11.381" transform="translate(1376.155 2055.358)" fill="#303030"/>
    <path id="패스_211" data-name="패스 211" d="M5.69,236.5a1.4,1.4,0,0,1,0-2.8h6.344a5.61,5.61,0,0,0,.188-1.6,4.618,4.618,0,0,0-.68-2.691H5.69a5.69,5.69,0,0,0,0,11.381H8.359a16.637,16.637,0,0,1,2.075-4.29Z" transform="translate(1505 1985.489)" fill="#303030"/>
    <path id="패스_212" data-name="패스 212" d="M65.335,237.04v0" transform="translate(1456.154 1979.786)"/>
    <path id="패스_213" data-name="패스 213" d="M71.222,261.015a2.137,2.137,0,0,0-.3.581q.155-.281.3-.581" transform="translate(1451.976 1961.856)"/>
    <path id="패스_214" data-name="패스 214" d="M264.787,261.915l-.014.027.014-.027" transform="translate(1307.047 1961.183)"/>
    <path id="패스_215" data-name="패스 215" d="M279.561,233.7h2.025a1.4,1.4,0,1,1,0,2.8H279.1a15.558,15.558,0,0,1-1.853,4.29h4.343a5.69,5.69,0,1,0,0-11.381h-2.144a18.756,18.756,0,0,1,.187,2.691c0,.562-.026,1.091-.067,1.6" transform="translate(1297.724 1985.489)" fill="#303030"/>
    <path id="패스_216" data-name="패스 216" d="M258.5,237.04v0" transform="translate(1311.737 1979.786)"/>
    <path id="패스_217" data-name="패스 217" d="M46.074,193.252a16.564,16.564,0,0,0-3.056-7.328,5.425,5.425,0,0,1-1.331-3.706,6.729,6.729,0,0,1,.09-1.17H37.45c-.036.372-.054.76-.054,1.17a9.487,9.487,0,0,0,2.052,6.086,12.079,12.079,0,0,1,2.522,7.639,11.616,11.616,0,0,1-1.115,5.286c-.1.2-.2.393-.3.581-.348.632-.73,1.205-1.108,1.772a9.485,9.485,0,0,0-2.052,6.085,1.4,1.4,0,1,1-2.8,0,12.081,12.081,0,0,1,2.523-7.64,9.484,9.484,0,0,0,2.051-6.085c0-.187-.006-.365-.014-.539V195.4c0-.072,0-.143-.011-.213v-.007a9.548,9.548,0,0,0-2.028-5.32,12.08,12.08,0,0,1-2.522-7.639c0-.4.019-.789.048-1.17h-4.3c-.023.385-.038.774-.038,1.17a16.3,16.3,0,0,0,3.243,10.019c.258.387.473.711.652,1.015a4.617,4.617,0,0,1,.679,2.691,5.621,5.621,0,0,1-.188,1.6,7.744,7.744,0,0,1-1.144,2.107c-.147.221-.3.453-.457.693a16.654,16.654,0,0,0-2.075,4.29,16.96,16.96,0,0,0-.711,5.034,5.69,5.69,0,1,0,11.381,0,5.426,5.426,0,0,1,1.332-3.706c.272-.408.564-.848.858-1.329a15.558,15.558,0,0,0,1.853-4.29,16.442,16.442,0,0,0,.465-2.8c.041-.508.067-1.037.067-1.6a18.758,18.758,0,0,0-.187-2.691" transform="translate(1482.343 2021.642)" fill="#3c72d1"/>
    <path id="패스_218" data-name="패스 218" d="M84.076,261.792h35.889a16.645,16.645,0,0,1,2.075-4.29H85.929a15.554,15.554,0,0,1-1.853,4.29" transform="translate(1442.142 1964.483)" fill="#303030"/>
    <path id="패스_219" data-name="패스 219" d="M129.664,229.4H92.789a18.759,18.759,0,0,1,.187,2.691c0,.562-.026,1.091-.067,1.6h37.247a5.62,5.62,0,0,0,.188-1.6,4.617,4.617,0,0,0-.68-2.691" transform="translate(1435.628 1985.489)" fill="#303030"/>
    <path id="패스_220" data-name="패스 220" d="M239.24,193.252a16.564,16.564,0,0,0-3.056-7.328,5.425,5.425,0,0,1-1.332-3.706,6.822,6.822,0,0,1,.089-1.17h-4.322c-.036.371-.057.758-.057,1.17a9.485,9.485,0,0,0,2.052,6.086,12.079,12.079,0,0,1,2.522,7.639,11.53,11.53,0,0,1-1.228,5.513l-.014.028a21.359,21.359,0,0,1-1.28,2.1,9.483,9.483,0,0,0-2.052,6.086,1.4,1.4,0,1,1-2.8,0,12.081,12.081,0,0,1,2.523-7.639,9.485,9.485,0,0,0,2.052-6.085c0-.187-.006-.365-.014-.539V195.4c0-.072,0-.143-.011-.213v-.007a9.546,9.546,0,0,0-2.028-5.32,12.081,12.081,0,0,1-2.522-7.639c0-.4.019-.789.048-1.17h-4.3c-.023.385-.038.774-.038,1.17a16.3,16.3,0,0,0,3.243,10.019c.258.387.473.712.652,1.015a4.617,4.617,0,0,1,.679,2.691,5.621,5.621,0,0,1-.188,1.6,7.739,7.739,0,0,1-1.144,2.107c-.147.221-.3.453-.457.694a16.645,16.645,0,0,0-2.075,4.29,16.96,16.96,0,0,0-.711,5.034,5.69,5.69,0,1,0,11.381,0,5.425,5.425,0,0,1,1.332-3.706c.272-.408.564-.848.858-1.329a15.558,15.558,0,0,0,1.853-4.29,16.443,16.443,0,0,0,.465-2.8c.041-.508.067-1.037.067-1.6a18.756,18.756,0,0,0-.187-2.691" transform="translate(1337.926 2021.642)" fill="#3c72d1"/>
    <rect id="사각형_1189" data-name="사각형 1189" width="80" height="80" transform="translate(1505 2157)" fill="none"/>
  </g>
</svg>
