<svg xmlns="http://www.w3.org/2000/svg" width="80" height="80" viewBox="0 0 80 80">
  <g id="그룹_357" data-name="그룹 357" transform="translate(-725 -2157)">
    <path id="패스_175" data-name="패스 175" d="M95.412,41.264H76.276a2.145,2.145,0,1,1,0-4.29H95.412a2.145,2.145,0,1,1,0,4.29" transform="translate(669.577 2129.357)" fill="#3c72d1"/>
    <path id="패스_179" data-name="패스 179" d="M211.24,41.264H180.555a2.145,2.145,0,1,1,0-4.29H211.24a2.145,2.145,0,0,1,0,4.29" transform="translate(591.615 2129.357)" fill="#3c72d1"/>
    <path id="패스_181" data-name="패스 181" d="M25.492,251.8A19.847,19.847,0,0,0,5.645,231.956a18.2,18.2,0,0,0,5,15.147,16.571,16.571,0,0,0,14.852,4.7" transform="translate(720.908 1983.582)" fill="#e6efff"/>
    <path id="패스_182" data-name="패스 182" d="M130.9,250.206a19.847,19.847,0,0,0-19.847-19.847,18.2,18.2,0,0,0,5,15.147,16.571,16.571,0,0,0,14.852,4.7" transform="translate(642.101 1984.776)" fill="#e6efff"/>
    <path id="패스_183" data-name="패스 183" d="M276.413,136.463s-9.5,2.428-10.428,11.228,3.728,11.338,3.728,11.338,7.6-6.414,6.7-22.566" transform="translate(526.232 2054.976)" fill="#e6efff"/>
    <rect id="사각형_1187" data-name="사각형 1187" width="80" height="80" transform="translate(725 2157)" fill="none"/>
    <path id="패스_176" data-name="패스 176" d="M21.779,248.268a2.147,2.147,0,0,1-2.132-2.408,14.14,14.14,0,0,0,.106-1.732A13.972,13.972,0,0,0,5.8,230.171a14.142,14.142,0,0,0-1.956.136,2.145,2.145,0,0,1-.595-4.249,18.26,18.26,0,0,1,20.8,18.069,18.455,18.455,0,0,1-.139,2.258,2.145,2.145,0,0,1-2.126,1.882" transform="translate(723.954 1988.124)" fill="#3c72d1"/>
    <path id="패스_178" data-name="패스 178" d="M262.414,154.708a2.14,2.14,0,0,1-1.6-.714,15.819,15.819,0,0,1,8.314-25.981,2.145,2.145,0,1,1,.938,4.186,11.528,11.528,0,0,0-6.056,18.932,2.145,2.145,0,0,1-1.6,3.576" transform="translate(533.02 2061.332)" fill="#3c72d1"/>
    <path id="패스_180" data-name="패스 180" d="M126.059,248.268a2.147,2.147,0,0,1-2.132-2.409,14.165,14.165,0,0,0,.106-1.731,13.972,13.972,0,0,0-13.957-13.956,14.147,14.147,0,0,0-1.956.136,2.145,2.145,0,1,1-.595-4.249,18.258,18.258,0,0,1,20.658,20.327,2.145,2.145,0,0,1-2.126,1.882" transform="translate(645.991 1988.124)" fill="#3c72d1"/>
    <path id="패스_174" data-name="패스 174" d="M17.418,80A17.417,17.417,0,0,1,5.1,50.266L18.708,36.66V4.669A4.674,4.674,0,0,1,23.377,0H49.015a2.145,2.145,0,1,1,0,4.29H23.377A.379.379,0,0,0,23,4.669v32.88a2.145,2.145,0,0,1-.628,1.517L8.135,53.3A13.127,13.127,0,0,0,26.7,71.865l2.292-2.306a2.145,2.145,0,1,1,3.043,3.025l-2.3,2.311A17.307,17.307,0,0,1,17.418,80" transform="translate(725 2157)" fill="#303030"/>
    <path id="패스_177" data-name="패스 177" d="M121.7,79.991a17.411,17.411,0,0,1-12.314-29.725L122.988,36.66V4.669A4.674,4.674,0,0,1,127.657,0h25.638a4.674,4.674,0,0,1,4.669,4.669V43.632a17.281,17.281,0,0,1-5.056,12.26l-18.889,19a17.373,17.373,0,0,1-12.322,5.1m5.961-75.7a.379.379,0,0,0-.379.379v32.88a2.145,2.145,0,0,1-.628,1.517L112.415,53.3A13.127,13.127,0,0,0,130.98,71.865l18.884-19a13.018,13.018,0,0,0,3.809-9.235V4.669a.379.379,0,0,0-.379-.379Z" transform="translate(647.037 2157)" fill="#303030"/>
  </g>
</svg>
