<svg xmlns="http://www.w3.org/2000/svg" width="80" height="80" viewBox="0 0 80 80">
  <g id="그룹_359" data-name="그룹 359" transform="translate(-1115 -2157)">
    <rect id="사각형_1148" data-name="사각형 1148" width="80" height="80" transform="translate(1115 2157)" fill="#e9e9e9" opacity="0"/>
    <g id="그룹_358" data-name="그룹 358">
      <path id="패스_184" data-name="패스 184" d="M57.647,72.312H5.931A5.937,5.937,0,0,1,0,66.382V5.931A5.937,5.937,0,0,1,5.931,0H57.647a5.937,5.937,0,0,1,5.931,5.931V66.382a5.937,5.937,0,0,1-5.931,5.931M5.931,4.29a1.642,1.642,0,0,0-1.64,1.64V66.382a1.642,1.642,0,0,0,1.64,1.64H57.647a1.642,1.642,0,0,0,1.64-1.64V5.931a1.642,1.642,0,0,0-1.64-1.64Z" transform="translate(1123.211 2157)" fill="#303030"/>
      <path id="패스_185" data-name="패스 185" d="M69.026,281.515H25.432a4.785,4.785,0,0,1-4.78-4.779v-5.054a2.145,2.145,0,1,1,4.29,0v5.054a.49.49,0,0,0,.489.489H69.026a.49.49,0,0,0,.489-.489v-5.054a2.145,2.145,0,1,1,4.29,0v5.054a4.785,4.785,0,0,1-4.779,4.779" transform="translate(1107.771 1955.485)" fill="#303030"/>
      <path id="패스_186" data-name="패스 186" d="M61.433,57.961H2.145a2.145,2.145,0,1,1,0-4.29H61.433a2.145,2.145,0,1,1,0,4.29" transform="translate(1123.211 2116.874)" fill="#303030"/>
      <path id="패스_188" data-name="패스 188" d="M39.268,31.792H31.576a2.145,2.145,0,0,1,0-4.29h7.692a2.145,2.145,0,1,1,0,4.29" transform="translate(1101.207 2136.438)" fill="#3c72d1"/>
      <path id="패스_189" data-name="패스 189" d="M90.231,31.793a2.142,2.142,0,0,1-.419-.04,2.3,2.3,0,0,1-.4-.124,2.068,2.068,0,0,1-.368-.2,1.974,1.974,0,0,1-.328-.268,2.074,2.074,0,0,1-.265-.326,2.1,2.1,0,0,1-.32-.772,2.107,2.107,0,0,1-.043-.419,2.169,2.169,0,0,1,.628-1.517,2.094,2.094,0,0,1,.328-.265,2.257,2.257,0,0,1,.368-.2,2.29,2.29,0,0,1,.4-.121,2.128,2.128,0,0,1,.838,0,2.1,2.1,0,0,1,.772.321,2.073,2.073,0,0,1,.326.265,2.149,2.149,0,0,1,.628,1.517,2.106,2.106,0,0,1-.04.419,2.226,2.226,0,0,1-.321.772,2.163,2.163,0,0,1-.593.593,2.006,2.006,0,0,1-.371.2,2.174,2.174,0,0,1-.4.124,2.105,2.105,0,0,1-.419.04" transform="translate(1057.355 2136.437)" fill="#3c72d1"/>
      <path id="패스_190" data-name="패스 190" d="M118.091,31.794a2.149,2.149,0,0,1-1.517-.628,1.954,1.954,0,0,1-.268-.326,2.006,2.006,0,0,1-.2-.371,2.174,2.174,0,0,1-.124-.4,2.106,2.106,0,0,1-.04-.419,2.154,2.154,0,0,1,.628-1.517,2.073,2.073,0,0,1,.326-.265,2.144,2.144,0,0,1,3.336,1.782,2.106,2.106,0,0,1-.043.419,2.226,2.226,0,0,1-.32.772,2.073,2.073,0,0,1-.265.326,2.154,2.154,0,0,1-1.517.628" transform="translate(1036.526 2136.436)" fill="#3c72d1"/>
      <path id="패스_191" data-name="패스 191" d="M89.292,144.026a11.392,11.392,0,0,0-21.1-5.954,5.868,5.868,0,0,0-7.482,1.9,9.249,9.249,0,0,0-12.748,2.78,19.232,19.232,0,0,0,4.833,11.44l-.223.223s.629,5.4,10.508,7.5c9.1,1.939,17.9-2.258,21.889-8.957a11.367,11.367,0,0,0,4.326-8.931" transform="translate(1087.355 2057.838)" fill="#e6efff"/>
      <path id="패스_192" data-name="패스 192" d="M89.3,125.595a3.33,3.33,0,1,1-3.33-3.33,3.33,3.33,0,0,1,3.33,3.33" transform="translate(1061.425 2065.591)" fill="#e6efff"/>
      <rect id="사각형_1188" data-name="사각형 1188" width="63.578" height="80" transform="translate(1123.211 2157)" fill="none"/>
      <path id="패스_187" data-name="패스 187" d="M61.29,127.813a21.83,21.83,0,1,1,21.83-21.83,21.855,21.855,0,0,1-21.83,21.83m0-39.371a17.54,17.54,0,1,0,17.54,17.54,17.56,17.56,0,0,0-17.54-17.54" transform="translate(1093.709 2094.085)" fill="#3c72d1"/>
    </g>
  </g>
</svg>
