<svg width="48" height="48" viewBox="0 0 48 48" fill="none" xmlns="http://www.w3.org/2000/svg">
<rect width="48" height="48" fill="#E4E8ED"/>
<g clip-path="url(#clip0_123_989)">
<path d="M36.088 13.6821L33.8933 38.2657L24.0295 41L14.1922 38.269L12 13.6821H36.088Z" fill="#264DE4"/>
<path d="M32.0142 36.7002L33.8894 15.6926H24.043V38.9099L32.0142 36.7002Z" fill="#2965F1"/>
<path d="M17.0254 24.811L17.296 27.8267H24.0437V24.811H17.0254Z" fill="#EBEBEB"/>
<path d="M24.0436 18.7075H24.0336H16.4824L16.7563 21.7232H24.0436V18.7075Z" fill="#EBEBEB"/>
<path d="M24.0429 35.7805V32.6428L24.0296 32.6461L20.672 31.7397L20.457 29.335H18.825H17.4297L17.8522 34.0697L24.0296 35.7847L24.0429 35.7805Z" fill="#EBEBEB"/>
<path d="M17.668 7H21.3203V8.52734H19.1953V10.0547H21.3203V11.582H17.668V7Z" fill="black"/>
<path d="M22.0508 7H25.7031V8.32812H23.5781V8.59375H25.7031V11.6484H22.0508V10.2539H24.1758V9.98828H22.0508V7Z" fill="black"/>
<path d="M26.4336 7H30.0859V8.32812H27.9609V8.59375H30.0859V11.6484H26.4336V10.2539H28.5586V9.98828H26.4336V7Z" fill="black"/>
<path d="M27.7461 27.8268L27.3967 31.7381L24.0332 32.6454V35.7831L30.2148 34.0698L30.2604 33.5601L30.9693 25.6212L31.0424 24.8111L31.5869 18.7075H24.0332V21.7232H28.2824L28.0076 24.8111H24.0332V27.8268H27.7461Z" fill="white"/>
</g>
<defs>
<clipPath id="clip0_123_989">
<rect width="24.088" height="34" fill="white" transform="translate(12 7)"/>
</clipPath>
</defs>
</svg>
