<svg width="48" height="48" viewBox="0 0 48 48" fill="none" xmlns="http://www.w3.org/2000/svg">
<rect width="48" height="48" fill="#470137"/>
<path d="M34.9869 19.0835V13.4201C34.9869 13.411 35.0687 13.3265 35.0943 13.3148L38.8694 13.3137L38.9646 13.4312L39.0002 32.5901C38.7885 32.8752 36.8592 33.3782 36.4232 33.4692C33.3788 34.1015 29.6361 33.9951 27.4372 31.4995C25.467 29.2639 25.3112 25.4313 26.7353 22.8772C28.371 19.9434 31.7419 18.7325 34.9869 19.084V19.0835Z" fill="#FF61F6"/>
<path d="M25.4685 33.4414H21.0282C20.9362 33.4414 20.6267 33.3058 20.5841 33.1941C19.4812 30.9075 18.2129 28.7091 17.0122 26.4756L13.2105 33.4419H8.92969L8.95947 33.1792L14.44 24.1624L9.03498 14.96C9.02328 14.9153 9.09401 14.8297 9.11581 14.8297H13.4232C13.4998 14.8297 13.679 15.0334 13.7269 15.111C14.0507 15.6385 14.3368 16.4309 14.6452 17.011C15.5019 18.6207 16.4777 20.1677 17.3052 21.7949C18.4677 19.4721 19.7232 17.1998 20.9495 14.9111C21.034 14.8339 21.1329 14.8366 21.2377 14.827C22.1252 14.7462 23.9742 14.743 24.8596 14.8265C24.9708 14.8371 25.0548 14.8286 25.1261 14.936L19.7902 23.888L25.4382 33.1792L25.468 33.4419L25.4685 33.4414Z" fill="#FF61F6"/>
<path d="M34.9868 22.4336V30.2242C34.9868 30.2938 34.6214 30.3481 34.5337 30.3561C31.1489 30.6688 29.2228 28.5608 29.971 25.2085C30.4613 23.0127 32.9049 21.9566 34.9868 22.4336Z" fill="#470137"/>
</svg>
