<svg width="48" height="48" viewBox="0 0 48 48" fill="none" xmlns="http://www.w3.org/2000/svg">
<rect width="48" height="48" fill="#00005B"/>
<path d="M26.0333 32.7709C26.0066 32.8128 25.7927 32.8348 25.7247 32.8395C24.6997 32.9116 22.9005 32.9301 21.8888 32.8395C21.772 32.829 21.6703 32.8314 21.5738 32.7483L19.9467 28.0133L12.7008 28.0802L11.1004 32.8412L7.01165 32.8302C6.93494 32.7064 7.33649 31.6308 7.40971 31.4123C9.33611 25.6615 11.4723 19.9777 13.4051 14.2287C13.5597 13.7109 13.5149 13.1495 13.6172 12.6393L18.7607 12.6108L18.9559 12.7061L26.0333 32.7709Z" fill="#9999FF"/>
<path d="M39.6809 32.2851C39.6629 32.3699 39.5438 32.4838 39.4642 32.5332C39.2161 32.6872 38.4263 32.9069 38.1143 32.983C36.2123 33.4444 33.438 33.4892 31.5837 32.8383C24.6045 30.3889 25.7545 18.2465 33.101 17.3289C36.6655 16.8838 39.6885 18.2541 40.6967 21.8546C41.0925 23.2691 41.046 24.6481 40.8699 26.0956L40.6828 26.2572C39.9552 26.3682 39.2242 26.3955 38.4891 26.3903C38.3519 26.3891 38.2247 26.3281 38.0875 26.3275C35.8328 26.3159 33.5775 26.3409 31.3233 26.3298C31.4186 27.481 32.0922 28.6206 33.1411 29.1296C35.1459 30.1036 37.643 29.6125 39.6809 29.0024V32.2857V32.2851Z" fill="#9999FF"/>
<path d="M18.7285 24.1787H13.8535L16.2622 16.1006L18.7285 24.1787Z" fill="#00005B"/>
<path d="M31.3223 23.4812C31.4902 21.474 33.0854 20.2107 35.0943 20.7215C35.9276 20.9336 36.6348 21.6751 36.8533 22.5049C36.9004 22.6833 37.0219 23.2151 36.8958 23.3377C36.8725 23.3603 36.5395 23.4806 36.5169 23.4806H31.3223V23.4812Z" fill="#00005B"/>
</svg>
