<svg width="48" height="48" viewBox="0 0 48 48" fill="none" xmlns="http://www.w3.org/2000/svg">
<path d="M0 0H48V48H0V0Z" fill="#001E36"/>
<path d="M10 33.92V13.34C10 13.2 10.06 13.12 10.2 13.12C10.54 13.12 10.86 13.12 11.32 13.1C11.8 13.08 12.3 13.08 12.84 13.06C13.38 13.04 13.96 13.04 14.58 13.02C15.2 13 15.8 13 16.4 13C18.04 13 19.4 13.2 20.52 13.62C21.52 13.96 22.44 14.52 23.2 15.26C23.84 15.9 24.34 16.68 24.66 17.54C24.96 18.38 25.12 19.24 25.12 20.14C25.12 21.86 24.72 23.28 23.92 24.4C23.12 25.52 22 26.36 20.7 26.84C19.34 27.34 17.84 27.52 16.2 27.52C15.72 27.52 15.4 27.52 15.2 27.5C15 27.48 14.72 27.48 14.34 27.48V33.9C14.36 34.04 14.26 34.16 14.12 34.18H10.24C10.08 34.18 10 34.1 10 33.92ZM14.36 16.98V23.7C14.64 23.72 14.9 23.74 15.14 23.74H16.2C16.98 23.74 17.76 23.62 18.5 23.38C19.14 23.2 19.7 22.82 20.14 22.32C20.56 21.82 20.76 21.14 20.76 20.26C20.78 19.64 20.62 19.02 20.3 18.48C19.96 17.96 19.48 17.56 18.9 17.34C18.16 17.04 17.36 16.92 16.54 16.94C16.02 16.94 15.56 16.94 15.18 16.96C14.78 16.94 14.5 16.96 14.36 16.98Z" fill="#31A8FF"/>
<path d="M37.5984 22.48C36.9984 22.16 36.3584 21.94 35.6784 21.8C34.9384 21.64 34.1984 21.54 33.4384 21.54C33.0384 21.52 32.6184 21.58 32.2384 21.68C31.9784 21.74 31.7584 21.88 31.6184 22.08C31.5184 22.24 31.4584 22.44 31.4584 22.62C31.4584 22.8 31.5384 22.98 31.6584 23.14C31.8384 23.36 32.0784 23.54 32.3384 23.68C32.7984 23.92 33.2784 24.14 33.7584 24.34C34.8384 24.7 35.8784 25.2 36.8384 25.8C37.4984 26.22 38.0384 26.78 38.4184 27.46C38.7384 28.1 38.8984 28.8 38.8784 29.52C38.8984 30.46 38.6184 31.4 38.0984 32.18C37.5384 32.98 36.7584 33.6 35.8584 33.96C34.8784 34.38 33.6784 34.6 32.2384 34.6C31.3184 34.6 30.4184 34.52 29.5184 34.34C28.8184 34.22 28.1184 34 27.4784 33.7C27.3384 33.62 27.2384 33.48 27.2584 33.32V29.84C27.2584 29.78 27.2784 29.7 27.3384 29.66C27.3984 29.62 27.4584 29.64 27.5184 29.68C28.2984 30.14 29.1184 30.46 29.9984 30.66C30.7584 30.86 31.5584 30.96 32.3584 30.96C33.1584 30.96 33.6584 30.86 34.0184 30.68C34.3384 30.54 34.5584 30.2 34.5584 29.84C34.5584 29.56 34.3984 29.3 34.0784 29.04C33.7584 28.78 33.0984 28.48 32.1184 28.1C31.0984 27.74 30.1584 27.26 29.2784 26.66C28.6584 26.22 28.1384 25.64 27.7584 24.96C27.4384 24.32 27.2784 23.62 27.2984 22.92C27.2984 22.06 27.5384 21.24 27.9784 20.5C28.4784 19.7 29.2184 19.06 30.0784 18.66C31.0184 18.18 32.1984 17.96 33.6184 17.96C34.4384 17.96 35.2784 18.02 36.0984 18.14C36.6984 18.22 37.2784 18.38 37.8184 18.6C37.8984 18.62 37.9784 18.7 38.0184 18.78C38.0384 18.86 38.0584 18.94 38.0584 19.02V22.28C38.0584 22.36 38.0184 22.44 37.9584 22.48C37.7784 22.52 37.6784 22.52 37.5984 22.48Z" fill="#31A8FF"/>
</svg>
