<svg width="48" height="48" viewBox="0 0 48 48" fill="none" xmlns="http://www.w3.org/2000/svg">
<path d="M40.12 0H7.88H0V8V40V48H7.8H40.2H48V40.041V8.04103V0H40.12Z" fill="#330000"/>
<path d="M15.9053 29.619L14.2413 34.535C14.1581 34.5898 14.0205 34.6066 13.9213 34.615C12.9777 34.693 11.3061 34.6878 10.3585 34.615C10.1973 34.6026 9.99528 34.595 10.0001 34.3942C12.1149 28.0434 14.3949 21.7434 16.5505 15.4042C16.7329 14.8354 16.7797 14.237 16.7877 13.6414L16.8593 13.553L22.2717 13.541L29.6933 34.465C29.6581 34.5826 29.4657 34.6054 29.3609 34.615C28.0917 34.7322 26.6461 34.523 25.3577 34.615L25.0781 34.5346L23.3141 29.6186H15.9053V29.619Z" fill="#FF9A00"/>
<path d="M32.0491 18.701L36.1219 18.6926C36.2463 18.6966 36.3439 18.7578 36.3727 18.8818L36.3831 34.395C36.3875 34.5318 36.3347 34.6518 36.1927 34.6846L32.1591 34.6954C32.0307 34.6938 31.9491 34.5758 31.9095 34.465L31.8991 18.9914C31.8919 18.893 31.9467 18.7318 32.0487 18.701H32.0491Z" fill="#FF9A00"/>
<path d="M33.7722 12.0246C35.001 11.8862 36.0878 12.3238 36.5118 13.5426C37.2238 15.589 35.5782 17.4894 33.4438 16.9306C30.919 16.2694 31.1658 12.3178 33.7718 12.0246H33.7722Z" fill="#FF9A00"/>
<path d="M22.1405 25.5734H17.0605L19.5605 17.213L22.1405 25.5734Z" fill="#330000"/>
</svg>
