<svg width="48" height="48" viewBox="0 0 48 48" fill="none" xmlns="http://www.w3.org/2000/svg">
<rect width="48" height="48" fill="#E4E8ED"/>
<g clip-path="url(#clip0_123_987)">
<path d="M30.5573 27.2351C32.3776 26.2417 33.9644 24.5938 34.8046 22.7142C32.3713 25.3802 28.8119 26.1591 25.2933 25.6405C18.2276 24.5999 12.327 17.0024 15.4107 10.0745C13.4346 12.0674 12.3298 14.3679 12.4995 17.2169C12.9947 25.5394 23.0075 31.355 30.5573 27.2351Z" fill="#0868AB"/>
<path d="M31.479 20.9024C33.1649 20.228 34.7593 18.7529 35.3585 17.0435C34.9796 17.3817 34.6921 17.7465 34.2835 18.0663C28.2104 22.8263 18.0882 15.4078 21.0908 8.43478L21.0215 8.36646C15.3723 15.1011 23.8218 23.9646 31.479 20.9024Z" fill="#0868AB"/>
<path d="M18.7193 32.6033C17.9948 30.7845 15.2367 30.7777 13.8867 31.903C12.6476 32.9353 11.7139 35.9942 12.96 37.2595C14.0523 38.3684 16.8983 37.6954 18.355 37.8819C18.6487 37.8286 18.7477 36.8728 18.8052 36.5838L18.1119 36.5148C18.49 35.1927 19.2748 33.9985 18.7186 32.6033H18.7193ZM16.6448 36.4L16.5458 36.5073C15.6904 36.4506 14.2635 36.8557 14.0578 35.6997C13.8757 34.6783 14.3931 32.7707 15.6017 32.5698C18.3065 32.1203 16.9932 35.0349 16.6455 36.4007L16.6448 36.4Z" fill="#131B28"/>
<path d="M28.2589 32.4852C26.2011 32.3314 25.1614 33.3713 24.7943 35.283C24.4702 36.974 24.8262 37.8191 26.6644 37.9524C27.0121 37.9776 28.9072 37.9961 29.1122 37.9038C29.2501 37.8417 29.3837 36.8107 29.4031 36.5832H26.6672C26.3479 36.5832 26.1166 36.0509 26.217 35.7633H29.5763C29.755 35.7633 29.942 34.6913 29.9559 34.4979C30.048 33.2367 29.5562 32.5815 28.2589 32.4845V32.4852ZM28.4334 34.6025H26.4941C26.4989 33.5674 28.7209 33.3597 28.4334 34.6025Z" fill="#131B28"/>
<path d="M24.6576 32.5528H23.4801C23.4205 32.5528 23.3339 32.727 23.3083 32.7933C22.9544 33.7273 22.8484 35.2051 22.5672 36.23C22.5388 36.3345 22.5118 36.4397 22.4834 36.5436C21.5711 36.5846 20.7788 36.8763 20.891 35.669C20.9776 34.7323 21.3744 33.6658 21.5026 32.7161C21.513 32.6567 21.4472 32.5651 21.4021 32.5521C21.1244 32.4708 20.4823 32.6116 20.1554 32.5521C20.0591 32.5521 19.8368 33.7225 19.7959 33.9056C19.4932 35.2639 18.6967 37.6593 20.7871 37.8731C21.1008 37.9052 23.4697 37.9264 23.5867 37.8499L23.6892 37.6094L24.7483 32.7065C24.7732 32.6512 24.6825 32.5521 24.6576 32.5521V32.5528Z" fill="#131B28"/>
<path d="M31.8153 15.1523C33.0004 14.8858 34.0823 14.1097 34.5977 13.0124C33.443 14.1391 31.7939 14.2299 30.2784 13.8917C27.2903 13.2242 24.8827 9.99323 26.0782 7C22.6406 10.8848 27.1296 16.2058 31.8153 15.1523Z" fill="#0868AB"/>
<path d="M38.2345 31.8013L35.9827 35.0808C35.8373 35.1798 35.7846 34.1926 35.6025 34.1926H34.1133C34.1133 34.925 34.6986 35.887 34.7325 36.5593C34.7526 36.9583 34.4437 37.4632 34.4596 37.882H35.9488C36.2438 37.5028 36.212 36.9412 36.4378 36.5197L40.0007 31.8013H38.2345Z" fill="#131B28"/>
<path d="M34.945 32.6539C34.4664 32.4988 31.9978 32.4762 31.443 32.5493C31.0801 32.5971 31.1078 32.9278 31.0295 33.2346C30.7476 34.3414 30.1817 36.454 30.102 37.515C30.0951 37.6045 30.0813 37.8812 30.1997 37.8812H31.3772C31.5864 37.8812 32.1661 34.3045 32.3123 33.9185H35.4638C35.6806 33.9185 35.549 32.8493 34.9457 32.6532L34.945 32.6539Z" fill="#131B28"/>
<path d="M10.3896 34.1926L10.2857 34.3634C9.90615 35.3254 9.8161 37.809 9.17818 38.5127C8.88242 38.8393 8.37126 38.635 8.28398 38.7088C8.23342 38.7518 8.06442 39.8245 8 40.0001H9.62771C9.80641 40.0001 10.2615 39.6728 10.391 39.5232C11.0088 38.8099 11.5041 35.9779 11.7063 34.9449C11.7548 34.6962 11.831 34.4509 11.8095 34.1926H10.3896Z" fill="#131B28"/>
<path d="M12.1208 32.5527H10.8047C10.7022 32.5527 10.4335 33.5728 10.4356 33.6951C10.4369 33.7607 10.4875 33.8509 10.5277 33.8509H11.8437C11.9621 33.8509 12.2156 32.8404 12.2129 32.7085C12.2115 32.6429 12.1609 32.5527 12.1208 32.5527Z" fill="#141B28"/>
<path d="M21.0907 8.43485C21.1067 8.39728 21.2618 8.25585 21.2293 8.23057C21.0866 8.19572 21.0852 8.29069 21.0215 8.36653C21.1191 8.27566 21.1545 8.31392 21.0907 8.43485Z" fill="#478EC0"/>
<path d="M21.0215 8.36637L21.0907 8.43469C21.1545 8.31376 21.1191 8.2755 21.0215 8.36637Z" fill="#478EC0"/>
</g>
<defs>
<clipPath id="clip0_123_987">
<rect width="32" height="33" fill="white" transform="translate(8 7)"/>
</clipPath>
</defs>
</svg>
