<svg width="48" height="48" viewBox="0 0 48 48" fill="none" xmlns="http://www.w3.org/2000/svg">
<path d="M48 0H0V48H48V0Z" fill="#1E1E1E"/>
<path d="M18.9994 38.9991C21.7592 38.9991 23.9988 36.7592 23.9988 33.9996V29.0002H18.9994C16.2396 29.0002 14 31.2401 14 33.9996C14 36.7592 16.2399 38.9991 18.9994 38.9991Z" fill="#0ACF83"/>
<path d="M14 23.9999C14 21.2401 16.2399 19.0005 18.9994 19.0005H23.9988V28.9995H18.9994C16.2396 28.9995 14 26.7596 14 24.0001V23.9999Z" fill="#A259FF"/>
<path d="M14 13.9999C14 11.2401 16.2399 9.00049 18.9994 9.00049H23.9988V18.9995H18.9994C16.2396 18.9995 14 16.7596 14 14.0001V13.9999Z" fill="#F24E1E"/>
<path d="M23.998 9.00023H28.9974C31.7572 9.00023 33.9969 11.2401 33.9969 13.9996C33.9969 16.7592 31.757 18.999 28.9974 18.999H23.998V9V9.00023Z" fill="#FF7262"/>
<path d="M33.9988 23.9999C33.9988 26.7596 31.7589 28.9993 28.9994 28.9993C26.2399 28.9993 24 26.7594 24 23.9999C24 21.2404 26.2399 19.0005 28.9994 19.0005C31.7589 19.0005 33.9988 21.2404 33.9988 23.9999Z" fill="#1ABCFE"/>
</svg>
