<svg width="48" height="48" viewBox="0 0 48 48" fill="none" xmlns="http://www.w3.org/2000/svg">
<rect width="48" height="48" fill="#E4E8ED"/>
<g clip-path="url(#clip0_123_991)">
<path d="M39.7904 26.8381C38.1685 25.4234 35.8085 25.4537 33.859 26.0706C33.6701 26.1304 33.2748 26.4037 33.113 26.3017C33.0636 26.2706 32.6699 25.3684 32.6236 25.2369C32.4387 24.7069 32.3415 24.1314 32.3957 23.5711C32.4371 23.1399 32.8603 22.209 32.7719 21.9046C32.6372 21.4431 30.9204 21.6416 30.7307 21.8663C30.6502 21.962 30.3043 23.3241 30.168 23.6548C29.6922 24.8057 28.931 25.8267 28.3994 26.9481L27.9778 26.1359C27.7539 25.3557 27.7746 24.6854 27.9459 23.9043C28.1053 23.1774 28.6664 22.7088 27.4876 22.6418C27.0485 22.6171 26.5998 22.6793 26.2044 22.8793L22.7406 30.8535C22.625 30.9667 22.5963 30.8463 22.582 30.7355C22.417 29.4412 23.3487 27.6774 23.4571 26.3583C23.3989 25.861 22.6729 25.7789 22.3445 26.0714C22.8187 22.3477 19.3262 24.2366 18.2199 25.9941L14.89 27.8025C12.7556 25.4864 8.07229 23.8294 9.97557 19.8801C11.4843 16.7503 17.8629 13.6052 21.1976 13.1693C23.8142 12.8265 27.8567 13.2553 26.1837 16.9599C24.7515 20.1312 18.5881 22.9463 15.5427 20.8772C15.4041 20.7824 14.713 20.0061 14.7856 20.6716C14.8525 21.2893 15.7571 22.0273 16.2879 22.2847C18.4248 23.3217 22.3262 22.476 24.3378 21.3315C28.5604 18.9277 30.8232 12.5165 24.4988 11.2054C20.7616 10.4307 16.6586 11.9602 13.4434 13.7845C10.6403 15.3762 5.51784 19.3246 7.40917 23.0347C8.65889 25.4864 11.5967 26.7512 13.5749 28.5039C11.3114 29.803 7.71602 31.4871 8.08584 34.6322C8.38392 37.1707 11.5808 36.7435 13.2043 35.7822C15.628 34.3468 16.555 31.2823 15.5627 28.6736L17.2842 27.6678C17.4946 27.6511 17.3639 27.7021 17.34 27.8033C16.9845 29.2826 16.7407 30.5466 17.3073 32.0259C17.6277 32.8628 18.133 33.6391 19.1588 33.3673C19.9861 33.1481 20.5871 31.3389 20.9099 30.6152C20.9784 30.5347 21.0047 30.5881 20.9896 30.7746C20.9234 31.6393 21.2056 33.6925 22.5055 32.7289C23.7225 31.8266 25.4019 27.62 26.0769 26.0985C26.1295 25.9789 26.2092 25.7167 26.3288 25.6745C26.4196 26.0825 26.4922 26.5368 26.6261 26.9322C26.7392 27.2669 27.3298 28.3628 27.274 28.5645C26.6827 29.5288 25.6529 30.3721 25.0695 31.3078C24.1976 32.7066 25.9606 32.5535 26.8516 32.2929C28.1436 31.9143 29.3455 30.9284 29.2801 29.4635C29.265 29.1208 28.8713 28.0719 28.8936 27.9651C28.9167 27.8543 29.9233 26.3368 30.0899 26.0467C30.2198 25.8203 30.7379 24.6933 30.7945 24.6383C30.9292 24.5076 30.93 24.6615 30.9515 24.7571C31.1484 25.6203 31.3317 26.4707 31.8123 27.2294C30.9332 27.9755 29.6826 29.4109 29.8444 30.6479C30.0301 32.0681 32.0976 30.9643 32.744 30.4542C33.9076 29.536 34.0431 28.582 33.5848 27.1912C35.5216 26.4803 38.9759 26.5894 40.0271 28.6736C40.5173 29.646 40.3077 30.3235 39.5186 31.0113C39.4493 31.0719 38.716 31.4632 39.2078 31.5668C39.3305 31.5923 39.9434 31.2719 40.0789 31.1731C41.6092 30.0485 41.0425 27.9284 39.792 26.8373L39.7904 26.8381ZM13.0991 33.6853C12.0518 34.6027 9.62568 35.3877 10.2673 33.0851C10.7503 31.3508 12.9763 30.0852 14.4524 29.261C14.9402 30.8654 14.3384 32.5998 13.0999 33.6853H13.0991ZM21.1251 26.9664C20.8118 28.0018 20.2228 29.6476 19.7279 30.5905C18.9715 32.0299 18.6702 30.977 18.6702 29.9385C18.6702 28.7342 19.7135 25.5621 21.0477 25.2927C21.1537 25.2712 21.3004 25.2449 21.3929 25.3102C21.6152 25.4688 21.2119 26.6819 21.1258 26.9664H21.1251ZM26.1702 31.413L27.7626 29.501C27.7913 30.384 26.9441 31.1452 26.1702 31.413ZM30.9523 30.2175C31.1157 29.328 31.613 28.4792 32.3056 27.9069C32.6563 28.904 32.0139 30.0891 30.9523 30.2175Z" fill="#CC6799"/>
</g>
<defs>
<clipPath id="clip0_123_991">
<rect width="34" height="25.5341" fill="white" transform="translate(7 11)"/>
</clipPath>
</defs>
</svg>
