<svg width="48" height="48" viewBox="0 0 48 48" fill="none" xmlns="http://www.w3.org/2000/svg">
<rect width="48" height="48" fill="black"/>
<path d="M11.1481 25.4421C10.9609 25.4116 11.0068 25.2484 11.0203 25.1003C11.0575 24.6952 11.3283 23.5164 11.4702 23.1332C11.5408 22.9428 11.721 22.9331 11.9012 22.9181C12.9763 22.8285 15.0435 22.822 16.1138 22.9181C16.4677 22.9497 16.4903 23.0216 16.4483 23.3629C16.3706 23.9869 16.1122 24.6523 15.9994 25.2769C15.8657 25.602 15.2264 25.3278 15.0856 25.4947C15.0236 25.5688 14.7857 26.43 14.708 26.6215C13.9425 28.5065 12.8096 29.9038 10.6621 30.1629C4.25983 30.9361 5.49087 22.0402 8.21026 18.8707C10.6594 16.0161 15.3532 16.3048 15.6526 20.694C15.6623 20.8362 15.7049 21.5788 15.5182 21.5788H12.6591C12.4736 21.5788 12.5383 21.0427 12.5183 20.914C12.3128 19.5682 11.2048 19.7008 10.476 20.5877C9.45262 21.8331 8.77507 24.6496 9.07608 26.2159C9.35768 27.6791 10.7543 27.6115 11.5516 26.5947C11.6353 26.4885 12.268 25.4421 11.9573 25.4421C11.7226 25.4421 11.3591 25.4765 11.1481 25.4421Z" fill="#FFFDE8"/>
<path d="M26.0361 28.4469C25.8597 28.4973 25.5317 29.6563 25.3753 29.8822C25.2652 30.0405 25.1395 30.0437 24.9594 30.0588C24.4075 30.1049 22.9413 30.1317 22.4255 30.0528C22.2076 30.0196 22.1515 29.9273 22.1812 29.7121L27.6885 17.534C27.7785 17.3682 27.8622 17.2072 28.0833 17.2292C29.2459 17.3333 30.6199 17.1015 31.7559 17.2314C31.8838 17.2459 32.03 17.2721 32.0516 17.4202L32.0278 29.9005C31.9955 30.0529 31.8315 30.048 31.7031 30.0588C31.0541 30.1135 29.8662 30.1129 29.2167 30.0588C28.9244 30.0346 28.8855 30.0099 28.8666 29.7105C28.8407 29.3049 28.9805 28.8659 28.9227 28.4469H26.0367H26.0361Z" fill="#FFFDE8"/>
<path d="M32.4441 29.9901C32.3944 29.9483 32.3815 29.8409 32.3885 29.776L35.2638 17.3414C35.3247 17.2679 35.4914 17.2427 35.5864 17.233C36.1728 17.1735 37.14 17.2019 37.7463 17.2303C40.8682 17.3779 42.1947 18.7918 41.9778 21.9275C41.7755 24.854 39.451 27.2106 36.5024 27.4274C36.1479 27.4537 34.5895 27.3625 34.4255 27.4543C34.3257 27.5101 34.4336 27.5744 34.4837 27.6131C34.6974 27.7773 35.6538 28.1379 35.711 28.3246C35.8124 28.654 35.4218 29.4712 35.4396 29.8581L35.3102 29.9976L32.4446 29.9912L32.4441 29.9901Z" fill="#FFFDE8"/>
<path d="M24.2703 20.9756C24.1188 21.1274 21.8504 21.0153 21.4754 21.018C21.244 20.953 21.3373 20.7336 21.3017 20.5469C21.1847 19.9405 21.0293 19.6036 20.3232 19.7055C20.0437 19.7457 19.7859 19.9545 19.7217 20.2335C19.4077 21.5884 21.1884 22.6958 21.9005 23.6542C23.8129 26.2287 22.679 29.9718 19.2394 30.217C17.1274 30.3673 15.3505 29.5098 15.1681 27.2385C15.1482 26.9885 15.0942 26.2711 15.3305 26.1675L18.0677 26.1788C18.2651 26.2668 18.1664 26.5098 18.195 26.696C18.2392 26.9842 18.2705 27.305 18.5473 27.473C19.0204 27.7601 19.5679 27.4343 19.6402 26.9128C19.8209 25.6095 18.5818 24.8502 17.8374 23.9938C15.0834 20.8275 16.9553 16.6905 21.2359 17.0183C22.4303 17.1096 23.5637 17.7164 24.0244 18.8593C24.1646 19.2076 24.5142 20.7325 24.2714 20.9756H24.2703Z" fill="#FFFDE8"/>
<path d="M27.1426 25.6563L29.2459 20.613L29.0231 25.6225L28.98 25.6869C28.3725 25.7309 27.7478 25.7314 27.1426 25.6563Z" fill="black"/>
<path d="M36.638 24.583L37.4509 20.8629C37.4347 20.7932 36.3558 20.3006 36.1881 20.175C36.1266 20.1289 36.078 20.1182 36.0985 20.0232L38.3119 20.0479C39.0369 20.3645 38.9927 21.3641 38.8961 22.0273C38.7235 23.2137 38.0584 24.6828 36.638 24.583Z" fill="black"/>
</svg>
