<svg width="48" height="48" viewBox="0 0 48 48" fill="none" xmlns="http://www.w3.org/2000/svg">
<rect width="48" height="48" fill="#E4E8ED"/>
<g clip-path="url(#clip0_123_990)">
<path d="M12.0398 13.8194C12.0157 13.7856 12.0094 13.6896 12.0416 13.6618H36.0856C36.1378 13.65 36.1373 13.7303 36.1179 13.767C36.1171 13.895 36.0995 14.0175 36.0654 14.1342C36.0717 14.2184 36.0804 14.3057 36.0917 14.3965C36.0909 14.446 36.1095 14.5253 36.0654 14.5538C36.0615 14.4843 36.0528 14.5019 36.0392 14.6063C35.9883 15.1393 35.9534 15.6638 35.9343 16.18C35.9199 16.3492 35.9259 16.5409 35.8818 16.7046C35.879 16.5829 35.8703 16.6091 35.8556 16.7832C35.8585 16.911 35.8409 17.0335 35.8032 17.1504C35.8087 17.2257 35.8173 17.3044 35.8294 17.3865C35.8286 17.4605 35.8509 17.5706 35.8032 17.6226C35.7795 17.5567 35.7843 17.6622 35.8032 17.7012C35.8026 17.7587 35.8226 17.8492 35.7769 17.8848C35.7544 17.8227 35.7567 17.9745 35.7769 18.016C35.7761 18.0655 35.7948 18.1448 35.7507 18.1733C35.7297 18.2051 35.7297 18.2575 35.7507 18.3307C35.7499 18.3803 35.7685 18.4595 35.7245 18.4881L35.7124 18.4522C35.7085 18.6436 35.6862 18.8304 35.646 19.0127C35.6641 19.0551 35.6696 19.127 35.646 19.17C35.6497 19.2718 35.6405 19.3825 35.6198 19.4848C35.6043 19.7911 35.5781 20.0972 35.5411 20.4028C35.528 20.74 35.4931 21.0724 35.4362 21.3994C35.4433 21.4737 35.4522 21.5523 35.4624 21.6355C35.4548 21.8144 35.4514 22.0124 35.41 22.1863C35.4061 22.0887 35.3971 22.1063 35.3838 22.2387C35.3827 22.3523 35.3651 22.4659 35.3313 22.5797C35.3276 22.779 35.3276 22.9802 35.3313 23.1829C35.3308 23.2325 35.3491 23.3117 35.3051 23.3403C35.2841 23.3721 35.2841 23.4245 35.3051 23.4977C35.3043 23.5473 35.3229 23.6265 35.2788 23.6551C35.2765 23.5619 35.2678 23.5706 35.2526 23.6813C35.2497 23.9467 35.2235 24.209 35.1739 24.4681C35.1926 24.5104 35.1975 24.5825 35.1739 24.6255C35.1787 24.7517 35.1611 24.8652 35.1215 24.9665C35.1118 25.3935 35.0971 25.832 35.0166 26.2517C35.0221 26.3269 35.0307 26.4056 35.0428 26.4877C35.042 26.5617 35.0643 26.6718 35.0166 26.7238C34.9969 26.6293 34.9937 26.7521 35.0166 26.8025C35.0103 26.9522 34.9969 27.1295 34.9641 27.2746C34.957 27.1867 34.9484 27.2129 34.9379 27.3532C34.9185 27.8046 34.8747 28.2505 34.807 28.6909C34.8143 28.7562 34.823 28.826 34.8332 28.9007C34.8324 28.9749 34.8547 29.0848 34.807 29.1368C34.8031 29.029 34.7944 29.0463 34.7808 29.1892C34.7879 29.194 34.7934 29.1987 34.7931 29.2029C34.7776 29.3998 34.7574 29.6076 34.7309 29.8048C34.7302 29.8106 34.7178 29.8148 34.7021 29.8184C34.7249 30.2444 34.6766 30.69 34.5972 31.1036C34.6029 31.1878 34.6116 31.2752 34.6234 31.3659C34.6226 31.4155 34.6412 31.4947 34.5972 31.5233L34.5807 31.5075C34.5791 31.5949 34.5675 31.8139 34.5447 31.9692C34.5316 32.0539 34.5138 32.1793 34.5447 32.2839C34.5332 32.436 34.529 32.6097 34.4923 32.756C34.4639 32.7185 34.4805 32.8019 34.4923 32.8347C34.4868 33.1982 34.4167 33.5589 34.4136 33.9229L34.3352 34.592C34.3115 34.5262 34.3163 34.6316 34.3352 34.6707C34.3346 34.7446 34.3564 34.8548 34.3089 34.9067C34.2856 34.8412 34.2898 34.9466 34.3089 34.9854C34.3084 35.051 34.3294 35.1517 34.2827 35.1952C34.2591 35.1294 34.2638 35.2349 34.2827 35.2739C34.2822 35.3479 34.3039 35.4581 34.2565 35.51C34.2329 35.4442 34.2376 35.5496 34.2565 35.5887C34.2559 35.6626 34.2777 35.7728 34.2302 35.8247C34.2066 35.7589 34.2114 35.8643 34.2302 35.9034C34.2295 35.953 34.2481 36.0322 34.204 36.0608C34.2003 35.9666 34.1917 36.0102 34.1778 36.1919C34.1765 36.3081 34.1592 36.4219 34.1253 36.5329C34.1382 36.6349 34.1495 36.7603 34.0991 36.8476C34.0965 37.3001 34.0744 37.7756 33.9682 38.2115C33.6207 38.3744 33.2121 38.447 32.8417 38.5525C32.7431 38.559 32.6471 38.5766 32.5535 38.6049C32.4866 38.6212 32.4255 38.6474 32.3701 38.6836C32.0559 38.7717 31.7443 38.868 31.427 38.9459C31.3192 38.9435 31.2756 38.9522 31.2961 38.9721C31.2974 38.9847 31.295 38.9928 31.2824 38.9981C31.2725 39.0033 31.2554 38.9942 31.2436 38.9983C31.1802 38.9952 31.1033 38.9962 31.0603 39.0508C30.7482 39.1452 30.434 39.2352 30.1171 39.3131C30.0093 39.3107 29.9658 39.3194 29.9862 39.3393C29.9876 39.3519 29.9852 39.36 29.9726 39.3653C29.9626 39.3705 29.9456 39.3613 29.9338 39.3655C29.8703 39.3624 29.7937 39.3637 29.7504 39.418C29.4373 39.5101 29.1212 39.5916 28.8073 39.6803C28.7538 39.6787 28.7013 39.6787 28.6502 39.6803C28.5248 39.7414 28.3939 39.7852 28.2573 39.8114C28.1579 39.8324 28.0619 39.8676 27.969 39.9163C27.8122 39.9604 27.6548 40.0042 27.4974 40.0475C27.402 40.0446 27.2475 40.0753 27.183 40.1262C27.1339 40.1403 27.0925 40.1621 27.0259 40.1786C26.9181 40.1763 26.8745 40.1849 26.895 40.2048C26.8963 40.2174 26.8939 40.2256 26.8813 40.2308C26.8714 40.2361 26.8543 40.2269 26.8425 40.2311C26.779 40.2279 26.7022 40.229 26.6592 40.2835C26.4415 40.3502 26.2248 40.4107 26.0043 40.4671C25.9846 40.459 25.8028 40.4695 25.8734 40.4934C25.8317 40.5036 25.7837 40.5309 25.7163 40.5458C25.6651 40.5351 25.6127 40.544 25.5592 40.572C25.4742 40.5802 25.4044 40.6064 25.3496 40.6507C25.2326 40.6893 25.1626 40.7158 25.0351 40.7294C24.92 40.7373 24.8938 40.7459 24.9564 40.7556C24.9297 40.7643 24.9066 40.7737 24.8778 40.7819C24.7157 40.8044 24.5583 40.8393 24.4062 40.8868C24.3036 40.9122 24.2601 40.9298 24.2753 40.9392C24.2766 40.9518 24.2745 40.96 24.2617 40.9652C24.2514 40.9705 24.2341 40.9613 24.2228 40.9655C24.1266 40.9762 24.0306 40.9762 23.9346 40.9655C23.8664 40.9505 23.8194 40.9232 23.7775 40.913C23.7539 40.8834 23.7103 40.8745 23.6466 40.8868C23.3534 40.8112 23.0614 40.7305 22.7693 40.6502C22.7564 40.645 22.7546 40.6371 22.7559 40.6245C22.7126 40.5959 22.6512 40.587 22.5988 40.5983C22.545 40.5838 22.4996 40.5547 22.4679 40.5458C22.4469 40.5133 22.4034 40.5044 22.337 40.5196C22.0915 40.4524 21.8479 40.378 21.6034 40.3098C21.616 40.2812 21.5541 40.2754 21.5247 40.2835C21.3424 40.2327 21.1418 40.1729 20.9745 40.1262C20.9417 40.0947 20.8879 40.0879 20.8436 40.0999C20.5296 40.0121 20.2144 39.9258 19.9004 39.8377C19.8453 39.8015 19.7842 39.7752 19.7171 39.759C19.6602 39.7424 19.599 39.7338 19.5337 39.7327C19.2195 39.6436 18.9035 39.5654 18.5906 39.4705C18.5473 39.4159 18.4707 39.4159 18.4072 39.418C18.3957 39.4138 18.3786 39.423 18.3684 39.4177C18.3556 39.4125 18.3535 39.4044 18.3548 39.3918C18.3272 39.3676 18.2661 39.3577 18.2239 39.3655C17.9747 39.3063 17.7355 39.2244 17.4903 39.1557C17.4551 39.1353 17.42 39.1177 17.3854 39.1033C17.2826 39.0873 17.1457 39.065 17.0709 38.9983C17.0208 39.0057 16.9597 39.0057 16.8876 38.9983C16.5086 38.8913 16.1293 38.7833 15.7482 38.6831C15.7354 38.6778 15.7335 38.67 15.7348 38.6574C15.6795 38.6395 15.6184 38.622 15.5515 38.6049C15.4274 38.5858 15.3608 38.5498 15.2632 38.5262C15.2396 38.4963 15.1961 38.4877 15.1324 38.5C14.8549 38.4297 14.4407 38.3479 14.1892 38.2377C14.1601 38.1979 14.1425 38.1889 14.1367 38.2115C14.0927 38.1829 14.1113 38.1037 14.1105 38.0541C14.121 37.9912 14.1297 37.9301 14.1367 37.8705C14.0804 37.6421 14.072 37.3971 14.0843 37.1624C14.0405 37.0171 14.0177 36.8613 14.0153 36.695C14.0153 36.6924 14.0232 36.7369 14.0056 36.7427C13.961 36.7139 13.9807 36.6349 13.9794 36.5853C14.0098 36.4823 13.9941 36.3648 13.9794 36.2706C13.9655 36.0888 13.9568 36.0453 13.9531 36.1395C13.9159 35.9842 13.9099 35.8016 13.9007 35.6411C13.912 35.5614 13.9209 35.4827 13.9269 35.4051C13.8726 35.0827 13.827 34.7397 13.822 34.4084C13.768 34.0273 13.7323 33.6391 13.7433 33.2544C13.6754 32.7502 13.6096 32.2425 13.6124 31.7331L13.5836 31.7203C13.5744 31.6077 13.5665 31.4984 13.56 31.3921C13.5519 31.2948 13.5432 31.1986 13.5338 31.1036C13.5212 30.9481 13.5125 30.9219 13.5075 31.0249C13.4601 30.973 13.4818 30.8629 13.4813 30.7889C13.5062 30.6987 13.5015 30.5248 13.4813 30.7102C13.4346 30.6667 13.4559 30.5662 13.4551 30.5004C13.4666 30.412 13.4753 30.3247 13.4813 30.2381C13.4128 29.8179 13.3719 29.3825 13.3504 28.9529C13.3266 28.9012 13.3321 28.8202 13.3504 28.7693C13.2846 28.3355 13.2408 27.8985 13.2195 27.4579C13.1949 27.2693 13.1702 27.0718 13.1933 26.8809C13.1432 26.6674 13.117 26.4489 13.1146 26.2252C13.0897 26.157 13.0976 26.0599 13.1146 25.9891C13.0493 25.6744 13.0144 25.3507 13.0097 25.0187C12.995 24.8435 12.9864 24.8172 12.9835 24.94C12.9405 24.775 12.9381 24.5856 12.931 24.4154C12.9334 24.0278 12.9048 23.6357 12.845 23.2388C12.8468 23.0686 12.8405 23.0237 12.8261 23.104C12.7821 23.0754 12.8007 22.9962 12.7999 22.9466C12.8188 22.8905 12.8245 22.6725 12.7999 22.7893C12.7558 22.7607 12.7744 22.6815 12.7737 22.6319C12.7842 22.5341 12.7928 22.4378 12.7999 22.3434C12.7448 22.2177 12.723 22.0593 12.7348 21.8687C12.7348 21.8658 12.7435 21.9174 12.7212 21.9237C12.6737 21.8718 12.6955 21.7616 12.695 21.6877C12.7128 21.6481 12.7202 21.5555 12.695 21.6352C12.6475 21.5833 12.6693 21.4731 12.6687 21.3992C12.6803 21.3108 12.6889 21.2234 12.695 21.1369C12.6428 20.915 12.6166 20.6876 12.6163 20.4549C12.5507 19.8703 12.5072 19.2846 12.4854 18.6976L12.4587 18.6927L12.407 18.0157C12.3847 17.9444 12.3876 17.8518 12.407 17.7797L12.3792 17.7304C12.3228 17.1116 12.2709 16.5073 12.2237 15.9175C12.209 15.7422 12.2003 15.716 12.1974 15.8388C12.1539 15.6738 12.1528 15.4844 12.145 15.3142C12.1555 15.2513 12.1641 15.1901 12.1712 15.1306C12.1284 15.0115 12.1153 14.8605 12.145 14.7372L12.1185 14.7356C12.0894 14.4306 12.0634 14.125 12.0403 13.8192L12.0398 13.8194Z" fill="#E8C932"/>
<path d="M28.2043 7C28.2175 7.00944 28.1781 7.03383 28.1781 7.03934V8.1147C28.1781 8.1189 28.2232 8.18027 28.165 8.18027H25.1388V8.70484H28.165V11.5113H23.9336V10.3048H26.9992V9.7802H23.9336V7H28.2043Z" fill="black"/>
<path d="M23.2785 7V11.5113H20.1214C20.1185 11.5113 20.082 11.4748 20.082 11.4719V10.3048H22.0733V7H23.2785Z" fill="black"/>
<path d="M12.0131 13.8718C12.0105 13.7923 12.0039 13.7137 12 13.6355H36.1285C36.1576 13.6397 36.1418 13.7333 36.1437 13.7669C36.1363 13.7897 36.1274 13.7895 36.1174 13.7669L36.102 13.6877H12.0543C12.0252 13.6922 12.0409 13.7858 12.0391 13.8194V13.8718C12.0317 13.8946 12.0228 13.8944 12.0129 13.8718H12.0131Z" fill="#E6C522"/>
<path d="M36.0654 14.6848L36.0392 14.8684C36.0352 15.3009 35.971 15.7478 35.9343 16.1798C35.8889 16.12 35.9038 16.003 35.9083 15.9309C35.9366 15.4921 35.9872 15.0428 36.0389 14.6061C36.0463 14.5833 36.0552 14.5836 36.0651 14.6061C36.0659 14.6324 36.0654 14.6586 36.0651 14.6848H36.0654Z" fill="#E7C624"/>
<path d="M12.4051 17.7799C12.3978 17.8027 12.3889 17.8024 12.3789 17.7799C12.3716 17.8027 12.3626 17.8024 12.3527 17.7799C12.3514 17.7277 12.3561 17.6744 12.3527 17.6225L12.3265 17.4913C12.3246 17.4567 12.327 17.4213 12.3265 17.3864L12.3002 17.1766C12.3 17.1417 12.3002 17.1066 12.3002 17.0717L12.274 16.8619C12.274 16.8356 12.274 16.8094 12.274 16.7832L12.2478 16.5734C12.2475 16.5385 12.2478 16.5033 12.2478 16.4684L12.2215 16.2586C12.2213 16.2237 12.2215 16.1886 12.2215 16.1537L12.1953 15.9439C12.1953 15.9352 12.1953 15.9263 12.1953 15.9177C12.2027 15.8948 12.2116 15.8951 12.2215 15.9177L12.3 16.5867C12.2984 16.9849 12.3828 17.3888 12.4049 17.7799H12.4051Z" fill="#E8C82C"/>
<path d="M34.7288 29.8448C34.7576 29.8999 34.749 29.9907 34.7288 30.0547C34.7285 30.3941 34.6777 30.7398 34.6501 31.0776C34.6457 31.0962 34.6367 31.1049 34.6239 31.1038C34.6165 31.1266 34.6076 31.1264 34.5977 31.1038C34.6226 30.6768 34.7041 30.2475 34.7026 29.8186C34.7393 29.7806 34.7508 29.7953 34.7288 29.8448Z" fill="#E8C72A"/>
<path d="M12.6157 20.4552C12.6137 20.4744 12.6116 20.4854 12.5895 20.4814C12.5895 20.4552 12.5895 20.429 12.5895 20.4027L12.5633 20.1929C12.563 20.158 12.5633 20.1229 12.5633 20.088L12.5371 19.8782C12.5371 19.8433 12.5373 19.8082 12.5371 19.7733L12.5108 19.5897C12.5106 19.5548 12.5111 19.5196 12.5108 19.4848L12.4846 19.3012C12.4841 19.2574 12.4849 19.2138 12.4846 19.17L12.4584 18.9864C12.4579 18.9429 12.4576 18.8988 12.4584 18.8553C12.4403 18.8162 12.4316 18.7551 12.4584 18.7241C12.4358 18.689 12.4476 18.6746 12.4846 18.6979C12.5329 19.2828 12.5657 19.8706 12.6155 20.4552H12.6157Z" fill="#E7C627"/>
<path d="M35.1487 24.9927C35.1794 25.0483 35.1673 25.138 35.1487 25.2026C35.1487 25.2288 35.1487 25.255 35.1487 25.2812L35.1225 25.4911C35.1207 25.7387 35.09 25.9792 35.07 26.2255C35.0656 26.2441 35.0567 26.2527 35.0438 26.2517C35.0365 26.2745 35.0275 26.2742 35.0176 26.2517C35.0443 25.826 35.0866 25.3911 35.1225 24.9665C35.1576 24.9293 35.1671 24.9439 35.1487 24.9927Z" fill="#E8C82C"/>
<path d="M12.9301 24.4155C12.929 24.3893 12.9301 24.3631 12.9301 24.3369L12.9038 24.1533C12.9033 24.1097 12.9062 24.0654 12.9038 24.0221C12.8847 23.9631 12.876 23.902 12.8776 23.8385C12.8668 23.6932 12.8529 23.5678 12.8514 23.4189L12.8251 23.2615C12.8244 23.2093 12.8238 23.1563 12.8251 23.1041C12.8262 23.0661 12.8026 22.9523 12.8511 22.947C12.8524 23.3541 12.9295 23.7609 12.9558 24.1666C12.9605 24.2388 12.9752 24.356 12.9298 24.4155H12.9301Z" fill="#E7C625"/>
<path d="M13.7431 33.2546C13.7358 33.2774 13.7268 33.2772 13.7169 33.2546C13.7095 33.2774 13.7006 33.2772 13.6907 33.2546C13.6901 33.2108 13.6909 33.1673 13.6907 33.1235L13.6644 32.9399C13.6639 32.8961 13.6647 32.8525 13.6644 32.8087L13.6382 32.6251C13.6356 32.5905 13.6406 32.5548 13.6382 32.5202L13.612 32.3891C13.6088 32.3285 13.6128 32.2663 13.612 32.2055L13.5857 32.0481C13.585 31.9959 13.585 31.9429 13.5857 31.8907C13.5721 31.8375 13.5443 31.7121 13.612 31.7334C13.6568 32.2396 13.699 32.7481 13.7428 33.2546H13.7431Z" fill="#E8C72A"/>
<path d="M34.1261 37.0052C34.1266 37.1544 34.1122 37.279 34.0999 37.4248L34.0737 37.6084C34.0705 37.669 34.0763 37.7391 34.0737 37.792L34.0474 37.9232C34.0448 37.9578 34.0511 37.9937 34.0474 38.0281C34.0377 38.091 34.0291 38.1522 34.0212 38.2117C34.0055 38.2151 33.9795 38.2067 33.9688 38.2117C34.0548 37.7648 34.06 37.3016 34.0996 36.8478C34.107 36.825 34.1159 36.8253 34.1259 36.8478C34.1471 36.8995 34.1461 36.9527 34.1259 37.0052H34.1261Z" fill="#E7C624"/>
<path d="M13.82 34.4087C13.8179 34.4276 13.8158 34.4388 13.7937 34.4349C13.7914 34.4089 13.7958 34.3822 13.7937 34.3562C13.7741 34.2886 13.7654 34.2185 13.7675 34.1464C13.7468 33.9101 13.7145 33.6767 13.7151 33.4382C13.6943 33.3771 13.6935 33.3152 13.7151 33.2546H13.7413C13.7746 33.6378 13.7874 34.0255 13.82 34.4087Z" fill="#E8C728"/>
<path d="M13.4796 30.2382C13.4723 30.2611 13.4634 30.2608 13.4534 30.2382C13.4434 30.2508 13.4345 30.2422 13.4272 30.212C13.4269 30.1771 13.4272 30.142 13.4272 30.1071L13.401 29.8973C13.401 29.8624 13.4028 29.827 13.401 29.7924C13.3818 29.7244 13.3731 29.6544 13.3747 29.5825C13.365 29.4461 13.3498 29.3323 13.3485 29.1891L13.3223 28.9793C13.3223 28.9706 13.3223 28.9617 13.3223 28.9531C13.3296 28.9302 13.3385 28.9305 13.3485 28.9531C13.3844 29.3722 13.4539 29.8123 13.4794 30.2382H13.4796Z" fill="#E8C82C"/>
<path d="M34.9378 27.432C34.9588 27.4836 34.958 27.5369 34.9378 27.5893C34.9378 27.6418 34.9386 27.6942 34.9378 27.7467L34.9116 27.9041C34.9108 27.9565 34.9121 28.009 34.9116 28.0614L34.8853 28.2188C34.8848 28.2626 34.8859 28.3061 34.8853 28.3499L34.8591 28.5073C34.8583 28.5511 34.8594 28.5947 34.8591 28.6385C34.8539 28.6618 34.8452 28.6791 34.8329 28.6909C34.8255 28.7137 34.8166 28.7135 34.8066 28.6909L34.9375 27.3533C34.9569 27.3785 34.9572 27.4057 34.9375 27.432H34.9378Z" fill="#E8C82E"/>
<path d="M13.3489 28.7696C13.3416 28.7924 13.3327 28.7921 13.3227 28.7696C13.3125 28.7488 13.3038 28.7226 13.2965 28.6909C13.2938 28.6562 13.2988 28.6206 13.2965 28.586L13.2702 28.4548C13.2674 28.394 13.2708 28.3321 13.2702 28.2712L13.244 28.0876C13.2435 28.0438 13.2445 28.0003 13.244 27.9565L13.2178 27.7991C13.2165 27.7469 13.2215 27.6937 13.2178 27.6417L13.1916 27.5106C13.191 27.5019 13.1921 27.493 13.1916 27.4844C13.1944 27.4668 13.1973 27.4555 13.2178 27.4581C13.255 27.8878 13.3112 28.3331 13.3487 28.7696H13.3489Z" fill="#E8C72B"/>
<path d="M13.1136 25.9892C13.1062 26.012 13.0973 26.0117 13.0873 25.9892C13.0782 26.0004 13.0692 25.9915 13.0611 25.9629C13.042 25.7258 13.0115 25.494 13.0087 25.2548L12.9824 25.045C12.9824 25.0363 12.9824 25.0274 12.9824 25.0187C12.9898 24.9959 12.9987 24.9962 13.0087 25.0187L13.1136 25.9892Z" fill="#E8C82C"/>
<path d="M13.9261 35.4051C13.9187 35.4279 13.9098 35.4277 13.8998 35.4051C13.8899 35.4177 13.881 35.4091 13.8736 35.3789C13.8733 35.344 13.8736 35.3089 13.8736 35.274L13.8474 35.0642C13.8474 35.0293 13.8492 34.9939 13.8474 34.9592C13.8282 34.891 13.8196 34.8213 13.8212 34.7494C13.8138 34.6456 13.8041 34.5385 13.7949 34.4347L13.8212 34.4084C13.8487 34.7324 13.9051 35.0744 13.9261 35.4051Z" fill="#E8C92F"/>
<path d="M12.1441 14.7373C12.1412 14.7573 12.1326 14.7659 12.1179 14.7636C12.1105 14.7864 12.1016 14.7861 12.0917 14.7636C12.0909 14.7111 12.0922 14.6586 12.0917 14.6062L12.0654 14.4488C12.0633 14.4053 12.0686 14.361 12.0654 14.3177L12.0392 14.1865C12.0366 14.1257 12.0395 14.0638 12.0392 14.0029C12.0201 13.9615 12.0164 13.9127 12.0392 13.8718C12.0397 13.8545 12.0382 13.8366 12.0392 13.8193L12.1441 14.7373Z" fill="#E8C72B"/>
<path d="M35.5405 20.4288C35.5641 20.4957 35.5607 20.5704 35.5405 20.6386C35.5405 20.6735 35.5407 20.7087 35.5405 20.7436L35.5142 20.9534C35.514 20.9883 35.5142 21.0234 35.5142 21.0583L35.488 21.2681C35.488 21.2943 35.488 21.3206 35.488 21.3468L35.4618 21.3993C35.4544 21.4221 35.4455 21.4218 35.4355 21.3993L35.5405 20.4026C35.5583 20.4081 35.5572 20.417 35.5405 20.4288Z" fill="#E8C72B"/>
<path d="M35.646 19.5109C35.646 19.5195 35.646 19.5285 35.646 19.5371L35.6198 19.7207C35.6193 19.7645 35.6201 19.808 35.6198 19.8518L35.5936 20.0354C35.5933 20.0617 35.5939 20.0879 35.5936 20.1141L35.5674 20.3502C35.5674 20.3764 35.5674 20.4026 35.5674 20.4289C35.56 20.4517 35.5511 20.4514 35.5411 20.4289C35.5411 20.4202 35.5409 20.4113 35.5411 20.4026C35.5514 20.0903 35.5954 19.7871 35.6198 19.4847C35.6319 19.47 35.6405 19.4789 35.646 19.5109Z" fill="#E8C729"/>
<path d="M35.2787 23.7336C35.2787 23.7511 35.2787 23.7684 35.2787 23.786L35.2525 23.9696C35.252 24.0134 35.253 24.0569 35.2525 24.1007L35.2263 24.2581C35.2255 24.3106 35.2268 24.363 35.2263 24.4155C35.221 24.4388 35.2124 24.4564 35.2001 24.4679C35.1927 24.4908 35.1838 24.4905 35.1738 24.4679L35.2525 23.6811C35.2672 23.6766 35.2759 23.6942 35.2787 23.7336Z" fill="#E8C82D"/>
<path d="M12.6948 21.137C12.6874 21.1598 12.6785 21.1596 12.6685 21.137C12.6593 21.1483 12.6504 21.1394 12.6423 21.1108C12.6305 20.9639 12.6174 20.8425 12.6161 20.6911L12.5898 20.5075C12.5898 20.4989 12.5898 20.49 12.5898 20.4813L12.6161 20.4551C12.6347 20.6733 12.6816 20.9115 12.6948 21.137Z" fill="#E9C931"/>
<path d="M14.1358 37.8706C14.1285 37.8934 14.1196 37.8932 14.1096 37.8706C14.0994 37.8499 14.0907 37.8237 14.0834 37.7919C14.0729 37.6466 14.0572 37.5221 14.0572 37.3723C14.0383 37.3159 14.0283 37.2369 14.0572 37.1887C14.0349 37.1538 14.0467 37.1396 14.0834 37.1625C14.1044 37.3951 14.1227 37.6377 14.1358 37.8706Z" fill="#E7C728"/>
<path d="M34.808 29.1891C34.808 29.1978 34.808 29.2067 34.808 29.2154L34.7818 29.4252C34.7808 29.5765 34.7676 29.698 34.7556 29.8448C34.7482 29.8677 34.7393 29.8674 34.7294 29.8448C34.7275 29.8325 34.7157 29.8215 34.7031 29.8186L34.7818 29.1891C34.7892 29.1663 34.7981 29.1666 34.808 29.1891Z" fill="#E8C92F"/>
<path d="M12.4854 18.6978C12.4791 18.7065 12.4599 18.7177 12.4591 18.724C12.4518 18.7469 12.4429 18.7466 12.4329 18.724C12.4319 18.6716 12.4334 18.6191 12.4329 18.5667L12.4067 18.4093C12.4059 18.3568 12.4067 18.3044 12.4067 18.2519C12.387 18.2016 12.3836 18.1431 12.4067 18.0946C12.3865 18.072 12.3867 18.0387 12.4067 18.0159L12.4854 18.6978Z" fill="#E8C82F"/>
<path d="M24.8773 40.7821C24.7207 40.8272 24.5623 40.8681 24.4057 40.9132C24.3829 40.9059 24.3831 40.897 24.4057 40.887C24.5402 40.8442 24.7362 40.7302 24.8773 40.7821Z" fill="#E8C930"/>
<path d="M13.1928 26.8811C13.1855 26.9039 13.1765 26.9036 13.1666 26.8811C13.1592 26.9039 13.1503 26.9036 13.1403 26.8811C13.139 26.8289 13.1438 26.7756 13.1403 26.7237L13.1141 26.5925C13.1123 26.5579 13.1146 26.5225 13.1141 26.4876L13.0879 26.2778C13.0879 26.2691 13.0879 26.2602 13.0879 26.2516C13.0913 26.2345 13.0942 26.2233 13.1141 26.2253C13.1322 26.4352 13.1742 26.6683 13.1928 26.8811Z" fill="#E8C82E"/>
<path d="M35.7252 18.4879C35.7265 18.5401 35.726 18.5931 35.7252 18.6453L35.6989 18.8027C35.6982 18.8551 35.6995 18.9076 35.6989 18.96C35.6937 18.9834 35.685 19.0009 35.6727 19.0125C35.6654 19.0353 35.6565 19.035 35.6465 19.0125C35.6664 18.7861 35.706 18.5595 35.6992 18.3308C35.7477 18.3363 35.7241 18.4501 35.7252 18.4879Z" fill="#E8C627"/>
<path d="M12.799 22.3436C12.7917 22.3664 12.7828 22.3661 12.7728 22.3436C12.7655 22.3664 12.7566 22.3661 12.7466 22.3436C12.7455 22.2911 12.7471 22.2387 12.7466 22.1862L12.7204 22.0288C12.7198 21.9939 12.7201 21.9588 12.7204 21.9239C12.7209 21.8712 12.6965 21.7411 12.7463 21.7144C12.7492 21.8932 12.7592 22.0747 12.7726 22.2533C12.7754 22.2914 12.798 22.3276 12.799 22.3436Z" fill="#E7C626"/>
<path d="M34.5974 31.5236C34.5987 31.5758 34.5982 31.6287 34.5974 31.6809L34.5712 31.8383C34.5704 31.8818 34.5735 31.9259 34.5712 31.9694C34.5638 31.9923 34.5549 31.992 34.5449 31.9694C34.5578 31.7701 34.5578 31.5661 34.5714 31.3665C34.6199 31.372 34.5963 31.4858 34.5974 31.5236Z" fill="#E8C727"/>
<path d="M28.6501 39.6804C28.673 39.6878 28.6727 39.6967 28.6501 39.7066C28.5203 39.7431 28.3894 39.8008 28.2573 39.8378C28.2344 39.8304 28.2347 39.8215 28.2573 39.8116C28.3881 39.773 28.5135 39.7114 28.6501 39.6804Z" fill="#E9C92F"/>
<path d="M35.3577 22.7369C35.3577 22.7893 35.3585 22.8418 35.3577 22.8943L35.3315 23.0516C35.331 23.0954 35.332 23.139 35.3315 23.1828C35.2843 23.0036 35.316 22.7684 35.3315 22.5795C35.3388 22.5567 35.3478 22.557 35.3577 22.5795C35.3842 22.6076 35.3756 22.6902 35.3577 22.7369Z" fill="#E8C627"/>
<path d="M14.0835 37.1625C14.0772 37.1711 14.0581 37.1824 14.0573 37.1887C14.0499 37.2115 14.041 37.2112 14.0311 37.1887C14.0305 37.1449 14.0316 37.1013 14.0311 37.0575L14.0048 36.9002C14.004 36.848 14.0035 36.795 14.0048 36.7428C14.0059 36.7048 13.9823 36.5909 14.0308 36.5857C14.0119 36.7798 14.0662 36.972 14.0835 37.1625Z" fill="#E7C72A"/>
<path d="M13.2184 27.4581L13.1922 27.4844C13.1898 27.4411 13.1927 27.3968 13.1922 27.3532L13.1659 27.1958C13.1651 27.1434 13.1659 27.0909 13.1659 27.0385C13.1455 26.986 13.1449 26.9328 13.1659 26.8811H13.1922C13.2084 27.0689 13.2021 27.2703 13.2184 27.4581Z" fill="#E8C727"/>
<path d="M17.3834 39.1034C17.4062 39.1108 17.406 39.1197 17.3834 39.1297C17.2803 39.1008 17.1723 39.0798 17.0689 39.051C17.0178 39.0308 17.0144 39.0124 17.0689 38.9985C17.1754 39.0237 17.2803 39.0673 17.3834 39.1034Z" fill="#E8C82C"/>
<path d="M13.612 31.7332C13.568 31.7618 13.5866 31.841 13.5858 31.8906C13.5326 31.8103 13.5667 31.6771 13.5596 31.5758L13.5334 31.4447C13.5328 31.436 13.5339 31.4271 13.5334 31.4185C13.5362 31.4009 13.5391 31.3896 13.5596 31.3922C13.5677 31.4869 13.6031 31.6335 13.612 31.7332Z" fill="#E8C82B"/>
<path d="M27.4973 40.0478C27.395 40.0758 27.2835 40.0976 27.1828 40.1265L27.166 40.0968C27.2691 40.0987 27.4029 39.9825 27.4973 40.0478Z" fill="#E8C727"/>
<path d="M35.8814 16.7831C35.8814 16.7918 35.8814 16.8007 35.8814 16.8094L35.8552 17.0192C35.8549 17.0541 35.8552 17.0892 35.8552 17.1241C35.8513 17.144 35.8426 17.1529 35.829 17.1503C35.8216 17.1731 35.8127 17.1729 35.8027 17.1503C35.8098 17.0354 35.8457 16.8899 35.8552 16.7831C35.8625 16.7603 35.8715 16.7606 35.8814 16.7831Z" fill="#E8C82B"/>
<path d="M12.1696 15.1307C12.1623 15.1535 12.1534 15.1533 12.1434 15.1307C12.1327 15.1108 12.1237 15.0846 12.1172 15.052C12.1167 15.0085 12.1164 14.9644 12.1172 14.9209C12.0986 14.8732 12.0894 14.8031 12.1172 14.7635C12.118 14.7572 12.1371 14.746 12.1434 14.7373C12.1295 14.8705 12.1623 14.9993 12.1696 15.1307Z" fill="#E7C727"/>
<path d="M28.2574 39.8115V39.8378C28.1617 39.8645 28.0649 39.8897 27.9692 39.9164C27.9579 39.8223 28.1798 39.8343 28.2574 39.8115Z" fill="#E8C82E"/>
<path d="M35.4107 22.265C35.4107 22.2736 35.4107 22.2825 35.4107 22.2912L35.3845 22.4223C35.3834 22.4748 35.385 22.5272 35.3845 22.5797C35.3771 22.6025 35.3682 22.6023 35.3583 22.5797H35.332C35.3399 22.4819 35.3499 22.3785 35.3601 22.2804C35.3622 22.2594 35.3837 22.244 35.3845 22.2387C35.3968 22.2238 35.4055 22.2327 35.4107 22.265Z" fill="#E8C82E"/>
<path d="M36.1431 13.7668C36.1437 13.7755 36.1431 13.7844 36.1431 13.7931L36.1169 13.9504C36.1161 14.0029 36.1174 14.0554 36.1169 14.1078C36.1132 14.128 36.1043 14.1369 36.0907 14.134C36.0833 14.1569 36.0744 14.1566 36.0645 14.134C36.071 14.0249 36.0915 13.8681 36.1169 13.7668H36.1431Z" fill="#E7C626"/>
<path d="M24.2218 40.9656C24.0666 41.0241 24.0755 40.9966 23.9336 40.9656C23.9582 40.9132 24.0296 40.9659 24.0776 40.9659C24.1256 40.9659 24.1972 40.9132 24.2216 40.9656H24.2218Z" fill="#E6C319"/>
<path d="M35.1998 24.6516C35.1998 24.6603 35.1998 24.6692 35.1998 24.6779L35.1736 24.8877C35.1733 24.9226 35.1736 24.9577 35.1736 24.9926C35.1662 25.0154 35.1573 25.0152 35.1473 24.9926C35.1455 24.9803 35.1337 24.9693 35.1211 24.9664C35.1295 24.8672 35.1654 24.7196 35.1736 24.6254C35.1856 24.611 35.1945 24.6196 35.1998 24.6516Z" fill="#E8C82D"/>
<path d="M34.2037 36.2183C34.2037 36.2269 34.2037 36.2358 34.2037 36.2445L34.1775 36.3756C34.1764 36.4281 34.178 36.4805 34.1775 36.533C34.1701 36.5558 34.1612 36.5555 34.1512 36.533C34.1439 36.5558 34.135 36.5555 34.125 36.533C34.1331 36.4375 34.1444 36.3334 34.1533 36.2337C34.1552 36.213 34.1769 36.197 34.1775 36.192C34.1898 36.1768 34.1984 36.1857 34.2037 36.2183Z" fill="#E8C82D"/>
<path d="M32.8424 38.5526C32.7469 38.5796 32.6496 38.6045 32.5541 38.6313C32.5313 38.6239 32.5316 38.615 32.5541 38.605C32.6346 38.5809 32.7705 38.4883 32.8424 38.5526Z" fill="#E7C625"/>
<path d="M35.6716 19.2223L35.6454 19.4059C35.6448 19.4408 35.6456 19.4759 35.6454 19.5108L35.6191 19.4846C35.6275 19.3794 35.6362 19.2719 35.6454 19.1698C35.6527 19.147 35.6616 19.1473 35.6716 19.1698C35.6713 19.1874 35.6716 19.2047 35.6716 19.2223Z" fill="#E7C728"/>
<path d="M13.5583 31.3922L13.5321 31.4184C13.5297 31.3751 13.5326 31.3308 13.5321 31.2873L13.5059 31.1299C13.5059 31.1213 13.5059 31.1123 13.5059 31.1037C13.5132 31.0809 13.5221 31.0811 13.5321 31.1037C13.5323 31.1079 13.5562 31.1333 13.5594 31.1672C13.5662 31.2414 13.5518 31.3182 13.5583 31.3922Z" fill="#E7C727"/>
<path d="M34.1521 36.6903C34.1521 36.7428 34.1529 36.7952 34.1521 36.8477C34.1447 36.8705 34.1358 36.8703 34.1258 36.8477H34.0996C34.1085 36.7462 34.1169 36.6376 34.1258 36.533H34.1521C34.1786 36.561 34.1699 36.6436 34.1521 36.6903Z" fill="#E7C626"/>
<path d="M13.9775 36.5854C13.9762 36.5332 13.9811 36.48 13.9775 36.428L13.9512 36.2969C13.951 36.2883 13.9515 36.2793 13.9512 36.2707C13.9586 36.2479 13.9675 36.2481 13.9775 36.2707C13.978 36.2767 14.0024 36.3137 14.0055 36.3593C14.01 36.4241 14.0194 36.5411 13.9775 36.5854Z" fill="#E7C624"/>
<path d="M34.572 31.9692C34.5715 31.9779 34.5726 31.9868 34.572 31.9955L34.5458 32.1266C34.5421 32.1785 34.5497 32.232 34.5458 32.284C34.5041 32.2397 34.5133 32.1227 34.5177 32.0579C34.5209 32.0125 34.5453 31.975 34.5458 31.9692H34.572Z" fill="#E8C72A"/>
<path d="M35.3059 23.3402C35.3073 23.3924 35.3067 23.4454 35.3059 23.4976C35.2477 23.4123 35.2931 23.2804 35.28 23.1831C35.3285 23.1886 35.3049 23.3024 35.3059 23.3402Z" fill="#E7C624"/>
<path d="M12.4051 18.0158C12.4058 18.0421 12.4043 18.0683 12.4051 18.0945C12.3977 18.1173 12.3888 18.1171 12.3788 18.0945C12.378 18.0421 12.3788 17.9896 12.3788 17.9372C12.3584 17.8847 12.3578 17.8315 12.3788 17.7798H12.4051C12.4095 17.8579 12.4024 17.9377 12.4051 18.0158Z" fill="#E7C523"/>
<path d="M35.7513 18.1732C35.7526 18.2254 35.752 18.2784 35.7513 18.3306C35.693 18.2453 35.7384 18.1134 35.7253 18.0161C35.7738 18.0216 35.7502 18.1355 35.7513 18.1732Z" fill="#E7C521"/>
<path d="M34.2053 36.0609C34.2066 36.1131 34.2061 36.1661 34.2053 36.2183L34.1791 36.1921C34.1867 36.0974 34.1733 35.9988 34.1793 35.9038C34.2279 35.9093 34.2043 36.0229 34.2053 36.0609Z" fill="#E7C521"/>
<path d="M34.964 27.2745C34.9656 27.3267 34.9648 27.3797 34.964 27.4319C34.9566 27.4547 34.9477 27.4545 34.9378 27.4319C34.9378 27.4057 34.9372 27.3795 34.9378 27.3532C34.9391 27.2748 34.9364 27.1956 34.938 27.1174H34.9637C34.9656 27.1696 34.9624 27.2223 34.964 27.2745Z" fill="#E7C521"/>
<path d="M19.7165 39.7592C19.7394 39.7666 19.7391 39.7755 19.7165 39.7855C19.6554 39.7682 19.5941 39.7503 19.5332 39.733C19.5778 39.6709 19.6699 39.7461 19.7165 39.7592Z" fill="#E6C31B"/>
<path d="M18.4062 39.4181C18.4414 39.377 18.6213 39.4042 18.5896 39.4706C18.5277 39.452 18.4689 39.4415 18.4062 39.4181Z" fill="#E6C31A"/>
<path d="M12.7738 22.632C12.7731 22.5796 12.7738 22.5271 12.7738 22.4746C12.756 22.4353 12.7492 22.3768 12.7738 22.3435H12.8001C12.8053 22.429 12.8179 22.5667 12.7738 22.632Z" fill="#E7C521"/>
<path d="M34.3087 34.9068C34.3089 34.9331 34.3087 34.9593 34.3087 34.9855C34.2651 34.9583 34.2827 34.8861 34.2819 34.8415C34.2814 34.8082 34.2617 34.6978 34.3084 34.697C34.3097 34.7668 34.3076 34.8371 34.3087 34.9068Z" fill="#E6C217"/>
<path d="M35.7774 17.8847C35.7785 17.9282 35.7779 17.9723 35.7774 18.0158C35.7339 17.9885 35.7514 17.9164 35.7506 17.8718C35.7501 17.8385 35.7305 17.7281 35.7771 17.7273C35.7787 17.7795 35.7761 17.8322 35.7774 17.8847Z" fill="#E7C520"/>
<path d="M13.9784 36.2707H13.9522C13.9504 36.2274 13.9509 36.1828 13.9522 36.1395C13.9532 36.1015 13.9294 35.9879 13.9782 35.9824C13.9834 36.0776 13.9719 36.1757 13.9784 36.2707Z" fill="#E7C520"/>
<path d="M19.7168 39.759C19.7855 39.7782 19.9235 39.7585 19.9001 39.8377C19.839 39.8204 19.7776 39.8026 19.7168 39.7853V39.759Z" fill="#E7C31B"/>
<path d="M25.5595 40.5723C25.4853 40.6032 25.4321 40.6239 25.35 40.651C25.3264 40.571 25.4898 40.5841 25.5595 40.5723Z" fill="#E6C319"/>
<path d="M12.2229 15.9175H12.1966C12.1966 15.8913 12.1961 15.8651 12.1966 15.8389C12.1977 15.794 12.173 15.6707 12.2226 15.6555V15.9175H12.2229Z" fill="#E5C217"/>
<path d="M34.6234 31.2874C34.6229 31.3136 34.6237 31.3398 34.6234 31.366C34.5794 31.3091 34.5928 31.1814 34.5972 31.1038H34.6234C34.6465 31.1544 34.6415 31.231 34.6234 31.2874Z" fill="#E5C113"/>
<path d="M35.8811 16.7046C35.8816 16.7308 35.8811 16.757 35.8811 16.7833H35.8549C35.8625 16.6978 35.8491 16.6073 35.8551 16.5212C35.9047 16.5365 35.88 16.66 35.8811 16.7046Z" fill="#E6C113"/>
<path d="M13.4536 30.5006C13.4536 30.4743 13.4538 30.4481 13.4536 30.4219C13.4365 30.3644 13.4281 30.2897 13.4536 30.2383H13.4798C13.4845 30.3159 13.4976 30.4436 13.4536 30.5006Z" fill="#E6C113"/>
<path d="M35.8023 17.6225C35.8028 17.6487 35.8026 17.6749 35.8023 17.7011C35.759 17.6739 35.7758 17.6015 35.7756 17.5572C35.7756 17.5259 35.7562 17.4347 35.8021 17.4389C35.8034 17.4997 35.8013 17.5613 35.8023 17.6225Z" fill="#E6C214"/>
<path d="M34.3355 34.5922C34.336 34.6184 34.3355 34.6446 34.3355 34.6709C34.2922 34.6436 34.309 34.5712 34.3088 34.5269C34.3088 34.4957 34.2894 34.4044 34.3353 34.4086C34.3368 34.4694 34.3342 34.5311 34.3355 34.5922Z" fill="#E5C216"/>
<path d="M12.7997 22.9468C12.7989 22.8946 12.7982 22.8417 12.7997 22.7895C12.8008 22.7546 12.7987 22.7194 12.8 22.6848H12.8257C12.8144 22.7656 12.8561 22.8813 12.7997 22.9468Z" fill="#E5C112"/>
<path d="M13.008 25.0189H12.9818C12.9818 24.9926 12.9813 24.9664 12.9818 24.9402C12.9828 24.8953 12.9582 24.772 13.0077 24.7568V25.0189H13.008Z" fill="#E5C112"/>
<path d="M13.5334 31.1038H13.5072C13.5069 31.0776 13.5066 31.0514 13.5072 31.0251C13.5082 30.9803 13.4836 30.857 13.5331 30.8418C13.5386 30.9281 13.5266 31.0178 13.5334 31.1038Z" fill="#E5C111"/>
<path d="M13.1142 26.2253L13.088 26.2515C13.088 26.2253 13.088 26.1991 13.088 26.1729C13.0699 26.1154 13.0644 26.0417 13.088 25.9893H13.1142C13.1189 26.0672 13.1076 26.1479 13.1142 26.2253Z" fill="#E5C113"/>
<path d="M12.668 21.3992C12.668 21.373 12.668 21.3468 12.668 21.3206C12.65 21.2631 12.6444 21.1894 12.668 21.137H12.6943C12.6987 21.2146 12.7121 21.3423 12.668 21.3992Z" fill="#E5C112"/>
<path d="M34.2828 35.1955C34.2833 35.2217 34.2828 35.2479 34.2828 35.2741C34.2395 35.2469 34.2563 35.1745 34.256 35.1301C34.256 35.0989 34.2366 35.0077 34.2825 35.0119C34.2841 35.0727 34.2815 35.1343 34.2828 35.1955Z" fill="#E5C113"/>
<path d="M34.2574 35.5102C34.2579 35.5364 34.2574 35.5626 34.2574 35.5888C34.2141 35.5616 34.2309 35.4892 34.2306 35.4448C34.2306 35.4136 34.2112 35.3224 34.2571 35.3266C34.2587 35.3874 34.2561 35.449 34.2574 35.5102Z" fill="#E5C111"/>
<path d="M17.0701 38.9986V39.0511C17.0092 39.034 16.9476 39.0159 16.8867 38.9986C16.9156 38.9514 17.0181 38.9863 17.0701 38.9986Z" fill="#E6C319"/>
<path d="M34.23 35.8248C34.2303 35.8511 34.2303 35.8773 34.23 35.9035C34.1868 35.8762 34.2036 35.8039 34.2033 35.7595C34.2033 35.7283 34.1839 35.6373 34.2298 35.6412C34.2308 35.7021 34.2293 35.7637 34.23 35.8248Z" fill="#E5C112"/>
<path d="M35.0172 26.7238C35.0172 26.75 35.0182 26.7765 35.0172 26.8025C34.9739 26.7752 34.9907 26.7028 34.9904 26.6585C34.9904 26.6273 34.971 26.536 35.0169 26.5402C35.0177 26.6013 35.0169 26.6627 35.0172 26.7238Z" fill="#E5C110"/>
<path d="M15.5508 38.605C15.6164 38.6152 15.6927 38.611 15.7606 38.6317C15.7564 38.6427 15.7344 38.6532 15.7341 38.6574C15.6709 38.6574 15.5977 38.6532 15.5508 38.605Z" fill="#E6C319"/>
<path d="M32.5531 38.605V38.6312C32.4923 38.6483 32.4307 38.6666 32.3698 38.6837C32.3465 38.6034 32.4849 38.6254 32.5531 38.605Z" fill="#E6C31A"/>
<path d="M31.2437 38.9985C31.1834 39.0195 31.1215 39.0326 31.0604 39.0509C31.0286 38.9846 31.2086 38.9573 31.2437 38.9985Z" fill="#E6C31A"/>
<path d="M29.9332 39.3657C29.8731 39.3866 29.8109 39.4003 29.7498 39.4181C29.7181 39.3518 29.898 39.3245 29.9332 39.3657Z" fill="#E6C31B"/>
<path d="M35.4104 22.1863C35.4109 22.2125 35.4107 22.2387 35.4104 22.265L35.3842 22.2387C35.3918 22.1629 35.3784 22.0795 35.3844 22.0029C35.4337 22.0181 35.4093 22.1417 35.4104 22.1863Z" fill="#E6C214"/>
<path d="M26.8414 40.2311C26.781 40.2521 26.7191 40.265 26.658 40.2836C26.6263 40.2172 26.8062 40.19 26.8414 40.2311Z" fill="#E6C319"/>
<path d="M22.3359 40.5198C22.3918 40.4558 22.6137 40.5489 22.4668 40.5461C22.4306 40.5361 22.3847 40.5332 22.3359 40.5198Z" fill="#E8C728"/>
<path d="M36.0902 14.2652C36.0897 14.309 36.0908 14.3525 36.0902 14.3963C36.0462 14.3394 36.0596 14.2117 36.064 14.134H36.0902C36.1159 14.1647 36.106 14.224 36.0902 14.2652Z" fill="#E7C520"/>
<path d="M35.4616 21.5568C35.4616 21.583 35.4627 21.6092 35.4616 21.6355C35.4073 21.582 35.4454 21.4734 35.4354 21.3994H35.4616C35.4884 21.4424 35.4771 21.507 35.4616 21.5568Z" fill="#E5C112"/>
<path d="M12.6936 21.6879C12.6936 21.6703 12.6934 21.653 12.6936 21.6354C12.6949 21.5746 12.6923 21.5129 12.6939 21.4518C12.739 21.4455 12.7191 21.5119 12.7204 21.5436C12.7219 21.5869 12.7358 21.6614 12.6936 21.6879Z" fill="#E5C112"/>
<path d="M13.8991 35.6413C13.898 35.624 13.8996 35.6062 13.8991 35.5889C13.8815 35.5317 13.8736 35.4567 13.8991 35.4053H13.9253C13.9298 35.4748 13.9429 35.5928 13.8991 35.6413Z" fill="#E5C113"/>
<path d="M35.8283 17.334C35.8283 17.3516 35.8283 17.3689 35.8283 17.3864C35.7845 17.3379 35.7979 17.2199 35.8021 17.1504H35.8283C35.8535 17.1997 35.8449 17.2773 35.8283 17.334Z" fill="#E5C112"/>
<path d="M15.1309 38.5003C15.182 38.4476 15.4105 38.5268 15.2617 38.5265C15.2213 38.5168 15.1791 38.5126 15.1309 38.5003Z" fill="#E7C31B"/>
<path d="M35.567 20.3503C35.5676 20.2763 35.5458 20.1659 35.5933 20.1143C35.5925 20.1885 35.6148 20.2984 35.567 20.3503Z" fill="#E8C932"/>
<path d="M35.0433 26.4351C35.0433 26.4526 35.0433 26.4699 35.0433 26.4875C34.9995 26.439 35.0126 26.321 35.0171 26.2515H35.0433C35.0664 26.3021 35.0614 26.3787 35.0433 26.4351Z" fill="#E5C111"/>
<path d="M13.4808 30.789C13.4808 30.7627 13.48 30.7365 13.4808 30.7103C13.4821 30.6581 13.4795 30.6054 13.4811 30.5529C13.5262 30.5466 13.5063 30.613 13.5076 30.6447C13.5091 30.688 13.523 30.7625 13.4808 30.789Z" fill="#E5C110"/>
<path d="M26.0047 40.4673C25.9561 40.4797 25.9139 40.4838 25.8738 40.4936C25.7251 40.4938 25.9535 40.4146 26.0047 40.4673Z" fill="#E7C41C"/>
<path d="M22.5977 40.5984C22.6388 40.5386 22.723 40.6026 22.7815 40.5989C22.7773 40.6099 22.7553 40.6204 22.755 40.6246C22.7002 40.6286 22.6493 40.6123 22.5979 40.5984H22.5977Z" fill="#E6C319"/>
<path d="M23.6465 40.887C23.6976 40.8343 23.9261 40.9135 23.7774 40.9132C23.7372 40.9035 23.695 40.8996 23.6465 40.887Z" fill="#E7C41C"/>
<path d="M34.6243 31.2875C34.6253 31.2295 34.6166 31.1576 34.6243 31.1039C34.6261 31.0915 34.6379 31.0805 34.6505 31.0776C34.645 31.1443 34.6746 31.2424 34.6243 31.2875Z" fill="#E8C932"/>
<path d="M13.0866 25.9894C13.0921 26.0468 13.0861 26.1134 13.0866 26.173C13.0362 26.1278 13.0659 26.0298 13.0604 25.9631C13.0727 25.9658 13.0855 25.9776 13.0866 25.9894Z" fill="#E8C932"/>
<path d="M13.3488 29.1891C13.3019 29.1453 13.3234 29.0451 13.3226 28.9792C13.3693 29.0228 13.3483 29.1235 13.3488 29.1891Z" fill="#E8C932"/>
<path d="M34.4928 32.7561C34.4938 32.7821 34.4933 32.8088 34.4928 32.8348C34.4398 32.7868 34.4752 32.6892 34.4668 32.6252H34.4925C34.4943 32.6688 34.4909 32.7128 34.4928 32.7561Z" fill="#E5C113"/>
<path d="M13.7954 34.3561C13.7429 34.3107 13.7776 34.2118 13.7692 34.1462C13.7742 34.2042 13.7891 34.2821 13.7954 34.3561Z" fill="#E8C932"/>
<path d="M13.8462 34.9593C13.7937 34.914 13.8283 34.8151 13.82 34.7495C13.8239 34.8051 13.842 34.8801 13.8462 34.9593Z" fill="#E8C932"/>
<path d="M34.7816 29.4252C34.7821 29.3596 34.7611 29.2589 34.8078 29.2153C34.807 29.2812 34.8285 29.3816 34.7816 29.4252Z" fill="#E8C932"/>
<path d="M13.8723 35.274C13.8256 35.2305 13.8466 35.1298 13.8461 35.0642C13.8927 35.1077 13.8718 35.2085 13.8723 35.274Z" fill="#E8C930"/>
<path d="M34.8345 28.8221C34.8342 28.8483 34.8347 28.8745 34.8345 28.9007C34.782 28.8556 34.8166 28.7565 34.8082 28.6909H34.8345C34.861 28.7271 34.8492 28.7817 34.8345 28.8221Z" fill="#E5C113"/>
<path d="M13.4543 30.2384C13.4598 30.2961 13.4538 30.3624 13.4543 30.422C13.4076 30.3784 13.4286 30.2777 13.4281 30.2122C13.4404 30.2148 13.4533 30.2266 13.4543 30.2384Z" fill="#E8C932"/>
<path d="M13.8996 35.4051C13.9051 35.4641 13.8978 35.5287 13.8996 35.5887C13.8529 35.5452 13.8739 35.4445 13.8734 35.3789C13.8857 35.3815 13.8986 35.3933 13.8996 35.4051Z" fill="#E8C932"/>
<path d="M12.2218 16.1537C12.1751 16.1101 12.1963 16.0097 12.1956 15.9438C12.2422 15.9874 12.2213 16.0881 12.2218 16.1537Z" fill="#E8C932"/>
<path d="M12.2492 16.4684C12.2025 16.4248 12.2235 16.3241 12.223 16.2585C12.2697 16.3021 12.2487 16.4028 12.2492 16.4684Z" fill="#E8C932"/>
<path d="M12.2746 16.7831C12.2279 16.7395 12.2489 16.6388 12.2484 16.5732C12.2951 16.6168 12.2741 16.7175 12.2746 16.7831Z" fill="#E8C930"/>
<path d="M35.8558 17.0192C35.8563 16.9536 35.8354 16.8529 35.882 16.8093C35.8813 16.8752 35.9028 16.9756 35.8558 17.0192Z" fill="#E8C932"/>
<path d="M12.302 17.0716C12.2553 17.0281 12.2763 16.9274 12.2757 16.8618C12.3224 16.9054 12.3014 17.0061 12.302 17.0716Z" fill="#E8C932"/>
<path d="M35.8294 17.3338C35.83 17.2761 35.8218 17.2038 35.8294 17.1503C35.8313 17.1379 35.8431 17.1269 35.8557 17.124C35.8551 17.1896 35.8761 17.2903 35.8294 17.3338Z" fill="#E8C932"/>
<path d="M12.3274 17.3863C12.2807 17.3428 12.3017 17.2421 12.3011 17.1765C12.3481 17.2203 12.3263 17.3205 12.3274 17.3863Z" fill="#E8C932"/>
<path d="M12.5637 20.088C12.517 20.0445 12.538 19.9437 12.5375 19.8782C12.5841 19.9217 12.5632 20.0224 12.5637 20.088Z" fill="#E8C932"/>
<path d="M12.5891 20.4027C12.5424 20.3592 12.5634 20.2584 12.5628 20.1929C12.6095 20.2364 12.5886 20.3371 12.5891 20.4027Z" fill="#E8C932"/>
<path d="M14.1882 38.2379C14.173 38.2314 14.1446 38.2448 14.1357 38.2117C14.1268 38.1787 14.1418 38.1199 14.136 38.0806H14.1617L14.1882 38.2379Z" fill="#E6C218"/>
<path d="M35.5418 20.6388C35.542 20.569 35.5399 20.4987 35.5418 20.429H35.568C35.5675 20.4945 35.5885 20.5952 35.5418 20.6388Z" fill="#E8C932"/>
<path d="M35.514 20.9535C35.5145 20.8879 35.4936 20.7872 35.5402 20.7437C35.5397 20.8092 35.5607 20.9099 35.514 20.9535Z" fill="#E8C932"/>
<path d="M31.4269 38.9462C31.386 38.9561 31.3469 38.9847 31.296 38.9724C31.2955 38.9682 31.2732 38.9582 31.2695 38.9467C31.3186 38.9527 31.396 38.8916 31.4272 38.9462H31.4269Z" fill="#E6C41B"/>
<path d="M35.4886 21.2682C35.4892 21.2026 35.4682 21.1019 35.5149 21.0583C35.5143 21.1239 35.5353 21.2246 35.4886 21.2682Z" fill="#E8C932"/>
<path d="M30.1183 39.3134C30.0774 39.3233 30.0383 39.3519 29.9874 39.3396C29.9869 39.3354 29.9646 39.3254 29.9609 39.3139C30.01 39.3199 30.0874 39.2588 30.1186 39.3134H30.1183Z" fill="#E7C31B"/>
<path d="M18.2227 39.3656C18.2539 39.3111 18.331 39.3722 18.3803 39.3661C18.3764 39.3777 18.3543 39.3876 18.3538 39.3918C18.3029 39.4044 18.2636 39.3753 18.2229 39.3656H18.2227Z" fill="#E6C319"/>
<path d="M12.6686 21.1371C12.6741 21.1945 12.6681 21.2611 12.6686 21.3207C12.6183 21.2756 12.6479 21.1775 12.6424 21.1108C12.6547 21.1135 12.6676 21.1253 12.6686 21.1371Z" fill="#E8C932"/>
<path d="M35.4626 21.5568C35.4631 21.5048 35.4586 21.4508 35.4626 21.3994C35.4644 21.3771 35.4634 21.354 35.4888 21.3469C35.4883 21.4125 35.5093 21.5132 35.4626 21.5568Z" fill="#E8C932"/>
<path d="M28.8075 39.6804C28.7453 39.6979 28.6892 39.6956 28.6504 39.7066V39.6804C28.6947 39.6704 28.7873 39.6376 28.8075 39.6804Z" fill="#E6C31A"/>
<path d="M13.4009 29.7923C13.3484 29.747 13.383 29.6481 13.3746 29.5825C13.3786 29.6373 13.3964 29.7144 13.4009 29.7923Z" fill="#E8C932"/>
<path d="M34.7285 30.0546C34.7285 29.9895 34.7372 29.9048 34.7285 29.8447H34.7547C34.7492 29.9113 34.7789 30.0094 34.7285 30.0546Z" fill="#E8C932"/>
<path d="M13.1144 26.4877C13.0677 26.4441 13.0889 26.3437 13.0881 26.2778C13.1351 26.3216 13.1133 26.4218 13.1144 26.4877Z" fill="#E8C932"/>
<path d="M35.2782 23.6551C35.279 23.6813 35.2782 23.7075 35.2782 23.7338L35.252 23.6813V23.5239H35.2779C35.2795 23.5675 35.2769 23.6113 35.2782 23.6551Z" fill="#E5C113"/>
<path d="M20.8418 40.1C20.873 40.0454 20.9501 40.1065 20.9994 40.1005L20.9729 40.1262C20.9375 40.1162 20.8914 40.1139 20.8421 40.1H20.8418Z" fill="#E6C31B"/>
<path d="M27.0265 40.1788C26.9853 40.1891 26.9465 40.2174 26.8956 40.2051C26.8951 40.2009 26.8728 40.1909 26.8691 40.1794C26.9182 40.1854 26.9956 40.1243 27.0268 40.1788H27.0265Z" fill="#E6C319"/>
<path d="M13.427 30.107C13.3803 30.0635 13.4013 29.9628 13.4007 29.8972C13.4474 29.9408 13.4264 30.0415 13.427 30.107Z" fill="#E8C82C"/>
<path d="M35.1742 24.8878C35.1747 24.8222 35.1537 24.7215 35.2004 24.678C35.1996 24.7438 35.2209 24.8443 35.1742 24.8878Z" fill="#E8C932"/>
<path d="M35.1485 25.2025C35.1479 25.1369 35.1571 25.0533 35.1485 24.9927H35.1747C35.1742 25.0582 35.1951 25.159 35.1485 25.2025Z" fill="#E8C932"/>
<path d="M25.7157 40.546C25.6549 40.5594 25.6147 40.5628 25.5586 40.5722C25.5992 40.5554 25.6732 40.4815 25.7157 40.546Z" fill="#E6C41B"/>
<path d="M13.0089 25.255C12.9622 25.2115 12.9835 25.111 12.9827 25.0452C13.0296 25.0887 13.0081 25.1892 13.0089 25.255Z" fill="#E8C932"/>
<path d="M35.1214 25.4908C35.122 25.4253 35.101 25.3245 35.1477 25.281C35.1471 25.3466 35.1681 25.4473 35.1214 25.4908Z" fill="#E8C932"/>
<path d="M35.0423 26.4352C35.0429 26.3775 35.0347 26.3051 35.0423 26.2516C35.0442 26.2392 35.056 26.2282 35.0686 26.2253C35.063 26.292 35.0927 26.3901 35.0423 26.4352Z" fill="#E8C932"/>
<path d="M24.4054 40.887V40.9132C24.3627 40.9255 24.3257 40.9507 24.2745 40.9394C24.274 40.9352 24.2517 40.9253 24.248 40.9137C24.2958 40.9024 24.3616 40.9009 24.4057 40.887H24.4054Z" fill="#E7C31B"/>
<path d="M35.5937 20.0354C35.5943 19.978 35.5743 19.8875 35.62 19.8518C35.6194 19.9092 35.6394 19.9997 35.5937 20.0354Z" fill="#E8C932"/>
<path d="M12.536 19.7732C12.4903 19.7375 12.5103 19.647 12.5097 19.5896C12.5551 19.6253 12.5355 19.7158 12.536 19.7732Z" fill="#E8C932"/>
<path d="M35.6191 19.7207C35.6196 19.6633 35.5997 19.5728 35.6454 19.5371C35.6448 19.5945 35.6648 19.685 35.6191 19.7207Z" fill="#E8C932"/>
<path d="M13.3226 28.7696C13.3452 28.8 13.3431 28.8457 13.3226 28.8745C13.2741 28.8375 13.3008 28.7489 13.2964 28.6909C13.3305 28.7035 13.3213 28.7408 13.3226 28.7696Z" fill="#E8C932"/>
<path d="M12.5106 19.4846C12.4649 19.449 12.4849 19.3585 12.4844 19.301C12.5297 19.3367 12.5101 19.4272 12.5106 19.4846Z" fill="#E8C932"/>
<path d="M14.0575 37.3723C14.0118 37.3366 14.0318 37.2462 14.0312 37.1887H14.0575C14.0512 37.2446 14.0575 37.3138 14.0575 37.3723Z" fill="#E8C932"/>
<path d="M34.0729 37.6084C34.076 37.547 34.0543 37.4759 34.0991 37.4248C34.0939 37.4857 34.119 37.5573 34.0729 37.6084Z" fill="#E8C932"/>
<path d="M14.1097 37.8707C14.1315 37.9003 14.1338 37.9473 14.1097 37.9756C14.0615 37.9389 14.0877 37.85 14.0835 37.792C14.1176 37.8046 14.1084 37.8418 14.1097 37.8707Z" fill="#E8C932"/>
<path d="M14.1095 38.0542C14.109 38.028 14.1101 38.0017 14.1095 37.9755C14.109 37.9406 14.1108 37.9055 14.1095 37.8706H14.1358C14.1389 37.9254 14.1523 38.0206 14.1095 38.0542Z" fill="#E5C112"/>
<path d="M35.6464 19.406C35.6471 19.3486 35.627 19.2583 35.6726 19.2224C35.6718 19.2799 35.692 19.3701 35.6464 19.406Z" fill="#E8C932"/>
<path d="M34.0208 38.2117C34.0271 38.1542 33.9972 38.0653 34.047 38.0281C34.0413 38.0829 34.0549 38.1414 34.0447 38.1967L34.0208 38.2117Z" fill="#E8C932"/>
<path d="M12.4851 19.1699C12.4395 19.134 12.4596 19.0438 12.4589 18.9863C12.5042 19.022 12.4846 19.1125 12.4851 19.1699Z" fill="#E8C932"/>
<path d="M12.144 15.3145C12.1427 15.2885 12.144 15.262 12.144 15.2358C12.1304 15.2014 12.1183 15.1594 12.144 15.1309H12.1702C12.1734 15.1857 12.1867 15.2809 12.144 15.3145Z" fill="#E5C110"/>
<path d="M12.1433 15.1307C12.1446 15.1656 12.143 15.2007 12.1433 15.2356C12.0977 15.1997 12.1179 15.1094 12.1171 15.052C12.1512 15.0646 12.142 15.1018 12.1433 15.1307Z" fill="#E8C932"/>
<path d="M36.039 14.8684C36.0396 14.811 36.0196 14.7205 36.0653 14.6848C36.0645 14.7423 36.0847 14.8325 36.039 14.8684Z" fill="#E8C932"/>
<path d="M34.8075 29.1368C34.808 29.1543 34.8075 29.1716 34.8075 29.1892H34.7812V29.0056H34.8072C34.8088 29.0492 34.8062 29.0932 34.8075 29.1368Z" fill="#E5C213"/>
<path d="M35.2008 24.5729C35.2003 24.5992 35.2014 24.6254 35.2008 24.6516L35.1746 24.6254C35.1791 24.5737 35.1715 24.5199 35.1746 24.468H35.2008C35.2263 24.4929 35.2155 24.5399 35.2008 24.5729Z" fill="#E6C113"/>
<path d="M34.8334 28.822C34.834 28.7787 34.83 28.7339 34.8334 28.6909C34.8353 28.6686 34.834 28.6455 34.8597 28.6384C34.8591 28.6959 34.8788 28.7864 34.8334 28.822Z" fill="#E8C932"/>
<path d="M12.9305 24.3369C12.8849 24.3012 12.9048 24.2108 12.9043 24.1533C12.9497 24.189 12.93 24.2795 12.9305 24.3369Z" fill="#E8C932"/>
<path d="M13.2704 28.2712C13.2247 28.2356 13.2446 28.1451 13.2441 28.0876C13.2895 28.1233 13.2698 28.2138 13.2704 28.2712Z" fill="#E8C932"/>
<path d="M12.9045 24.0222C12.8546 23.985 12.8845 23.8961 12.8782 23.8386C12.8817 23.8835 12.9005 23.9506 12.9045 24.0222Z" fill="#E8C932"/>
<path d="M35.2519 23.9697C35.2525 23.9123 35.2325 23.8218 35.2782 23.7861C35.2774 23.8436 35.2976 23.9338 35.2519 23.9697Z" fill="#E8C932"/>
<path d="M21.5234 40.2836L21.5389 40.2637C21.62 40.2679 21.7183 40.308 21.6021 40.3098C21.572 40.3014 21.5455 40.2896 21.5234 40.2836Z" fill="#E5C011"/>
<path d="M12.616 20.6912C12.5703 20.6552 12.5905 20.565 12.5897 20.5076C12.6351 20.5432 12.6154 20.6337 12.616 20.6912Z" fill="#E8C932"/>
<path d="M13.6644 32.8086C13.6159 32.7716 13.6426 32.683 13.6382 32.625C13.6836 32.6607 13.6639 32.7512 13.6644 32.8086Z" fill="#E8C932"/>
<path d="M13.3486 28.9531H13.3224C13.3221 28.9269 13.3224 28.9007 13.3224 28.8744C13.3221 28.8396 13.3237 28.8044 13.3224 28.7695H13.3486C13.3539 28.8299 13.3434 28.8928 13.3486 28.9531Z" fill="#E6C112"/>
<path d="M13.6903 33.1233C13.6446 33.0876 13.6646 32.9971 13.664 32.9397C13.7094 32.9754 13.6897 33.0659 13.6903 33.1233Z" fill="#E8C932"/>
<path d="M13.7157 33.4382C13.67 33.4026 13.69 33.3121 13.6894 33.2546H13.7157C13.7157 33.3158 13.7157 33.3771 13.7157 33.4382Z" fill="#E8C932"/>
<path d="M13.6115 32.2055C13.5674 32.1769 13.5861 32.0977 13.5853 32.0481C13.6293 32.0767 13.6107 32.1559 13.6115 32.2055Z" fill="#E8C932"/>
<path d="M36.0643 14.5536C36.0649 14.5712 36.0638 14.5885 36.0643 14.6061H36.0381C36.0441 14.5557 36.0337 14.4999 36.0384 14.4487H36.0641C36.0656 14.4834 36.063 14.5188 36.0643 14.5536Z" fill="#E5C110"/>
<path d="M34.9377 27.5893C34.9377 27.5368 34.9372 27.4843 34.9377 27.4319H34.964C34.9632 27.4815 34.9818 27.5607 34.9377 27.5893Z" fill="#E8C932"/>
<path d="M12.1174 14.921C12.0733 14.8925 12.0919 14.8132 12.0911 14.7637H12.1174C12.1119 14.8119 12.1182 14.8702 12.1174 14.921Z" fill="#E8C932"/>
<path d="M12.3791 17.9372C12.3345 17.9083 12.3541 17.8294 12.3528 17.7798H12.3791C12.3791 17.8322 12.3791 17.8847 12.3791 17.9372Z" fill="#E8C932"/>
<path d="M34.1523 36.6903V36.533H34.1786C34.178 36.5825 34.1964 36.6617 34.1523 36.6903Z" fill="#E8C932"/>
<path d="M34.127 37.0053C34.127 36.9528 34.127 36.9004 34.127 36.8479H34.1532C34.1524 36.8975 34.171 36.9767 34.127 37.0053Z" fill="#E8C932"/>
<path d="M14.0295 37.0575C13.9854 37.0289 14.004 36.9497 14.0032 36.9001C14.0473 36.9287 14.029 37.0079 14.0295 37.0575Z" fill="#E8C932"/>
<path d="M12.4064 18.2519C12.3624 18.2233 12.381 18.1441 12.3802 18.0945H12.4064C12.4077 18.1469 12.4064 18.1994 12.4064 18.2519Z" fill="#E8C932"/>
<path d="M35.6986 18.8026C35.6993 18.7531 35.6807 18.6739 35.7248 18.6453C35.724 18.6948 35.7426 18.774 35.6986 18.8026Z" fill="#E8C932"/>
<path d="M35.6726 19.1176C35.6527 19.0929 35.649 19.0386 35.6726 19.0127C35.6744 18.9904 35.6731 18.9673 35.6988 18.9602C35.6983 19.0098 35.7167 19.089 35.6726 19.1176Z" fill="#E8C932"/>
<path d="M13.1916 27.3532C13.1475 27.3246 13.1661 27.2454 13.1654 27.1958C13.2094 27.2244 13.1908 27.3036 13.1916 27.3532Z" fill="#E8C932"/>
<path d="M12.4318 18.5668C12.3878 18.5382 12.4064 18.459 12.4056 18.4094C12.4497 18.438 12.4313 18.5172 12.4318 18.5668Z" fill="#E8C932"/>
<path d="M12.7463 22.1862C12.7022 22.1576 12.7208 22.0784 12.72 22.0288C12.7641 22.0574 12.7457 22.1366 12.7463 22.1862Z" fill="#E8C932"/>
<path d="M35.3574 22.737V22.5796H35.3837C35.3831 22.6292 35.4015 22.7084 35.3574 22.737Z" fill="#E8C932"/>
<path d="M35.3314 23.0517C35.3322 23.0021 35.3135 22.9229 35.3576 22.8943C35.3568 22.9439 35.3754 23.0231 35.3314 23.0517Z" fill="#E8C932"/>
<path d="M12.8517 23.4188C12.8077 23.3903 12.8263 23.311 12.8255 23.2615C12.8693 23.2901 12.8512 23.3693 12.8517 23.4188Z" fill="#E8C932"/>
<path d="M17.4897 39.156C17.4556 39.1465 17.4202 39.1397 17.3848 39.1297V39.1035C17.4191 39.1156 17.4721 39.0928 17.4897 39.156Z" fill="#E6C112"/>
<path d="M35.2259 24.2582C35.2267 24.2086 35.2081 24.1294 35.2521 24.1008C35.2516 24.1504 35.27 24.2296 35.2259 24.2582Z" fill="#E8C932"/>
<path d="M35.2004 24.5729C35.2009 24.5383 35.1975 24.5023 35.2004 24.468C35.2022 24.4457 35.2009 24.4226 35.2266 24.4155C35.2261 24.4651 35.2445 24.5443 35.2004 24.5729Z" fill="#E8C932"/>
<path d="M13.1662 27.0385C13.1216 27.0096 13.1412 26.9307 13.1399 26.8811H13.1662C13.1662 26.9336 13.1662 26.986 13.1662 27.0385Z" fill="#E8C932"/>
<path d="M34.8607 28.5072C34.8615 28.4577 34.8428 28.3784 34.8869 28.3499C34.8864 28.3994 34.9047 28.4786 34.8607 28.5072Z" fill="#E8C932"/>
<path d="M35.672 19.1174C35.6718 19.1349 35.6723 19.1522 35.672 19.1698H35.6458C35.6505 19.1182 35.6413 19.0641 35.6458 19.0125H35.672C35.6691 19.0468 35.6725 19.0827 35.672 19.1174Z" fill="#E6C111"/>
<path d="M13.5334 31.2875C13.489 31.2589 13.5082 31.1797 13.5071 31.1301C13.5512 31.1587 13.5326 31.2379 13.5334 31.2875Z" fill="#E8C932"/>
<path d="M34.8861 28.2186C34.8868 28.1691 34.8682 28.0899 34.9123 28.0613C34.9118 28.1109 34.9301 28.1901 34.8861 28.2186Z" fill="#EBCF48"/>
<path d="M13.2443 27.9564C13.1997 27.9276 13.2194 27.8486 13.2181 27.7991C13.2621 27.8277 13.2438 27.9069 13.2443 27.9564Z" fill="#E8C932"/>
<path d="M34.5717 31.8383C34.5725 31.7887 34.5536 31.7095 34.5979 31.6809C34.5971 31.7305 34.6158 31.8097 34.5717 31.8383Z" fill="#E8C932"/>
<path d="M25.0337 40.7295C25.0125 40.7576 24.9787 40.7481 24.9551 40.7557C24.8098 40.7187 24.9842 40.7347 25.0337 40.7295Z" fill="#E6C111"/>
<path d="M34.9115 27.904C34.9122 27.8544 34.8936 27.7752 34.9377 27.7466C34.9369 27.7962 34.9555 27.8754 34.9115 27.904Z" fill="#E8C932"/>
<path d="M36.1165 13.9506C36.1173 13.901 36.0987 13.8218 36.1428 13.7932C36.1422 13.8428 36.1603 13.9223 36.1165 13.9506Z" fill="#E8C932"/>
<path d="M36.0903 14.2653C36.0909 14.2236 36.0846 14.1724 36.0903 14.1341C36.0922 14.1218 36.104 14.1108 36.1166 14.1079C36.116 14.1575 36.1344 14.2367 36.0903 14.2653Z" fill="#E8C932"/>
<path d="M12.0918 14.6061C12.0464 14.577 12.0679 14.4986 12.0656 14.4487C12.1096 14.4773 12.0913 14.5565 12.0918 14.6061Z" fill="#E8C932"/>
<path d="M12.3544 17.6224C12.3536 17.6103 12.3313 17.5479 12.3281 17.4912C12.3706 17.5135 12.3528 17.5804 12.3544 17.6224Z" fill="#E8C932"/>
<path d="M12.0653 14.3177C12.0642 14.3038 12.0417 14.2463 12.0391 14.1865C12.0816 14.2088 12.0637 14.2757 12.0653 14.3177Z" fill="#E8C932"/>
<path d="M12.0384 14.003C11.9962 13.9807 12.0135 13.9141 12.0122 13.8718H12.0384C12.0371 13.9154 12.0382 13.9594 12.0384 14.003Z" fill="#E8C932"/>
<path d="M34.5454 32.1267C34.5469 32.0848 34.5291 32.0179 34.5716 31.9956C34.5685 32.0525 34.5462 32.1142 34.5454 32.1267Z" fill="#E8C932"/>
<path d="M34.1782 36.3758C34.1793 36.3338 34.1625 36.2667 34.2045 36.2446C34.2034 36.2869 34.2202 36.3537 34.1782 36.3758Z" fill="#E8C932"/>
<path d="M13.9774 36.4283C13.9766 36.4151 13.9538 36.3564 13.9512 36.2971C13.9937 36.3194 13.9758 36.3863 13.9774 36.4283Z" fill="#E8C932"/>
<path d="M12.7728 22.4746C12.7309 22.4526 12.7476 22.3855 12.7466 22.3435H12.7728V22.4746Z" fill="#E8C932"/>
<path d="M13.2176 27.6416C13.2168 27.629 13.1946 27.5674 13.1914 27.5105C13.2339 27.5328 13.2161 27.5997 13.2176 27.6416Z" fill="#E8C932"/>
<path d="M13.6376 32.5201C13.6365 32.5064 13.6145 32.4469 13.6113 32.3889C13.6538 32.4112 13.636 32.4781 13.6376 32.5201Z" fill="#EACE44"/>
<path d="M13.2958 28.586C13.2947 28.5723 13.2724 28.5133 13.2695 28.4548C13.312 28.4771 13.2942 28.544 13.2958 28.586Z" fill="#EACE43"/>
<path d="M13.1395 26.7237C13.1387 26.7116 13.1164 26.6492 13.1133 26.5925C13.1558 26.6148 13.1379 26.6817 13.1395 26.7237Z" fill="#E8C930"/>
<path d="M35.3833 22.4222C35.3844 22.3802 35.3676 22.313 35.4095 22.291C35.4085 22.3332 35.4255 22.4001 35.3833 22.4222Z" fill="#E8C932"/>
<path d="M13.5594 31.576C13.5584 31.5629 13.5364 31.5023 13.5332 31.4448C13.5757 31.4671 13.5579 31.534 13.5594 31.576Z" fill="#E8C932"/>
<path d="M34.0473 37.9231C34.0489 37.8812 34.0311 37.8143 34.0736 37.792C34.0707 37.8507 34.0484 37.9084 34.0473 37.9231Z" fill="#EBCD42"/>
<path d="M12.4584 18.8553C12.4164 18.8332 12.4332 18.7661 12.4321 18.7241H12.4584C12.4534 18.7643 12.4592 18.8128 12.4584 18.8553Z" fill="#E8C932"/>
<path d="M24.0647 15.7603L33.7437 15.7598L33.76 15.8791C33.2803 21.1415 32.8389 26.4045 32.3699 31.6675C32.2196 33.3532 32.0462 35.0376 31.9211 36.7261L24.0645 38.8672V15.7603H24.0647Z" fill="#FEDD25"/>
<path d="M20.4748 18.6978H23.1475V35.6806C23.1393 35.7108 23.0688 35.6738 23.0425 35.6675C22.9938 35.6832 22.924 35.6675 22.8854 35.6413C22.8867 35.6287 22.8846 35.6205 22.8721 35.6153C22.8613 35.6103 22.845 35.619 22.833 35.6153C22.7362 35.6066 22.6402 35.5893 22.5447 35.5628C22.2402 35.4485 21.925 35.3659 21.6016 35.2743C21.5509 35.2908 21.4838 35.2796 21.4445 35.2481C21.0453 35.1364 20.6445 35.0133 20.2393 34.9071C20.1378 34.9176 20.0378 34.877 19.951 34.8284C19.8579 34.8132 19.7616 34.7957 19.6628 34.776C19.359 34.6766 19.043 34.5724 18.7196 34.4875C18.6682 34.4943 18.5997 34.5019 18.5625 34.4612C18.5321 34.4534 18.4867 34.4224 18.4316 34.4088C18.3634 34.4156 18.2936 34.4067 18.222 34.3826C17.9165 34.2498 17.5844 34.1803 17.2526 34.094C17.1963 34.1077 17.1527 34.099 17.1218 34.0678C17.0924 34.0605 17.0454 34.0287 16.9909 34.0154C16.9227 34.0219 16.8527 34.0133 16.7813 33.9891C16.7784 33.9878 16.7698 33.9556 16.7367 33.943C16.4621 33.8375 16.1188 33.8024 15.8379 33.7006V30.9204C15.9882 30.9459 16.1356 30.9891 16.2832 31.0253C16.3242 31.0112 16.3769 31.0298 16.4141 31.0516C16.4128 31.0642 16.4149 31.0723 16.4278 31.0775C16.438 31.0828 16.455 31.0736 16.4666 31.0778C16.5817 31.0765 16.678 31.1027 16.7548 31.1565C17.0772 31.248 17.3985 31.3388 17.7242 31.4188C17.7651 31.4046 17.8181 31.4232 17.8551 31.445C17.8538 31.4576 17.8559 31.4657 17.8685 31.471C17.8792 31.4759 17.8955 31.4673 17.9076 31.471C18.0211 31.4681 18.1174 31.4943 18.1958 31.5496C18.5176 31.6433 18.8395 31.7319 19.1652 31.8119C19.2061 31.7978 19.2591 31.8164 19.2961 31.8381C19.2948 31.8507 19.2969 31.8589 19.3095 31.8641C19.3202 31.8691 19.3365 31.8604 19.3485 31.8641C19.4621 31.8615 19.5581 31.8877 19.6368 31.9428C19.7328 31.9703 19.8285 31.9955 19.925 32.0215C20.0339 32.0183 20.1469 32.043 20.2395 32.1002C20.3014 32.1159 20.3429 32.1413 20.4229 32.1526C20.4564 32.1122 20.4735 32.1212 20.4491 32.1547L20.4753 18.6975L20.4748 18.6978Z" fill="#FEFEFE"/>
<path d="M23.2001 18.6978H23.1738V35.6937H23.2001V18.6978Z" fill="#E6C522"/>
<path d="M20.4763 18.6978V32.166C20.4729 32.1993 20.4406 32.1552 20.4238 32.1529L20.4763 18.6978Z" fill="#E4BF0C"/>
<path d="M23.1481 18.6453H20.502V18.6715H23.1481V18.6453Z" fill="#E5BF0C"/>
<path d="M19.9258 32.0218C20.0367 31.9614 20.1878 32.0732 20.3053 32.0745L20.2403 32.1005C20.1348 32.074 20.031 32.0501 19.9258 32.0218Z" fill="#E8C82E"/>
<path d="M20.2408 34.9068C20.1684 34.9721 20.0331 34.8766 19.9526 34.8544C19.9297 34.847 19.93 34.8381 19.9526 34.8281C20.0486 34.852 20.1453 34.8819 20.2408 34.9068Z" fill="#E7C625"/>
<path d="M16.4668 31.0776C16.4836 31.0414 16.7417 31.0965 16.7535 31.1059C16.7611 31.112 16.7543 31.1416 16.755 31.1563C16.6591 31.129 16.561 31.1128 16.4668 31.0776Z" fill="#E6C41C"/>
<path d="M17.9082 31.4709C17.925 31.4347 18.1831 31.4898 18.1949 31.4992C18.2025 31.5053 18.1957 31.5349 18.1965 31.5496C18.1012 31.5218 18.0029 31.5011 17.9082 31.4709Z" fill="#E6C41C"/>
<path d="M19.3496 31.8645C19.3664 31.8283 19.6245 31.8834 19.6363 31.8928C19.6439 31.8988 19.6371 31.9285 19.6379 31.9432C19.5426 31.9159 19.4443 31.8946 19.3496 31.8645Z" fill="#E7C41C"/>
<path d="M22.8332 35.6151C22.7639 35.665 22.6212 35.5913 22.5449 35.5627C22.6451 35.5509 22.7398 35.5852 22.8332 35.6151Z" fill="#E7C41B"/>
<path d="M19.9523 34.8282V34.8545C19.854 34.8272 19.7627 34.8081 19.6641 34.7758C19.7685 34.7601 19.855 34.8039 19.9523 34.8282Z" fill="#E7C41C"/>
<path d="M18.5623 34.4609C18.6063 34.4725 18.6648 34.4727 18.7194 34.4872C18.6654 34.5459 18.4081 34.4607 18.5623 34.4609Z" fill="#E7C31B"/>
<path d="M18.4322 34.4085C18.3795 34.4699 18.2804 34.4075 18.2227 34.3823C18.2964 34.3726 18.3625 34.3915 18.4322 34.4085Z" fill="#E6C319"/>
<path d="M16.9908 34.0152C16.9381 34.0766 16.839 34.0142 16.7812 33.989C16.855 33.9793 16.921 33.9982 16.9908 34.0152Z" fill="#E6C319"/>
<path d="M21.6033 35.274C21.5623 35.3341 21.4781 35.2696 21.4199 35.2738L21.4462 35.2478C21.4881 35.2596 21.549 35.2586 21.6033 35.274Z" fill="#E7C31B"/>
<path d="M17.1218 34.0676C17.1609 34.0776 17.2045 34.0813 17.2527 34.0939C17.2016 34.1466 16.9731 34.0674 17.1218 34.0676Z" fill="#E7C31B"/>
<path d="M23.0432 35.6675C23.0021 35.7273 22.9179 35.6633 22.8594 35.667C22.8633 35.6554 22.8853 35.6457 22.8859 35.6413C22.9409 35.636 22.991 35.6554 23.043 35.6675H23.0432Z" fill="#E6C31A"/>
<path d="M16.2832 31.025C16.3144 30.9705 16.3915 31.0316 16.4408 31.0256C16.4369 31.0371 16.4149 31.0471 16.4143 31.0513C16.3635 31.0636 16.3244 31.035 16.2835 31.025H16.2832Z" fill="#E6C318"/>
<path d="M19.166 31.8119C19.1972 31.7573 19.2743 31.8185 19.3236 31.8124C19.3197 31.824 19.2977 31.8337 19.2972 31.8381C19.2463 31.8505 19.2072 31.8219 19.1663 31.8119H19.166Z" fill="#E6C218"/>
<path d="M17.7246 31.4186C17.7558 31.364 17.8329 31.4251 17.8822 31.4191C17.8783 31.4307 17.8563 31.4404 17.8558 31.4448C17.8049 31.4571 17.7658 31.4286 17.7249 31.4186H17.7246Z" fill="#E6C318"/>
<path d="M32.5796 18.6979C32.5836 19.0483 32.5576 19.3979 32.501 19.747L32.4747 19.9569C32.4939 19.9624 32.4928 19.9713 32.4747 19.9831C32.4936 19.9996 32.4941 20.0182 32.4747 20.0355C32.4283 20.0791 32.4488 20.1798 32.4485 20.2454C32.4624 20.2805 32.4732 20.3196 32.4485 20.3503C32.4026 20.3933 32.422 20.4951 32.4223 20.5601C32.4346 20.5869 32.4459 20.6173 32.4223 20.6388C32.3753 20.6826 32.3968 20.7828 32.396 20.8486C32.4086 20.8764 32.417 20.9029 32.396 20.9273L32.3698 21.0584C32.4047 21.1041 32.3903 21.1639 32.3698 21.2158C32.3242 21.2384 32.3496 21.3071 32.3436 21.347L32.3389 21.3716C30.8011 21.374 29.2631 21.3745 27.7245 21.3732L27.7062 21.347C27.6957 21.4031 27.687 21.4191 27.6797 21.395V25.9178C27.7277 25.9492 27.7888 25.9644 27.8633 25.9631C27.9721 25.922 28.0883 25.8858 28.204 25.9107C28.2373 25.8619 28.3057 25.8695 28.3611 25.8845C28.407 25.8779 28.4448 25.8614 28.466 25.8582C28.5434 25.8228 28.6569 25.79 28.728 25.832C28.7427 25.7856 28.8146 25.7906 28.8589 25.8058C29.0142 25.7832 29.1807 25.7777 29.3305 25.7271C29.3415 25.7111 29.3591 25.7111 29.3829 25.7271C29.6009 25.7158 29.8254 25.6691 30.0379 25.6222C30.0531 25.6033 30.0704 25.6106 30.0903 25.6222C30.1323 25.6211 30.1992 25.6379 30.2212 25.5959C30.2278 25.5831 30.2367 25.5839 30.2474 25.5959C30.3382 25.5904 30.4263 25.5655 30.5178 25.5642L30.5357 25.5435C30.5645 25.5238 30.6075 25.528 30.6406 25.5435C30.7012 25.501 30.7964 25.4787 30.8764 25.491C31.0269 25.4606 31.1843 25.4344 31.348 25.4123C31.4245 25.4047 31.5156 25.3916 31.5838 25.3861C31.6459 25.3515 31.7277 25.341 31.7933 25.3599C31.8001 25.341 31.8088 25.3418 31.8195 25.3599L31.9504 25.3337C31.9554 25.3017 31.9879 25.3035 32.0029 25.3337C32.0496 25.3772 32.0283 25.4777 32.0291 25.5435C32.0433 25.5715 32.0509 25.598 32.0291 25.6222L32.0029 25.7795C32.037 25.8026 32.0283 25.8797 32.0029 25.9107L31.9767 26.0418C32.0066 26.0775 31.994 26.1546 31.9767 26.1992L31.9504 26.3303C31.9696 26.3358 31.9685 26.3448 31.9504 26.3566C31.9698 26.3977 31.9698 26.4465 31.9504 26.4877C31.9085 26.5097 31.925 26.5769 31.9242 26.6188C31.9386 26.6713 31.9494 26.7269 31.9242 26.7762C31.8822 26.7982 31.899 26.8654 31.898 26.9074C31.9205 26.9653 31.9205 27.0178 31.898 27.0647L31.8717 27.1959C31.8943 27.2113 31.8927 27.2302 31.8717 27.2483C31.8891 27.2541 31.8883 27.263 31.8717 27.2746C31.8243 27.3262 31.846 27.4366 31.8455 27.5106C31.8599 27.5384 31.8673 27.5652 31.8455 27.5893C31.7988 27.6328 31.8198 27.7333 31.8193 27.7991C31.8311 27.8191 31.8382 27.8364 31.8193 27.8516C31.7718 27.9032 31.7936 28.0137 31.7931 28.0876C31.8049 28.1076 31.8119 28.1249 31.7931 28.1401C31.7456 28.192 31.7674 28.3022 31.7668 28.3761C31.7799 28.3976 31.7799 28.4152 31.7668 28.4286L31.7406 28.6384C31.7742 28.6626 31.7718 28.6906 31.7406 28.7171L31.7144 28.9269C31.7409 28.9511 31.7385 28.9786 31.7144 29.0056L31.6881 29.2154C31.7073 29.221 31.7062 29.2299 31.6881 29.2417C31.707 29.2582 31.7076 29.2768 31.6881 29.2941C31.6415 29.3377 31.6627 29.4381 31.6619 29.504C31.6735 29.5318 31.6821 29.5583 31.6619 29.5826L31.6357 29.74C31.6727 29.7762 31.6682 29.8318 31.6357 29.8712L31.6095 30.0285C31.6412 30.0437 31.6394 30.0637 31.6095 30.081C31.6257 30.1062 31.6302 30.1379 31.6095 30.1597C31.5654 30.1883 31.584 30.2675 31.5832 30.317C31.6016 30.359 31.6066 30.407 31.5832 30.4482C31.5497 30.5843 31.5365 30.7532 31.5308 30.8941C31.5486 30.936 31.5539 30.984 31.5308 31.0252C31.4867 31.0538 31.5053 31.133 31.5045 31.1826C31.519 31.2104 31.5263 31.2371 31.5045 31.2613C31.4579 31.3048 31.4788 31.4052 31.4783 31.4711C31.4927 31.4989 31.4998 31.5256 31.4783 31.5498C31.4316 31.5933 31.4526 31.6938 31.4521 31.7596C31.4665 31.7874 31.4736 31.8141 31.4521 31.8383C31.4062 31.9925 31.4141 32.1769 31.3996 32.3366C31.4078 32.5556 31.3878 32.7791 31.3472 32.9923C31.3028 33.1471 31.3073 33.3301 31.2947 33.4907C31.307 33.5187 31.3175 33.547 31.2947 33.5693L31.2685 33.7267C31.2979 33.7912 31.2863 33.9077 31.2423 33.9628C31.231 33.963 31.1549 33.9851 31.1318 33.9916C31.0728 34.0079 30.9296 34.0724 30.8494 34.0939C30.8098 34.1251 30.7426 34.1372 30.6923 34.1201C30.435 34.1896 30.1784 34.2649 29.9198 34.3305C29.907 34.3357 29.9051 34.3436 29.9065 34.3562C29.839 34.3848 29.7441 34.4089 29.6707 34.4086C29.6185 34.4477 29.5526 34.4763 29.4873 34.4611C29.427 34.4774 29.374 34.5018 29.3302 34.5136C29.3003 34.5448 29.2565 34.5534 29.1993 34.5398C28.8335 34.6395 28.4807 34.7155 28.1513 34.8545C28.0545 34.886 27.9582 34.9036 27.863 34.907C27.5367 34.9872 27.2241 35.0911 26.9198 35.1955C26.8474 35.2102 26.7777 35.2191 26.7103 35.2217C26.6604 35.2608 26.5901 35.296 26.5269 35.2742C26.2883 35.3369 26.054 35.4069 25.8196 35.484C25.7021 35.5307 25.5885 35.5569 25.4789 35.5627C25.418 35.6259 25.3055 35.6374 25.2168 35.6414C25.1678 35.6786 25.0975 35.7075 25.0335 35.6938C24.9393 35.5929 25.0487 33.2536 25.0109 32.9304C25.0369 32.853 25.7671 32.7374 25.7671 32.6776C25.8059 32.6508 25.8752 32.6361 25.9242 32.6514C25.9775 32.6372 26.0244 32.607 26.0551 32.5989C26.0853 32.5679 26.1288 32.559 26.186 32.5727C26.2744 32.5483 26.3614 32.5176 26.448 32.494C26.5018 32.4447 26.5844 32.4313 26.6576 32.4415C26.8498 32.388 27.0423 32.3411 27.2341 32.2842C27.3219 32.2351 27.4268 32.2002 27.5485 32.1792C27.591 32.1486 27.6558 32.1394 27.7056 32.153C27.9616 32.0956 28.2139 32.0166 28.4655 31.9432C28.5313 31.9033 28.6097 31.8771 28.7013 31.8645C28.7178 31.8616 28.7372 31.8671 28.7537 31.8645L28.782 31.8349C28.8996 31.8375 28.9599 31.7512 28.9633 31.576L28.9895 31.4449C28.9567 31.4357 28.9646 31.4165 28.9895 31.3924C28.9709 31.3759 28.9704 31.3572 28.9895 31.3399C29.0354 31.304 29.0147 31.214 29.0157 31.1563C29.0045 31.1364 28.9974 31.1191 29.0157 31.1039L29.042 30.9727C29.0076 30.9368 29.0197 30.8849 29.042 30.8416C29.0858 30.819 29.0648 30.7522 29.0682 30.7105C29.0522 30.5885 29.0648 30.4605 29.0944 30.3433C29.1364 30.3212 29.1199 30.2541 29.1207 30.2121C29.1062 30.1765 29.0921 30.1371 29.1207 30.1072L29.1469 29.9761C29.1272 29.9708 29.1283 29.9619 29.1469 29.9498C29.129 29.9336 29.129 29.915 29.1469 29.8974C29.1925 29.8614 29.1723 29.7712 29.1731 29.7138C29.1595 29.692 29.1595 29.6747 29.1731 29.6613C29.2201 29.6175 29.1983 29.5173 29.1993 29.4515C29.1896 29.4318 29.1818 29.4145 29.1993 29.399L29.2256 29.2417C29.1888 29.2291 29.192 29.1782 29.2256 29.163C29.2442 29.1042 29.2531 29.0431 29.2518 28.9794C29.2494 28.7869 29.2654 28.5925 29.3001 28.3963C29.3003 28.3937 29.3071 28.4026 29.2728 28.4092C29.1812 28.427 29.0808 28.4391 28.9898 28.4286C28.8898 28.4651 28.7818 28.49 28.6753 28.4811C28.5932 28.5091 28.5059 28.5264 28.4133 28.5335C28.2774 28.5382 28.2163 28.5844 28.0899 28.5613L27.3652 28.6909C27.3586 28.7037 27.3497 28.7027 27.339 28.6909C27.297 28.6914 27.2299 28.6754 27.2081 28.7171C27.1929 28.736 27.1756 28.7286 27.1556 28.7171C27.1137 28.7182 27.0468 28.7014 27.0248 28.7433C27.0182 28.7562 27.0093 28.7551 26.9985 28.7433C26.9566 28.7439 26.8894 28.7279 26.8676 28.7696C26.8637 28.7869 26.8545 28.7856 26.8414 28.7696C26.7853 28.7953 26.6778 28.8357 26.6319 28.7958C26.6164 28.8454 26.5238 28.8357 26.4747 28.822C26.3932 28.8325 26.2851 28.8401 26.2127 28.8745C26.2014 28.8957 26.1815 28.8871 26.1603 28.8745C26.101 28.9178 26.0018 28.9385 25.9245 28.9269C25.8946 28.9335 25.867 28.949 25.8458 28.9532C25.6121 28.9794 25.3763 29.0143 25.1384 29.0581C25.0959 29.0814 25.0513 29.0791 25.0075 29.0581V18.6717C27.5346 18.6688 30.0586 18.6777 32.5794 18.6979H32.5796Z" fill="#FEFEFE"/>
<path d="M24.9813 18.6978H24.9551V29.0579H24.9813V18.6978Z" fill="#FED90C"/>
<path d="M27.707 21.3469C27.7765 21.3553 27.7736 21.3794 27.707 21.3994C27.707 22.9114 27.707 24.4248 27.707 25.9371C27.7495 25.9337 27.797 25.9424 27.8382 25.9371C27.8597 25.9382 27.8702 25.9398 27.8644 25.9634C27.7988 25.9733 27.723 25.9723 27.6548 25.9896L27.6543 21.3629L27.7073 21.3472L27.707 21.3469Z" fill="#FED803"/>
<path d="M32.3445 21.3469C32.3416 21.3658 32.3576 21.4028 32.329 21.3999L27.707 21.3994V21.3469H32.3445Z" fill="#FEDC1D"/>
<path d="M32.5797 18.6716V18.6979L25.0078 18.6716H32.5797Z" fill="#FED700"/>
<path d="M24.9813 32.9136H24.9551V35.6938H24.9813V32.9136Z" fill="#FED90C"/>
<path d="M32.5008 19.983C32.4935 20.0059 32.4846 20.0056 32.4746 19.983C32.4746 19.9744 32.4746 19.9655 32.4746 19.9568L32.5008 19.747C32.504 19.3953 32.5617 19.0483 32.5795 18.6979V18.6716C32.6383 18.7301 32.5919 18.9363 32.6055 19.0255L32.5008 19.983Z" fill="#FEDB18"/>
<path d="M28.9916 28.4284C29.1044 28.4103 29.2203 28.4027 29.3323 28.3762C29.2982 28.575 29.2765 28.7788 29.2536 28.9792C29.255 29.0427 29.2463 29.1038 29.2274 29.1628C29.2258 29.1888 29.2277 29.2153 29.2274 29.2415C29.2261 29.2646 29.2175 29.2735 29.2012 29.2677C29.1938 29.2905 29.1849 29.2903 29.175 29.2677C29.1973 28.9894 29.2453 28.7059 29.2799 28.4287C29.1878 28.4504 29.079 28.4421 28.9916 28.4546C28.9688 28.4473 28.9691 28.4384 28.9916 28.4284Z" fill="#FEDB1A"/>
<path d="M31.4017 32.3364C31.4723 32.6123 31.3493 32.9187 31.3752 33.2017C31.3257 33.1752 31.3495 33.0443 31.3493 32.9921C31.3482 32.7689 31.3818 32.5573 31.4017 32.3364Z" fill="#FEDC1A"/>
<path d="M25.846 28.9531C25.6194 28.9987 25.3968 29.0504 25.1649 29.058H25.1387C25.305 29.0063 25.4828 28.9869 25.6543 28.958C25.7076 28.9491 25.8054 28.9103 25.846 28.9531Z" fill="#FEDD1F"/>
<path d="M31.3491 25.4124C31.2075 25.4798 31.0294 25.4701 30.8775 25.491C30.8295 25.4976 30.8033 25.4889 30.7988 25.4648C30.9811 25.4349 31.1825 25.4289 31.3491 25.4124Z" fill="#FDDC1E"/>
<path d="M28.9917 31.3923C28.9917 31.4096 28.993 31.4274 28.9917 31.4447L28.9654 31.5759C28.9521 31.654 28.9515 31.7364 28.9274 31.8132C28.9159 31.829 28.7884 31.8591 28.7559 31.8644C28.7351 31.7718 28.8849 31.8216 28.9096 31.782C28.9439 31.7267 28.9106 31.4657 28.9654 31.3923C28.9728 31.3694 28.9817 31.3697 28.9917 31.3923Z" fill="#FDDB1C"/>
<path d="M31.9776 26.3565C31.9702 26.3793 31.9613 26.379 31.9514 26.3565C31.9516 26.3478 31.9508 26.3389 31.9514 26.3302L31.9776 26.1991C31.981 26.1472 31.9734 26.0936 31.9776 26.0417C31.9952 26.0005 32.0041 25.9567 32.0038 25.9106C32.007 25.8673 32.0009 25.8227 32.0038 25.7794L32.03 25.727C32.0374 25.7042 32.0463 25.7044 32.0563 25.727L31.9776 26.3565Z" fill="#FEDC1C"/>
<path d="M31.7157 29.2417C31.7083 29.2645 31.6994 29.2643 31.6895 29.2417C31.6895 29.2331 31.6895 29.2241 31.6895 29.2155L31.7157 29.0057C31.7157 28.9794 31.7157 28.9532 31.7157 28.927L31.7419 28.7171C31.7419 28.6909 31.7419 28.6647 31.7419 28.6385C31.7451 28.6209 31.7474 28.6096 31.7681 28.6122C31.7755 28.5894 31.7844 28.5897 31.7944 28.6122L31.7157 29.2417Z" fill="#FEDD21"/>
<path d="M29.0959 30.3433C29.0985 30.4737 29.0801 30.5836 29.0697 30.7105C28.9957 30.5586 29.1024 30.3771 29.0699 30.2124C29.1171 30.2108 29.0951 30.3103 29.0959 30.3433Z" fill="#FEDB17"/>
<path d="M31.6377 30.1334C31.6264 30.1269 31.6177 30.1093 31.6114 30.081C31.6114 30.0634 31.6112 30.0461 31.6114 30.0285L31.6377 29.8712C31.6382 29.8274 31.6371 29.7838 31.6377 29.74C31.6408 29.7224 31.6429 29.7109 31.6639 29.7138C31.6712 29.691 31.6802 29.6912 31.6901 29.7138C31.682 29.8457 31.6668 30.0152 31.6377 30.1334Z" fill="#FDDD22"/>
<path d="M25.8209 35.4839C25.727 35.5148 25.6024 35.5791 25.4802 35.615C25.4086 35.604 25.4172 35.5912 25.4802 35.5626C25.5919 35.5319 25.706 35.502 25.8209 35.4839Z" fill="#FDDC21"/>
<path d="M31.3228 33.6742C31.3178 33.7805 31.2885 33.8817 31.2963 33.989C31.2722 33.9984 31.2478 33.9628 31.2441 33.9628C31.2557 33.8854 31.2594 33.8038 31.2704 33.7267C31.2746 33.702 31.2835 33.6845 31.2966 33.6742C31.3039 33.6514 31.3129 33.6517 31.3228 33.6742Z" fill="#FEDD22"/>
<path d="M28.2048 25.9106C28.0907 25.9271 27.9777 25.9458 27.8641 25.9631L27.8379 25.9368C27.9446 25.9229 28.0918 25.87 28.2048 25.8582C28.2743 25.8665 28.2714 25.8907 28.2048 25.9106Z" fill="#FDDC1A"/>
<path d="M28.7288 25.7795C28.7986 25.7882 28.7949 25.8108 28.7288 25.832C28.6438 25.8443 28.552 25.8459 28.4668 25.8582C28.4983 25.7945 28.6543 25.7856 28.7288 25.7795Z" fill="#FDDD22"/>
<path d="M26.6594 32.4414C26.5896 32.4608 26.5188 32.4749 26.4498 32.4938L26.3848 32.4678C26.4692 32.471 26.5841 32.3768 26.6596 32.4414H26.6594Z" fill="#FDDD23"/>
<path d="M28.6761 28.481C28.6973 28.4817 28.7078 28.4836 28.7023 28.5072C28.5796 28.5234 28.53 28.5295 28.4141 28.5334C28.4972 28.5067 28.5901 28.4938 28.6761 28.481Z" fill="#FDDD1F"/>
<path d="M27.5228 32.1792H27.549C27.4522 32.234 27.3397 32.2529 27.2346 32.2841C27.2353 32.2694 27.2285 32.2393 27.2359 32.2335C27.2474 32.2246 27.4803 32.1868 27.5228 32.1792Z" fill="#FEDB19"/>
<path d="M28.1515 34.8545C28.0736 34.8872 27.938 34.9693 27.8633 34.9069C27.9606 34.883 28.0469 34.8385 28.1515 34.8545Z" fill="#FDDC1B"/>
<path d="M25.4802 35.615C25.4018 35.638 25.3003 35.6491 25.2182 35.6674C25.1954 35.6601 25.1956 35.6512 25.2182 35.6412C25.305 35.6165 25.3931 35.5864 25.4802 35.5625V35.615Z" fill="#FDDA0E"/>
<path d="M26.1616 28.8745C26.1789 28.8774 26.1902 28.8805 26.1878 28.9007C26.1165 28.9162 25.9874 28.9857 25.9258 28.927C26.0016 28.9104 26.0845 28.8816 26.1616 28.8745Z" fill="#FEDD24"/>
<path d="M28.9903 28.4547C28.8953 28.4683 28.8009 28.494 28.702 28.5072L28.6758 28.4809C28.781 28.4652 28.8856 28.4453 28.9903 28.4285V28.4547Z" fill="#FDDC19"/>
<path d="M29.9071 34.3561C29.9074 34.3603 29.9297 34.3706 29.9336 34.3818C29.8476 34.3997 29.7558 34.4128 29.6713 34.4348C29.6485 34.4275 29.6488 34.4186 29.6713 34.4086C29.7489 34.3874 29.8226 34.3488 29.9071 34.3561Z" fill="#FDDA0E"/>
<path d="M31.8995 27.2482C31.8922 27.271 31.8832 27.2708 31.8733 27.2482C31.8733 27.2306 31.8728 27.2133 31.8733 27.1957L31.8995 27.0646C31.9006 27.0121 31.8985 26.9597 31.8995 26.9072C31.9695 27.0032 31.9087 27.1509 31.8995 27.2482Z" fill="#FEDB14"/>
<path d="M30.8777 25.4908C30.814 25.4997 30.7112 25.538 30.6419 25.5433C30.6241 25.5407 30.6128 25.538 30.6157 25.5171C30.6618 25.5089 30.7476 25.473 30.799 25.4646L30.8777 25.4908Z" fill="#FDDC1E"/>
<path d="M32.4241 21.0322C32.416 21.131 32.3771 21.2375 32.3976 21.3466C32.3501 21.3479 32.3727 21.2491 32.3716 21.2158C32.3701 21.1636 32.3706 21.1106 32.3716 21.0584C32.3745 21.0405 32.3769 21.0293 32.3979 21.0322C32.4052 21.0093 32.4141 21.0096 32.4241 21.0322Z" fill="#FEDB18"/>
<path d="M29.0427 30.8416C29.044 30.8851 29.0435 30.9292 29.0427 30.9727C29.0395 30.9924 29.0374 31.0042 29.0165 30.999C29.0091 31.0218 29.0002 31.0215 28.9902 30.999C28.9984 30.9082 29.0367 30.8114 29.0167 30.7107C29.0642 30.7094 29.0416 30.808 29.0427 30.8416Z" fill="#FDDB18"/>
<path d="M31.7944 25.3335C31.8699 25.3204 31.9617 25.2873 32.0427 25.2805L32.0561 25.3067C32.0328 25.3002 32.0139 25.3314 32.0039 25.3332C31.9882 25.3364 31.9683 25.3309 31.9515 25.3332L31.8206 25.3595C31.8119 25.3605 31.803 25.3584 31.7944 25.3595C31.7715 25.3521 31.7718 25.3432 31.7944 25.3332V25.3335Z" fill="#FEDC20"/>
<path d="M28.7024 31.8645C28.6352 31.9156 28.5455 31.9201 28.4666 31.9432C28.4451 31.8564 28.6302 31.8771 28.7024 31.8645Z" fill="#FED90C"/>
<path d="M31.7935 25.3335V25.3597C31.7222 25.3679 31.6614 25.3799 31.584 25.386C31.6328 25.3088 31.7264 25.345 31.7935 25.3335Z" fill="#FDD908"/>
<path d="M31.9263 26.6187C31.9838 26.695 31.94 26.8182 31.9523 26.9069C31.9048 26.9082 31.9274 26.8093 31.9263 26.776C31.9248 26.7238 31.9253 26.6708 31.9263 26.6187Z" fill="#FEDA14"/>
<path d="M31.5846 30.3169C31.6281 30.3442 31.6106 30.4163 31.6113 30.4609C31.6119 30.4942 31.6315 30.6046 31.5849 30.6054C31.5833 30.5532 31.5859 30.5005 31.5846 30.448C31.5835 30.4045 31.5841 30.3604 31.5846 30.3169Z" fill="#FDDB1A"/>
<path d="M29.1479 29.9499C29.1479 29.9585 29.1479 29.9675 29.1479 29.9761L29.1217 30.1072C29.1212 30.1421 29.1225 30.1773 29.1217 30.2122C29.0488 30.1442 29.1156 30.0136 29.1217 29.9499C29.129 29.9271 29.1379 29.9273 29.1479 29.9499Z" fill="#FEDC1A"/>
<path d="M31.5324 30.894C31.5759 30.9213 31.5583 30.9934 31.5591 31.038C31.5596 31.0713 31.5793 31.1818 31.5326 31.1826C31.531 31.1304 31.5337 31.0776 31.5324 31.0252C31.5313 30.9819 31.5305 30.9373 31.5324 30.894Z" fill="#FEDB16"/>
<path d="M26.8426 28.7695C26.8655 28.7769 26.8652 28.7858 26.8426 28.7958C26.7878 28.8052 26.6884 28.843 26.6331 28.8482C26.5636 28.8398 26.5665 28.8157 26.6331 28.7958C26.701 28.7879 26.78 28.7748 26.8426 28.7695Z" fill="#FDDC1D"/>
<path d="M29.6716 34.4347C29.6255 34.4467 29.5329 34.5236 29.4883 34.4609C29.5491 34.4444 29.611 34.425 29.6716 34.4084V34.4347Z" fill="#FEDA0D"/>
<path d="M26.9219 35.1954C26.8356 35.2251 26.7876 35.2279 26.7123 35.2479C26.6895 35.2405 26.6898 35.2316 26.7123 35.2216C26.7821 35.2051 26.8482 35.1852 26.9219 35.1954Z" fill="#FDDA0C"/>
<path d="M26.7107 35.2479C26.6661 35.2597 26.5811 35.3491 26.5273 35.2741C26.5882 35.2581 26.6506 35.2358 26.7107 35.2217V35.2479Z" fill="#FDD90C"/>
<path d="M25.2185 35.6676C25.1616 35.6804 25.0923 35.7552 25.0352 35.6938C25.0947 35.6718 25.1576 35.6587 25.2185 35.6414V35.6676Z" fill="#FDDA0D"/>
<path d="M31.9785 26.3565V26.6185H31.9525C31.9512 26.5749 31.9533 26.5311 31.9523 26.4873C31.9512 26.4435 31.9504 26.3995 31.9523 26.3562H31.9785V26.3565Z" fill="#FEDB14"/>
<path d="M30.8505 34.0938L30.8767 34.1197C30.8185 34.1155 30.7343 34.18 30.6934 34.12C30.7479 34.1053 30.8075 34.1053 30.8505 34.0938Z" fill="#FDDA0D"/>
<path d="M31.4789 31.4709C31.5208 31.4974 31.5069 31.5719 31.5056 31.6152C31.5046 31.6469 31.5242 31.7133 31.4791 31.707C31.4776 31.6548 31.4802 31.6021 31.4789 31.5496C31.4781 31.5234 31.4789 31.4972 31.4789 31.4709Z" fill="#FED803"/>
<path d="M31.4535 31.7595C31.4954 31.786 31.4815 31.8605 31.4802 31.9038C31.4792 31.9355 31.4988 32.0019 31.4537 31.9956C31.4522 31.9434 31.4548 31.8907 31.4535 31.8382C31.4527 31.812 31.4535 31.7857 31.4535 31.7595Z" fill="#FED803"/>
<path d="M31.7941 28.612H31.7679C31.7451 28.552 31.7482 28.4895 31.7679 28.4284C31.7679 28.4109 31.7679 28.3935 31.7679 28.376C31.8222 28.4297 31.7842 28.5381 31.7941 28.612Z" fill="#FED907"/>
<path d="M26.1883 32.5725C26.1389 32.5862 26.0949 32.5888 26.0574 32.5988C25.9087 32.599 26.1371 32.5198 26.1883 32.5725Z" fill="#FDDA0D"/>
<path d="M29.3321 34.5134C29.4808 34.5132 29.2523 34.5924 29.2012 34.5397C29.25 34.5263 29.2953 34.5234 29.3321 34.5134Z" fill="#FDDA0E"/>
<path d="M31.7952 28.0876C31.8371 28.1141 31.8232 28.1886 31.8219 28.2319C31.8209 28.2636 31.8406 28.33 31.7954 28.3237C31.7939 28.2629 31.7965 28.2012 31.7952 28.1401C31.7949 28.1225 31.7952 28.1052 31.7952 28.0876Z" fill="#FED907"/>
<path d="M31.8461 27.5105C31.888 27.537 31.8741 27.6115 31.8728 27.6548C31.8718 27.6865 31.8914 27.7528 31.8463 27.7466C31.8447 27.6944 31.8474 27.6416 31.8461 27.5892C31.8453 27.563 31.8461 27.5367 31.8461 27.5105Z" fill="#FDD803"/>
<path d="M31.5062 31.1824C31.5481 31.2089 31.5342 31.2834 31.5329 31.3266C31.5319 31.3584 31.5515 31.4247 31.5064 31.4184C31.5051 31.3662 31.5075 31.3135 31.5062 31.2611C31.5056 31.2348 31.5059 31.2086 31.5062 31.1824Z" fill="#FDD803"/>
<path d="M27.7068 32.153C27.6467 32.1664 27.6016 32.1692 27.5497 32.1792C27.5413 32.1808 27.5318 32.1776 27.5234 32.1792C27.5636 32.1477 27.6722 32.1037 27.7068 32.153Z" fill="#FDDA0E"/>
<path d="M31.8205 27.7991C31.8625 27.8256 31.8486 27.9001 31.8473 27.9433C31.8462 27.9751 31.8659 28.0414 31.8208 28.0351C31.8194 27.9743 31.8215 27.9126 31.8205 27.8515C31.8202 27.834 31.8205 27.8166 31.8205 27.7991Z" fill="#FED803"/>
<path d="M25.926 32.6512C25.8743 32.6648 25.8234 32.6806 25.7689 32.6774C25.7689 32.6756 25.7382 32.6814 25.7426 32.6515C25.8009 32.6557 25.885 32.5911 25.926 32.6512Z" fill="#FED90C"/>
<path d="M28.3622 25.8843C28.3089 25.8919 28.257 25.9029 28.2051 25.9105V25.8581C28.2505 25.8533 28.3373 25.8444 28.3622 25.8843Z" fill="#FED906"/>
<path d="M31.8995 27.2483C31.893 27.317 31.9045 27.3891 31.8993 27.4579H31.8736C31.872 27.397 31.8746 27.3354 31.8733 27.2745C31.8733 27.2659 31.8733 27.2569 31.8733 27.2483H31.8995Z" fill="#FED803"/>
<path d="M29.1744 29.6613C29.1749 29.6786 29.1744 29.6964 29.1744 29.7137C29.1214 29.6655 29.1568 29.5681 29.1484 29.5042H29.1741C29.1757 29.5563 29.1728 29.6091 29.1744 29.6613Z" fill="#FDD803"/>
<path d="M31.6901 29.7137H31.6639C31.6416 29.6712 31.645 29.6267 31.6639 29.5826C31.6639 29.5564 31.6636 29.5301 31.6639 29.5039C31.7072 29.5446 31.6941 29.6518 31.6901 29.7137Z" fill="#FED805"/>
<path d="M32.4497 20.2454C32.5027 20.2936 32.4673 20.3909 32.4757 20.4549H32.4499C32.4486 20.4203 32.4507 20.3849 32.4497 20.3503C32.4486 20.3157 32.4497 20.2802 32.4497 20.2454Z" fill="#FED803"/>
<path d="M29.1484 29.8973C29.1489 29.9147 29.1484 29.9325 29.1484 29.9498H29.1222C29.1285 29.8811 29.1174 29.8092 29.1224 29.7402H29.1481C29.15 29.7924 29.1466 29.8451 29.1484 29.8973Z" fill="#FED805"/>
<path d="M31.6379 30.1333C31.6418 30.1849 31.6355 30.2387 31.6376 30.2906H31.6119C31.6104 30.2471 31.613 30.2033 31.6117 30.1595C31.6109 30.1333 31.6117 30.107 31.6117 30.0808C31.6371 30.0879 31.6361 30.111 31.6379 30.1333Z" fill="#FED806"/>
<path d="M29.3845 25.7269C29.3672 25.7277 29.3496 25.7264 29.3321 25.7269H29.2012V25.701C29.257 25.7072 29.3449 25.6763 29.3845 25.7269Z" fill="#FEDB19"/>
<path d="M29.2007 29.399C29.2007 29.4165 29.2007 29.4338 29.2007 29.4514C29.159 29.4189 29.1703 29.3213 29.1745 29.2678H29.2007C29.2254 29.3001 29.2173 29.3594 29.2007 29.399Z" fill="#FED803"/>
<path d="M31.7159 29.2417V29.4253H31.69C31.6884 29.3818 31.691 29.3377 31.6897 29.2942C31.6892 29.2766 31.6897 29.2593 31.6897 29.2417H31.7159Z" fill="#FED804"/>
<path d="M32.0571 25.7271H32.0309C32.0057 25.699 32.016 25.6544 32.0309 25.6221C32.0314 25.5959 32.0309 25.5697 32.0309 25.5435C32.0807 25.5807 32.0508 25.6696 32.0571 25.7271Z" fill="#FED802"/>
<path d="M26.6337 28.8481C26.5878 28.8526 26.502 28.862 26.4766 28.8219C26.5322 28.8148 26.5888 28.8009 26.6337 28.7957V28.8481Z" fill="#FED907"/>
<path d="M30.6161 25.5171L30.6423 25.5434C30.6087 25.546 30.5712 25.5447 30.5374 25.5434C30.5112 25.5423 30.485 25.5444 30.459 25.5431V25.5174C30.5086 25.5108 30.5694 25.5253 30.6161 25.5171Z" fill="#FED804"/>
<path d="M32.4234 21.0322H32.3972C32.3697 21.0186 32.382 20.9593 32.3972 20.9273C32.3972 20.9011 32.3969 20.8749 32.3972 20.8486C32.4389 20.8812 32.4279 20.9787 32.4234 21.0322Z" fill="#FDD804"/>
<path d="M32.4222 20.5601C32.4728 20.5997 32.4419 20.6875 32.4482 20.7434H32.4225C32.4209 20.7088 32.4235 20.6734 32.4222 20.6387C32.4214 20.6125 32.4222 20.5863 32.4222 20.5601Z" fill="#FED802"/>
<path d="M32.5011 19.9829V20.1665H32.4751C32.4736 20.123 32.4762 20.0789 32.4749 20.0354C32.4743 20.0178 32.4749 20.0005 32.4749 19.9829H32.5011Z" fill="#FDD806"/>
<path d="M28.8594 25.8057C28.8132 25.8122 28.7705 25.8259 28.7285 25.8319V25.7794C28.7689 25.7763 28.8392 25.7669 28.8594 25.8057Z" fill="#FED802"/>
<path d="M31.3224 33.6741H31.2962C31.2734 33.6426 31.2794 33.6022 31.2962 33.5692C31.2983 33.5432 31.2941 33.5164 31.2962 33.4905C31.3392 33.5246 31.325 33.6187 31.3224 33.6741Z" fill="#FDD902"/>
<path d="M27.2087 28.7171C27.2436 28.7184 27.2787 28.7158 27.3134 28.7174V28.7431C27.2654 28.7389 27.1875 28.7646 27.1562 28.7171C27.1736 28.7168 27.1914 28.7166 27.2087 28.7171Z" fill="#FDD804"/>
<path d="M30.0907 25.622C30.0734 25.6222 30.0556 25.6225 30.0382 25.622C30.0034 25.6207 29.9682 25.6233 29.9336 25.6217V25.596C29.9816 25.6002 30.0595 25.5745 30.0907 25.622Z" fill="#FED805"/>
<path d="M25.1387 29.0581C25.1473 29.0581 25.1563 29.0584 25.1649 29.0581C25.1411 29.0988 25.0228 29.1024 25.0078 29.0581C25.0514 29.0581 25.0952 29.0581 25.1387 29.0581Z" fill="#FDD908"/>
<path d="M29.0168 31.1037C29.0165 31.1213 29.017 31.1386 29.0168 31.1561C28.9764 31.1304 28.9863 31.0449 28.9905 30.9988H29.0168C29.0422 31.0213 29.032 31.0704 29.0168 31.1037Z" fill="#FED806"/>
<path d="M28.9911 31.3398C28.9919 31.3571 28.9911 31.3749 28.9911 31.3922H28.9648V31.2349H28.9908C28.9924 31.2695 28.9898 31.3049 28.9911 31.3395V31.3398Z" fill="#FED804"/>
<path d="M30.2481 25.5957C30.2394 25.5963 30.2305 25.5952 30.2218 25.5957H30.1172V25.5698C30.1578 25.5721 30.2247 25.5519 30.2481 25.5957Z" fill="#FED803"/>
<path d="M26.2146 28.8745C26.2408 28.8745 26.267 28.874 26.293 28.8747V28.9004C26.2602 28.9054 26.2182 28.8941 26.1883 28.9007L26.1621 28.8745C26.1792 28.8729 26.1973 28.8745 26.2146 28.8745Z" fill="#FED906"/>
<path d="M27.0262 28.7433C27.0611 28.7444 27.0963 28.7423 27.1309 28.7436V28.7693C27.0902 28.767 27.0233 28.7871 27 28.7433C27.0087 28.7433 27.0176 28.7431 27.0262 28.7433Z" fill="#FED803"/>
<path d="M27.3661 28.6909C27.401 28.6919 27.4361 28.6898 27.4707 28.6911V28.7168C27.4301 28.7145 27.3632 28.7347 27.3398 28.6909C27.3485 28.6909 27.3574 28.6906 27.3661 28.6909Z" fill="#FED803"/>
<path d="M26.868 28.7695H26.9727V28.7955C26.931 28.8008 26.8811 28.789 26.8418 28.7958V28.7695C26.8505 28.7688 26.8594 28.7701 26.868 28.7695Z" fill="#FDD804"/>
<path d="M31.7152 28.9269C31.7157 28.8613 31.6947 28.7606 31.7414 28.717C31.7409 28.7826 31.7619 28.8833 31.7152 28.9269Z" fill="#FEDD25"/>
<path d="M31.6897 29.2154C31.6905 29.1496 31.6692 29.0492 31.7159 29.0056C31.7154 29.0712 31.7364 29.1719 31.6897 29.2154Z" fill="#FEDD25"/>
<path d="M31.7688 28.6121L31.7425 28.6383C31.7431 28.5727 31.7221 28.472 31.7688 28.4285C31.7688 28.4896 31.7688 28.551 31.7688 28.6121Z" fill="#FEDD25"/>
<path d="M32.4749 19.9569C32.4757 19.8911 32.4542 19.7906 32.5012 19.7471C32.5007 19.8126 32.5216 19.9134 32.4749 19.9569Z" fill="#FEDD25"/>
<path d="M29.2266 29.1628C29.231 29.0865 29.2465 29.0338 29.2528 28.9792C29.2465 29.0367 29.2764 29.1256 29.2266 29.1628Z" fill="#FEDD25"/>
<path d="M31.2967 33.6742C31.2925 33.7204 31.271 33.7238 31.2705 33.7267C31.2742 33.6774 31.2503 33.5987 31.2967 33.5693C31.2939 33.604 31.2999 33.6399 31.2967 33.6742Z" fill="#FEDD25"/>
<path d="M32.0292 25.727C32.0276 25.7493 32.0284 25.7724 32.0029 25.7794C32.0061 25.7299 31.9833 25.6512 32.0292 25.6221C32.0286 25.657 32.0315 25.6924 32.0292 25.727Z" fill="#FEDD25"/>
<path d="M29.2012 29.3991C29.2017 29.3566 29.1965 29.3081 29.2012 29.2679C29.202 29.2616 29.2211 29.2504 29.2274 29.2417C29.2269 29.2913 29.2453 29.3705 29.2012 29.3991Z" fill="#FEDD25"/>
<path d="M31.6624 29.7137L31.6362 29.7399C31.6367 29.6903 31.6183 29.6111 31.6624 29.5825C31.6624 29.6263 31.6624 29.6699 31.6624 29.7137Z" fill="#FEDD25"/>
<path d="M31.6107 30.0285C31.6115 29.9789 31.5928 29.8997 31.6369 29.8711C31.6361 29.9207 31.6547 29.9999 31.6107 30.0285Z" fill="#FEDD25"/>
<path d="M31.8735 27.1958C31.8746 27.1539 31.8578 27.0867 31.8998 27.0647C31.899 27.1067 31.9155 27.1738 31.8735 27.1958Z" fill="#FEDD25"/>
<path d="M31.9512 26.3304C31.9538 26.2719 31.9766 26.2121 31.9774 26.1992C31.9758 26.2412 31.9937 26.3081 31.9512 26.3304Z" fill="#FEDD25"/>
<path d="M31.9785 26.0418C31.983 25.9888 32.0037 25.9235 32.0047 25.9106C32.0032 25.9526 32.021 26.0195 31.9785 26.0418Z" fill="#FEDD25"/>
<path d="M31.9512 25.3336C31.9286 25.3787 31.861 25.3549 31.8203 25.3599C31.8429 25.3142 31.9111 25.3394 31.9512 25.3336Z" fill="#FEDD25"/>
<path d="M29.1216 30.1072C29.1224 30.0653 29.1061 29.9981 29.1478 29.9761C29.1468 30.018 29.1636 30.0852 29.1216 30.1072Z" fill="#FEDD25"/>
<path d="M29.0173 31.1038C29.0181 31.0697 29.0131 31.0309 29.0173 30.9989C29.0181 30.9923 29.0373 30.9813 29.0436 30.9727C29.0428 31.0146 29.0593 31.0818 29.0173 31.1038Z" fill="#FEDD25"/>
<path d="M32.3979 21.0322L32.3717 21.0584C32.3725 21.0164 32.356 20.9493 32.3979 20.9272V21.0322Z" fill="#FEDD25"/>
<path d="M28.9653 31.576C28.9669 31.534 28.949 31.4671 28.9915 31.4448C28.9868 31.5101 28.9726 31.5327 28.9653 31.576Z" fill="#FEDD25"/>
</g>
<defs>
<clipPath id="clip0_123_990">
<rect width="24.1468" height="34" fill="white" transform="translate(12 7)"/>
</clipPath>
</defs>
</svg>
