<svg width="48" height="48" viewBox="0 0 48 48" fill="none" xmlns="http://www.w3.org/2000/svg">
<rect width="48" height="48" fill="#E4E8ED"/>
<g clip-path="url(#clip0_123_988)">
<path d="M23.9152 41.0001L14.1676 38.2746L12 13.6726H36L33.8336 38.2763L24.0424 41.0001H23.9152Z" fill="#E34D26"/>
<path d="M25.8242 7L25.9531 7.0493L26.7842 8.40547L27.6454 7.04547L27.7747 7H29.386V11.59H27.8595V9.3375L26.7787 10.91L25.7394 9.3375V11.59H24.2765L24.2129 7H25.8242Z" fill="black"/>
<path d="M15.7312 7L15.8227 7.10242C15.8172 7.5882 15.8075 8.06377 15.7948 8.53C15.7986 8.49685 15.8088 8.44797 15.8333 8.445C16.0797 8.41652 16.8298 8.411 17.0685 8.445L17.1309 8.53C17.0978 8.52107 17.0482 8.50662 17.0461 8.48027C17.0194 8.17002 17.0015 7.3502 17.0461 7.06247L17.1309 7H18.6574V11.59H17.1945C17.1898 11.59 17.1309 11.5309 17.1309 11.5262V10.06H15.774V11.59H14.2051V7H15.7316H15.7312Z" fill="black"/>
<path d="M23.5762 7V8.53H22.2193V11.59H20.6928V8.53H19.3359V7H23.5762Z" fill="black"/>
<path d="M31.6749 7V10.06H33.8375V11.59H30.1484V7H31.6749Z" fill="black"/>
<path d="M23.9997 18.6874V15.7124H33.8372L31.952 36.6666L24.0002 38.9174L23.9573 35.7724C23.9692 35.7354 23.9836 35.7359 23.9997 35.7724L24.0269 35.6768L30.0426 34.0061C30.3462 31.0209 30.6421 27.8725 30.8694 24.8869L30.925 24.8639C28.617 24.9081 26.3056 24.9332 23.9997 24.8074C23.9047 23.818 23.9031 22.8248 23.9204 21.832H19.8108L19.7594 21.7474C19.731 21.7202 19.7213 21.6892 19.734 21.6548C21.0888 21.5613 22.5992 21.5778 23.9997 21.7049L24.029 21.6199H31.17L31.416 18.7737L31.505 18.7299C29.0478 18.707 26.546 18.6929 23.9997 18.6874Z" fill="#F06529"/>
<path d="M24.0001 18.6875C26.423 18.6875 28.8498 18.6612 31.2727 18.6867C31.3443 18.6875 31.4613 18.6595 31.5054 18.73L31.4758 18.815L24.085 18.8244V21.654L24.0006 21.705C22.6657 21.705 21.3279 21.6901 19.9931 21.7042C19.9214 21.705 19.8044 21.677 19.7603 21.7475L19.8481 21.7794L20.0927 24.7225C21.3975 24.6919 22.7001 24.7204 24.0006 24.8075C24.1066 25.8122 24.1057 26.8199 24.0006 27.825C21.7536 27.8233 19.505 27.8263 17.2585 27.825L16.4512 18.7933L16.4775 18.6862L24.0006 18.6871L24.0001 18.6875Z" fill="#EAEAEA"/>
<path d="M24.0005 32.6274C24.0123 32.5905 24.0267 32.5909 24.0429 32.6274L24.1272 32.6678C24.1137 33.6857 24.0997 34.704 24.0861 35.7223L24.0005 35.772H23.9581L17.8139 34.0678L17.4492 29.312H20.375C20.4967 29.312 20.5484 31.5356 20.6684 31.7379L24.0005 32.627V32.6274Z" fill="#EAEAEA"/>
<path d="M24 27.8249C25.2373 27.7319 26.478 27.711 27.7175 27.7705L27.7709 27.8615L27.4202 31.6933C27.4194 31.7226 27.4105 31.7507 27.3935 31.7757C27.2968 31.9168 24.5262 32.5951 24.1141 32.6959L24.0424 32.6274H24V27.8249Z" fill="#F06529"/>
<path d="M24 24.8075C26.3173 24.8105 28.6367 24.8058 30.9545 24.8075L30.9562 25.1288L30.1429 34.067L24 35.7729L24.0424 32.6279L27.3312 31.738L27.689 27.825C26.4598 27.825 25.2288 27.8263 24 27.825C24 26.8199 24.0013 25.8126 24 24.8075Z" fill="#FEFEFE"/>
<path d="M31.5057 18.7299L31.2513 21.7053L24.0004 21.7049L24 18.7295L31.5057 18.7299Z" fill="#FEFEFE"/>
<path d="M19.7598 21.7475H24.0005C24.0009 22.7666 23.9992 23.7879 24.0005 24.8075C22.6724 24.8058 21.3422 24.8083 20.0146 24.8075L19.7602 21.7471L19.7598 21.7475Z" fill="#E34D26"/>
</g>
<defs>
<clipPath id="clip0_123_988">
<rect width="24" height="34" fill="white" transform="translate(12 7)"/>
</clipPath>
</defs>
</svg>
